<?xml version="1.0" encoding="UTF-8" standalone="no"?>
<!-- Created with Inkscape (http://www.inkscape.org/) -->

<svg
   width="71.239998"
   height="71.239998"
   viewBox="0 0 18.848916 18.848916"
   version="1.1"
   id="svg1"
   xmlns:xlink="http://www.w3.org/1999/xlink"
   xmlns="http://www.w3.org/2000/svg"
   xmlns:svg="http://www.w3.org/2000/svg">
  <defs
     id="defs1">
    <linearGradient
       id="linearGradient2">
      <stop
         style="stop-color:#e8b10b;stop-opacity:1;"
         offset="0"
         id="stop2" />
      <stop
         style="stop-color:#ffff52;stop-opacity:1;"
         offset="1"
         id="stop3" />
    </linearGradient>
    <filter
       style="color-interpolation-filters:sRGB"
       id="filter2"
       x="-0.048"
       y="-0.048"
       width="1.096"
       height="1.096">
      <feGaussianBlur
         stdDeviation="0.34395832"
         id="feGaussianBlur2" />
    </filter>
    <linearGradient
       xlink:href="#linearGradient2"
       id="linearGradient3"
       x1="27.715433"
       y1="27.445202"
       x2="27.733309"
       y2="10.247285"
       gradientUnits="userSpaceOnUse" />
  </defs>
  <g
     id="layer1"
     transform="translate(-18.308852,-9.421785)">
    <path
       style="display:inline;fill:#ffff66;fill-opacity:1;stroke-width:75.1941;stroke-linecap:round;stroke-linejoin:round;paint-order:markers stroke fill;filter:url(#filter2)"
       d="m 21.618727,12.23166 h 0.984375 c 0.320145,0 0.627177,-0.127177 0.853553,-0.353553 l 1.277269,-1.277269 c 0.13047,-0.13047 0.03807,-0.353553 -0.146447,-0.353553 h -3.46875 c -1.09594,0 -1.984375,0.888435 -1.984375,1.984375 v 3.46875 c 0,0.184512 0.223083,0.276917 0.353553,0.146447 l 1.277269,-1.277269 c 0.226376,-0.226376 0.353553,-0.533408 0.353553,-0.853553 V 12.73166 c 0,-0.276142 0.223858,-0.5 0.5,-0.5 z m -0.5,12.729166 v -0.984375 c 0,-0.320145 -0.127177,-0.627177 -0.353553,-0.853553 l -1.277269,-1.277269 c -0.13047,-0.13047 -0.353553,-0.03806 -0.353553,0.146447 v 3.46875 c 0,1.09594 0.888435,1.984375 1.984375,1.984375 h 3.46875 c 0.184512,0 0.276917,-0.223083 0.146447,-0.353553 l -1.277269,-1.277269 c -0.226376,-0.226376 -0.533408,-0.353553 -0.853553,-0.353553 h -0.984375 c -0.276142,0 -0.5,-0.223858 -0.5,-0.5 z m 12.729166,0.5 h -0.984375 c -0.320145,0 -0.627177,0.127177 -0.853553,0.353553 l -1.277269,1.277269 c -0.13047,0.13047 -0.03806,0.353553 0.146447,0.353553 h 3.46875 c 1.09594,0 1.984375,-0.888435 1.984375,-1.984375 v -3.46875 c 0,-0.184512 -0.223083,-0.276917 -0.353553,-0.146447 l -1.277269,1.277269 c -0.226376,0.226376 -0.353553,0.533408 -0.353553,0.853553 v 0.984375 c 0,0.276142 -0.223858,0.5 -0.5,0.5 z m 0.5,-12.729166 v 0.984375 c 0,0.320145 0.127177,0.627177 0.353553,0.853553 l 1.277269,1.277269 c 0.13047,0.13047 0.353553,0.03806 0.353553,-0.146447 v -3.46875 c 0,-1.09594 -0.888435,-1.984375 -1.984375,-1.984375 h -3.46875 c -0.184512,0 -0.276917,0.223083 -0.146447,0.353553 l 1.277269,1.277269 c 0.226376,0.226376 0.533408,0.353553 0.853553,0.353553 h 0.984375 c 0.276142,0 0.5,0.223858 0.5,0.5 z"
       id="path1-5" />
    <path
       style="opacity:1;fill:url(#linearGradient3);stroke-width:75.1941;stroke-linecap:round;stroke-linejoin:round;paint-order:markers stroke fill"
       d="m 21.618727,12.23166 h 0.984375 c 0.320145,0 0.627177,-0.127177 0.853553,-0.353553 l 1.277269,-1.277269 c 0.13047,-0.13047 0.03807,-0.353553 -0.146447,-0.353553 h -3.46875 c -1.09594,0 -1.984375,0.888435 -1.984375,1.984375 v 3.46875 c 0,0.184512 0.223083,0.276917 0.353553,0.146447 l 1.277269,-1.277269 c 0.226376,-0.226376 0.353553,-0.533408 0.353553,-0.853553 V 12.73166 c 0,-0.276142 0.223858,-0.5 0.5,-0.5 z m -0.5,12.729166 v -0.984375 c 0,-0.320145 -0.127177,-0.627177 -0.353553,-0.853553 l -1.277269,-1.277269 c -0.13047,-0.13047 -0.353553,-0.03806 -0.353553,0.146447 v 3.46875 c 0,1.09594 0.888435,1.984375 1.984375,1.984375 h 3.46875 c 0.184512,0 0.276917,-0.223083 0.146447,-0.353553 l -1.277269,-1.277269 c -0.226376,-0.226376 -0.533408,-0.353553 -0.853553,-0.353553 h -0.984375 c -0.276142,0 -0.5,-0.223858 -0.5,-0.5 z m 12.729166,0.5 h -0.984375 c -0.320145,0 -0.627177,0.127177 -0.853553,0.353553 l -1.277269,1.277269 c -0.13047,0.13047 -0.03806,0.353553 0.146447,0.353553 h 3.46875 c 1.09594,0 1.984375,-0.888435 1.984375,-1.984375 v -3.46875 c 0,-0.184512 -0.223083,-0.276917 -0.353553,-0.146447 l -1.277269,1.277269 c -0.226376,0.226376 -0.353553,0.533408 -0.353553,0.853553 v 0.984375 c 0,0.276142 -0.223858,0.5 -0.5,0.5 z m 0.5,-12.729166 v 0.984375 c 0,0.320145 0.127177,0.627177 0.353553,0.853553 l 1.277269,1.277269 c 0.13047,0.13047 0.353553,0.03806 0.353553,-0.146447 v -3.46875 c 0,-1.09594 -0.888435,-1.984375 -1.984375,-1.984375 h -3.46875 c -0.184512,0 -0.276917,0.223083 -0.146447,0.353553 l 1.277269,1.277269 c 0.226376,0.226376 0.533408,0.353553 0.853553,0.353553 h 0.984375 c 0.276142,0 0.5,0.223858 0.5,0.5 z"
       id="path1" />
  </g>
</svg>
