<?xml version="1.0" encoding="UTF-8" standalone="no"?>
<!-- Created with Inkscape (http://www.inkscape.org/) -->

<svg
   width="718.00916mm"
   height="343.95834mm"
   viewBox="0 0 718.00914 343.95834"
   version="1.1"
   id="svg1"
   xmlns="http://www.w3.org/2000/svg"
   xmlns:svg="http://www.w3.org/2000/svg">
  <defs
     id="defs1" />
  <g
     id="layer1"
     transform="translate(12.731422)">
    <g
       id="g56"
       style="opacity:0.4"
       transform="matrix(1,0,-0.08748866,1,17.361032,0)">
      <path
         style="fill:#000000;stroke-width:30.0776;stroke-linecap:round;stroke-linejoin:round;paint-order:markers stroke fill"
         id="path40"
         width="5.2916665"
         height="5.2916665"
         x="3.96875"
         y="17.197916"
         d="m 5.96875,17.197916 h 1.2916665 c 1.1045695,0 2,0.895431 2,2 v 1.291667 c 0,1.104569 -0.8954305,2 -2,2 H 5.96875 c -1.1045695,0 -2,-0.895431 -2,-2 v -1.291667 c 0,-1.104569 0.8954305,-2 2,-2 z m 675.9792,0 h -1.29167 c -1.10456,0 -2,0.895431 -2,2 v 1.291667 c 0,1.104569 0.89544,2 2,2 h 1.29167 c 1.10457,0 2,-0.895431 2,-2 v -1.291667 c 0,-1.104569 -0.89543,-2 -2,-2 z M 5.96875,43.65625 h 1.2916665 c 1.1045695,0 2,0.895431 2,2 v 1.291667 c 0,1.104569 -0.8954305,2 -2,2 H 5.96875 c -1.1045695,0 -2,-0.895431 -2,-2 V 45.65625 c 0,-1.104569 0.8954305,-2 2,-2 z m 675.9792,0 h -1.29167 c -1.10456,0 -2,0.895431 -2,2 v 1.291667 c 0,1.104569 0.89544,2 2,2 h 1.29167 c 1.10457,0 2,-0.895431 2,-2 V 45.65625 c 0,-1.104569 -0.89543,-2 -2,-2 z M 5.96875,70.114584 h 1.2916665 c 1.1045695,0 2,0.895431 2,2 v 1.291667 c 0,1.104569 -0.8954305,2 -2,2 H 5.96875 c -1.1045695,0 -2,-0.895431 -2,-2 v -1.291667 c 0,-1.104569 0.8954305,-2 2,-2 z m 675.9792,0 h -1.29167 c -1.10456,0 -2,0.895431 -2,2 v 1.291667 c 0,1.104569 0.89544,2 2,2 h 1.29167 c 1.10457,0 2,-0.895431 2,-2 v -1.291667 c 0,-1.104569 -0.89543,-2 -2,-2 z M 5.96875,96.572918 h 1.2916665 c 1.1045695,0 2,0.895431 2,2 v 1.291667 c 0,1.104565 -0.8954305,1.999995 -2,1.999995 H 5.96875 c -1.1045695,0 -2,-0.89543 -2,-1.999995 v -1.291667 c 0,-1.104569 0.8954305,-2 2,-2 z m 675.9792,0 h -1.29167 c -1.10456,0 -2,0.895431 -2,2 v 1.291667 c 0,1.104565 0.89544,1.999995 2,1.999995 h 1.29167 c 1.10457,0 2,-0.89543 2,-1.999995 v -1.291667 c 0,-1.104569 -0.89543,-2 -2,-2 z M 5.96875,123.03125 h 1.2916665 c 1.1045695,0 2,0.89543 2,2 v 1.29167 c 0,1.10457 -0.8954305,2 -2,2 H 5.96875 c -1.1045695,0 -2,-0.89543 -2,-2 v -1.29167 c 0,-1.10457 0.8954305,-2 2,-2 z m 675.9792,0 h -1.29167 c -1.10456,0 -2,0.89543 -2,2 v 1.29167 c 0,1.10457 0.89544,2 2,2 h 1.29167 c 1.10457,0 2,-0.89543 2,-2 v -1.29167 c 0,-1.10457 -0.89543,-2 -2,-2 z M 5.96875,149.48959 h 1.2916665 c 1.1045695,0 2,0.89543 2,2 v 1.29166 c 0,1.10457 -0.8954305,2 -2,2 H 5.96875 c -1.1045695,0 -2,-0.89543 -2,-2 v -1.29166 c 0,-1.10457 0.8954305,-2 2,-2 z m 675.9792,0 h -1.29167 c -1.10456,0 -2,0.89543 -2,2 v 1.29166 c 0,1.10457 0.89544,2 2,2 h 1.29167 c 1.10457,0 2,-0.89543 2,-2 v -1.29166 c 0,-1.10457 -0.89543,-2 -2,-2 z M 5.96875,175.94792 h 1.2916665 c 1.1045695,0 2,0.89543 2,2 v 1.29167 c 0,1.10457 -0.8954305,2 -2,2 H 5.96875 c -1.1045695,0 -2,-0.89543 -2,-2 v -1.29167 c 0,-1.10457 0.8954305,-2 2,-2 z m 675.9792,0 h -1.29167 c -1.10456,0 -2,0.89543 -2,2 v 1.29167 c 0,1.10457 0.89544,2 2,2 h 1.29167 c 1.10457,0 2,-0.89543 2,-2 v -1.29167 c 0,-1.10457 -0.89543,-2 -2,-2 z M 5.96875,202.40625 h 1.2916665 c 1.1045695,0 2,0.89543 2,2 v 1.29167 c 0,1.10457 -0.8954305,2 -2,2 H 5.96875 c -1.1045695,0 -2,-0.89543 -2,-2 v -1.29167 c 0,-1.10457 0.8954305,-2 2,-2 z m 675.9792,0 h -1.29167 c -1.10456,0 -2,0.89543 -2,2 v 1.29167 c 0,1.10457 0.89544,2 2,2 h 1.29167 c 1.10457,0 2,-0.89543 2,-2 v -1.29167 c 0,-1.10457 -0.89543,-2 -2,-2 z M 5.96875,228.86459 h 1.2916665 c 1.1045695,0 2,0.89543 2,2 v 1.29166 c 0,1.10457 -0.8954305,2 -2,2 H 5.96875 c -1.1045695,0 -2,-0.89543 -2,-2 v -1.29166 c 0,-1.10457 0.8954305,-2 2,-2 z m 675.9792,0 h -1.29167 c -1.10456,0 -2,0.89543 -2,2 v 1.29166 c 0,1.10457 0.89544,2 2,2 h 1.29167 c 1.10457,0 2,-0.89543 2,-2 v -1.29166 c 0,-1.10457 -0.89543,-2 -2,-2 z M 5.96875,255.32292 h 1.2916665 c 1.1045695,0 2,0.89543 2,2 v 1.29167 c 0,1.10457 -0.8954305,2 -2,2 H 5.96875 c -1.1045695,0 -2,-0.89543 -2,-2 v -1.29167 c 0,-1.10457 0.8954305,-2 2,-2 z m 675.9792,0 h -1.29167 c -1.10456,0 -2,0.89543 -2,2 v 1.29167 c 0,1.10457 0.89544,2 2,2 h 1.29167 c 1.10457,0 2,-0.89543 2,-2 v -1.29167 c 0,-1.10457 -0.89543,-2 -2,-2 z M 5.96875,281.78126 h 1.2916665 c 1.1045695,0 2,0.89543 2,2 v 1.29166 c 0,1.10457 -0.8954305,2 -2,2 H 5.96875 c -1.1045695,0 -2,-0.89543 -2,-2 v -1.29166 c 0,-1.10457 0.8954305,-2 2,-2 z m 675.9792,0 h -1.29167 c -1.10456,0 -2,0.89543 -2,2 v 1.29166 c 0,1.10457 0.89544,2 2,2 h 1.29167 c 1.10457,0 2,-0.89543 2,-2 v -1.29166 c 0,-1.10457 -0.89543,-2 -2,-2 z M 5.96875,308.23959 h 1.2916665 c 1.1045695,0 2,0.89543 2,2 v 1.29167 c 0,1.10457 -0.8954305,2 -2,2 H 5.96875 c -1.1045695,0 -2,-0.89543 -2,-2 v -1.29167 c 0,-1.10457 0.8954305,-2 2,-2 z m 675.9792,0 h -1.29167 c -1.10456,0 -2,0.89543 -2,2 v 1.29167 c 0,1.10457 0.89544,2 2,2 h 1.29167 c 1.10457,0 2,-0.89543 2,-2 v -1.29167 c 0,-1.10457 -0.89543,-2 -2,-2 z M 5.96875,334.69792 h 1.2916665 c 1.1045695,0 2,0.89543 2,2 v 1.29167 c 0,1.10457 -0.8954305,2 -2,2 H 5.96875 c -1.1045695,0 -2,-0.89543 -2,-2 v -1.29167 c 0,-1.10457 0.8954305,-2 2,-2 z m 675.9792,0 h -1.29167 c -1.10456,0 -2,0.89543 -2,2 v 1.29167 c 0,1.10457 0.89544,2 2,2 h 1.29167 c 1.10457,0 2,-0.89543 2,-2 v -1.29167 c 0,-1.10457 -0.89543,-2 -2,-2 z"
         transform="translate(-1.0583334e-5)" />
      <path
         style="fill:#000000;stroke-width:60.1552;stroke-linecap:round;stroke-linejoin:round;paint-order:markers stroke fill"
         id="path41"
         width="10.583333"
         height="10.583333"
         x="27.78125"
         y="14.552083"
         d="m 29.78125,14.552083 h 6.583333 c 1.10457,0 2,0.895431 2,2 v 6.583333 c 0,1.10457 -0.89543,2 -2,2 l -6.583333,0 c -1.104569,0 -2,-0.89543 -2,-2 v -6.583333 c 0,-1.104569 0.895431,-2 2,-2 z m 628.3542,0 h -6.58333 c -1.10457,0 -2,0.895431 -2,2 v 6.583333 c 0,1.10457 0.89543,2 2,2 l 6.58333,0 c 1.10457,0 2,-0.89543 2,-2 v -6.583333 c 0,-1.104569 -0.89543,-2 -2,-2 z M 29.78125,41.010417 h 6.583333 c 1.10457,0 2,0.895431 2,2 v 6.583333 c 0,1.10457 -0.89543,2 -2,2 l -6.583333,0 c -1.104569,0 -2,-0.89543 -2,-2 v -6.583333 c 0,-1.104569 0.895431,-2 2,-2 z m 628.3542,0 h -6.58333 c -1.10457,0 -2,0.895431 -2,2 v 6.583333 c 0,1.10457 0.89543,2 2,2 l 6.58333,0 c 1.10457,0 2,-0.89543 2,-2 v -6.583333 c 0,-1.104569 -0.89543,-2 -2,-2 z M 29.78125,67.468751 h 6.583333 c 1.10457,0 2,0.895431 2,2 v 6.583333 c 0,1.10457 -0.89543,2 -2,2 H 29.78125 c -1.104569,0 -2,-0.89543 -2,-2 v -6.583333 c 0,-1.104569 0.895431,-2 2,-2 z m 628.3542,0 h -6.58333 c -1.10457,0 -2,0.895431 -2,2 v 6.583333 c 0,1.10457 0.89543,2 2,2 h 6.58333 c 1.10457,0 2,-0.89543 2,-2 v -6.583333 c 0,-1.104569 -0.89543,-2 -2,-2 z M 29.78125,93.927085 h 6.583333 c 1.10457,0 2,0.895431 2,2 v 6.583335 c 0,1.10457 -0.89543,2 -2,2 H 29.78125 c -1.104569,0 -2,-0.89543 -2,-2 v -6.583335 c 0,-1.104569 0.895431,-2 2,-2 z m 628.3542,0 h -6.58333 c -1.10457,0 -2,0.895431 -2,2 v 6.583335 c 0,1.10457 0.89543,2 2,2 h 6.58333 c 1.10457,0 2,-0.89543 2,-2 v -6.583335 c 0,-1.104569 -0.89543,-2 -2,-2 z M 29.78125,120.38542 h 6.583333 c 1.10457,0 2,0.89543 2,2 v 6.58333 c 0,1.10457 -0.89543,2 -2,2 H 29.78125 c -1.104569,0 -2,-0.89543 -2,-2 v -6.58333 c 0,-1.10457 0.895431,-2 2,-2 z m 628.3542,0 h -6.58333 c -1.10457,0 -2,0.89543 -2,2 v 6.58333 c 0,1.10457 0.89543,2 2,2 h 6.58333 c 1.10457,0 2,-0.89543 2,-2 v -6.58333 c 0,-1.10457 -0.89543,-2 -2,-2 z m -628.3542,26.45833 h 6.583333 c 1.10457,0 2,0.89543 2,2 v 6.58334 c 0,1.10457 -0.89543,2 -2,2 H 29.78125 c -1.104569,0 -2,-0.89543 -2,-2 v -6.58334 c 0,-1.10457 0.895431,-2 2,-2 z m 628.3542,0 h -6.58333 c -1.10457,0 -2,0.89543 -2,2 v 6.58334 c 0,1.10457 0.89543,2 2,2 h 6.58333 c 1.10457,0 2,-0.89543 2,-2 v -6.58334 c 0,-1.10457 -0.89543,-2 -2,-2 z m -628.3542,26.45834 h 6.583333 c 1.10457,0 2,0.89543 2,2 v 6.58333 c 0,1.10457 -0.89543,2 -2,2 H 29.78125 c -1.104569,0 -2,-0.89543 -2,-2 v -6.58333 c 0,-1.10457 0.895431,-2 2,-2 z m 628.3542,0 h -6.58333 c -1.10457,0 -2,0.89543 -2,2 v 6.58333 c 0,1.10457 0.89543,2 2,2 h 6.58333 c 1.10457,0 2,-0.89543 2,-2 v -6.58333 c 0,-1.10457 -0.89543,-2 -2,-2 z m -628.3542,26.45833 h 6.583333 c 1.10457,0 2,0.89543 2,2 v 6.58333 c 0,1.10457 -0.89543,2 -2,2 H 29.78125 c -1.104569,0 -2,-0.89543 -2,-2 v -6.58333 c 0,-1.10457 0.895431,-2 2,-2 z m 628.3542,0 h -6.58333 c -1.10457,0 -2,0.89543 -2,2 v 6.58333 c 0,1.10457 0.89543,2 2,2 h 6.58333 c 1.10457,0 2,-0.89543 2,-2 v -6.58333 c 0,-1.10457 -0.89543,-2 -2,-2 z m -628.3542,26.45834 h 6.583333 c 1.10457,0 2,0.89543 2,2 v 6.58333 c 0,1.10457 -0.89543,2 -2,2 H 29.78125 c -1.104569,0 -2,-0.89543 -2,-2 v -6.58333 c 0,-1.10457 0.895431,-2 2,-2 z m 628.3542,0 h -6.58333 c -1.10457,0 -2,0.89543 -2,2 v 6.58333 c 0,1.10457 0.89543,2 2,2 h 6.58333 c 1.10457,0 2,-0.89543 2,-2 v -6.58333 c 0,-1.10457 -0.89543,-2 -2,-2 z m -628.3542,26.45833 h 6.583333 c 1.10457,0 2,0.89543 2,2 v 6.58333 c 0,1.10457 -0.89543,2 -2,2 H 29.78125 c -1.104569,0 -2,-0.89543 -2,-2 v -6.58333 c 0,-1.10457 0.895431,-2 2,-2 z m 628.3542,0 h -6.58333 c -1.10457,0 -2,0.89543 -2,2 v 6.58333 c 0,1.10457 0.89543,2 2,2 h 6.58333 c 1.10457,0 2,-0.89543 2,-2 v -6.58333 c 0,-1.10457 -0.89543,-2 -2,-2 z m -628.3542,26.45833 h 6.583333 c 1.10457,0 2,0.89543 2,2 v 6.58334 c 0,1.10457 -0.89543,2 -2,2 H 29.78125 c -1.104569,0 -2,-0.89543 -2,-2 v -6.58334 c 0,-1.10457 0.895431,-2 2,-2 z m 628.3542,0 h -6.58333 c -1.10457,0 -2,0.89543 -2,2 v 6.58334 c 0,1.10457 0.89543,2 2,2 h 6.58333 c 1.10457,0 2,-0.89543 2,-2 v -6.58334 c 0,-1.10457 -0.89543,-2 -2,-2 z m -628.3542,26.45834 h 6.583333 c 1.10457,0 2,0.89543 2,2 v 6.58333 c 0,1.10457 -0.89543,2 -2,2 H 29.78125 c -1.104569,0 -2,-0.89543 -2,-2 v -6.58333 c 0,-1.10457 0.895431,-2 2,-2 z m 628.3542,0 h -6.58333 c -1.10457,0 -2,0.89543 -2,2 v 6.58333 c 0,1.10457 0.89543,2 2,2 h 6.58333 c 1.10457,0 2,-0.89543 2,-2 v -6.58333 c 0,-1.10457 -0.89543,-2 -2,-2 z m -628.3542,26.45833 h 6.583333 c 1.10457,0 2,0.89543 2,2 v 6.58333 c 0,1.10457 -0.89543,2 -2,2 H 29.78125 c -1.104569,0 -2,-0.89543 -2,-2 v -6.58333 c 0,-1.10457 0.895431,-2 2,-2 z m 628.3542,0 h -6.58333 c -1.10457,0 -2,0.89543 -2,2 v 6.58333 c 0,1.10457 0.89543,2 2,2 h 6.58333 c 1.10457,0 2,-0.89543 2,-2 v -6.58333 c 0,-1.10457 -0.89543,-2 -2,-2 z"
         transform="translate(-1.0583334e-5)" />
      <path
         style="fill:#000000;stroke-width:45.1164;stroke-linecap:round;stroke-linejoin:round;paint-order:markers stroke fill"
         id="path42"
         width="7.9375"
         height="7.9375"
         x="15.875"
         y="2.6458335"
         d="m 17.875,2.6458335 h 3.9375 c 1.104569,0 2,0.8954305 2,2 v 3.9375 c 0,1.1045695 -0.895431,1.9999995 -2,1.9999995 H 17.875 c -1.104569,0 -2,-0.89543 -2,-1.9999995 v -3.9375 c 0,-1.1045695 0.895431,-2 2,-2 z m 652.1667,0 h -3.9375 c -1.10457,0 -2,0.8954305 -2,2 v 3.9375 c 0,1.1045695 0.89543,1.9999995 2,1.9999995 h 3.9375 c 1.10457,0 2,-0.89543 2,-1.9999995 v -3.9375 c 0,-1.1045695 -0.89543,-2 -2,-2 z M 17.875,29.104167 h 3.9375 c 1.104569,0 2,0.895431 2,2 v 3.9375 c 0,1.10457 -0.895431,2 -2,2 H 17.875 c -1.104569,0 -2,-0.89543 -2,-2 v -3.9375 c 0,-1.104569 0.895431,-2 2,-2 z m 652.1667,0 h -3.9375 c -1.10457,0 -2,0.895431 -2,2 v 3.9375 c 0,1.10457 0.89543,2 2,2 h 3.9375 c 1.10457,0 2,-0.89543 2,-2 v -3.9375 c 0,-1.104569 -0.89543,-2 -2,-2 z M 17.875,55.562501 h 3.9375 c 1.104569,0 2,0.895431 2,2 v 3.9375 c 0,1.10457 -0.895431,2 -2,2 H 17.875 c -1.104569,0 -2,-0.89543 -2,-2 v -3.9375 c 0,-1.104569 0.895431,-2 2,-2 z m 652.1667,0 h -3.9375 c -1.10457,0 -2,0.895431 -2,2 v 3.9375 c 0,1.10457 0.89543,2 2,2 h 3.9375 c 1.10457,0 2,-0.89543 2,-2 v -3.9375 c 0,-1.104569 -0.89543,-2 -2,-2 z M 17.875,82.020835 h 3.9375 c 1.104569,0 2,0.895431 2,2 v 3.9375 c 0,1.10457 -0.895431,2 -2,2 H 17.875 c -1.104569,0 -2,-0.89543 -2,-2 v -3.9375 c 0,-1.104569 0.895431,-2 2,-2 z m 652.1667,0 h -3.9375 c -1.10457,0 -2,0.895431 -2,2 v 3.9375 c 0,1.10457 0.89543,2 2,2 h 3.9375 c 1.10457,0 2,-0.89543 2,-2 v -3.9375 c 0,-1.104569 -0.89543,-2 -2,-2 z M 17.875,108.47917 h 3.9375 c 1.104569,0 2,0.89543 2,2 v 3.9375 c 0,1.10457 -0.895431,2 -2,2 H 17.875 c -1.104569,0 -2,-0.89543 -2,-2 v -3.9375 c 0,-1.10457 0.895431,-2 2,-2 z m 652.1667,0 h -3.9375 c -1.10457,0 -2,0.89543 -2,2 v 3.9375 c 0,1.10457 0.89543,2 2,2 h 3.9375 c 1.10457,0 2,-0.89543 2,-2 v -3.9375 c 0,-1.10457 -0.89543,-2 -2,-2 z M 17.875,134.9375 h 3.9375 c 1.104569,0 2,0.89543 2,2 v 3.9375 c 0,1.10457 -0.895431,2 -2,2 H 17.875 c -1.104569,0 -2,-0.89543 -2,-2 v -3.9375 c 0,-1.10457 0.895431,-2 2,-2 z m 652.1667,0 h -3.9375 c -1.10457,0 -2,0.89543 -2,2 v 3.9375 c 0,1.10457 0.89543,2 2,2 h 3.9375 c 1.10457,0 2,-0.89543 2,-2 v -3.9375 c 0,-1.10457 -0.89543,-2 -2,-2 z M 17.875,161.39584 h 3.9375 c 1.104569,0 2,0.89543 2,2 v 3.9375 c 0,1.10457 -0.895431,2 -2,2 H 17.875 c -1.104569,0 -2,-0.89543 -2,-2 v -3.9375 c 0,-1.10457 0.895431,-2 2,-2 z m 652.1667,0 h -3.9375 c -1.10457,0 -2,0.89543 -2,2 v 3.9375 c 0,1.10457 0.89543,2 2,2 h 3.9375 c 1.10457,0 2,-0.89543 2,-2 v -3.9375 c 0,-1.10457 -0.89543,-2 -2,-2 z M 17.875,187.85417 h 3.9375 c 1.104569,0 2,0.89543 2,2 v 3.9375 c 0,1.10457 -0.895431,2 -2,2 H 17.875 c -1.104569,0 -2,-0.89543 -2,-2 v -3.9375 c 0,-1.10457 0.895431,-2 2,-2 z m 652.1667,0 h -3.9375 c -1.10457,0 -2,0.89543 -2,2 v 3.9375 c 0,1.10457 0.89543,2 2,2 h 3.9375 c 1.10457,0 2,-0.89543 2,-2 v -3.9375 c 0,-1.10457 -0.89543,-2 -2,-2 z M 17.875,214.31251 h 3.9375 c 1.104569,0 2,0.89543 2,2 v 3.9375 c 0,1.10456 -0.895431,2 -2,2 H 17.875 c -1.104569,0 -2,-0.89544 -2,-2 v -3.9375 c 0,-1.10457 0.895431,-2 2,-2 z m 652.1667,0 h -3.9375 c -1.10457,0 -2,0.89543 -2,2 v 3.9375 c 0,1.10456 0.89543,2 2,2 h 3.9375 c 1.10457,0 2,-0.89544 2,-2 v -3.9375 c 0,-1.10457 -0.89543,-2 -2,-2 z M 17.875,240.77084 h 3.9375 c 1.104569,0 2,0.89543 2,2 v 3.9375 c 0,1.10457 -0.895431,2 -2,2 H 17.875 c -1.104569,0 -2,-0.89543 -2,-2 v -3.9375 c 0,-1.10457 0.895431,-2 2,-2 z m 652.1667,0 h -3.9375 c -1.10457,0 -2,0.89543 -2,2 v 3.9375 c 0,1.10457 0.89543,2 2,2 h 3.9375 c 1.10457,0 2,-0.89543 2,-2 v -3.9375 c 0,-1.10457 -0.89543,-2 -2,-2 z M 17.875,267.22917 h 3.9375 c 1.104569,0 2,0.89543 2,2 v 3.9375 c 0,1.10457 -0.895431,2 -2,2 H 17.875 c -1.104569,0 -2,-0.89543 -2,-2 v -3.9375 c 0,-1.10457 0.895431,-2 2,-2 z m 652.1667,0 h -3.9375 c -1.10457,0 -2,0.89543 -2,2 v 3.9375 c 0,1.10457 0.89543,2 2,2 h 3.9375 c 1.10457,0 2,-0.89543 2,-2 v -3.9375 c 0,-1.10457 -0.89543,-2 -2,-2 z M 17.875,293.68751 h 3.9375 c 1.104569,0 2,0.89543 2,2 v 3.9375 c 0,1.10457 -0.895431,2 -2,2 H 17.875 c -1.104569,0 -2,-0.89543 -2,-2 v -3.9375 c 0,-1.10457 0.895431,-2 2,-2 z m 652.1667,0 h -3.9375 c -1.10457,0 -2,0.89543 -2,2 v 3.9375 c 0,1.10457 0.89543,2 2,2 h 3.9375 c 1.10457,0 2,-0.89543 2,-2 v -3.9375 c 0,-1.10457 -0.89543,-2 -2,-2 z M 17.875,320.14584 h 3.9375 c 1.104569,0 2,0.89543 2,2 v 3.9375 c 0,1.10457 -0.895431,2 -2,2 H 17.875 c -1.104569,0 -2,-0.89543 -2,-2 v -3.9375 c 0,-1.10457 0.895431,-2 2,-2 z m 652.1667,0 h -3.9375 c -1.10457,0 -2,0.89543 -2,2 v 3.9375 c 0,1.10457 0.89543,2 2,2 h 3.9375 c 1.10457,0 2,-0.89543 2,-2 v -3.9375 c 0,-1.10457 -0.89543,-2 -2,-2 z"
         transform="translate(-1.0583334e-5)" />
      <path
         id="path43"
         style="fill:#000000;fill-opacity:1;stroke-width:103.896;stroke-linecap:round;stroke-linejoin:round;paint-order:markers stroke fill"
         d="M 52.916667,0 V 26.458334 H 343.95834 V 0 Z m 3.322795,1.3229167 h 6.583578 c 1.104474,6.74e-5 1.999811,0.8954037 1.999878,1.9998779 v 6.5835776 c -6.7e-5,1.1044738 -0.895404,1.9998108 -1.999878,1.9998778 h -6.583578 c -1.104474,-6.7e-5 -1.999811,-0.895404 -1.999878,-1.9998778 V 3.3227946 c 6.7e-5,-1.1044742 0.895404,-1.9998105 1.999878,-1.9998779 z m 29.104167,2.6458334 h 1.291911 c 1.104474,6.74e-5 1.999811,0.8954037 1.999878,1.9998779 v 1.2919108 c -6.7e-5,1.1044742 -0.895404,1.9998106 -1.999878,1.999878 H 85.343629 C 84.239155,9.2603494 83.343818,8.365013 83.343751,7.2605388 V 5.968628 c 6.7e-5,-1.1044742 0.895404,-1.9998105 1.999878,-1.9998779 z M 70.791546,15.875 h 3.937744 c 1.104474,6.7e-5 1.999811,0.895404 1.999878,1.999878 v 3.937744 c -6.7e-5,1.104474 -0.895404,1.999811 -1.999878,1.999878 h -3.937744 c -1.104474,-6.7e-5 -1.999811,-0.895404 -1.999878,-1.999878 v -3.937744 c 6.7e-5,-1.104474 0.895404,-1.999811 1.999878,-1.999878 z M 635.00001,0 V 26.458334 H 343.95834 V 0 Z m -3.32279,1.3229167 h -6.58358 c -1.10447,6.74e-5 -1.99981,0.8954037 -1.99988,1.9998779 v 6.5835776 c 7e-5,1.1044738 0.89541,1.9998108 1.99988,1.9998778 h 6.58358 c 1.10447,-6.7e-5 1.99981,-0.895404 1.99988,-1.9998778 V 3.3227946 c -7e-5,-1.1044742 -0.89541,-1.9998105 -1.99988,-1.9998779 z m -29.10417,2.6458334 h -1.29191 c -1.10447,6.74e-5 -1.99981,0.8954037 -1.99988,1.9998779 v 1.2919108 c 7e-5,1.1044742 0.89541,1.9998106 1.99988,1.999878 h 1.29191 c 1.10448,-6.74e-5 1.99981,-0.8954038 1.99988,-1.999878 V 5.968628 c -7e-5,-1.1044742 -0.8954,-1.9998105 -1.99988,-1.9998779 z M 617.12513,15.875 h -3.93774 c -1.10447,6.7e-5 -1.99981,0.895404 -1.99988,1.999878 v 3.937744 c 7e-5,1.104474 0.89541,1.999811 1.99988,1.999878 h 3.93774 c 1.10448,-6.7e-5 1.99981,-0.895404 1.99988,-1.999878 v -3.937744 c -7e-5,-1.104474 -0.8954,-1.999811 -1.99988,-1.999878 z M 52.916667,26.458334 V 52.916668 H 343.95834 V 26.458334 Z m 3.322795,1.322917 h 6.583578 c 1.104474,6.7e-5 1.999811,0.895403 1.999878,1.999878 v 6.583577 c -6.7e-5,1.104474 -0.895404,1.999811 -1.999878,1.999878 h -6.583578 c -1.104474,-6.7e-5 -1.999811,-0.895404 -1.999878,-1.999878 v -6.583577 c 6.7e-5,-1.104475 0.895404,-1.999811 1.999878,-1.999878 z m 29.104167,2.645833 h 1.291911 c 1.104474,6.7e-5 1.999811,0.895404 1.999878,1.999878 v 1.291911 c -6.7e-5,1.104474 -0.895404,1.99981 -1.999878,1.999878 h -1.291911 c -1.104474,-6.8e-5 -1.999811,-0.895404 -1.999878,-1.999878 v -1.291911 c 6.7e-5,-1.104474 0.895404,-1.999811 1.999878,-1.999878 z m -14.552083,11.90625 h 3.937744 c 1.104474,6.7e-5 1.999811,0.895404 1.999878,1.999878 v 3.937744 c -6.7e-5,1.104474 -0.895404,1.999811 -1.999878,1.999878 h -3.937744 c -1.104474,-6.7e-5 -1.999811,-0.895404 -1.999878,-1.999878 v -3.937744 c 6.7e-5,-1.104474 0.895404,-1.999811 1.999878,-1.999878 z m 564.208464,-15.875 V 52.916668 H 343.95834 V 26.458334 Z m -3.32279,1.322917 h -6.58358 c -1.10447,6.7e-5 -1.99981,0.895403 -1.99988,1.999878 v 6.583577 c 7e-5,1.104474 0.89541,1.999811 1.99988,1.999878 h 6.58358 c 1.10447,-6.7e-5 1.99981,-0.895404 1.99988,-1.999878 v -6.583577 c -7e-5,-1.104475 -0.89541,-1.999811 -1.99988,-1.999878 z m -29.10417,2.645833 h -1.29191 c -1.10447,6.7e-5 -1.99981,0.895404 -1.99988,1.999878 v 1.291911 c 7e-5,1.104474 0.89541,1.99981 1.99988,1.999878 h 1.29191 c 1.10448,-6.8e-5 1.99981,-0.895404 1.99988,-1.999878 v -1.291911 c -7e-5,-1.104474 -0.8954,-1.999811 -1.99988,-1.999878 z m 14.55208,11.90625 h -3.93774 c -1.10447,6.7e-5 -1.99981,0.895404 -1.99988,1.999878 v 3.937744 c 7e-5,1.104474 0.89541,1.999811 1.99988,1.999878 h 3.93774 c 1.10448,-6.7e-5 1.99981,-0.895404 1.99988,-1.999878 v -3.937744 c -7e-5,-1.104474 -0.8954,-1.999811 -1.99988,-1.999878 z M 52.916667,52.916668 V 79.375002 H 343.95834 V 52.916668 Z m 3.322795,1.322917 h 6.583578 c 1.104474,6.7e-5 1.999811,0.895403 1.999878,1.999878 v 6.583577 c -6.7e-5,1.104474 -0.895404,1.999811 -1.999878,1.999878 h -6.583578 c -1.104474,-6.7e-5 -1.999811,-0.895404 -1.999878,-1.999878 v -6.583577 c 6.7e-5,-1.104475 0.895404,-1.999811 1.999878,-1.999878 z m 29.104167,2.645833 h 1.291911 c 1.104474,6.8e-5 1.999811,0.895404 1.999878,1.999878 v 1.291911 c -6.7e-5,1.104474 -0.895404,1.99981 -1.999878,1.999878 h -1.291911 c -1.104474,-6.8e-5 -1.999811,-0.895404 -1.999878,-1.999878 v -1.291911 c 6.7e-5,-1.104474 0.895404,-1.99981 1.999878,-1.999878 z m -14.552083,11.90625 h 3.937744 c 1.104474,6.7e-5 1.999811,0.895404 1.999878,1.999878 v 3.937744 c -6.7e-5,1.104474 -0.895404,1.999811 -1.999878,1.999878 h -3.937744 c -1.104474,-6.7e-5 -1.999811,-0.895404 -1.999878,-1.999878 v -3.937744 c 6.7e-5,-1.104474 0.895404,-1.999811 1.999878,-1.999878 z m 564.208464,-15.875 V 79.375002 H 343.95834 V 52.916668 Z m -3.32279,1.322917 h -6.58358 c -1.10447,6.7e-5 -1.99981,0.895403 -1.99988,1.999878 v 6.583577 c 7e-5,1.104474 0.89541,1.999811 1.99988,1.999878 h 6.58358 c 1.10447,-6.7e-5 1.99981,-0.895404 1.99988,-1.999878 v -6.583577 c -7e-5,-1.104475 -0.89541,-1.999811 -1.99988,-1.999878 z m -29.10417,2.645833 h -1.29191 c -1.10447,6.8e-5 -1.99981,0.895404 -1.99988,1.999878 v 1.291911 c 7e-5,1.104474 0.89541,1.99981 1.99988,1.999878 h 1.29191 c 1.10448,-6.8e-5 1.99981,-0.895404 1.99988,-1.999878 v -1.291911 c -7e-5,-1.104474 -0.8954,-1.99981 -1.99988,-1.999878 z m 14.55208,11.90625 h -3.93774 c -1.10447,6.7e-5 -1.99981,0.895404 -1.99988,1.999878 v 3.937744 c 7e-5,1.104474 0.89541,1.999811 1.99988,1.999878 h 3.93774 c 1.10448,-6.7e-5 1.99981,-0.895404 1.99988,-1.999878 v -3.937744 c -7e-5,-1.104474 -0.8954,-1.999811 -1.99988,-1.999878 z M 52.916667,79.375002 V 105.83334 H 343.95834 V 79.375002 Z m 3.322795,1.322917 h 6.583578 c 1.104474,6.7e-5 1.999811,0.895403 1.999878,1.999878 v 6.583577 c -6.7e-5,1.104474 -0.895404,1.999811 -1.999878,1.999878 h -6.583578 c -1.104474,-6.7e-5 -1.999811,-0.895404 -1.999878,-1.999878 v -6.583577 c 6.7e-5,-1.104475 0.895404,-1.999811 1.999878,-1.999878 z m 29.104167,2.645833 h 1.291911 c 1.104474,6.7e-5 1.999811,0.895404 1.999878,1.999878 v 1.291911 c -6.7e-5,1.104474 -0.895404,1.99981 -1.999878,1.999878 h -1.291911 c -1.104474,-6.8e-5 -1.999811,-0.895404 -1.999878,-1.999878 V 85.34363 c 6.7e-5,-1.104474 0.895404,-1.999811 1.999878,-1.999878 z m -14.552083,11.90625 h 3.937744 c 1.104474,6.7e-5 1.999811,0.895404 1.999878,1.999878 v 3.93774 c -6.7e-5,1.10448 -0.895404,1.99981 -1.999878,1.99988 h -3.937744 c -1.104474,-7e-5 -1.999811,-0.8954 -1.999878,-1.99988 v -3.93774 c 6.7e-5,-1.104474 0.895404,-1.999811 1.999878,-1.999878 z m 564.208464,-15.875 V 105.83334 H 343.95834 V 79.375002 Z m -3.32279,1.322917 h -6.58358 c -1.10447,6.7e-5 -1.99981,0.895403 -1.99988,1.999878 v 6.583577 c 7e-5,1.104474 0.89541,1.999811 1.99988,1.999878 h 6.58358 c 1.10447,-6.7e-5 1.99981,-0.895404 1.99988,-1.999878 v -6.583577 c -7e-5,-1.104475 -0.89541,-1.999811 -1.99988,-1.999878 z m -29.10417,2.645833 h -1.29191 c -1.10447,6.7e-5 -1.99981,0.895404 -1.99988,1.999878 v 1.291911 c 7e-5,1.104474 0.89541,1.99981 1.99988,1.999878 h 1.29191 c 1.10448,-6.8e-5 1.99981,-0.895404 1.99988,-1.999878 V 85.34363 c -7e-5,-1.104474 -0.8954,-1.999811 -1.99988,-1.999878 z m 14.55208,11.90625 h -3.93774 c -1.10447,6.7e-5 -1.99981,0.895404 -1.99988,1.999878 v 3.93774 c 7e-5,1.10448 0.89541,1.99981 1.99988,1.99988 h 3.93774 c 1.10448,-7e-5 1.99981,-0.8954 1.99988,-1.99988 v -3.93774 c -7e-5,-1.104474 -0.8954,-1.999811 -1.99988,-1.999878 z M 52.916667,105.83334 v 26.45833 H 343.95834 v -26.45833 z m 3.322795,1.32291 h 6.583578 c 1.104474,7e-5 1.999811,0.89541 1.999878,1.99988 v 6.58358 c -6.7e-5,1.10447 -0.895404,1.99981 -1.999878,1.99988 h -6.583578 c -1.104474,-7e-5 -1.999811,-0.89541 -1.999878,-1.99988 v -6.58358 c 6.7e-5,-1.10447 0.895404,-1.99981 1.999878,-1.99988 z m 29.104167,2.64584 h 1.291911 c 1.104474,6e-5 1.999811,0.8954 1.999878,1.99987 v 1.29191 c -6.7e-5,1.10448 -0.895404,1.99982 -1.999878,1.99988 h -1.291911 c -1.104474,-6e-5 -1.999811,-0.8954 -1.999878,-1.99988 v -1.29191 c 6.7e-5,-1.10447 0.895404,-1.99981 1.999878,-1.99987 z m -14.552083,11.90625 h 3.937744 c 1.104474,6e-5 1.999811,0.8954 1.999878,1.99987 v 3.93775 c -6.7e-5,1.10447 -0.895404,1.99981 -1.999878,1.99988 h -3.937744 c -1.104474,-7e-5 -1.999811,-0.89541 -1.999878,-1.99988 v -3.93775 c 6.7e-5,-1.10447 0.895404,-1.99981 1.999878,-1.99987 z m 564.208464,-15.875 v 26.45833 H 343.95834 v -26.45833 z m -3.32279,1.32291 h -6.58358 c -1.10447,7e-5 -1.99981,0.89541 -1.99988,1.99988 v 6.58358 c 7e-5,1.10447 0.89541,1.99981 1.99988,1.99988 h 6.58358 c 1.10447,-7e-5 1.99981,-0.89541 1.99988,-1.99988 v -6.58358 c -7e-5,-1.10447 -0.89541,-1.99981 -1.99988,-1.99988 z m -29.10417,2.64584 h -1.29191 c -1.10447,6e-5 -1.99981,0.8954 -1.99988,1.99987 v 1.29191 c 7e-5,1.10448 0.89541,1.99982 1.99988,1.99988 h 1.29191 c 1.10448,-6e-5 1.99981,-0.8954 1.99988,-1.99988 v -1.29191 c -7e-5,-1.10447 -0.8954,-1.99981 -1.99988,-1.99987 z m 14.55208,11.90625 h -3.93774 c -1.10447,6e-5 -1.99981,0.8954 -1.99988,1.99987 v 3.93775 c 7e-5,1.10447 0.89541,1.99981 1.99988,1.99988 h 3.93774 c 1.10448,-7e-5 1.99981,-0.89541 1.99988,-1.99988 v -3.93775 c -7e-5,-1.10447 -0.8954,-1.99981 -1.99988,-1.99987 z M 52.916667,132.29167 V 158.75 H 343.95834 v -26.45833 z m 3.322795,1.32292 h 6.583578 c 1.104474,6e-5 1.999811,0.8954 1.999878,1.99987 v 6.58358 c -6.7e-5,1.10448 -0.895404,1.99981 -1.999878,1.99988 h -6.583578 c -1.104474,-7e-5 -1.999811,-0.8954 -1.999878,-1.99988 v -6.58358 c 6.7e-5,-1.10447 0.895404,-1.99981 1.999878,-1.99987 z m 29.104167,2.64583 h 1.291911 c 1.104474,7e-5 1.999811,0.8954 1.999878,1.99988 v 1.29191 c -6.7e-5,1.10447 -0.895404,1.99981 -1.999878,1.99988 h -1.291911 c -1.104474,-7e-5 -1.999811,-0.89541 -1.999878,-1.99988 v -1.29191 c 6.7e-5,-1.10448 0.895404,-1.99981 1.999878,-1.99988 z m -14.552083,11.90625 h 3.937744 c 1.104474,7e-5 1.999811,0.8954 1.999878,1.99988 v 3.93774 c -6.7e-5,1.10448 -0.895404,1.99981 -1.999878,1.99988 h -3.937744 c -1.104474,-7e-5 -1.999811,-0.8954 -1.999878,-1.99988 v -3.93774 c 6.7e-5,-1.10448 0.895404,-1.99981 1.999878,-1.99988 z m 564.208464,-15.875 V 158.75 H 343.95834 v -26.45833 z m -3.32279,1.32292 h -6.58358 c -1.10447,6e-5 -1.99981,0.8954 -1.99988,1.99987 v 6.58358 c 7e-5,1.10448 0.89541,1.99981 1.99988,1.99988 h 6.58358 c 1.10447,-7e-5 1.99981,-0.8954 1.99988,-1.99988 v -6.58358 c -7e-5,-1.10447 -0.89541,-1.99981 -1.99988,-1.99987 z m -29.10417,2.64583 h -1.29191 c -1.10447,7e-5 -1.99981,0.8954 -1.99988,1.99988 v 1.29191 c 7e-5,1.10447 0.89541,1.99981 1.99988,1.99988 h 1.29191 c 1.10448,-7e-5 1.99981,-0.89541 1.99988,-1.99988 v -1.29191 c -7e-5,-1.10448 -0.8954,-1.99981 -1.99988,-1.99988 z m 14.55208,11.90625 h -3.93774 c -1.10447,7e-5 -1.99981,0.8954 -1.99988,1.99988 v 3.93774 c 7e-5,1.10448 0.89541,1.99981 1.99988,1.99988 h 3.93774 c 1.10448,-7e-5 1.99981,-0.8954 1.99988,-1.99988 v -3.93774 c -7e-5,-1.10448 -0.8954,-1.99981 -1.99988,-1.99988 z M 52.916667,158.75 v 26.45834 H 343.95834 V 158.75 Z m 3.322795,1.32292 h 6.583578 c 1.104474,7e-5 1.999811,0.8954 1.999878,1.99988 v 6.58358 c -6.7e-5,1.10447 -0.895404,1.99981 -1.999878,1.99987 h -6.583578 c -1.104474,-6e-5 -1.999811,-0.8954 -1.999878,-1.99987 v -6.58358 c 6.7e-5,-1.10448 0.895404,-1.99981 1.999878,-1.99988 z m 29.104167,2.64583 h 1.291911 c 1.104474,7e-5 1.999811,0.89541 1.999878,1.99988 v 1.29191 c -6.7e-5,1.10448 -0.895404,1.99981 -1.999878,1.99988 h -1.291911 c -1.104474,-7e-5 -1.999811,-0.8954 -1.999878,-1.99988 v -1.29191 c 6.7e-5,-1.10447 0.895404,-1.99981 1.999878,-1.99988 z M 70.791546,174.625 h 3.937744 c 1.104474,7e-5 1.999811,0.89541 1.999878,1.99988 v 3.93775 c -6.7e-5,1.10447 -0.895404,1.99981 -1.999878,1.99987 h -3.937744 c -1.104474,-6e-5 -1.999811,-0.8954 -1.999878,-1.99987 v -3.93775 c 6.7e-5,-1.10447 0.895404,-1.99981 1.999878,-1.99988 z M 635.00001,158.75 v 26.45834 H 343.95834 V 158.75 Z m -3.32279,1.32292 h -6.58358 c -1.10447,7e-5 -1.99981,0.8954 -1.99988,1.99988 v 6.58358 c 7e-5,1.10447 0.89541,1.99981 1.99988,1.99987 h 6.58358 c 1.10447,-6e-5 1.99981,-0.8954 1.99988,-1.99987 v -6.58358 c -7e-5,-1.10448 -0.89541,-1.99981 -1.99988,-1.99988 z m -29.10417,2.64583 h -1.29191 c -1.10447,7e-5 -1.99981,0.89541 -1.99988,1.99988 v 1.29191 c 7e-5,1.10448 0.89541,1.99981 1.99988,1.99988 h 1.29191 c 1.10448,-7e-5 1.99981,-0.8954 1.99988,-1.99988 v -1.29191 c -7e-5,-1.10447 -0.8954,-1.99981 -1.99988,-1.99988 z m 14.55208,11.90625 h -3.93774 c -1.10447,7e-5 -1.99981,0.89541 -1.99988,1.99988 v 3.93775 c 7e-5,1.10447 0.89541,1.99981 1.99988,1.99987 h 3.93774 c 1.10448,-6e-5 1.99981,-0.8954 1.99988,-1.99987 v -3.93775 c -7e-5,-1.10447 -0.8954,-1.99981 -1.99988,-1.99988 z M 52.916667,185.20834 v 26.45833 H 343.95834 v -26.45833 z m 3.322795,1.32291 h 6.583578 c 1.104474,7e-5 1.999811,0.89541 1.999878,1.99988 v 6.58358 c -6.7e-5,1.10447 -0.895404,1.99981 -1.999878,1.99988 h -6.583578 c -1.104474,-7e-5 -1.999811,-0.89541 -1.999878,-1.99988 v -6.58358 c 6.7e-5,-1.10447 0.895404,-1.99981 1.999878,-1.99988 z m 29.104167,2.64584 h 1.291911 c 1.104474,7e-5 1.999811,0.8954 1.999878,1.99988 v 1.29191 c -6.7e-5,1.10447 -0.895404,1.99981 -1.999878,1.99987 h -1.291911 c -1.104474,-6e-5 -1.999811,-0.8954 -1.999878,-1.99987 v -1.29191 c 6.7e-5,-1.10448 0.895404,-1.99981 1.999878,-1.99988 z m -14.552083,11.90625 h 3.937744 c 1.104474,6e-5 1.999811,0.8954 1.999878,1.99988 v 3.93774 c -6.7e-5,1.10447 -0.895404,1.99981 -1.999878,1.99988 h -3.937744 c -1.104474,-7e-5 -1.999811,-0.89541 -1.999878,-1.99988 v -3.93774 c 6.7e-5,-1.10448 0.895404,-1.99982 1.999878,-1.99988 z m 564.208464,-15.875 v 26.45833 H 343.95834 v -26.45833 z m -3.32279,1.32291 h -6.58358 c -1.10447,7e-5 -1.99981,0.89541 -1.99988,1.99988 v 6.58358 c 7e-5,1.10447 0.89541,1.99981 1.99988,1.99988 h 6.58358 c 1.10447,-7e-5 1.99981,-0.89541 1.99988,-1.99988 v -6.58358 c -7e-5,-1.10447 -0.89541,-1.99981 -1.99988,-1.99988 z m -29.10417,2.64584 h -1.29191 c -1.10447,7e-5 -1.99981,0.8954 -1.99988,1.99988 v 1.29191 c 7e-5,1.10447 0.89541,1.99981 1.99988,1.99987 h 1.29191 c 1.10448,-6e-5 1.99981,-0.8954 1.99988,-1.99987 v -1.29191 c -7e-5,-1.10448 -0.8954,-1.99981 -1.99988,-1.99988 z m 14.55208,11.90625 h -3.93774 c -1.10447,6e-5 -1.99981,0.8954 -1.99988,1.99988 v 3.93774 c 7e-5,1.10447 0.89541,1.99981 1.99988,1.99988 h 3.93774 c 1.10448,-7e-5 1.99981,-0.89541 1.99988,-1.99988 v -3.93774 c -7e-5,-1.10448 -0.8954,-1.99982 -1.99988,-1.99988 z M 52.916667,211.66667 v 26.45834 H 343.95834 v -26.45834 z m 3.322795,1.32292 h 6.583578 c 1.104474,7e-5 1.999811,0.8954 1.999878,1.99988 v 6.58357 c -6.7e-5,1.10448 -0.895404,1.99981 -1.999878,1.99988 h -6.583578 c -1.104474,-7e-5 -1.999811,-0.8954 -1.999878,-1.99988 v -6.58357 c 6.7e-5,-1.10448 0.895404,-1.99981 1.999878,-1.99988 z m 29.104167,2.64583 h 1.291911 c 1.104474,7e-5 1.999811,0.89541 1.999878,1.99988 v 1.29191 c -6.7e-5,1.10447 -0.895404,1.99981 -1.999878,1.99988 h -1.291911 c -1.104474,-7e-5 -1.999811,-0.89541 -1.999878,-1.99988 v -1.29191 c 6.7e-5,-1.10447 0.895404,-1.99981 1.999878,-1.99988 z m -14.552083,11.90625 h 3.937744 c 1.104474,7e-5 1.999811,0.89541 1.999878,1.99988 v 3.93774 c -6.7e-5,1.10448 -0.895404,1.99981 -1.999878,1.99988 h -3.937744 c -1.104474,-7e-5 -1.999811,-0.8954 -1.999878,-1.99988 v -3.93774 c 6.7e-5,-1.10447 0.895404,-1.99981 1.999878,-1.99988 z m 564.208464,-15.875 v 26.45834 H 343.95834 v -26.45834 z m -3.32279,1.32292 h -6.58358 c -1.10447,7e-5 -1.99981,0.8954 -1.99988,1.99988 v 6.58357 c 7e-5,1.10448 0.89541,1.99981 1.99988,1.99988 h 6.58358 c 1.10447,-7e-5 1.99981,-0.8954 1.99988,-1.99988 v -6.58357 c -7e-5,-1.10448 -0.89541,-1.99981 -1.99988,-1.99988 z m -29.10417,2.64583 h -1.29191 c -1.10447,7e-5 -1.99981,0.89541 -1.99988,1.99988 v 1.29191 c 7e-5,1.10447 0.89541,1.99981 1.99988,1.99988 h 1.29191 c 1.10448,-7e-5 1.99981,-0.89541 1.99988,-1.99988 v -1.29191 c -7e-5,-1.10447 -0.8954,-1.99981 -1.99988,-1.99988 z m 14.55208,11.90625 h -3.93774 c -1.10447,7e-5 -1.99981,0.89541 -1.99988,1.99988 v 3.93774 c 7e-5,1.10448 0.89541,1.99981 1.99988,1.99988 h 3.93774 c 1.10448,-7e-5 1.99981,-0.8954 1.99988,-1.99988 v -3.93774 c -7e-5,-1.10447 -0.8954,-1.99981 -1.99988,-1.99988 z M 52.916667,238.12501 v 26.45833 H 343.95834 v -26.45833 z m 3.322795,1.32291 h 6.583578 c 1.104474,7e-5 1.999811,0.89541 1.999878,1.99988 v 6.58358 c -6.7e-5,1.10447 -0.895404,1.99981 -1.999878,1.99988 h -6.583578 c -1.104474,-7e-5 -1.999811,-0.89541 -1.999878,-1.99988 v -6.58358 c 6.7e-5,-1.10447 0.895404,-1.99981 1.999878,-1.99988 z m 29.104167,2.64584 h 1.291911 c 1.104474,6e-5 1.999811,0.8954 1.999878,1.99987 v 1.29191 c -6.7e-5,1.10448 -0.895404,1.99982 -1.999878,1.99988 h -1.291911 c -1.104474,-6e-5 -1.999811,-0.8954 -1.999878,-1.99988 v -1.29191 c 6.7e-5,-1.10447 0.895404,-1.99981 1.999878,-1.99987 z m -14.552083,11.90625 h 3.937744 c 1.104474,6e-5 1.999811,0.8954 1.999878,1.99987 v 3.93775 c -6.7e-5,1.10447 -0.895404,1.99981 -1.999878,1.99988 h -3.937744 c -1.104474,-7e-5 -1.999811,-0.89541 -1.999878,-1.99988 v -3.93775 c 6.7e-5,-1.10447 0.895404,-1.99981 1.999878,-1.99987 z m 564.208464,-15.875 v 26.45833 H 343.95834 v -26.45833 z m -3.32279,1.32291 h -6.58358 c -1.10447,7e-5 -1.99981,0.89541 -1.99988,1.99988 v 6.58358 c 7e-5,1.10447 0.89541,1.99981 1.99988,1.99988 h 6.58358 c 1.10447,-7e-5 1.99981,-0.89541 1.99988,-1.99988 v -6.58358 c -7e-5,-1.10447 -0.89541,-1.99981 -1.99988,-1.99988 z m -29.10417,2.64584 h -1.29191 c -1.10447,6e-5 -1.99981,0.8954 -1.99988,1.99987 v 1.29191 c 7e-5,1.10448 0.89541,1.99982 1.99988,1.99988 h 1.29191 c 1.10448,-6e-5 1.99981,-0.8954 1.99988,-1.99988 v -1.29191 c -7e-5,-1.10447 -0.8954,-1.99981 -1.99988,-1.99987 z m 14.55208,11.90625 h -3.93774 c -1.10447,6e-5 -1.99981,0.8954 -1.99988,1.99987 v 3.93775 c 7e-5,1.10447 0.89541,1.99981 1.99988,1.99988 h 3.93774 c 1.10448,-7e-5 1.99981,-0.89541 1.99988,-1.99988 v -3.93775 c -7e-5,-1.10447 -0.8954,-1.99981 -1.99988,-1.99987 z M 52.916667,264.58334 v 26.45833 H 343.95834 v -26.45833 z m 3.322795,1.32292 h 6.583578 c 1.104474,6e-5 1.999811,0.8954 1.999878,1.99987 v 6.58358 c -6.7e-5,1.10448 -0.895404,1.99981 -1.999878,1.99988 h -6.583578 c -1.104474,-7e-5 -1.999811,-0.8954 -1.999878,-1.99988 v -6.58358 c 6.7e-5,-1.10447 0.895404,-1.99981 1.999878,-1.99987 z m 29.104167,2.64583 h 1.291911 c 1.104474,7e-5 1.999811,0.8954 1.999878,1.99988 v 1.29191 c -6.7e-5,1.10447 -0.895404,1.99981 -1.999878,1.99988 h -1.291911 c -1.104474,-7e-5 -1.999811,-0.89541 -1.999878,-1.99988 v -1.29191 c 6.7e-5,-1.10448 0.895404,-1.99981 1.999878,-1.99988 z m -14.552083,11.90625 h 3.937744 c 1.104474,7e-5 1.999811,0.8954 1.999878,1.99988 v 3.93774 c -6.7e-5,1.10448 -0.895404,1.99981 -1.999878,1.99988 h -3.937744 c -1.104474,-7e-5 -1.999811,-0.8954 -1.999878,-1.99988 v -3.93774 c 6.7e-5,-1.10448 0.895404,-1.99981 1.999878,-1.99988 z m 564.208464,-15.875 v 26.45833 H 343.95834 v -26.45833 z m -3.32279,1.32292 h -6.58358 c -1.10447,6e-5 -1.99981,0.8954 -1.99988,1.99987 v 6.58358 c 7e-5,1.10448 0.89541,1.99981 1.99988,1.99988 h 6.58358 c 1.10447,-7e-5 1.99981,-0.8954 1.99988,-1.99988 v -6.58358 c -7e-5,-1.10447 -0.89541,-1.99981 -1.99988,-1.99987 z m -29.10417,2.64583 h -1.29191 c -1.10447,7e-5 -1.99981,0.8954 -1.99988,1.99988 v 1.29191 c 7e-5,1.10447 0.89541,1.99981 1.99988,1.99988 h 1.29191 c 1.10448,-7e-5 1.99981,-0.89541 1.99988,-1.99988 v -1.29191 c -7e-5,-1.10448 -0.8954,-1.99981 -1.99988,-1.99988 z m 14.55208,11.90625 h -3.93774 c -1.10447,7e-5 -1.99981,0.8954 -1.99988,1.99988 v 3.93774 c 7e-5,1.10448 0.89541,1.99981 1.99988,1.99988 h 3.93774 c 1.10448,-7e-5 1.99981,-0.8954 1.99988,-1.99988 v -3.93774 c -7e-5,-1.10448 -0.8954,-1.99981 -1.99988,-1.99988 z M 52.916667,291.04167 v 26.45834 H 343.95834 v -26.45834 z m 3.322795,1.32292 h 6.583578 c 1.104474,7e-5 1.999811,0.8954 1.999878,1.99988 v 6.58358 c -6.7e-5,1.10447 -0.895404,1.99981 -1.999878,1.99987 h -6.583578 c -1.104474,-6e-5 -1.999811,-0.8954 -1.999878,-1.99987 v -6.58358 c 6.7e-5,-1.10448 0.895404,-1.99981 1.999878,-1.99988 z m 29.104167,2.64583 h 1.291911 c 1.104474,7e-5 1.999811,0.89541 1.999878,1.99988 v 1.29191 c -6.7e-5,1.10448 -0.895404,1.99981 -1.999878,1.99988 h -1.291911 c -1.104474,-7e-5 -1.999811,-0.8954 -1.999878,-1.99988 v -1.29191 c 6.7e-5,-1.10447 0.895404,-1.99981 1.999878,-1.99988 z m -14.552083,11.90625 h 3.937744 c 1.104474,7e-5 1.999811,0.89541 1.999878,1.99988 v 3.93775 c -6.7e-5,1.10447 -0.895404,1.99981 -1.999878,1.99987 h -3.937744 c -1.104474,-6e-5 -1.999811,-0.8954 -1.999878,-1.99987 v -3.93775 c 6.7e-5,-1.10447 0.895404,-1.99981 1.999878,-1.99988 z m 564.208464,-15.875 v 26.45834 H 343.95834 v -26.45834 z m -3.32279,1.32292 h -6.58358 c -1.10447,7e-5 -1.99981,0.8954 -1.99988,1.99988 v 6.58358 c 7e-5,1.10447 0.89541,1.99981 1.99988,1.99987 h 6.58358 c 1.10447,-6e-5 1.99981,-0.8954 1.99988,-1.99987 v -6.58358 c -7e-5,-1.10448 -0.89541,-1.99981 -1.99988,-1.99988 z m -29.10417,2.64583 h -1.29191 c -1.10447,7e-5 -1.99981,0.89541 -1.99988,1.99988 v 1.29191 c 7e-5,1.10448 0.89541,1.99981 1.99988,1.99988 h 1.29191 c 1.10448,-7e-5 1.99981,-0.8954 1.99988,-1.99988 v -1.29191 c -7e-5,-1.10447 -0.8954,-1.99981 -1.99988,-1.99988 z m 14.55208,11.90625 h -3.93774 c -1.10447,7e-5 -1.99981,0.89541 -1.99988,1.99988 v 3.93775 c 7e-5,1.10447 0.89541,1.99981 1.99988,1.99987 h 3.93774 c 1.10448,-6e-5 1.99981,-0.8954 1.99988,-1.99987 v -3.93775 c -7e-5,-1.10447 -0.8954,-1.99981 -1.99988,-1.99988 z M 52.916667,317.50001 v 26.45833 H 343.95834 v -26.45833 z m 3.322795,1.32291 h 6.583578 c 1.104474,7e-5 1.999811,0.89541 1.999878,1.99988 v 6.58358 c -6.7e-5,1.10447 -0.895404,1.99981 -1.999878,1.99988 h -6.583578 c -1.104474,-7e-5 -1.999811,-0.89541 -1.999878,-1.99988 v -6.58358 c 6.7e-5,-1.10447 0.895404,-1.99981 1.999878,-1.99988 z m 29.104167,2.64584 h 1.291911 c 1.104474,7e-5 1.999811,0.8954 1.999878,1.99988 v 1.29191 c -6.7e-5,1.10447 -0.895404,1.99981 -1.999878,1.99987 h -1.291911 c -1.104474,-6e-5 -1.999811,-0.8954 -1.999878,-1.99987 v -1.29191 c 6.7e-5,-1.10448 0.895404,-1.99981 1.999878,-1.99988 z m -14.552083,11.90625 h 3.937744 c 1.104474,6e-5 1.999811,0.8954 1.999878,1.99988 v 3.93774 c -6.7e-5,1.10447 -0.895404,1.99981 -1.999878,1.99988 h -3.937744 c -1.104474,-7e-5 -1.999811,-0.89541 -1.999878,-1.99988 v -3.93774 c 6.7e-5,-1.10448 0.895404,-1.99982 1.999878,-1.99988 z m 564.208464,-15.875 v 26.45833 H 343.95834 v -26.45833 z m -3.32279,1.32291 h -6.58358 c -1.10447,7e-5 -1.99981,0.89541 -1.99988,1.99988 v 6.58358 c 7e-5,1.10447 0.89541,1.99981 1.99988,1.99988 h 6.58358 c 1.10447,-7e-5 1.99981,-0.89541 1.99988,-1.99988 v -6.58358 c -7e-5,-1.10447 -0.89541,-1.99981 -1.99988,-1.99988 z m -29.10417,2.64584 h -1.29191 c -1.10447,7e-5 -1.99981,0.8954 -1.99988,1.99988 v 1.29191 c 7e-5,1.10447 0.89541,1.99981 1.99988,1.99987 h 1.29191 c 1.10448,-6e-5 1.99981,-0.8954 1.99988,-1.99987 v -1.29191 c -7e-5,-1.10448 -0.8954,-1.99981 -1.99988,-1.99988 z m 14.55208,11.90625 h -3.93774 c -1.10447,6e-5 -1.99981,0.8954 -1.99988,1.99988 v 3.93774 c 7e-5,1.10447 0.89541,1.99981 1.99988,1.99988 h 3.93774 c 1.10448,-7e-5 1.99981,-0.89541 1.99988,-1.99988 v -3.93774 c -7e-5,-1.10448 -0.8954,-1.99982 -1.99988,-1.99988 z" />
      <path
         style="fill:none;fill-opacity:1;stroke-width:75.1941;stroke-linecap:round;stroke-linejoin:round;paint-order:markers stroke fill"
         id="path45"
         width="343.95834"
         height="26.458332"
         x="0"
         y="0"
         d="M 0,0 H 343.95834 V 26.458332 H 0 Z M 687.91668,0 H 343.95834 V 26.458332 H 687.91668 Z M 0,26.458334 H 343.95834 V 52.916666 H 0 Z m 687.91668,0 H 343.95834 V 52.916666 H 687.91668 Z M 0,52.916668 H 343.95834 V 79.375 H 0 Z m 687.91668,0 H 343.95834 V 79.375 H 687.91668 Z M 0,79.375002 H 343.95834 V 105.83333 H 0 Z m 687.91668,0 H 343.95834 V 105.83333 H 687.91668 Z M 0,105.83334 h 343.95834 v 26.45833 H 0 Z m 687.91668,0 H 343.95834 v 26.45833 H 687.91668 Z M 0,132.29167 H 343.95834 V 158.75 H 0 Z m 687.91668,0 H 343.95834 V 158.75 H 687.91668 Z M 0,158.75 h 343.95834 v 26.45834 H 0 Z m 687.91668,0 H 343.95834 v 26.45834 H 687.91668 Z M 0,185.20834 h 343.95834 v 26.45833 H 0 Z m 687.91668,0 H 343.95834 v 26.45833 H 687.91668 Z M 0,211.66667 H 343.95834 V 238.125 H 0 Z m 687.91668,0 H 343.95834 V 238.125 H 687.91668 Z M 0,238.12501 h 343.95834 v 26.45833 H 0 Z m 687.91668,0 H 343.95834 v 26.45833 H 687.91668 Z M 0,264.58334 h 343.95834 v 26.45833 H 0 Z m 687.91668,0 H 343.95834 v 26.45833 H 687.91668 Z M 0,291.04167 h 343.95834 v 26.45834 H 0 Z m 687.91668,0 H 343.95834 v 26.45834 H 687.91668 Z M 0,317.50001 h 343.95834 v 26.45833 H 0 Z m 687.91668,0 H 343.95834 v 26.45833 h 343.95834 z" />
      <path
         style="opacity:1;fill:#000000;fill-opacity:1;stroke-width:75.1941;stroke-linecap:round;stroke-linejoin:round;paint-order:markers stroke fill"
         d="m 52.916666,26.458332 -10e-7,-11.229166 c 0,-1.104569 -0.895431,-2 -2,-2 h -9.229167 c -1.104569,0 -2,-0.895431 -2,-2 V 2 c 0,-1.1045695 0.895431,-2 2,-2 h 11.229167 l 10e-7,24.458332 c 0,1.10457 -0.89543,2 -2,2 h -9.229168 z m 582.083344,0 10e-6,-11.229166 c 0,-1.104569 0.89543,-2 2,-2 h 9.22916 c 1.10457,0 2,-0.895431 2,-2 V 2 c 0,-1.1045695 -0.89543,-2 -2,-2 h -11.22916 l -10e-6,24.458332 c 0,1.10457 0.89543,2 2,2 h 9.22917 z M 52.916666,52.916666 52.916665,41.6875 c 0,-1.104569 -0.895431,-2 -2,-2 h -9.229167 c -1.104569,0 -2,-0.895431 -2,-2 v -9.229166 c 0,-1.10457 0.895431,-2 2,-2 h 11.229167 l 10e-7,24.458332 c 0,1.10457 -0.89543,2 -2,2 h -9.229168 z m 582.083344,0 10e-6,-11.229166 c 0,-1.104569 0.89543,-2 2,-2 h 9.22916 c 1.10457,0 2,-0.895431 2,-2 v -9.229166 c 0,-1.10457 -0.89543,-2 -2,-2 h -11.22916 l -10e-6,24.458332 c 0,1.10457 0.89543,2 2,2 h 9.22917 z M 52.916666,79.375 l -10e-7,-11.229166 c 0,-1.104569 -0.895431,-2 -2,-2 h -9.229167 c -1.104569,0 -2,-0.895431 -2,-2 v -9.229166 c 0,-1.104569 0.895431,-2 2,-2 h 11.229167 l 10e-7,24.458332 c 0,1.10457 -0.89543,2 -2,2 h -9.229168 z m 582.083344,0 10e-6,-11.229166 c 0,-1.104569 0.89543,-2 2,-2 h 9.22916 c 1.10457,0 2,-0.895431 2,-2 v -9.229166 c 0,-1.104569 -0.89543,-2 -2,-2 h -11.22916 l -10e-6,24.458332 c 0,1.10457 0.89543,2 2,2 h 9.22917 z m -582.083344,26.45833 -10e-7,-11.229162 c 0,-1.104569 -0.895431,-2 -2,-2 h -9.229167 c -1.104569,0 -2,-0.895431 -2,-2 v -9.229166 c 0,-1.10457 0.895431,-2 2,-2 h 11.229167 l 10e-7,24.458328 c 0,1.10457 -0.89543,2 -2,2 h -9.229168 z m 582.083344,0 10e-6,-11.229162 c 0,-1.104569 0.89543,-2 2,-2 h 9.22916 c 1.10457,0 2,-0.895431 2,-2 v -9.229166 c 0,-1.10457 -0.89543,-2 -2,-2 h -11.22916 l -10e-6,24.458328 c 0,1.10457 0.89543,2 2,2 h 9.22917 z m -582.083344,26.45834 -10e-7,-11.22917 c 0,-1.10457 -0.895431,-2 -2,-2 h -9.229167 c -1.104569,0 -2,-0.89543 -2,-2 v -9.22916 c 0,-1.10457 0.895431,-2 2,-2 h 11.229167 l 10e-7,24.45833 c 0,1.10457 -0.89543,2 -2,2 h -9.229168 z m 582.083344,0 10e-6,-11.22917 c 0,-1.10457 0.89543,-2 2,-2 h 9.22916 c 1.10457,0 2,-0.89543 2,-2 v -9.22916 c 0,-1.10457 -0.89543,-2 -2,-2 h -11.22916 l -10e-6,24.45833 c 0,1.10457 0.89543,2 2,2 h 9.22917 z M 52.916666,158.75 l -10e-7,-11.22916 c 0,-1.10457 -0.895431,-2 -2,-2 h -9.229167 c -1.104569,0 -2,-0.89544 -2,-2 v -9.22917 c 0,-1.10457 0.895431,-2 2,-2 h 11.229167 l 10e-7,24.45833 c 0,1.10457 -0.89543,2 -2,2 h -9.229168 z m 582.083344,0 10e-6,-11.22916 c 0,-1.10457 0.89543,-2 2,-2 h 9.22916 c 1.10457,0 2,-0.89544 2,-2 v -9.22917 c 0,-1.10457 -0.89543,-2 -2,-2 h -11.22916 l -10e-6,24.45833 c 0,1.10457 0.89543,2 2,2 h 9.22917 z m -582.083344,26.45834 -10e-7,-11.22917 c 0,-1.10457 -0.895431,-2 -2,-2 h -9.229167 c -1.104569,0 -2,-0.89543 -2,-2 V 160.75 c 0,-1.10457 0.895431,-2 2,-2 h 11.229167 l 10e-7,24.45834 c 0,1.10457 -0.89543,2 -2,2 h -9.229168 z m 582.083344,0 10e-6,-11.22917 c 0,-1.10457 0.89543,-2 2,-2 h 9.22916 c 1.10457,0 2,-0.89543 2,-2 V 160.75 c 0,-1.10457 -0.89543,-2 -2,-2 h -11.22916 l -10e-6,24.45834 c 0,1.10457 0.89543,2 2,2 h 9.22917 z m -582.083344,26.45833 -10e-7,-11.22917 c 0,-1.10457 -0.895431,-2 -2,-2 h -9.229167 c -1.104569,0 -2,-0.89543 -2,-2 v -9.22916 c 0,-1.10457 0.895431,-2 2,-2 h 11.229167 l 10e-7,24.45833 c 0,1.10457 -0.89543,2 -2,2 h -9.229168 z m 582.083344,0 10e-6,-11.22917 c 0,-1.10457 0.89543,-2 2,-2 h 9.22916 c 1.10457,0 2,-0.89543 2,-2 v -9.22916 c 0,-1.10457 -0.89543,-2 -2,-2 h -11.22916 l -10e-6,24.45833 c 0,1.10457 0.89543,2 2,2 h 9.22917 z M 52.916666,238.125 l -10e-7,-11.22916 c 0,-1.10457 -0.895431,-2 -2,-2 h -9.229167 c -1.104569,0 -2,-0.89543 -2,-2 v -9.22917 c 0,-1.10457 0.895431,-2 2,-2 h 11.229167 l 10e-7,24.45833 c 0,1.10457 -0.89543,2 -2,2 h -9.229168 z m 582.083344,0 10e-6,-11.22916 c 0,-1.10457 0.89543,-2 2,-2 h 9.22916 c 1.10457,0 2,-0.89543 2,-2 v -9.22917 c 0,-1.10457 -0.89543,-2 -2,-2 h -11.22916 l -10e-6,24.45833 c 0,1.10457 0.89543,2 2,2 h 9.22917 z m -582.083344,26.45834 -10e-7,-11.22917 c 0,-1.10457 -0.895431,-2 -2,-2 h -9.229167 c -1.104569,0 -2,-0.89543 -2,-2 v -9.22916 c 0,-1.10457 0.895431,-2 2,-2 h 11.229167 l 10e-7,24.45833 c 0,1.10457 -0.89543,2 -2,2 h -9.229168 z m 582.083344,0 10e-6,-11.22917 c 0,-1.10457 0.89543,-2 2,-2 h 9.22916 c 1.10457,0 2,-0.89543 2,-2 v -9.22916 c 0,-1.10457 -0.89543,-2 -2,-2 h -11.22916 l -10e-6,24.45833 c 0,1.10457 0.89543,2 2,2 h 9.22917 z m -582.083344,26.45833 -10e-7,-11.22916 c 0,-1.10457 -0.895431,-2 -2,-2 h -9.229167 c -1.104569,0 -2,-0.89544 -2,-2 v -9.22917 c 0,-1.10457 0.895431,-2 2,-2 h 11.229167 l 10e-7,24.45833 c 0,1.10457 -0.89543,2 -2,2 h -9.229168 z m 582.083344,0 10e-6,-11.22916 c 0,-1.10457 0.89543,-2 2,-2 h 9.22916 c 1.10457,0 2,-0.89544 2,-2 v -9.22917 c 0,-1.10457 -0.89543,-2 -2,-2 h -11.22916 l -10e-6,24.45833 c 0,1.10457 0.89543,2 2,2 h 9.22917 z m -582.083344,26.45834 -10e-7,-11.22917 c 0,-1.10457 -0.895431,-2 -2,-2 h -9.229167 c -1.104569,0 -2,-0.89543 -2,-2 v -9.22917 c 0,-1.10457 0.895431,-2 2,-2 h 11.229167 l 10e-7,24.45834 c 0,1.10457 -0.89543,2 -2,2 h -9.229168 z m 582.083344,0 10e-6,-11.22917 c 0,-1.10457 0.89543,-2 2,-2 h 9.22916 c 1.10457,0 2,-0.89543 2,-2 v -9.22917 c 0,-1.10457 -0.89543,-2 -2,-2 h -11.22916 l -10e-6,24.45834 c 0,1.10457 0.89543,2 2,2 h 9.22917 z m -582.083344,26.45833 -10e-7,-11.22917 c 0,-1.10457 -0.895431,-2 -2,-2 h -9.229167 c -1.104569,0 -2,-0.89543 -2,-2 v -9.22916 c 0,-1.10457 0.895431,-2 2,-2 h 11.229167 l 10e-7,24.45833 c 0,1.10457 -0.89543,2 -2,2 h -9.229168 z m 582.083344,0 10e-6,-11.22917 c 0,-1.10457 0.89543,-2 2,-2 h 9.22916 c 1.10457,0 2,-0.89543 2,-2 v -9.22916 c 0,-1.10457 -0.89543,-2 -2,-2 h -11.22916 l -10e-6,24.45833 c 0,1.10457 0.89543,2 2,2 h 9.22917 z"
         id="path51" />
    </g>
  </g>
</svg>
