<?xml version="1.0" encoding="UTF-8" standalone="no"?>
<!-- Created with Inkscape (http://www.inkscape.org/) -->

<svg
   width="18.68877mm"
   height="55.732468mm"
   viewBox="0 0 18.688769 55.732466"
   version="1.1"
   id="svg1"
   xml:space="preserve"
   xmlns="http://www.w3.org/2000/svg"
   xmlns:svg="http://www.w3.org/2000/svg"><defs
     id="defs1" /><path
     id="path7"
     style="fill:#fccf00;fill-opacity:0.4;stroke-width:6.61458;stroke-linecap:round;paint-order:markers stroke fill"
     d="m 13.525391,1.0742187 c -0.827555,10e-8 -1.576474,0.4619159 -1.947266,1.2011719 L 3.3242188,18.732422 c -0.5482754,1.09311 0.247404,2.388672 1.4726562,2.388672 h 6.652344 c 0.824364,0 1.577748,-0.460694 1.949219,-1.201172 L 21.654297,3.4628906 C 22.2057,2.3637408 21.405027,1.0742188 20.179687,1.0742187 Z M 4.7949219,36.755859 c -1.2255034,-2.76e-4 -2.025534,1.289662 -1.4746094,2.388672 l 8.2500005,16.458985 c 0.370822,0.739733 1.122227,1.200985 1.949218,1.201171 l 6.654297,0.002 c 1.225591,2.76e-4 2.025645,-1.289636 1.474609,-2.388672 L 13.396484,37.958984 C 13.02497,37.218002 12.271067,36.757998 11.447266,36.757812 Z"
     transform="translate(-3.1430053,-1.0742187)" /><path
     id="path5"
     style="fill:#fccf00;fill-opacity:1;stroke-width:6.61458;stroke-linecap:round;paint-order:markers stroke fill"
     d="M 12.759182,2.869817 4.505007,19.326366 a 0.32658307,0.32658307 58.318573 0 0 0.2919208,0.473003 h 6.6528242 a 0.85748364,0.85748364 148.32061 0 0 0.766447,-0.472986 L 20.471855,2.8698001 A 0.32655708,0.32655708 58.320611 0 0 20.179968,2.3968141 H 13.525595 A 0.85741541,0.85741541 148.31857 0 0 12.759182,2.869817 Z M 12.7533,55.009411 4.5028382,38.551 a 0.32658307,0.32658307 121.69435 0 1 0.2920274,-0.472937 l 6.6528244,0.0015 a 0.85748364,0.85748364 31.692317 0 1 0.76634,0.473159 l 8.251943,16.458445 a 0.32655708,0.32655708 121.69232 0 1 -0.291994,0.47292 l -6.654373,-0.0015 A 0.85741541,0.85741541 31.694354 0 1 12.7533,55.009411 Z"
     transform="translate(-3.1430053,-1.0742187)" /></svg>
