<?xml version="1.0" encoding="UTF-8" standalone="no"?>
<!-- Created with Inkscape (http://www.inkscape.org/) -->

<svg
   width="18.08132mm"
   height="55.732422mm"
   viewBox="0 0 18.081319 55.732421"
   version="1.1"
   id="svg1"
   xml:space="preserve"
   xmlns="http://www.w3.org/2000/svg"
   xmlns:svg="http://www.w3.org/2000/svg"><defs
     id="defs1" /><path
     id="path7"
     style="fill:#ffe880;fill-opacity:0.4;stroke-width:6.61458;stroke-linecap:round;paint-order:markers stroke fill"
     d="m 14.320313,1.0742187 c -1.312387,0 -2.511101,0.7387848 -3.09961,1.9121094 L 3.6796875,18.023437 c -0.7145462,1.424609 0.3153786,3.097657 1.9101562,3.097657 H 10.65625 c 1.312835,0 2.508419,-0.735587 3.097656,-1.910157 L 21.296875,4.1738281 C 22.009494,2.7533153 20.978509,1.0742187 19.386719,1.0742187 Z M 5.5878906,36.755859 c -1.5950255,-3.6e-4 -2.6261953,1.673164 -1.9121093,3.097657 l 7.5390627,15.041015 c 0.588284,1.173537 1.785526,1.90986 3.097656,1.910156 l 5.068359,0.002 c 1.592038,3.59e-4 2.624258,-1.679235 1.91211,-3.09961 L 13.751953,38.667969 c -0.589165,-1.175087 -1.785505,-1.90986 -3.097656,-1.910157 z"
     transform="matrix(-1,0,0,1,21.52663,-1.0742187)" /><path
     id="path5"
     style="fill:#ffe880;fill-opacity:1;stroke-width:6.61458;stroke-linecap:round;paint-order:markers stroke fill"
     d="M 12.403313,3.5793213 4.8608758,18.616862 a 0.81645764,0.81645764 58.318573 0 0 0.7298019,1.182507 h 5.0653243 a 2.143709,2.143709 148.32061 0 0 1.916116,-1.182465 L 20.115936,3.5792791 A 0.81639267,0.81639267 58.320611 0 0 19.386218,2.3968141 H 14.319345 A 2.1435384,2.1435384 148.31857 0 0 12.403313,3.5793213 Z M 12.397591,54.299827 4.8585469,39.260585 a 0.81645764,0.81645764 121.69435 0 1 0.7300687,-1.182343 l 5.0653244,0.0011 a 2.143709,2.143709 31.692317 0 1 1.915849,1.182897 l 7.540425,15.039327 a 0.81639267,0.81639267 121.69232 0 1 -0.729985,1.1823 l -5.066873,-0.0011 a 2.1435384,2.1435384 31.694354 0 1 -1.915765,-1.182939 z"
     transform="matrix(-1,0,0,1,21.52663,-1.0742187)" /></svg>
