<?xml version="1.0" encoding="UTF-8" standalone="no"?>
<!-- Created with Inkscape (http://www.inkscape.org/) -->

<svg
   width="175.16602"
   height="89.763672"
   viewBox="0 0 46.346008 23.749971"
   version="1.1"
   id="svg1"
   xml:space="preserve"
   xmlns:xlink="http://www.w3.org/1999/xlink"
   xmlns="http://www.w3.org/2000/svg"
   xmlns:svg="http://www.w3.org/2000/svg"><defs
     id="defs1"><linearGradient
       id="linearGradient2"><stop
         style="stop-color:#e8b10b;stop-opacity:1;"
         offset="0"
         id="stop2" /><stop
         style="stop-color:#ffff52;stop-opacity:1;"
         offset="1"
         id="stop3" /></linearGradient><linearGradient
       xlink:href="#linearGradient2"
       id="linearGradient3"
       x1="19.134563"
       y1="15.570031"
       x2="65.480568"
       y2="15.570031"
       gradientUnits="userSpaceOnUse"
       gradientTransform="translate(-10.161058,0.96217194)" /><filter
       style="color-interpolation-filters:sRGB"
       id="filter4"
       x="-0.036298779"
       y="-0.070833919"
       width="1.0725976"
       height="1.1416678"><feGaussianBlur
         stdDeviation="0.70095979"
         id="feGaussianBlur4" /></filter><linearGradient
       xlink:href="#linearGradient2"
       id="linearGradient4"
       gradientUnits="userSpaceOnUse"
       gradientTransform="translate(-10.161058,0.96217194)"
       x1="19.134563"
       y1="15.570031"
       x2="65.480568"
       y2="15.570031" /></defs><g
     id="layer1"
     transform="translate(-8.9735046,-4.657218)"><path
       id="path4"
       style="opacity:1;fill:url(#linearGradient4);stroke-width:75.1941;stroke-linecap:round;stroke-linejoin:round;paint-order:markers stroke fill;filter:url(#filter4)"
       d="m 10.95788,4.657218 c -1.0959402,0 -1.9843754,0.888435 -1.9843754,1.984375 v 3.469039 c 0,0.184512 0.2229968,0.276714 0.3534668,0.146244 L 10.603896,8.9799515 C 10.830272,8.7535755 10.95788,8.4464018 10.95788,8.1262568 v -0.984436 c 0,-0.276142 0.223569,-0.5002278 0.499711,-0.5002278 h 0.984436 c 0.320145,0 0.627318,-0.1270908 0.853694,-0.3534668 l 1.276925,-1.2769247 c 0.13047,-0.13047 0.03827,-0.3539835 -0.146244,-0.3539835 z m 38.908219,0 c -0.184517,0 -0.276715,0.2235135 -0.146245,0.3539835 l 1.277442,1.2769247 c 0.226376,0.226376 0.533033,0.3534668 0.853178,0.3534668 h 0.984436 c 0.276142,0 0.500228,0.2240858 0.500228,0.5002278 v 0.984436 c 0,0.320145 0.12709,0.6273187 0.353466,0.8536947 l 1.277442,1.2769245 c 0.13047,0.13047 0.353467,0.03827 0.353467,-0.146244 V 6.641593 c 0,-1.09594 -0.888435,-1.984375 -1.984375,-1.984375 z M 9.1574727,22.748103 c -0.09721,0.01144 -0.1839681,0.09087 -0.1839681,0.206189 v 3.468522 c 0,1.09594 0.8884352,1.984375 1.9843754,1.984375 h 3.468522 c 0.184512,0 0.276714,-0.222996 0.146244,-0.353466 l -1.276925,-1.276925 c -0.226376,-0.226376 -0.533549,-0.353984 -0.853694,-0.353984 h -0.984436 c -0.276142,0 -0.499711,-0.223569 -0.499711,-0.499711 v -0.984436 c 0,-0.320145 -0.127608,-0.627318 -0.353984,-0.853694 L 9.3269714,22.808048 c -0.048926,-0.04893 -0.1111729,-0.06681 -0.1694987,-0.05994 z m 45.9775553,0 c -0.05833,-0.0069 -0.120056,0.01102 -0.168982,0.05994 l -1.277442,1.276925 c -0.226376,0.226376 -0.353466,0.533549 -0.353466,0.853694 v 0.984436 c 0,0.276142 -0.224086,0.499711 -0.500228,0.499711 h -0.984436 c -0.320145,0 -0.626802,0.127608 -0.853178,0.353984 l -1.277442,1.276925 c -0.13047,0.13047 -0.03827,0.353466 0.146245,0.353466 h 3.469039 c 1.09594,0 1.984375,-0.888435 1.984375,-1.984375 v -3.468522 c 0,-0.115317 -0.08728,-0.194752 -0.184485,-0.206189 z" /><path
       id="path1"
       style="opacity:1;fill:url(#linearGradient3);stroke-width:75.1941;stroke-linecap:round;stroke-linejoin:round;paint-order:markers stroke fill"
       d="m 10.95788,4.657218 c -1.0959402,0 -1.9843754,0.888435 -1.9843754,1.984375 v 3.469039 c 0,0.184512 0.2229968,0.276714 0.3534668,0.146244 L 10.603896,8.9799515 C 10.830272,8.7535755 10.95788,8.4464018 10.95788,8.1262568 v -0.984436 c 0,-0.276142 0.223569,-0.5002278 0.499711,-0.5002278 h 0.984436 c 0.320145,0 0.627318,-0.1270908 0.853694,-0.3534668 l 1.276925,-1.2769247 c 0.13047,-0.13047 0.03827,-0.3539835 -0.146244,-0.3539835 z m 38.908219,0 c -0.184517,0 -0.276715,0.2235135 -0.146245,0.3539835 l 1.277442,1.2769247 c 0.226376,0.226376 0.533033,0.3534668 0.853178,0.3534668 h 0.984436 c 0.276142,0 0.500228,0.2240858 0.500228,0.5002278 v 0.984436 c 0,0.320145 0.12709,0.6273187 0.353466,0.8536947 l 1.277442,1.2769245 c 0.13047,0.13047 0.353467,0.03827 0.353467,-0.146244 V 6.641593 c 0,-1.09594 -0.888435,-1.984375 -1.984375,-1.984375 z M 9.1574727,22.748103 c -0.09721,0.01144 -0.1839681,0.09087 -0.1839681,0.206189 v 3.468522 c 0,1.09594 0.8884352,1.984375 1.9843754,1.984375 h 3.468522 c 0.184512,0 0.276714,-0.222996 0.146244,-0.353466 l -1.276925,-1.276925 c -0.226376,-0.226376 -0.533549,-0.353984 -0.853694,-0.353984 h -0.984436 c -0.276142,0 -0.499711,-0.223569 -0.499711,-0.499711 v -0.984436 c 0,-0.320145 -0.127608,-0.627318 -0.353984,-0.853694 L 9.3269714,22.808048 c -0.048926,-0.04893 -0.1111729,-0.06681 -0.1694987,-0.05994 z m 45.9775553,0 c -0.05833,-0.0069 -0.120056,0.01102 -0.168982,0.05994 l -1.277442,1.276925 c -0.226376,0.226376 -0.353466,0.533549 -0.353466,0.853694 v 0.984436 c 0,0.276142 -0.224086,0.499711 -0.500228,0.499711 h -0.984436 c -0.320145,0 -0.626802,0.127608 -0.853178,0.353984 l -1.277442,1.276925 c -0.13047,0.13047 -0.03827,0.353466 0.146245,0.353466 h 3.469039 c 1.09594,0 1.984375,-0.888435 1.984375,-1.984375 v -3.468522 c 0,-0.115317 -0.08728,-0.194752 -0.184485,-0.206189 z" /></g></svg>
