<?xml version="1.0" encoding="UTF-8" standalone="no"?>
<!-- Generator: Adobe Illustrator 16.2.0, SVG Export Plug-In . SVG Version: 6.00 Build 0)  -->

<svg
   version="1.1"
   id="レイヤー_1"
   x="0px"
   y="0px"
   width="60"
   height="60"
   viewBox="0 0 60 60"
   enable-background="new 0 0 60 60"
   xml:space="preserve"
   xmlns="http://www.w3.org/2000/svg"
   xmlns:svg="http://www.w3.org/2000/svg"><defs
   id="defs22" />
<g
   id="g22">
	<g
   id="g7">
		<g
   id="g1">
			<path
   fill="#003366"
   d="M 30,0 C 13.455,0 0,13.457 0,30 0,46.541 13.455,60 30,60 46.542,60 60,46.541 60,30 60,13.457 46.542,0 30,0 Z m 0,58.652 C 14.199,58.652 1.348,45.799 1.348,30 v 0 h 2.828 c 10e-4,-1.04 0.061,-2.082 0.188,-3.112 l -2.808,-0.34 c 0.141,-1.157 0.349,-2.293 0.623,-3.404 l 2.74,0.674 C 5.168,22.807 5.478,21.812 5.847,20.84 l -2.638,-1 c 0.413,-1.084 0.89,-2.137 1.426,-3.154 l 2.493,1.313 C 7.611,17.076 8.151,16.186 8.743,15.332 L 6.43,13.728 c 0.658,-0.95 1.37,-1.857 2.136,-2.719 l 2.104,1.867 c 0.69,-0.778 1.428,-1.514 2.207,-2.204 L 11.009,8.565 C 11.871,7.801 12.779,7.087 13.728,6.43 L 15.33,8.743 C 16.185,8.154 17.077,7.614 17.997,7.129 L 16.684,4.636 C 17.703,4.1 18.756,3.623 19.84,3.21 l 1.002,2.638 C 21.812,5.481 22.81,5.169 23.82,4.922 L 23.145,2.179 c 1.11,-0.274 2.246,-0.483 3.403,-0.623 l 0.338,2.808 C 27.919,4.238 28.961,4.176 30,4.176 V 1.347 c 1.167,0 2.319,0.072 3.45,0.208 l -0.338,2.808 c 1.032,0.121 2.057,0.31 3.068,0.558 l 0.674,-2.744 c 1.13,0.278 2.232,0.624 3.305,1.032 l -1.001,2.638 c 0.973,0.369 1.922,0.797 2.846,1.281 l 1.31,-2.494 c 1.023,0.539 2.01,1.139 2.957,1.793 L 44.67,8.743 c 0.855,0.593 1.673,1.238 2.455,1.929 l 1.866,-2.106 c 0.861,0.764 1.677,1.58 2.442,2.442 l -2.104,1.868 c 0.688,0.779 1.332,1.6 1.925,2.455 l 2.316,-1.603 c 0.654,0.946 1.254,1.934 1.794,2.958 l -2.494,1.313 c 0.481,0.922 0.912,1.87 1.28,2.842 l 2.639,-1.001 c 0.408,1.072 0.754,2.175 1.031,3.305 l -2.742,0.674 c 0.247,1.011 0.436,2.036 0.558,3.07 l 2.808,-0.34 c 0.138,1.132 0.209,2.284 0.209,3.453 C 58.652,45.799 45.798,58.652 30,58.652 Z"
   id="path1" />
		</g>
		<path
   fill="#003366"
   d="m 30,8.262 c 11.987,0 21.738,9.75 21.738,21.739 C 51.738,41.987 41.987,51.739 30,51.739 18.012,51.738 8.262,41.986 8.262,30 8.262,18.012 18.012,8.262 30,8.262 M 30,6.987 C 17.311,6.987 6.986,17.311 6.986,30 6.986,42.689 17.31,53.013 30,53.013 42.69,53.013 53.014,42.689 53.014,30 53.014,17.311 42.69,6.987 30,6.987 Z"
   id="path2" />
		<polygon
   fill="#003366"
   points="2.29,33.662 2.871,35.77 4.729,35.516 4.168,37.398 5.615,38.729 3.887,39.461 4.469,41.57 8.278,39.953 7.697,37.844 6.279,36.816 6.971,35.209 6.389,33.1 "
   id="polygon2" />
		<path
   fill="#003366"
   d="m 16.95,49.824 -1.383,-0.93 -0.458,-0.307 -1.37,-0.922 -2.391,3.303 1.827,1.229 1.754,-2.422 0.996,0.67 c 0.334,0.225 0.252,0.891 -0.26,0.955 -0.512,0.066 -1.077,-0.217 -1.077,-0.217 l 0.413,2.242 2.055,1.383 -0.344,-1.867 c 0,0 1.265,0.127 1.743,-0.533 0.693,-0.957 -0.591,-1.969 -1.505,-2.584 z"
   id="path3" />
		<polygon
   fill="#003366"
   points="19.816,55.77 21.707,56.438 22.975,52.934 21.083,52.268 "
   id="polygon3" />
		<g
   id="g4">
			<path
   fill="#003366"
   d="m 28.085,53.633 c -1.807,-0.143 -3.365,0.688 -3.478,1.85 -0.111,1.164 1.264,2.219 3.072,2.361 1.809,0.141 3.367,-0.688 3.479,-1.852 0.113,-1.162 -1.263,-2.219 -3.073,-2.359 z m -0.263,2.724 c -0.531,-0.041 -0.936,-0.354 -0.903,-0.695 0.034,-0.342 0.491,-0.584 1.023,-0.543 0.532,0.041 0.937,0.352 0.902,0.693 -0.032,0.342 -0.49,0.586 -1.022,0.545 z"
   id="path4" />
		</g>
		<polygon
   fill="#003366"
   points="6.954,45.729 10.271,44.707 8.255,47.439 9.555,49.15 12.075,45.734 11.1,44.453 10.774,44.023 9.799,42.742 5.653,44.018 "
   id="polygon4" />
		<polygon
   fill="#003366"
   points="34.612,53.471 35.972,57.174 38.087,56.498 37.453,54.77 39.939,55.904 42.321,55.145 39.656,53.928 40.962,51.441 38.58,52.201 37.363,54.521 36.728,52.793 "
   id="polygon5" />
		<polygon
   fill="#003366"
   points="46.202,52.67 45.04,49.521 47.948,51.373 49.693,50.078 46.057,47.764 44.749,48.734 44.313,49.059 43.004,50.029 44.456,53.963 "
   id="polygon6" />
		<path
   fill="#003366"
   d="m 52.809,40.844 c -1.01,-0.652 -2.026,0.623 -2.643,1.529 l -0.934,1.371 -0.308,0.453 -0.923,1.359 3.483,2.252 1.23,-1.811 -2.554,-1.652 0.672,-0.988 c 0.224,-0.332 0.916,-0.268 0.996,0.23 0.08,0.496 -0.199,1.055 -0.199,1.055 l 2.316,-0.457 1.385,-2.037 -1.93,0.381 c 0.002,0 0.106,-1.236 -0.591,-1.685 z"
   id="path6" />
		<polygon
   fill="#003366"
   points="52.508,38.539 53.55,38.775 54.025,36.707 56.891,37.355 57.365,35.287 54.5,34.641 54.975,32.572 53.932,32.336 53.457,34.404 52.984,36.473 "
   id="polygon7" />
		<path
   fill="#003366"
   d="m 53.004,30 c 0,-0.94 -0.059,-1.868 -0.169,-2.778 l 2.802,-0.335 C 55.516,25.854 55.329,24.829 55.08,23.818 l -2.745,0.675 c -0.224,-0.905 -0.501,-1.79 -0.827,-2.649 l 2.646,-1.004 c -0.369,-0.973 -0.797,-1.921 -1.282,-2.842 l -2.505,1.317 c -0.434,-0.821 -0.914,-1.614 -1.44,-2.373 l 2.331,-1.611 c -0.592,-0.857 -1.239,-1.677 -1.926,-2.456 l -2.121,1.881 C 46.596,14.062 45.94,13.404 45.246,12.79 l 1.878,-2.119 C 46.347,9.981 45.527,9.335 44.672,8.743 l -1.611,2.333 C 42.301,10.55 41.509,10.068 40.688,9.636 L 42.005,7.128 C 41.085,6.645 40.133,6.216 39.16,5.848 L 38.158,8.494 C 37.3,8.166 36.413,7.889 35.509,7.665 L 36.183,4.92 C 35.174,4.671 34.148,4.483 33.117,4.363 L 32.778,7.165 C 31.865,7.055 30.939,6.997 30,6.997 V 4.174 c -1.038,0 -2.079,0.063 -3.112,0.188 l 0.337,2.802 c -0.929,0.112 -1.84,0.28 -2.731,0.5 L 23.82,4.919 c -1.008,0.249 -2.005,0.56 -2.977,0.927 l 1.002,2.646 c -0.869,0.331 -1.713,0.713 -2.53,1.143 L 17.999,7.127 C 17.08,7.612 16.188,8.153 15.33,8.743 l 1.612,2.333 c -0.763,0.528 -1.491,1.101 -2.184,1.715 l -1.883,-2.119 c -0.776,0.688 -1.513,1.425 -2.204,2.204 l 2.12,1.881 c -0.614,0.693 -1.188,1.422 -1.716,2.186 L 8.746,15.332 C 8.155,16.185 7.615,17.076 7.13,17.999 l 2.505,1.317 c -0.429,0.815 -0.811,1.659 -1.14,2.528 L 5.85,20.84 c -0.369,0.971 -0.68,1.967 -0.928,2.978 l 2.744,0.674 c -0.219,0.891 -0.388,1.802 -0.5,2.73 L 4.364,26.887 C 4.238,27.918 4.182,28.959 4.179,30 H 1.348 c 0,-1.17 0.072,-2.321 0.209,-3.454 l 2.808,0.34 C 4.488,25.853 4.677,24.828 4.923,23.817 L 2.18,23.144 c 0.277,-1.13 0.623,-2.232 1.031,-3.305 L 5.85,20.84 C 6.219,19.867 6.647,18.919 7.13,17.998 L 4.636,16.685 c 0.54,-1.024 1.141,-2.012 1.796,-2.959 l 2.314,1.604 c 0.593,-0.857 1.236,-1.677 1.925,-2.456 L 8.567,11.006 c 0.765,-0.862 1.58,-1.678 2.442,-2.442 l 1.865,2.106 C 13.656,9.98 14.476,9.334 15.328,8.742 L 13.73,6.427 c 0.946,-0.655 1.933,-1.254 2.956,-1.793 l 1.312,2.493 C 18.92,6.644 19.87,6.215 20.843,5.847 L 19.84,3.208 C 20.913,2.8 22.018,2.455 23.147,2.177 L 23.82,4.919 C 24.832,4.67 25.856,4.482 26.888,4.362 L 26.55,1.555 C 27.682,1.418 28.833,1.347 30,1.347 v 2.828 c 1.041,0 2.082,0.063 3.115,0.188 l 0.338,-2.808 c 1.157,0.14 2.293,0.349 3.403,0.623 L 36.181,4.92 c 1.01,0.249 2.008,0.56 2.978,0.927 l 1.002,-2.638 c 1.085,0.413 2.138,0.89 3.157,1.426 l -1.314,2.492 c 0.92,0.485 1.812,1.026 2.667,1.616 l 1.602,-2.314 c 0.949,0.658 1.857,1.371 2.719,2.135 l -1.868,2.107 c 0.779,0.688 1.517,1.425 2.208,2.204 l 2.104,-1.867 c 0.765,0.862 1.479,1.77 2.136,2.718 l -2.314,1.604 c 0.591,0.853 1.131,1.744 1.614,2.667 l 2.494,-1.313 c 0.537,1.016 1.012,2.07 1.425,3.154 l -2.637,1 c 0.368,0.971 0.679,1.967 0.927,2.978 l 2.742,-0.674 c 0.273,1.11 0.482,2.246 0.621,3.403 l -2.807,0.34 c 0.127,1.031 0.187,2.073 0.188,3.113 z"
   id="path7" />
	</g>
	<polygon
   fill="#003366"
   points="33.227,11.313 30.996,10.99 30.001,8.971 29.003,10.99 26.775,11.313 28.389,12.885 28.009,15.103 30.001,14.057 31.993,15.103 31.611,12.885 "
   id="polygon8" />
	<polygon
   fill="#003366"
   points="37.247,13.507 36.045,13.112 35.688,11.896 34.94,12.917 33.673,12.878 34.413,13.907 33.985,15.1 35.191,14.714 36.194,15.488 36.199,14.223 "
   id="polygon9" />
	<polygon
   fill="#003366"
   points="26.326,12.878 25.06,12.917 24.312,11.896 23.957,13.112 22.754,13.507 23.8,14.223 23.806,15.488 24.809,14.714 26.015,15.1 25.587,13.907 "
   id="polygon10" />
	<polygon
   fill="#003366"
   points="41.192,16.22 40.217,15.234 40.476,13.87 39.235,14.495 38.018,13.826 38.23,15.199 37.217,16.15 38.586,16.374 39.181,17.628 39.816,16.396 "
   id="polygon11" />
	<polygon
   fill="#003366"
   points="21.77,15.199 21.983,13.826 20.765,14.495 19.524,13.87 19.783,15.234 18.808,16.22 20.185,16.394 20.819,17.628 21.412,16.374 22.782,16.15 "
   id="polygon12" />
	
	
	
	
	
	
	
	
	
	
	
	<path
   fill="#003366"
   d="m 46.785,26.695 c 0.115,0.758 0.533,1.319 0.776,1.594 -0.002,0.598 -0.035,1.318 -0.123,2.133 -0.061,-0.291 -0.169,-0.615 -0.365,-0.928 -0.558,-0.885 -1.368,-0.959 -1.368,-0.959 0,0 -0.282,0.762 0.277,1.646 0.412,0.654 1.041,0.992 1.342,1.125 -0.084,0.557 -0.193,1.148 -0.338,1.768 -0.055,-0.355 -0.186,-0.814 -0.485,-1.238 -0.603,-0.855 -1.414,-0.884 -1.414,-0.884 0,0 -0.241,0.775 0.362,1.628 0.447,0.633 1.094,0.938 1.4,1.053 -0.163,0.629 -0.36,1.283 -0.601,1.955 -0.043,-0.367 -0.164,-0.883 -0.499,-1.357 -0.604,-0.855 -1.417,-0.889 -1.417,-0.889 0,0 -0.24,0.777 0.363,1.633 0.443,0.627 1.083,0.932 1.393,1.049 -0.27,0.709 -0.586,1.436 -0.956,2.174 0.002,-0.414 -0.063,-1.014 -0.374,-1.592 -0.551,-1.023 -1.444,-1.168 -1.444,-1.168 0,0 -0.369,0.826 0.184,1.85 0.408,0.758 1.084,1.182 1.406,1.35 -0.379,0.715 -0.813,1.439 -1.304,2.166 0.06,-0.432 0.081,-1.135 -0.214,-1.84 -0.478,-1.137 -1.404,-1.381 -1.404,-1.381 0,0 -0.476,0.834 10e-4,1.971 0.369,0.879 1.079,1.402 1.384,1.596 -0.331,0.473 -0.688,0.945 -1.074,1.418 l -0.021,0.027 c -0.056,0.068 -0.045,0.168 0.022,0.225 0.03,0.025 0.065,0.037 0.103,0.037 0.047,0 0.092,-0.02 0.124,-0.059 l 0.021,-0.025 c 0.14,-0.172 0.272,-0.344 0.403,-0.514 0.338,0.143 1.343,0.5 2.46,0.242 1.372,-0.316 1.827,-1.311 1.827,-1.311 0,0 -0.844,-0.697 -2.218,-0.381 -0.668,0.154 -1.202,0.488 -1.577,0.791 0.416,-0.576 0.797,-1.152 1.141,-1.725 0.329,0.123 1.25,0.404 2.253,0.137 1.254,-0.334 1.641,-1.266 1.641,-1.266 0,0 -0.8,-0.615 -2.054,-0.279 -0.681,0.182 -1.196,0.563 -1.532,0.875 0.354,-0.625 0.666,-1.246 0.942,-1.857 0.335,0.084 1.182,0.234 2.049,-0.1 1.116,-0.428 1.38,-1.318 1.38,-1.318 0,0 -0.791,-0.484 -1.907,-0.057 -0.565,0.217 -0.985,0.58 -1.265,0.887 0.245,-0.582 0.461,-1.156 0.645,-1.717 0.298,0.025 1.115,0.039 1.87,-0.414 0.944,-0.566 1.042,-1.416 1.042,-1.416 0,0 -0.796,-0.314 -1.74,0.252 -0.459,0.277 -0.774,0.652 -0.979,0.969 0.189,-0.633 0.343,-1.244 0.468,-1.828 0.303,-0.014 1.11,-0.102 1.801,-0.641 0.868,-0.678 0.861,-1.533 0.861,-1.533 0,0 -0.828,-0.215 -1.695,0.464 -0.403,0.314 -0.666,0.705 -0.834,1.033 0.111,-0.611 0.19,-1.187 0.245,-1.724 0.268,-0.085 1.052,-0.387 1.582,-1.115 0.649,-0.891 0.408,-1.711 0.408,-1.711 0,0 -0.855,0.021 -1.505,0.91 -0.186,0.254 -0.311,0.521 -0.396,0.773 0.018,-0.36 0.026,-0.693 0.026,-0.995 0.149,-0.348 0.357,-0.986 0.245,-1.715 -0.167,-1.089 -0.917,-1.5 -0.917,-1.5 0,0 -0.595,0.617 -0.427,1.706 z"
   id="path21" />
	<path
   fill="#003366"
   d="m 17.056,42.258 c 0.131,0.17 0.264,0.342 0.403,0.514 l 0.021,0.025 c 0.032,0.039 0.077,0.059 0.124,0.059 0.037,0 0.073,-0.012 0.103,-0.037 0.067,-0.057 0.078,-0.156 0.022,-0.225 l -0.021,-0.027 c -0.385,-0.473 -0.743,-0.945 -1.074,-1.418 0.305,-0.193 1.015,-0.717 1.384,-1.596 0.477,-1.137 10e-4,-1.971 10e-4,-1.971 0,0 -0.927,0.244 -1.404,1.381 -0.295,0.705 -0.273,1.408 -0.214,1.84 -0.491,-0.727 -0.925,-1.451 -1.304,-2.166 0.322,-0.168 0.998,-0.592 1.406,-1.35 0.553,-1.023 0.184,-1.85 0.184,-1.85 0,0 -0.894,0.145 -1.444,1.168 -0.312,0.578 -0.376,1.178 -0.374,1.592 -0.37,-0.738 -0.687,-1.465 -0.955,-2.174 0.31,-0.117 0.947,-0.422 1.392,-1.049 0.604,-0.855 0.363,-1.633 0.363,-1.633 0,0 -0.813,0.033 -1.417,0.889 -0.335,0.475 -0.456,0.99 -0.499,1.357 -0.24,-0.672 -0.438,-1.326 -0.601,-1.955 0.307,-0.115 0.953,-0.42 1.402,-1.053 0.604,-0.854 0.36,-1.628 0.36,-1.628 0,0 -0.812,0.029 -1.414,0.884 -0.3,0.424 -0.431,0.883 -0.486,1.236 -0.144,-0.617 -0.253,-1.209 -0.337,-1.766 0.301,-0.133 0.93,-0.47 1.342,-1.125 0.56,-0.885 0.277,-1.646 0.277,-1.646 0,0 -0.811,0.074 -1.368,0.959 -0.196,0.313 -0.305,0.637 -0.365,0.928 -0.088,-0.814 -0.121,-1.535 -0.123,-2.133 0.243,-0.275 0.659,-0.836 0.775,-1.594 0.168,-1.089 -0.424,-1.706 -0.424,-1.706 0,0 -0.75,0.411 -0.917,1.5 -0.112,0.729 0.096,1.368 0.245,1.715 0,0.301 0.009,0.635 0.027,0.996 -0.087,-0.253 -0.212,-0.521 -0.397,-0.774 -0.649,-0.89 -1.505,-0.91 -1.505,-0.91 0,0 -0.241,0.82 0.408,1.711 0.536,0.735 1.323,1.033 1.581,1.115 0.056,0.537 0.135,1.113 0.246,1.724 -0.168,-0.33 -0.431,-0.719 -0.832,-1.033 -0.869,-0.679 -1.697,-0.464 -1.697,-0.464 0,0 -0.007,0.855 0.861,1.533 0.69,0.539 1.499,0.627 1.801,0.641 0.125,0.584 0.278,1.195 0.468,1.828 -0.205,-0.316 -0.521,-0.691 -0.979,-0.969 -0.944,-0.566 -1.74,-0.252 -1.74,-0.252 0,0 0.098,0.85 1.041,1.416 0.756,0.453 1.572,0.439 1.871,0.414 0.184,0.559 0.399,1.133 0.644,1.715 -0.279,-0.305 -0.698,-0.668 -1.264,-0.885 -1.115,-0.428 -1.907,0.057 -1.907,0.057 0,0 0.265,0.891 1.38,1.318 0.867,0.334 1.714,0.184 2.049,0.1 0.276,0.611 0.588,1.232 0.942,1.859 -0.336,-0.313 -0.852,-0.695 -1.532,-0.877 -1.254,-0.336 -2.053,0.279 -2.053,0.279 0,0 0.387,0.932 1.64,1.266 1.003,0.268 1.924,-0.014 2.253,-0.139 0.344,0.574 0.725,1.15 1.141,1.727 -0.374,-0.303 -0.909,-0.637 -1.577,-0.791 -1.373,-0.316 -2.218,0.381 -2.218,0.381 0,0 0.455,0.994 1.827,1.311 1.115,0.258 2.12,-0.1 2.458,-0.242 z"
   id="path22" />
<path
   style="fill:#b20000;fill-opacity:1;stroke:#000d49;stroke-width:1;stroke-linejoin:round;stroke-dasharray:none;stroke-opacity:1;paint-order:markers fill stroke"
   d="m 26,48.10608 c 2.708333,1.125 5.375,1.125 8,0 l 3.5,-18.428697 h -15 z"
   id="path27" /><ellipse
   style="fill:#ffe3e3;fill-opacity:1;stroke:#000d49;stroke-width:1;stroke-linejoin:round;stroke-dasharray:none;stroke-opacity:1;paint-order:markers fill stroke"
   id="path28"
   cx="29.999994"
   cy="29.677383"
   rx="7.4857373"
   ry="2.4330821" /><circle
   style="fill:#ffffff;fill-opacity:1;stroke:#000d49;stroke-width:1;stroke-linejoin:round;stroke-dasharray:none;stroke-opacity:1;paint-order:markers fill stroke"
   id="path29"
   cx="33.999985"
   cy="24.077394"
   r="4.1526518" /></g>
</svg>
