<?xml version="1.0" encoding="UTF-8" standalone="no"?>
<!-- Generator: Adobe Illustrator 16.2.0, SVG Export Plug-In . SVG Version: 6.00 Build 0)  -->

<svg
   version="1.1"
   id="レイヤー_1"
   x="0px"
   y="0px"
   width="60"
   height="60"
   viewBox="0 0 60 60"
   enable-background="new 0 0 60 60"
   xml:space="preserve"
   xmlns="http://www.w3.org/2000/svg"
   xmlns:svg="http://www.w3.org/2000/svg"><defs
   id="defs33" />
<g
   id="g33">
	
	
	
	
	<polygon
   fill="#003366"
   points="28.742,48.507 28.447,50.237 30,49.422 31.555,50.237 31.258,48.507 32.514,47.281 30.777,47.03 30,45.453 29.223,47.03 27.487,47.281 "
   id="polygon11" />
	<polygon
   fill="#003366"
   points="34.969,47.112 36.246,47.628 36.545,48.972 37.43,47.915 38.803,48.045 38.07,46.877 38.619,45.612 37.281,45.946 36.248,45.036 36.152,46.411 "
   id="polygon12" />
	<polygon
   fill="#003366"
   points="21.199,48.045 22.57,47.915 23.455,48.972 23.754,47.628 25.033,47.112 23.847,46.411 23.751,45.036 22.718,45.946 21.382,45.612 21.929,46.877 "
   id="polygon13" />
	<path
   fill="#003366"
   d="m 47.656,35.807 c 0.318,-1.044 -0.131,-1.747 -0.131,-1.747 0,0 -0.752,0.285 -1.07,1.328 -0.217,0.713 -0.113,1.395 -0.027,1.756 -0.246,0.584 -0.559,1.225 -0.951,1.895 0.07,-0.283 0.113,-0.615 0.082,-0.977 -0.094,-1.039 -0.734,-1.468 -0.734,-1.468 0,0 -0.555,0.551 -0.461,1.589 0.068,0.771 0.451,1.354 0.645,1.605 -0.318,0.48 -0.68,0.968 -1.088,1.452 0.113,-0.347 0.221,-0.85 0.143,-1.405 -0.143,-1.031 -0.803,-1.426 -0.803,-1.426 0,0 -0.527,0.582 -0.385,1.613 0.109,0.773 0.529,1.342 0.73,1.577 -0.432,0.479 -0.912,0.954 -1.445,1.413 0.131,-0.34 0.289,-0.917 0.199,-1.563 -0.143,-1.031 -0.805,-1.426 -0.805,-1.426 0,0 -0.527,0.583 -0.383,1.613 0.107,0.783 0.535,1.354 0.736,1.584 -0.248,0.202 -0.502,0.402 -0.771,0.598 l 0.166,0.266 c 0.588,-0.423 1.117,-0.869 1.602,-1.326 0.24,0.205 0.838,0.641 1.617,0.697 1.023,0.072 1.549,-0.567 1.549,-0.567 0,0 -0.441,-0.71 -1.465,-0.782 -0.506,-0.037 -0.955,0.097 -1.281,0.24 0.418,-0.424 0.797,-0.854 1.139,-1.287 0.27,0.128 0.965,0.398 1.746,0.232 1.006,-0.213 1.359,-0.977 1.359,-0.977 0,0 -0.6,-0.563 -1.604,-0.351 -0.42,0.089 -0.771,0.284 -1.039,0.481 0.328,-0.461 0.619,-0.918 0.873,-1.362 0.305,0.042 1.027,0.089 1.725,-0.293 0.912,-0.499 1.057,-1.338 1.057,-1.338 0,0 -0.719,-0.366 -1.633,0.134 -0.23,0.127 -0.426,0.283 -0.594,0.447 0.133,-0.273 0.25,-0.536 0.357,-0.789 0.268,-0.233 0.728,-0.721 0.945,-1.436 z"
   id="path13" />
	<path
   fill="#003366"
   d="m 17.095,42.759 c 0.484,0.457 1.016,0.903 1.602,1.326 l 0.167,-0.266 c -0.27,-0.195 -0.524,-0.396 -0.772,-0.598 0.201,-0.23 0.629,-0.801 0.737,-1.584 0.144,-1.03 -0.383,-1.613 -0.383,-1.613 0,0 -0.662,0.395 -0.806,1.426 -0.088,0.646 0.07,1.223 0.201,1.563 -0.535,-0.459 -1.016,-0.934 -1.447,-1.413 0.203,-0.235 0.623,-0.804 0.73,-1.577 0.143,-1.031 -0.384,-1.613 -0.384,-1.613 0,0 -0.661,0.395 -0.804,1.426 -0.076,0.556 0.029,1.059 0.145,1.405 -0.41,-0.484 -0.771,-0.972 -1.09,-1.452 0.194,-0.251 0.577,-0.835 0.645,-1.605 0.093,-1.038 -0.461,-1.589 -0.461,-1.589 0,0 -0.641,0.429 -0.733,1.468 -0.032,0.361 0.011,0.693 0.081,0.977 -0.393,-0.67 -0.705,-1.311 -0.95,-1.895 0.086,-0.361 0.188,-1.043 -0.028,-1.756 -0.318,-1.043 -1.069,-1.328 -1.069,-1.328 0,0 -0.45,0.703 -0.132,1.747 0.218,0.716 0.679,1.203 0.947,1.438 0.106,0.253 0.224,0.516 0.355,0.789 -0.166,-0.164 -0.363,-0.32 -0.594,-0.447 -0.912,-0.5 -1.631,-0.134 -1.631,-0.134 0,0 0.144,0.839 1.056,1.338 0.697,0.382 1.42,0.335 1.724,0.293 0.255,0.444 0.545,0.901 0.875,1.362 -0.268,-0.197 -0.62,-0.393 -1.04,-0.481 -1.005,-0.213 -1.604,0.351 -1.604,0.351 0,0 0.353,0.764 1.358,0.977 0.783,0.166 1.478,-0.104 1.748,-0.232 0.341,0.433 0.719,0.863 1.137,1.287 -0.326,-0.144 -0.775,-0.277 -1.281,-0.24 -1.022,0.072 -1.464,0.782 -1.464,0.782 0,0 0.525,0.64 1.548,0.567 0.779,-0.059 1.377,-0.494 1.617,-0.699 z"
   id="path14" />
	
	
	
	<g
   id="g32">
		<g
   id="g26">
			<path
   fill="#003366"
   d="M 30,0 C 13.455,0 0,13.457 0,30.001 0,46.542 13.455,60 30,60 46.543,60 60,46.542 60,30.001 60,13.457 46.543,0 30,0 Z m 0,58.653 C 14.199,58.653 1.348,45.799 1.348,30.001 V 29.999 H 4.176 C 4.177,28.96 4.237,27.918 4.364,26.888 l -2.808,-0.34 c 0.141,-1.157 0.349,-2.293 0.623,-3.404 l 2.74,0.674 C 5.168,22.807 5.478,21.812 5.847,20.84 l -2.638,-1 c 0.413,-1.084 0.89,-2.137 1.426,-3.154 l 2.493,1.313 C 7.611,17.076 8.151,16.186 8.743,15.332 L 6.43,13.728 c 0.658,-0.95 1.37,-1.857 2.136,-2.719 l 2.104,1.867 c 0.69,-0.778 1.428,-1.514 2.207,-2.204 L 11.009,8.565 C 11.871,7.801 12.779,7.087 13.728,6.43 L 15.33,8.743 C 16.186,8.154 17.077,7.614 17.997,7.129 L 16.684,4.636 C 17.702,4.1 18.756,3.623 19.84,3.21 l 1.002,2.638 C 21.811,5.481 22.809,5.169 23.819,4.922 L 23.145,2.179 c 1.109,-0.274 2.246,-0.483 3.402,-0.623 l 0.338,2.808 C 27.919,4.238 28.96,4.176 30,4.176 V 1.347 c 1.168,0 2.32,0.072 3.451,0.208 l -0.338,2.808 c 1.031,0.121 2.057,0.31 3.068,0.558 l 0.674,-2.744 c 1.129,0.278 2.232,0.624 3.305,1.032 l -1.002,2.638 c 0.973,0.369 1.922,0.797 2.846,1.281 l 1.311,-2.494 c 1.023,0.539 2.01,1.139 2.957,1.793 L 44.67,8.743 c 0.855,0.593 1.674,1.238 2.455,1.929 l 1.867,-2.106 c 0.861,0.764 1.676,1.58 2.441,2.442 l -2.104,1.868 c 0.688,0.779 1.332,1.6 1.924,2.455 l 2.316,-1.603 c 0.654,0.946 1.254,1.934 1.795,2.958 l -2.494,1.313 c 0.48,0.922 0.912,1.87 1.279,2.842 l 2.639,-1.001 c 0.408,1.072 0.754,2.175 1.031,3.305 l -2.742,0.674 c 0.248,1.011 0.436,2.036 0.559,3.07 l 2.807,-0.34 c 0.139,1.132 0.209,2.283 0.209,3.453 0,15.797 -12.853,28.651 -28.652,28.651 z"
   id="path26" />
		</g>
		<path
   fill="#003366"
   d="m 30,8.262 c 11.988,0 21.738,9.75 21.738,21.739 0,11.985 -9.75,21.738 -21.738,21.738 C 18.011,51.739 8.262,41.986 8.262,30.001 8.262,18.012 18.011,8.262 30,8.262 M 30,6.987 C 17.31,6.987 6.986,17.311 6.986,30.001 6.986,42.69 17.31,53.013 30,53.013 42.691,53.013 53.014,42.691 53.014,30.001 53.014,17.311 42.691,6.987 30,6.987 Z"
   id="path27" />
		<polygon
   fill="#003366"
   points="2.29,33.662 2.871,35.771 4.729,35.517 4.168,37.397 5.615,38.728 3.887,39.461 4.469,41.57 8.278,39.952 7.697,37.845 6.279,36.817 6.971,35.208 6.389,33.1 "
   id="polygon27" />
		<path
   fill="#003366"
   d="m 16.951,49.825 -1.383,-0.932 -0.458,-0.306 -1.37,-0.923 -2.391,3.304 1.827,1.229 1.754,-2.423 0.996,0.67 c 0.334,0.226 0.252,0.892 -0.259,0.956 -0.512,0.064 -1.077,-0.217 -1.077,-0.217 l 0.413,2.242 2.054,1.383 -0.344,-1.867 c 0,0 1.266,0.126 1.744,-0.533 0.691,-0.958 -0.592,-1.968 -1.506,-2.583 z"
   id="path28" />
		<polygon
   fill="#003366"
   points="19.816,55.77 21.707,56.438 22.974,52.935 21.083,52.268 "
   id="polygon28" />
		<g
   id="g29">
			<path
   fill="#003366"
   d="m 28.085,53.633 c -1.807,-0.142 -3.365,0.687 -3.479,1.851 -0.111,1.162 1.264,2.218 3.072,2.359 1.809,0.141 3.368,-0.686 3.479,-1.85 0.114,-1.164 -1.262,-2.22 -3.072,-2.36 z m -0.263,2.724 c -0.531,-0.04 -0.936,-0.353 -0.902,-0.695 0.033,-0.342 0.49,-0.585 1.023,-0.543 0.531,0.041 0.936,0.352 0.902,0.694 -0.033,0.341 -0.49,0.586 -1.023,0.544 z"
   id="path29" />
		</g>
		<polygon
   fill="#003366"
   points="6.954,45.729 10.271,44.707 8.255,47.44 9.555,49.151 12.075,45.735 11.1,44.452 10.774,44.024 9.799,42.742 5.653,44.019 "
   id="polygon29" />
		<polygon
   fill="#003366"
   points="34.613,53.47 35.973,57.173 38.088,56.498 37.453,54.77 39.939,55.905 42.322,55.146 39.656,53.927 40.963,51.441 38.58,52.202 37.363,54.522 36.729,52.794 "
   id="polygon30" />
		<polygon
   fill="#003366"
   points="46.203,52.669 45.041,49.521 47.949,51.373 49.693,50.078 46.057,47.765 44.75,48.735 44.313,49.058 43.004,50.03 44.457,53.963 "
   id="polygon31" />
		<path
   fill="#003366"
   d="m 52.809,40.844 c -1.01,-0.652 -2.025,0.624 -2.643,1.528 l -0.934,1.373 -0.307,0.453 -0.924,1.357 3.484,2.253 1.23,-1.811 -2.555,-1.652 0.672,-0.987 c 0.225,-0.332 0.916,-0.268 0.996,0.229 0.08,0.496 -0.199,1.056 -0.199,1.056 l 2.316,-0.458 1.385,-2.036 -1.93,0.381 c 0.002,0 0.106,-1.236 -0.591,-1.686 z"
   id="path31" />
		<polygon
   fill="#003366"
   points="52.508,38.539 53.551,38.775 54.025,36.708 56.891,37.355 57.365,35.287 54.5,34.64 54.975,32.571 53.932,32.337 53.457,34.405 52.984,36.472 "
   id="polygon32" />
		<path
   fill="#003366"
   d="m 53.004,30.001 c 0,-0.941 -0.059,-1.868 -0.168,-2.779 l 2.801,-0.335 C 55.516,25.854 55.33,24.829 55.08,23.818 l -2.744,0.675 c -0.225,-0.905 -0.502,-1.79 -0.828,-2.649 l 2.646,-1.004 c -0.369,-0.973 -0.797,-1.921 -1.283,-2.842 l -2.504,1.317 c -0.434,-0.821 -0.914,-1.614 -1.441,-2.373 l 2.332,-1.611 c -0.592,-0.857 -1.24,-1.677 -1.926,-2.456 l -2.121,1.881 C 46.596,14.062 45.94,13.404 45.246,12.79 l 1.877,-2.119 C 46.346,9.981 45.527,9.335 44.672,8.743 l -1.611,2.333 C 42.301,10.55 41.508,10.068 40.688,9.636 L 42.004,7.128 C 41.084,6.645 40.133,6.216 39.16,5.848 L 38.158,8.494 C 37.299,8.166 36.412,7.889 35.508,7.665 L 36.182,4.92 C 35.174,4.671 34.147,4.483 33.116,4.363 L 32.778,7.165 C 31.865,7.055 30.939,6.997 30,6.997 V 4.174 c -1.038,0 -2.079,0.063 -3.112,0.188 l 0.336,2.802 c -0.928,0.112 -1.84,0.28 -2.73,0.5 L 23.82,4.919 c -1.008,0.249 -2.006,0.56 -2.977,0.927 l 1.002,2.646 C 20.976,8.823 20.132,9.205 19.314,9.635 L 17.998,7.127 C 17.08,7.612 16.187,8.153 15.33,8.743 l 1.612,2.333 c -0.762,0.528 -1.491,1.101 -2.183,1.715 l -1.883,-2.119 c -0.776,0.688 -1.513,1.425 -2.204,2.204 l 2.12,1.881 c -0.614,0.693 -1.188,1.422 -1.716,2.186 L 8.747,15.332 c -0.591,0.853 -1.131,1.744 -1.616,2.667 l 2.505,1.317 c -0.429,0.815 -0.811,1.659 -1.14,2.528 L 5.85,20.84 c -0.369,0.971 -0.68,1.967 -0.928,2.978 l 2.744,0.674 c -0.219,0.891 -0.388,1.802 -0.5,2.73 L 4.364,26.887 C 4.238,27.918 4.181,28.96 4.178,29.999 l -2.831,0.002 c 0,-1.17 0.072,-2.321 0.209,-3.454 l 2.808,0.34 C 4.487,25.854 4.676,24.829 4.922,23.818 L 2.18,23.144 c 0.277,-1.13 0.623,-2.232 1.031,-3.305 L 5.85,20.84 C 6.219,19.867 6.647,18.919 7.13,17.998 L 4.636,16.685 c 0.54,-1.024 1.141,-2.012 1.796,-2.959 l 2.314,1.604 c 0.593,-0.857 1.236,-1.677 1.925,-2.456 L 8.567,11.006 c 0.765,-0.862 1.58,-1.678 2.442,-2.442 l 1.865,2.106 C 13.656,9.98 14.476,9.334 15.328,8.742 L 13.73,6.427 c 0.946,-0.655 1.933,-1.254 2.957,-1.793 l 1.311,2.493 C 18.92,6.644 19.871,6.215 20.844,5.847 L 19.84,3.209 C 20.914,2.801 22.018,2.456 23.147,2.178 L 23.821,4.92 C 24.833,4.671 25.856,4.483 26.889,4.363 L 26.55,1.555 C 27.681,1.418 28.833,1.347 30,1.347 v 2.828 c 1.041,0 2.082,0.063 3.115,0.188 l 0.338,-2.808 c 1.158,0.14 2.293,0.349 3.404,0.623 L 36.181,4.92 c 1.01,0.249 2.008,0.56 2.979,0.927 l 1.002,-2.638 c 1.084,0.413 2.137,0.89 3.156,1.426 l -1.314,2.492 c 0.92,0.485 1.813,1.026 2.668,1.616 l 1.602,-2.314 c 0.949,0.658 1.857,1.371 2.719,2.135 l -1.869,2.107 c 0.779,0.688 1.518,1.425 2.209,2.204 l 2.104,-1.867 c 0.766,0.862 1.479,1.77 2.137,2.718 L 51.26,15.33 c 0.59,0.853 1.131,1.744 1.613,2.667 l 2.494,-1.313 c 0.537,1.016 1.012,2.07 1.426,3.154 l -2.637,1 c 0.367,0.971 0.678,1.967 0.926,2.978 l 2.742,-0.674 c 0.273,1.11 0.482,2.246 0.621,3.403 l -2.807,0.34 c 0.127,1.031 0.188,2.073 0.188,3.112 z"
   id="path32" />
	</g>
<g
   style="fill:#000000"
   id="g40"
   transform="matrix(0.04445936,0,0,0.04445936,26.305199,14.328574)"><g
     id="g74"
     transform="translate(-33.734676,17.989334)"><rect
       style="fill:#ffffff;fill-opacity:1;stroke:#000d49;stroke-width:21.9359;stroke-linejoin:round;paint-order:markers fill stroke"
       id="rect74"
       width="244.96901"
       height="387.77036"
       x="-384.48074"
       y="14.79621"
       ry="27.371304"
       transform="rotate(-33.59182)" /><g
       style="fill:#000000;stroke:#000d49;stroke-width:2.2834;stroke-dasharray:none;stroke-opacity:1"
       id="g73"
       transform="matrix(8.5240976,-4.936625,4.936625,8.5240976,-323.03698,252.22932)"><path
         d="M 24.705,17.092 C 24.533,11.7 15.987,5.459 15.987,5.459 c 0,0 -8.855,6.467 -8.692,11.633 0.139,4.418 4.652,5.992 7.518,3.432 l -2.512,6.016 h 7.4 l -2.514,-6.021 c 2.905,2.496 7.662,1.052 7.519,-3.427 z"
         id="path1-1"
         style="stroke:#000d49;stroke-width:2.2834;stroke-dasharray:none;stroke-opacity:1" /></g><rect
       style="fill:#ffffff;fill-opacity:1;stroke:#000d49;stroke-width:21.9359;stroke-linejoin:round;paint-order:markers fill stroke"
       id="rect73"
       width="244.96901"
       height="387.77036"
       x="-177.12802"
       y="38.212063"
       ry="27.371304"
       transform="rotate(-13.415943)" /><g
       id="g3"
       transform="matrix(0.35204483,-0.05712898,0.05712898,0.35204483,-99.01078,148.66558)"
       style="stroke:#000d49;stroke-width:63.0659;stroke-dasharray:none;stroke-opacity:1">
	<path
   class="st0"
   d="m 331.149,509.306 c 0.857,1.132 1.257,0.463 0,0 z"
   id="path1"
   style="stroke:#000d49;stroke-width:63.0659;stroke-dasharray:none;stroke-opacity:1" />
	<path
   class="st0"
   d="m 396.538,196.316 c -31.76,0.598 -60.193,14.219 -80.377,35.647 -10.068,8.006 -18.697,13.302 -23.035,7.034 -8.644,-9.722 18.322,-23.59 34.945,-38.358 l -2.647,0.048 C 349.706,179.434 364.81,148.03 364.16,113.245 362.985,50.658 311.305,0.872 248.719,2.053 186.134,3.225 136.355,54.909 137.528,117.494 c 0.73,38.972 21.061,72.984 51.413,92.817 16.121,11.412 34.112,21.747 27.214,30.136 -4.107,6.427 -12.927,1.444 -23.286,-6.172 -20.965,-20.663 -49.902,-33.199 -81.657,-32.609 -62.586,1.172 -112.368,52.865 -111.192,115.45 1.173,62.577 52.861,112.364 115.438,111.183 57.665,-1.076 104.416,-45.041 110.509,-100.888 0.008,-0.024 0.04,0 0.04,0 0.885,-4.92 2.309,-15.646 5.897,-15.43 4.239,0.239 5.522,-0.766 5.874,18.11 3.038,92.386 -48.127,176.639 -49.391,178.944 -0.12,0.224 -0.192,0.239 -0.295,0.383 0.423,-0.199 1.045,-0.367 1.986,-0.383 3.581,-0.064 69.635,0 69.635,0 0,0 66.054,0.064 69.634,0 0.83,-0.016 1.384,0.112 1.802,0.271 -0.088,-0.119 -0.139,-0.111 -0.235,-0.271 -1.343,-2.249 -55.611,-87.203 -56.038,-179.638 -0.355,-18.868 0.965,-17.919 5.188,-18.326 3.581,-0.343 5.399,10.319 6.468,15.175 0.008,0.024 0.04,0 0.04,0 8.186,55.608 56.556,97.794 114.218,96.709 62.58,-1.18 112.367,-52.864 111.191,-115.441 -1.178,-62.585 -52.858,-112.37 -115.443,-111.198 z"
   id="path2"
   style="stroke:#000d49;stroke-width:63.0659;stroke-dasharray:none;stroke-opacity:1" />
	<path
   class="st0"
   d="m 188.092,509.418 c -1.037,0.47 -0.71,0.957 0,0 z"
   id="path3"
   style="stroke:#000d49;stroke-width:63.0659;stroke-dasharray:none;stroke-opacity:1" />
</g><rect
       style="fill:#ffffff;fill-opacity:1;stroke:#000d49;stroke-width:21.9359;stroke-linejoin:round;paint-order:markers fill stroke"
       id="rect40"
       width="244.96901"
       height="387.77036"
       x="42.341026"
       y="10.847204"
       ry="27.371304" /><rect
       style="fill:#ff0000;fill-opacity:1;stroke:#000d49;stroke-width:22.9641;stroke-linejoin:round;stroke-dasharray:none;paint-order:markers fill stroke"
       id="rect42"
       width="138.45648"
       height="135.69122"
       x="199.03258"
       y="-88.547821"
       ry="0"
       transform="matrix(0.57131299,0.82073228,-0.6261146,0.77973105,0,0)" /><rect
       style="fill:#ffffff;fill-opacity:1;stroke:#000d49;stroke-width:21.9359;stroke-linejoin:round;paint-order:markers fill stroke"
       id="rect41"
       width="244.96901"
       height="387.77036"
       x="245.44875"
       y="-7.6662755"
       ry="27.371304"
       transform="rotate(14.205832)" /><g
       id="layer1"
       transform="matrix(0.22283531,0.05185797,-0.05185797,0.22283531,255.40274,184.19629)"
       style="stroke-width:98.3105;stroke-dasharray:none"><path
         d="M 294.46877,630.73987 C 279.14792,613.57132 240.8925,580.10095 209.45674,556.3613 116.31508,486.02261 103.63847,475.84317 65.821027,441.02072 -3.8978077,376.82333 -33.506252,312.326 -33.404789,224.87274 c 0.04951,-42.69119 2.959352,-59.13878 14.914712,-84.30305 C 1.7931023,97.87642 31.671231,66.15197 69.870407,46.749097 96.925547,33.006778 110.26909,26.901292 155.44935,26.651509 c 47.26179,-0.261186 57.21096,5.24936 85.01204,20.522458 33.83868,18.589963 68.66821,58.319923 75.86796,86.542313 l 4.44676,17.43112 10.96605,-24.00667 c 61.96851,-135.660446 259.81222,-133.630786 328.66287,3.37179 21.84136,43.46107 24.23927,136.26131 4.87165,188.53521 -25.26433,68.18936 -72.71681,120.17571 -182.41075,199.83946 -71.93915,52.24492 -153.35785,131.2927 -159.02563,142.39504 -6.5793,12.88786 -0.31382,2.01968 -29.37153,-30.54236 z"
         id="path2417"
         style="fill:#ff0000;stroke:#000d49;stroke-width:98.3105;stroke-dasharray:none;stroke-opacity:1" /><g
         transform="translate(129.28571,-64.285714)"
         id="g2221"
         style="stroke-width:98.3105;stroke-dasharray:none" /></g></g></g></g>
<style
   type="text/css"
   id="style1">
	.st0{fill:#000000;}
</style></svg>
