<?xml version="1.0" encoding="utf-8"?>
<!-- Generator: Adobe Illustrator 16.2.0, SVG Export Plug-In . SVG Version: 6.00 Build 0)  -->
<!DOCTYPE svg PUBLIC "-//W3C//DTD SVG 1.1//EN" "http://www.w3.org/Graphics/SVG/1.1/DTD/svg11.dtd">
<svg version="1.1" id="レイヤー_1" xmlns="http://www.w3.org/2000/svg" xmlns:xlink="http://www.w3.org/1999/xlink" x="0px"
	 y="0px" width="60px" height="60px" viewBox="0 0 60 60" enable-background="new 0 0 60 60" xml:space="preserve">
<g>
	<polygon fill="#003366" points="30.776,47.454 30,45.876 29.224,47.454 27.486,47.704 28.742,48.931 28.447,50.661 30,49.846 
		31.555,50.661 31.258,48.931 32.514,47.704 	"/>
	<polygon fill="#003366" points="38.618,46.036 37.281,46.37 36.248,45.46 36.153,46.835 34.968,47.534 36.245,48.051 
		36.545,49.396 37.43,48.339 38.802,48.468 38.07,47.3 	"/>
	<polygon fill="#003366" points="23.753,45.46 22.719,46.37 21.382,46.036 21.93,47.3 21.198,48.468 22.57,48.339 23.454,49.396 
		23.755,48.051 25.033,47.534 23.847,46.835 	"/>
	<path fill="#000D49" d="M17.603,42.979c2.456,1.307,6.353,1.735,9.985,1.161c0.045,1.152,1.184,1.214,2.239,1.354h0.472
		c1.082-0.123,2.176-0.237,2.266-1.354c3.628,0.565,7.527,0.148,9.988-1.161c2.534-1.352,4.271-3.586,4.618-7.025v-0.221
		c-0.149-0.521-1.061-0.951-1.603-1.248c-1.746-0.947-4.189-1.742-6.779-1.381c-3.237,0.451-5.259,2.371-6.225,4.924
		c-0.063-1.211-0.008-2.535-0.024-3.789c3.888-0.492,6.852-1.882,9.237-3.956c1.143-0.991,2.161-2.173,2.904-3.68
		c0.723-1.464,1.256-3.343,1.024-5.449c-0.407-3.685-2.691-6.327-5.118-8.048c-2.613-1.856-5.825-2.958-10.041-3.128
		c-0.031,0.004-0.049-0.005-0.056-0.027h-0.857c-4.234,0.196-7.438,1.295-10.095,3.155c-2.428,1.691-4.716,4.371-5.119,8.076
		c-0.455,4.181,1.792,7.271,3.956,9.128c2.395,2.054,5.331,3.418,9.212,3.957v3.761c-0.983-2.471-2.954-4.455-6.225-4.924
		c-2.582-0.371-5.034,0.391-6.804,1.356c-0.506,0.274-1.455,0.77-1.605,1.272v0.246C13.305,39.431,15.055,41.622,17.603,42.979z"/>
	<path fill="#64AE34" d="M34.833,36.757c1.137-1.397,2.592-2.4,4.814-2.518c2.608-0.141,4.584,0.83,6.223,1.824
		c-0.905,5.668-6.174,7.383-12.891,6.971c-0.058-0.104,0.095-0.201,0.141-0.25c2.332-2.383,5.141-4.135,8.63-5.422
		c0.208-0.075,0.506-0.1,0.637-0.329c-0.178-0.242-0.516-0.155-0.749-0.14c-1.871,0.141-3.535,0.906-4.868,1.632
		c-1.614,0.883-2.988,2.091-4.147,3.237C32.949,39.874,33.735,38.106,34.833,36.757z"/>
	<path fill="#64AE34" d="M31.183,43.976c-0.634,0.205-1.607,0.207-2.238,0v-9.515c-0.005-0.04-0.007-0.081,0.025-0.083
		c0.713,0.04,1.5,0.036,2.213,0V43.976z"/>
	<path fill="#E55C00" d="M17.546,27.462c-0.895-1.208-1.623-2.668-1.799-4.482c-0.19-1.994,0.381-3.789,1.134-5.118
		c0.791-1.39,1.802-2.409,2.96-3.32c1.756-1.376,3.948-2.35,6.583-2.875c0.886-0.176,1.815-0.282,2.85-0.332
		c4.149-0.198,7.546,0.911,10.071,2.544c2.38,1.54,4.689,3.961,5.033,7.551c0.188,1.993-0.397,3.786-1.163,5.09
		c-0.794,1.358-1.808,2.438-2.959,3.318c-2.382,1.824-5.472,3.053-9.378,3.209C24.876,33.288,20.132,30.947,17.546,27.462z"/>
	<path fill="#64AE34" d="M14.448,37.142c-0.084-0.306-0.243-0.861-0.195-1.051c0.063-0.233,0.882-0.576,1.107-0.689
		c1.954-0.983,5.176-1.713,7.524-0.583c2.538,1.223,3.997,3.901,4.619,6.917c-0.124,0.041-0.139-0.107-0.193-0.167
		c-1.08-1.161-2.482-2.195-3.957-3.014c-1.159-0.648-2.481-1.247-4.038-1.55c-0.486-0.097-1.077-0.246-1.576,0
		c0.098,0.264,0.43,0.283,0.637,0.357c3.084,1.139,5.678,2.654,7.885,4.703c0.323,0.301,0.668,0.601,0.912,0.969
		c-5.802,0.398-10.67-0.924-12.393-4.979C14.675,37.807,14.544,37.497,14.448,37.142z"/>
	<path fill="#000D49" d="M37.905,28.208c1.718-1.282,3.573-3.333,3.347-6.417c-0.211-2.865-1.955-4.772-3.818-6.002
		c-1.916-1.267-4.639-2.198-7.8-2.048c-1.654,0.081-2.96,0.312-4.204,0.749c-1.24,0.435-2.268,0.959-3.235,1.688
		c-1.717,1.287-3.559,3.356-3.319,6.446c0.113,1.48,0.629,2.573,1.327,3.566c1.928,2.748,5.769,4.61,10.316,4.453
		C33.62,30.534,36.002,29.628,37.905,28.208z"/>
	<path fill="#FEF81D" d="M20.894,25.996c-0.659-0.857-1.241-1.92-1.354-3.209c-0.254-2.862,1.423-4.904,3.014-6.084
		c1.683-1.25,4.05-2.216,6.914-2.296c3.178-0.09,5.462,0.635,7.388,1.826c1.733,1.074,3.511,2.829,3.733,5.42
		c0.244,2.865-1.418,4.813-3.069,6.031c-1.796,1.323-3.983,2.14-6.889,2.268C26.375,30.138,22.82,28.503,20.894,25.996z"/>
	<path fill="#003366" d="M35.415,25.773c1.112-0.868,2.258-2.329,1.91-4.343c-0.156-0.884-0.556-1.594-1.025-2.159
		c-1.37-1.644-3.731-2.823-6.971-2.599c-1.902,0.131-3.525,0.808-4.674,1.742c-1.035,0.844-2.229,2.408-1.854,4.398
		c0.319,1.699,1.454,2.806,2.794,3.569c1.381,0.785,3.244,1.261,5.2,1.106C32.748,27.333,34.186,26.735,35.415,25.773z"/>
	<path fill="#FFFFFF" d="M29.882,26.853c-2.495-0.079-4.74-1.039-5.862-2.767c-0.476-0.73-0.729-1.778-0.527-2.736
		c0.191-0.911,0.804-1.7,1.271-2.131c1.124-1.037,2.808-1.828,5.01-1.88c1.613-0.039,2.935,0.261,4.01,0.802
		c1.091,0.547,1.908,1.12,2.517,2.268c0.682,1.286,0.395,2.91-0.332,3.9C34.771,25.934,32.357,26.929,29.882,26.853z"/>
	<path fill="#000D49" d="M26.785,18.887c-1.022-0.019-1.021,1.542-1.051,2.49c-0.032,0.978-0.012,2.606,0.801,2.764
		c0.941,0.185,1.044-1.157,1.081-2.045c0.037-0.97,0.038-2.114-0.195-2.685C27.331,19.194,27.207,18.896,26.785,18.887z"/>
	<path fill="#FFFFFF" d="M26.758,20.961c-0.609,0.039-0.584-1.487-0.139-1.631C27.296,19.105,27.331,20.923,26.758,20.961z"/>
	<path fill="#000D49" d="M33.092,18.941c-0.676,0.262-0.582,1.708-0.582,2.682c0,1.106,0.044,2.357,0.776,2.518
		c0.947,0.209,1.047-1.105,1.078-2.018c0.033-1.024,0.004-2.005-0.223-2.573C33.996,19.183,33.664,18.72,33.092,18.941z"/>
	<path fill="#FFFFFF" d="M33.396,20.961c-0.555,0-0.561-1.474-0.137-1.631C33.933,19.075,34.055,20.961,33.396,20.961z"/>
	<path fill="#003366" d="M47.591,28.366c-0.124,0.561-0.283,1.145-0.49,1.742c-0.019-0.363-0.101-0.87-0.372-1.359
		c-0.504-0.908-1.261-1.035-1.261-1.035s-0.279,0.73,0.225,1.638c0.379,0.68,0.974,1.056,1.247,1.202
		c-0.228,0.602-0.504,1.216-0.836,1.834c-0.001-0.362-0.062-0.956-0.377-1.524c-0.505-0.907-1.262-1.035-1.262-1.035
		s-0.279,0.73,0.226,1.639c0.383,0.688,0.985,1.064,1.255,1.207c-0.157,0.277-0.321,0.555-0.503,0.832l0.252,0.188
		c0.393-0.606,0.725-1.21,1.011-1.81c0.296,0.104,1.009,0.294,1.754,0.064c0.977-0.3,1.234-1.084,1.234-1.084
		s-0.665-0.501-1.642-0.201c-0.483,0.148-0.853,0.435-1.104,0.686c0.234-0.545,0.431-1.082,0.593-1.605
		c0.297,0.021,1.039,0.021,1.709-0.414c0.857-0.56,0.91-1.397,0.91-1.397s-0.76-0.309-1.616,0.252
		c-0.359,0.234-0.615,0.542-0.794,0.822c0.141-0.547,0.246-1.076,0.323-1.583c0.298-0.068,0.985-0.286,1.497-0.892
		c0.668-0.793,0.499-1.625,0.499-1.625s-0.8-0.082-1.468,0.712c-0.169,0.201-0.296,0.418-0.391,0.629
		c0.023-0.301,0.038-0.587,0.046-0.861c0.165-0.316,0.417-0.935,0.362-1.679c-0.081-1.084-0.752-1.577-0.752-1.577
		s-0.597,0.535-0.516,1.62c0.056,0.741,0.396,1.338,0.606,1.642c-0.02,0.632-0.078,1.341-0.202,2.106
		c-0.037-0.289-0.116-0.615-0.275-0.938c-0.46-0.932-1.211-1.101-1.211-1.101s-0.317,0.712,0.143,1.644
		C46.754,27.797,47.32,28.202,47.591,28.366z"/>
	<path fill="#003366" d="M14.306,33.695l0.251-0.188c-0.181-0.277-0.346-0.555-0.502-0.832c0.27-0.143,0.872-0.52,1.255-1.207
		c0.505-0.908,0.226-1.639,0.226-1.639s-0.757,0.128-1.261,1.035c-0.315,0.568-0.377,1.162-0.378,1.524
		c-0.332-0.618-0.608-1.232-0.836-1.834c0.274-0.146,0.868-0.522,1.247-1.202c0.504-0.908,0.225-1.638,0.225-1.638
		s-0.757,0.127-1.261,1.035c-0.272,0.489-0.354,0.996-0.372,1.359c-0.206-0.598-0.366-1.182-0.489-1.742
		c0.27-0.164,0.837-0.569,1.177-1.261c0.461-0.931,0.144-1.644,0.144-1.644s-0.75,0.169-1.21,1.101
		c-0.16,0.324-0.239,0.649-0.277,0.938c-0.123-0.765-0.183-1.474-0.2-2.106c0.21-0.303,0.551-0.9,0.605-1.642
		c0.08-1.084-0.515-1.62-0.515-1.62s-0.673,0.492-0.753,1.577c-0.055,0.744,0.197,1.363,0.362,1.679
		c0.008,0.274,0.022,0.56,0.047,0.861c-0.096-0.211-0.223-0.428-0.392-0.629c-0.668-0.793-1.468-0.712-1.468-0.712
		s-0.169,0.832,0.499,1.625c0.512,0.606,1.2,0.823,1.497,0.892c0.078,0.506,0.183,1.036,0.323,1.583
		c-0.178-0.28-0.435-0.588-0.793-0.822C10.6,27.625,9.84,27.934,9.84,27.934s0.053,0.838,0.911,1.397
		c0.668,0.436,1.41,0.436,1.708,0.414c0.162,0.523,0.358,1.061,0.593,1.605c-0.25-0.251-0.619-0.537-1.103-0.686
		c-0.978-0.3-1.643,0.201-1.643,0.201s0.258,0.784,1.234,1.084c0.745,0.229,1.457,0.039,1.754-0.064
		C13.581,32.485,13.913,33.089,14.306,33.695z"/>
	<g>
		<g>
			<path fill="#003366" d="M30,0C13.455,0,0,13.457,0,30.001C0,46.542,13.455,60,30,60c16.542,0,30-13.458,30-29.999
				C60,13.457,46.542,0,30,0z M30,58.653c-15.801,0-28.652-12.854-28.652-28.652v-0.002h2.828c0.001-1.039,0.061-2.081,0.188-3.111
				l-2.808-0.34c0.141-1.157,0.349-2.293,0.623-3.404l2.74,0.674c0.249-1.011,0.559-2.006,0.928-2.978l-2.638-1
				c0.413-1.084,0.89-2.137,1.426-3.154l2.493,1.313c0.483-0.923,1.023-1.813,1.615-2.667L6.43,13.728
				c0.658-0.95,1.37-1.857,2.136-2.719l2.104,1.867c0.69-0.778,1.428-1.514,2.207-2.204l-1.868-2.107
				c0.862-0.764,1.77-1.478,2.719-2.135l1.602,2.313c0.855-0.589,1.747-1.129,2.667-1.614l-1.313-2.493
				c1.019-0.536,2.072-1.013,3.156-1.426l1.002,2.638c0.97-0.367,1.968-0.679,2.978-0.926l-0.675-2.743
				c1.11-0.274,2.246-0.483,3.403-0.623l0.338,2.808C27.919,4.238,28.961,4.176,30,4.176V1.347c1.167,0,2.319,0.072,3.45,0.208
				l-0.338,2.808c1.032,0.121,2.057,0.31,3.068,0.558l0.674-2.744c1.13,0.278,2.232,0.624,3.305,1.032l-1.001,2.638
				c0.973,0.369,1.922,0.797,2.846,1.281l1.31-2.494c1.023,0.539,2.01,1.139,2.957,1.793L44.67,8.743
				c0.855,0.593,1.673,1.238,2.455,1.929l1.866-2.106c0.861,0.764,1.677,1.58,2.442,2.442l-2.104,1.868
				c0.688,0.779,1.332,1.6,1.925,2.455l2.316-1.603c0.654,0.946,1.254,1.934,1.794,2.958l-2.494,1.313
				c0.481,0.922,0.912,1.87,1.28,2.842l2.639-1.001c0.408,1.072,0.754,2.175,1.031,3.305l-2.742,0.674
				c0.247,1.011,0.436,2.036,0.558,3.07l2.808-0.34c0.138,1.132,0.209,2.283,0.209,3.453C58.652,45.799,45.798,58.653,30,58.653z"/>
		</g>
		<path fill="#003366" d="M30,8.262c11.987,0,21.738,9.75,21.738,21.739c0,11.985-9.751,21.738-21.738,21.738
			c-11.988,0-21.738-9.753-21.738-21.738C8.262,18.012,18.012,8.262,30,8.262 M30,6.987c-12.689,0-23.014,10.324-23.014,23.014
			C6.986,42.69,17.311,53.013,30,53.013c12.69,0,23.014-10.322,23.014-23.012C53.014,17.311,42.69,6.987,30,6.987L30,6.987z"/>
		<polygon fill="#003366" points="7.697,37.845 6.279,36.817 6.971,35.208 6.389,33.1 2.29,33.662 2.871,35.771 4.729,35.517 
			4.168,37.397 5.615,38.728 3.887,39.461 4.469,41.57 8.278,39.952 		"/>
		<path fill="#003366" d="M16.95,49.825l-1.383-0.932l-0.458-0.306l-1.37-0.923l-2.391,3.304l1.827,1.229l1.754-2.423l0.996,0.67
			c0.334,0.226,0.252,0.892-0.26,0.956s-1.077-0.217-1.077-0.217l0.413,2.242l2.055,1.383l-0.344-1.867c0,0,1.265,0.126,1.743-0.533
			C19.148,51.45,17.864,50.44,16.95,49.825z"/>
		<polygon fill="#003366" points="19.816,55.77 21.707,56.438 22.975,52.935 21.083,52.268 		"/>
		<g>
			<path fill="#003366" d="M28.085,53.633c-1.807-0.142-3.365,0.687-3.478,1.851c-0.111,1.162,1.264,2.218,3.072,2.359
				c1.809,0.141,3.367-0.686,3.479-1.85C31.271,54.829,29.895,53.773,28.085,53.633z M27.822,56.357
				c-0.531-0.04-0.936-0.353-0.903-0.695c0.034-0.342,0.491-0.585,1.023-0.543c0.532,0.041,0.937,0.352,0.902,0.694
				C28.812,56.154,28.354,56.399,27.822,56.357z"/>
		</g>
		<polygon fill="#003366" points="11.1,44.452 10.774,44.024 9.799,42.742 5.653,44.019 6.954,45.729 10.271,44.707 8.255,47.44 
			9.555,49.151 12.075,45.735 		"/>
		<polygon fill="#003366" points="40.962,51.441 38.58,52.202 37.363,54.522 36.728,52.794 34.612,53.47 35.972,57.173 
			38.087,56.498 37.453,54.77 39.939,55.905 42.321,55.146 39.656,53.927 		"/>
		<polygon fill="#003366" points="44.749,48.735 44.313,49.058 43.004,50.03 44.456,53.963 46.202,52.669 45.04,49.521 
			47.948,51.373 49.693,50.078 46.057,47.765 		"/>
		<path fill="#003366" d="M52.809,40.844c-1.01-0.652-2.026,0.624-2.643,1.528l-0.934,1.373l-0.308,0.453l-0.923,1.357l3.483,2.253
			l1.23-1.811l-2.554-1.652l0.672-0.987c0.224-0.332,0.916-0.268,0.996,0.229c0.08,0.496-0.199,1.056-0.199,1.056l2.316-0.458
			l1.385-2.036l-1.93,0.381C53.402,42.53,53.506,41.294,52.809,40.844z"/>
		<polygon fill="#003366" points="54.975,32.571 53.932,32.337 53.457,34.405 52.984,36.472 52.508,38.539 53.55,38.775 
			54.025,36.708 56.891,37.355 57.365,35.287 54.5,34.64 		"/>
		<path fill="#003366" d="M53.004,30.001c0-0.941-0.059-1.868-0.169-2.779l2.802-0.335c-0.121-1.033-0.308-2.058-0.557-3.069
			l-2.745,0.675c-0.224-0.905-0.501-1.79-0.827-2.649l2.646-1.004c-0.369-0.973-0.797-1.921-1.282-2.842l-2.505,1.317
			c-0.434-0.821-0.914-1.614-1.44-2.373l2.331-1.611c-0.592-0.857-1.239-1.677-1.926-2.456l-2.121,1.881
			c-0.615-0.694-1.271-1.352-1.965-1.966l1.878-2.119c-0.777-0.69-1.597-1.336-2.452-1.928l-1.611,2.333
			c-0.76-0.526-1.552-1.008-2.373-1.44l1.317-2.508c-0.92-0.483-1.872-0.912-2.845-1.28l-1.002,2.646
			c-0.858-0.328-1.745-0.605-2.649-0.829l0.674-2.745c-1.009-0.249-2.035-0.437-3.066-0.557l-0.339,2.802
			C31.865,7.055,30.939,6.997,30,6.997V4.174c-1.038,0-2.079,0.063-3.112,0.188l0.337,2.802c-0.929,0.112-1.84,0.28-2.731,0.5
			l-0.674-2.745c-1.008,0.249-2.005,0.56-2.977,0.927l1.002,2.646c-0.869,0.331-1.713,0.713-2.53,1.143l-1.316-2.508
			c-0.919,0.485-1.811,1.026-2.669,1.616l1.612,2.333c-0.763,0.528-1.491,1.101-2.184,1.715l-1.883-2.119
			c-0.776,0.688-1.513,1.425-2.204,2.204l2.12,1.881c-0.614,0.693-1.188,1.422-1.716,2.186l-2.329-1.611
			c-0.591,0.853-1.131,1.744-1.616,2.667l2.505,1.317c-0.429,0.815-0.811,1.659-1.14,2.528L5.85,20.84
			c-0.369,0.971-0.68,1.967-0.928,2.978l2.744,0.674c-0.219,0.891-0.388,1.802-0.5,2.73l-2.802-0.335
			c-0.126,1.031-0.183,2.073-0.186,3.112l-2.831,0.002c0-1.17,0.072-2.321,0.209-3.454l2.808,0.34
			c0.123-1.033,0.312-2.058,0.558-3.069L2.18,23.144c0.277-1.13,0.623-2.232,1.031-3.305L5.85,20.84
			c0.369-0.973,0.797-1.921,1.28-2.842l-2.494-1.313c0.54-1.024,1.141-2.012,1.796-2.959l2.314,1.604
			c0.593-0.857,1.236-1.677,1.925-2.456l-2.104-1.868c0.765-0.862,1.58-1.678,2.442-2.442l1.865,2.106
			c0.782-0.69,1.602-1.336,2.454-1.928L13.73,6.427c0.946-0.655,1.933-1.254,2.956-1.793l1.312,2.493
			c0.922-0.483,1.872-0.912,2.845-1.28L19.84,3.208c1.073-0.408,2.178-0.753,3.307-1.031l0.673,2.742
			c1.012-0.249,2.036-0.437,3.068-0.557L26.55,1.555c1.132-0.137,2.283-0.208,3.45-0.208v2.828c1.041,0,2.082,0.063,3.115,0.188
			l0.338-2.808c1.157,0.14,2.293,0.349,3.403,0.623l-0.675,2.742c1.01,0.249,2.008,0.56,2.978,0.927l1.002-2.638
			c1.085,0.413,2.138,0.89,3.157,1.426l-1.314,2.492c0.92,0.485,1.812,1.026,2.667,1.616l1.602-2.314
			c0.949,0.658,1.857,1.371,2.719,2.135l-1.868,2.107c0.779,0.688,1.517,1.425,2.208,2.204l2.104-1.867
			c0.765,0.862,1.479,1.77,2.136,2.718l-2.314,1.604c0.591,0.853,1.131,1.744,1.614,2.667l2.494-1.313
			c0.537,1.016,1.012,2.07,1.425,3.154l-2.637,1c0.368,0.971,0.679,1.967,0.927,2.978l2.742-0.674
			c0.273,1.11,0.482,2.246,0.621,3.403l-2.807,0.34c0.127,1.031,0.187,2.073,0.188,3.112L53.004,30.001z"/>
	</g>
</g>
</svg>
