<?xml version="1.0" encoding="UTF-8" standalone="no"?>
<!-- Generator: Adobe Illustrator 16.2.0, SVG Export Plug-In . SVG Version: 6.00 Build 0)  -->

<svg
   version="1.1"
   id="レイヤー_1"
   x="0px"
   y="0px"
   width="60"
   height="60"
   viewBox="0 0 60 60"
   enable-background="new 0 0 60 60"
   xml:space="preserve"
   xmlns="http://www.w3.org/2000/svg"
   xmlns:svg="http://www.w3.org/2000/svg"><defs
   id="defs22" />
<g
   id="g7">
	<g
   id="g1">
		<path
   fill="#003366"
   d="M 30,0 C 13.455,0 0,13.456 0,30 0,46.541 13.455,60 30,60 46.542,60 60,46.541 60,30 60,13.456 46.542,0 30,0 Z m 0,58.653 C 14.199,58.653 1.348,45.799 1.348,30 v -0.001 h 2.828 c 10e-4,-1.04 0.061,-2.081 0.188,-3.111 l -2.808,-0.34 c 0.141,-1.157 0.349,-2.294 0.623,-3.404 l 2.74,0.674 C 5.168,22.807 5.478,21.812 5.847,20.84 L 3.21,19.839 C 3.623,18.755 4.1,17.702 4.636,16.685 l 2.493,1.313 C 7.612,17.075 8.152,16.185 8.744,15.331 L 6.43,13.728 c 0.658,-0.95 1.37,-1.857 2.136,-2.719 l 2.104,1.866 c 0.69,-0.778 1.428,-1.514 2.207,-2.203 L 11.009,8.565 c 0.862,-0.764 1.77,-1.478 2.719,-2.135 l 1.602,2.313 c 0.855,-0.589 1.747,-1.13 2.667,-1.614 L 16.684,4.636 C 17.703,4.1 18.756,3.623 19.84,3.21 l 1.002,2.638 C 21.812,5.481 22.81,5.169 23.82,4.921 L 23.145,2.179 c 1.11,-0.274 2.246,-0.483 3.403,-0.623 l 0.338,2.808 C 27.919,4.238 28.961,4.176 30,4.176 V 1.347 c 1.167,0 2.319,0.072 3.45,0.209 l -0.338,2.808 c 1.032,0.121 2.057,0.31 3.068,0.558 l 0.674,-2.743 c 1.13,0.278 2.232,0.624 3.305,1.032 l -1.001,2.638 c 0.973,0.368 1.922,0.797 2.846,1.281 l 1.31,-2.494 c 1.023,0.539 2.01,1.139 2.957,1.793 L 44.67,8.743 c 0.855,0.593 1.673,1.237 2.455,1.929 l 1.866,-2.106 c 0.861,0.764 1.677,1.58 2.442,2.442 l -2.104,1.867 c 0.688,0.779 1.332,1.6 1.925,2.455 l 2.316,-1.603 c 0.654,0.946 1.254,1.934 1.794,2.957 l -2.494,1.313 c 0.481,0.922 0.912,1.87 1.28,2.843 l 2.639,-1.001 c 0.408,1.072 0.754,2.175 1.031,3.305 l -2.742,0.674 c 0.247,1.012 0.436,2.036 0.558,3.07 l 2.808,-0.34 C 58.582,27.68 58.653,28.831 58.653,30 58.652,45.799 45.798,58.653 30,58.653 Z"
   id="path1" />
	</g>
	<path
   fill="#003366"
   d="M 30,8.262 C 41.987,8.262 51.738,18.012 51.738,30 51.738,41.986 41.987,51.738 30,51.738 18.012,51.738 8.262,41.986 8.262,30 8.262,18.012 18.012,8.262 30,8.262 M 30,6.987 C 17.311,6.987 6.986,17.311 6.986,30 6.986,42.69 17.31,53.013 30,53.013 42.69,53.013 53.014,42.691 53.014,30 53.014,17.311 42.69,6.987 30,6.987 Z"
   id="path2" />
	<polygon
   fill="#003366"
   points="2.29,33.662 2.871,35.771 4.729,35.516 4.168,37.397 5.615,38.728 3.887,39.461 4.469,41.57 8.278,39.952 7.697,37.845 6.279,36.817 6.971,35.208 6.389,33.1 "
   id="polygon2" />
	<path
   fill="#003366"
   d="m 16.95,49.825 -1.383,-0.932 -0.458,-0.306 -1.37,-0.923 -2.391,3.304 1.827,1.229 1.754,-2.423 0.996,0.67 c 0.334,0.226 0.252,0.891 -0.26,0.956 -0.512,0.064 -1.077,-0.218 -1.077,-0.218 l 0.413,2.243 2.055,1.382 -0.344,-1.867 c 0,0 1.265,0.127 1.743,-0.533 0.693,-0.957 -0.591,-1.968 -1.505,-2.582 z"
   id="path3" />
	<polygon
   fill="#003366"
   points="19.816,55.77 21.707,56.438 22.975,52.935 21.083,52.268 "
   id="polygon3" />
	<g
   id="g4">
		<path
   fill="#003366"
   d="m 28.085,53.633 c -1.807,-0.143 -3.365,0.687 -3.478,1.85 -0.111,1.163 1.264,2.219 3.072,2.36 1.809,0.141 3.367,-0.686 3.479,-1.851 0.113,-1.163 -1.263,-2.219 -3.073,-2.359 z m -0.263,2.724 c -0.531,-0.041 -0.936,-0.354 -0.903,-0.695 0.034,-0.342 0.491,-0.585 1.023,-0.543 0.532,0.041 0.937,0.352 0.902,0.693 -0.032,0.342 -0.49,0.587 -1.022,0.545 z"
   id="path4" />
	</g>
	<polygon
   fill="#003366"
   points="6.954,45.729 10.271,44.707 8.255,47.439 9.555,49.15 12.075,45.735 11.1,44.452 10.774,44.024 9.799,42.742 5.653,44.018 "
   id="polygon4" />
	<polygon
   fill="#003366"
   points="34.612,53.47 35.972,57.173 38.087,56.498 37.453,54.77 39.939,55.905 42.321,55.145 39.656,53.927 40.962,51.441 38.58,52.201 37.363,54.522 36.728,52.794 "
   id="polygon5" />
	<polygon
   fill="#003366"
   points="46.202,52.669 45.04,49.521 47.948,51.373 49.693,50.078 46.057,47.765 44.749,48.734 44.313,49.058 43.004,50.029 44.456,53.963 "
   id="polygon6" />
	<path
   fill="#003366"
   d="m 52.809,40.844 c -1.01,-0.652 -2.026,0.623 -2.643,1.528 l -0.934,1.373 -0.308,0.453 -0.923,1.357 3.483,2.253 1.23,-1.811 -2.554,-1.652 0.672,-0.987 c 0.224,-0.332 0.916,-0.268 0.996,0.229 0.08,0.496 -0.199,1.056 -0.199,1.056 l 2.316,-0.458 1.385,-2.036 -1.93,0.38 c 0.002,0 0.106,-1.236 -0.591,-1.685 z"
   id="path6" />
	<polygon
   fill="#003366"
   points="52.508,38.539 53.55,38.775 54.025,36.708 56.891,37.355 57.365,35.287 54.5,34.64 54.975,32.571 53.932,32.337 53.457,34.405 52.984,36.472 "
   id="polygon7" />
	<path
   fill="#003366"
   d="m 53.004,30 c 0,-0.94 -0.059,-1.867 -0.169,-2.778 l 2.802,-0.335 C 55.516,25.854 55.329,24.828 55.08,23.818 l -2.745,0.675 c -0.224,-0.905 -0.501,-1.79 -0.827,-2.648 l 2.646,-1.004 C 53.785,19.868 53.357,18.92 52.872,17.998 l -2.505,1.317 c -0.434,-0.82 -0.914,-1.613 -1.44,-2.373 l 2.331,-1.611 c -0.592,-0.856 -1.239,-1.677 -1.926,-2.455 l -2.121,1.881 C 46.596,14.063 45.94,13.405 45.246,12.791 l 1.878,-2.119 C 46.347,9.982 45.527,9.335 44.672,8.743 l -1.611,2.333 C 42.301,10.55 41.509,10.068 40.688,9.636 L 42.005,7.128 C 41.085,6.645 40.133,6.216 39.16,5.848 L 38.158,8.494 C 37.3,8.166 36.413,7.889 35.509,7.665 L 36.183,4.92 C 35.174,4.672 34.148,4.483 33.117,4.363 L 32.778,7.166 C 31.865,7.055 30.939,6.997 30,6.997 V 4.174 c -1.038,0 -2.079,0.063 -3.112,0.188 l 0.337,2.803 c -0.929,0.112 -1.84,0.279 -2.731,0.499 L 23.82,4.919 c -1.008,0.249 -2.005,0.56 -2.977,0.928 l 1.002,2.646 c -0.869,0.331 -1.713,0.713 -2.53,1.143 L 17.999,7.128 C 17.08,7.613 16.188,8.154 15.33,8.743 l 1.612,2.333 c -0.763,0.528 -1.491,1.101 -2.184,1.715 l -1.883,-2.119 c -0.776,0.688 -1.513,1.425 -2.204,2.204 l 2.12,1.881 c -0.614,0.692 -1.188,1.422 -1.716,2.186 L 8.746,15.33 C 8.155,16.183 7.615,17.074 7.13,17.997 l 2.505,1.317 c -0.429,0.815 -0.811,1.659 -1.14,2.528 L 5.85,20.84 c -0.369,0.971 -0.68,1.967 -0.928,2.978 l 2.744,0.674 c -0.219,0.892 -0.388,1.803 -0.5,2.73 L 4.364,26.887 C 4.238,27.918 4.181,28.959 4.178,29.999 L 1.348,30 c 0,-1.169 0.072,-2.32 0.209,-3.453 l 2.808,0.34 C 4.488,25.854 4.677,24.828 4.923,23.818 L 2.18,23.144 C 2.457,22.013 2.803,20.912 3.211,19.839 L 5.85,20.84 C 6.219,19.867 6.647,18.919 7.13,17.997 L 4.636,16.684 c 0.54,-1.023 1.141,-2.012 1.796,-2.959 l 2.314,1.604 c 0.593,-0.856 1.236,-1.677 1.925,-2.455 L 8.567,11.006 c 0.765,-0.862 1.58,-1.679 2.442,-2.442 l 1.865,2.106 C 13.656,9.98 14.476,9.333 15.328,8.741 L 13.73,6.427 c 0.946,-0.654 1.933,-1.254 2.956,-1.793 l 1.312,2.493 C 18.92,6.644 19.87,6.215 20.843,5.847 L 19.84,3.208 C 20.913,2.801 22.018,2.455 23.147,2.177 L 23.82,4.919 C 24.832,4.671 25.856,4.482 26.888,4.362 L 26.55,1.555 C 27.682,1.418 28.833,1.347 30,1.347 v 2.827 c 1.041,0 2.082,0.063 3.115,0.188 l 0.338,-2.808 c 1.157,0.14 2.293,0.349 3.403,0.622 l -0.675,2.742 c 1.01,0.249 2.008,0.56 2.978,0.928 l 1.002,-2.639 c 1.085,0.413 2.138,0.891 3.157,1.427 l -1.314,2.492 c 0.92,0.485 1.812,1.026 2.667,1.615 l 1.602,-2.314 c 0.949,0.658 1.857,1.371 2.719,2.136 l -1.868,2.107 c 0.779,0.688 1.517,1.425 2.208,2.204 l 2.104,-1.867 c 0.765,0.862 1.479,1.77 2.136,2.718 l -2.314,1.604 c 0.591,0.853 1.131,1.744 1.614,2.667 l 2.494,-1.313 c 0.537,1.017 1.012,2.07 1.425,3.154 l -2.637,1.001 c 0.368,0.971 0.679,1.967 0.927,2.978 l 2.742,-0.674 c 0.273,1.11 0.482,2.246 0.621,3.403 l -2.807,0.34 c 0.127,1.031 0.187,2.072 0.188,3.112 z"
   id="path7" />
</g>
<g
   id="g13"
   transform="matrix(0.05785052,0,0,0.05785052,28.264484,28.264484)">
	
	
	
	
	
	
<g
   id="g23"
   transform="matrix(0.78125,0,0,0.78125,-372.1412,-386.4697)"><path
     d="m 485.8,725.6 c 0.3,-0.8 0.6,-1.7 0.8,-2.6 7.3,-36.6 52.9,-53 52.9,-53 0,0 20.3,-13.2 29.3,-22.2 46.7,-46.8 32.5,-108.4 -14.2,-155.2 -46.7,-46.8 -108.2,-61 -154.9,-14.2 -9,9 -16.2,19.1 -21.7,29.8 l -0.1,0.2 c -1.7,3.4 -3.4,6.9 -4.7,10.5 -7.2,14 -22.8,37.2 -48.1,42.3 h -0.2 c -34.6,2.6 -68.5,17.1 -95.1,43.7 -58.7,58.8 -48.8,144.2 10,203.1 58.7,58.8 144,68.8 202.7,10 25.8,-25.9 40.1,-58.7 43.3,-92.4 z"
     fill="#f2e2c8"
     id="path1-9"
     style="fill:#d1955e;fill-opacity:1" /><path
     d="m 506,598.2 -53.3,-53.4 319.9,-320.5 53.3,53.4 z"
     fill="#f2e2c8"
     id="path2-8"
     style="fill:#d1955e;fill-opacity:1" /><path
     d="m 753.7,379.3 c -4.1,4.1 -10.7,4.1 -14.8,0 L 669.7,310 c -4.1,-4.1 -4.1,-10.7 0,-14.8 l 79.5,-79.6 c 4.1,-4.1 10.7,-4.1 14.8,0 l 69.2,69.3 c 4.1,4.1 4.1,10.7 0,14.9 z"
     fill="#f2e2c8"
     id="path3-6"
     style="fill:#d1955e;fill-opacity:1" /><path
     d="m 385,602.1 c -16.6,16.6 -16.6,43.5 0,60.1 16.6,16.6 43.4,16.6 60,0 16.6,-16.6 16.6,-43.5 0,-60.1 -16.6,-16.5 -43.4,-16.5 -60,0 z m -83.9,99.4 c -6.6,-6.6 -17.4,-6.6 -24,0 -6.6,6.6 -6.6,17.4 0,24 l 50.9,51 c 3.3,3.3 7.7,5 12,5 4.3,0 8.7,-1.7 12,-5 6.6,-6.6 6.6,-17.4 0,-24 z"
     fill="#211f1e"
     id="path4-5"
     style="fill:#000d49;fill-opacity:1" /><path
     d="m 851,332.4 -13.2,-13.3 7.4,-7.4 c 10.7,-10.8 10.6,-28.2 0,-38.8 L 776,203.5 c -10.4,-10.4 -28.5,-10.3 -38.8,0 l -7,7.1 -13.6,-13.7 c -6.6,-6.7 -17.3,-6.7 -24,-0.1 -6.6,6.6 -6.7,17.4 -0.1,24 l 13.6,13.8 -17.1,17.1 -13.4,-13.5 c -6.6,-6.7 -17.3,-6.7 -24,-0.1 -6.6,6.6 -6.7,17.4 -0.1,24 l 13.5,13.6 -7.4,7.4 c -5.2,5.2 -8.1,12.1 -8,19.5 0,5.7 1.8,11.2 5.1,15.8 L 524.5,448.9 c -19.5,-10.6 -39.7,-16.3 -59.4,-16.3 -28.6,0 -55.4,11.7 -77.4,33.8 -9.8,9.8 -18,21 -24.4,33.3 -0.3,0.5 -0.6,1.1 -0.8,1.7 -1.8,3.7 -3.4,7.1 -4.7,10.4 -5.7,10.8 -17.6,28.6 -35.2,32.5 -39.5,3.2 -76.6,20.4 -104.6,48.5 -62.8,62.9 -58.6,158.4 10,227.1 35,35.1 78.5,54.4 122.5,54.4 39.2,0 75.2,-15.4 104.2,-44.4 27,-27 44,-62.8 48,-100.8 0.3,-0.9 0.5,-1.8 0.7,-2.8 4.4,-22.1 31.8,-36.6 41.9,-40.3 1.2,-0.4 2.4,-1 3.5,-1.7 2.2,-1.4 22,-14.5 32,-24.5 25.9,-25.9 37.2,-57.7 32.8,-91.8 -1.8,-13.7 -6.1,-27.3 -12.7,-40.6 L 732.5,395.5 c 4.2,2.5 8.9,3.9 13.9,3.9 7.3,0 14.2,-2.9 19.4,-8.1 l 7,-7 13.3,13.4 c 3.3,3.3 7.7,5 12,5 4.3,0 8.6,-1.6 11.9,-4.9 6.7,-6.6 6.7,-17.4 0.1,-24 l -13.4,-13.5 17.1,-17.1 13.1,13.3 c 3.3,3.3 7.7,5 12,5 4.3,0 8.6,-1.6 12,-4.9 6.6,-6.8 6.7,-17.5 0.1,-24.2 z M 556.7,635.7 c -5.8,5.8 -19,15 -25.1,19.1 -10.2,4.1 -53.5,23.9 -61.7,64.8 -0.5,1.4 -0.9,2.9 -1,4.4 -2.9,30.9 -16.6,60 -38.4,81.9 -22.5,22.6 -50.3,34.5 -80.2,34.5 -34.9,0 -69.8,-15.8 -98.5,-44.5 -55.5,-55.7 -59.7,-129.3 -10,-179.1 22.6,-22.6 52.5,-36.3 85.1,-38.8 0.4,0 0.7,-0.1 1.1,-0.2 0.1,0 0.2,0 0.3,-0.1 32.3,-6.5 51.3,-34.8 59.8,-51.1 0.3,-0.6 0.5,-1.1 0.7,-1.7 1.1,-2.7 2.4,-5.6 4,-8.9 0.1,-0.2 0.2,-0.4 0.3,-0.5 4.8,-9.3 11,-17.8 18.4,-25.2 15.8,-15.8 33.7,-23.8 53.4,-23.8 11.1,0 22.7,2.7 34.2,7.6 l -58.5,58.6 c -6.6,6.6 -6.6,17.4 0,24 l 53.3,53.4 c 3.2,3.2 7.5,5 12,5 4.5,0 8.8,-1.8 12,-5 l 56.9,-57 c 2.4,6.4 4.1,12.9 4.9,19.2 3.2,23.7 -4.5,45 -23,63.4 z m -50.7,-61.6 -29.3,-29.4 201.6,-202 29.3,29.4 z m 240.2,-211.4 -60,-60.1 70.3,-70.4 60,60.1 z"
     fill="#211f1e"
     id="path5"
     style="fill:#000d49;fill-opacity:1" /><path
     d="m 765.21462,465.51792 c -1.32822,0.0797 -2.62739,0.35667 -3.88932,0.73458 h -0.21684 l -0.86424,0.34583 h -0.0443 c -1.46541,0.54187 -2.78144,1.26782 -3.97578,2.11746 -0.10178,0.0619 -0.1593,0.15267 -0.25931,0.21683 -0.0509,0.0376 -0.1217,0.0487 -0.17259,0.0863 -0.72241,0.47372 -1.41009,0.95452 -1.9878,1.46939 l -80.37814,69.92092 c -2.4738,2.10152 -4.26237,4.89898 -5.22901,8.03795 -1.63113,3.99146 -1.70769,8.31749 -0.25932,12.27302 l 30.72574,87.29393 c -3.52524,0.25843 -7.08392,0.9273 -10.58764,2.16083 -21.57678,7.59605 -33.00974,31.43809 -25.41033,53.0246 7.59814,21.58278 31.44608,32.96372 53.02461,25.36709 18.49374,-6.51066 33.34977,-25.38512 29.7318,-48.48702 l -0.17259,-1.16671 v -0.17258 c -0.0642,-0.52527 -0.11284,-0.77773 -0.13054,-0.86424 -0.0189,-0.10399 -0.11063,-0.60537 -0.21683,-1.03705 -0.15267,-0.62107 -0.36022,-1.31738 -0.47527,-1.68533 -0.37172,-1.28309 -0.86269,-2.77617 -1.33973,-4.0622 l -39.3255,-111.66711 54.53712,-47.44987 22.4285,63.78507 c -3.51109,0.26109 -7.05521,0.93217 -10.54443,2.16082 -21.577,7.59614 -33.00972,31.43816 -25.41031,53.02461 7.59813,21.58271 31.4459,32.96381 53.02458,25.36709 18.54864,-6.52998 33.47324,-25.4983 29.7318,-48.70311 l -0.0443,-0.51863 c -0.0288,-0.16152 -0.0575,-0.31419 -0.0863,-0.47527 v -0.13054 c -0.0642,-0.52527 -0.11506,-0.77773 -0.13055,-0.86424 -0.0642,-0.35291 -0.27148,-1.08661 -0.25931,-1.03705 -0.15267,-0.61952 -0.36021,-1.31716 -0.47527,-1.68533 -0.35468,-1.22446 -0.82021,-2.64021 -1.29636,-3.93257 l -42.91232,-121.909 c -0.0288,-0.0863 -0.0553,-0.1748 -0.0863,-0.25932 l -0.0863,-0.13054 c -1.55192,-4.16522 -4.58685,-7.57132 -8.64297,-9.50727 -2.09577,-1.00032 -4.29374,-1.53842 -6.56865,-1.6422 -0.57948,-0.0266 -1.15741,-0.0332 -1.7287,0 z"
     id="path39"
     style="fill:#000000;stroke:#000d49;stroke-width:22.126;stroke-dasharray:none;stroke-opacity:1" /></g></g>
<g
   id="g22">
	<g
   id="g17">
		<polygon
   fill="#003366"
   points="47.654,29.145 47.364,30.85 48.895,30.046 50.425,30.85 50.133,29.145 51.369,27.938 49.658,27.69 48.895,26.137 48.129,27.69 46.419,27.938 "
   id="polygon13" />
		<path
   fill="#003366"
   d="m 47.592,36.199 c 0.091,-0.321 0.172,-0.63 0.24,-0.923 0.248,-0.306 0.658,-0.92 0.764,-1.739 0.153,-1.192 -0.466,-1.874 -0.466,-1.874 0,0 -0.763,0.446 -0.917,1.641 -0.104,0.813 0.133,1.537 0.294,1.914 -0.16,0.679 -0.38,1.435 -0.684,2.236 0.021,-0.32 0.01,-0.692 -0.093,-1.078 -0.291,-1.113 -1.068,-1.461 -1.068,-1.461 0,0 -0.502,0.701 -0.209,1.813 0.218,0.823 0.742,1.388 0.998,1.624 -0.259,0.583 -0.561,1.18 -0.916,1.781 0.061,-0.398 0.082,-0.963 -0.102,-1.555 -0.346,-1.095 -1.138,-1.4 -1.138,-1.4 0,0 -0.465,0.73 -0.119,1.824 0.259,0.822 0.821,1.361 1.085,1.58 -0.381,0.602 -0.815,1.206 -1.313,1.803 0.08,-0.395 0.146,-1.05 -0.071,-1.737 -0.345,-1.093 -1.138,-1.399 -1.138,-1.399 0,0 -0.462,0.731 -0.118,1.824 0.264,0.833 0.834,1.373 1.094,1.586 -0.232,0.266 -0.472,0.531 -0.729,0.793 l 0.229,0.259 c 0.561,-0.569 1.055,-1.15 1.497,-1.737 0.299,0.178 1.028,0.541 1.887,0.459 1.125,-0.109 1.578,-0.903 1.578,-0.903 0,0 -0.611,-0.689 -1.736,-0.58 -0.556,0.054 -1.021,0.282 -1.348,0.499 0.376,-0.539 0.708,-1.078 0.999,-1.61 0.315,0.089 1.12,0.255 1.943,-0.07 1.052,-0.417 1.296,-1.313 1.296,-1.313 0,0 -0.755,-0.502 -1.81,-0.083 -0.439,0.173 -0.786,0.45 -1.04,0.714 0.272,-0.563 0.504,-1.112 0.7,-1.643 0.337,-0.009 1.131,-0.093 1.819,-0.635 0.901,-0.713 0.9,-1.651 0.9,-1.651 0,0 -0.849,-0.266 -1.748,0.446 -0.225,0.18 -0.412,0.386 -0.56,0.595 z"
   id="path14" />
		<g
   id="g16">
			<polygon
   fill="#003366"
   points="39.281,44.639 40.074,45.482 39.828,46.613 40.876,46.121 41.875,46.704 41.73,45.557 42.595,44.785 41.458,44.567 40.991,43.509 40.435,44.522 "
   id="polygon14" />
			<polygon
   fill="#003366"
   points="35.049,46.488 35.921,47.655 35.454,49.035 36.833,48.566 38,49.437 37.981,47.981 39.171,47.14 37.779,46.708 37.346,45.317 36.507,46.506 "
   id="polygon15" />
			<polygon
   fill="#003366"
   points="31.588,47.823 32.094,48.81 31.567,49.785 32.662,49.61 33.427,50.411 33.597,49.317 34.598,48.837 33.609,48.335 33.461,47.237 32.68,48.022 "
   id="polygon16" />
		</g>
	</g>
	<g
   id="g21">
		<polygon
   fill="#003366"
   points="10.268,32.411 10.739,34.074 11.774,32.689 13.501,32.755 12.503,31.343 13.099,29.721 11.448,30.235 10.089,29.162 10.068,30.895 8.632,31.854 "
   id="polygon17" />
		<path
   fill="#003366"
   d="m 12.241,23.697 c -0.104,0.316 -0.198,0.621 -0.279,0.911 -0.262,0.295 -0.697,0.892 -0.838,1.705 -0.204,1.186 0.385,1.893 0.385,1.893 0,0 0.782,-0.413 0.987,-1.6 0.14,-0.809 -0.066,-1.542 -0.212,-1.925 0.19,-0.672 0.442,-1.417 0.78,-2.205 -0.036,0.319 -0.039,0.691 0.046,1.08 0.243,1.125 1.005,1.506 1.005,1.506 0,0 0.531,-0.679 0.286,-1.803 -0.182,-0.832 -0.682,-1.419 -0.927,-1.666 0.283,-0.57 0.61,-1.154 0.991,-1.74 -0.077,0.396 -0.123,0.96 0.035,1.559 0.299,1.108 1.076,1.447 1.076,1.447 0,0 0.496,-0.709 0.197,-1.817 -0.224,-0.832 -0.762,-1.396 -1.017,-1.624 0.407,-0.586 0.867,-1.171 1.39,-1.746 -0.097,0.392 -0.19,1.043 -0.003,1.739 0.298,1.106 1.076,1.447 1.076,1.447 0,0 0.494,-0.711 0.196,-1.817 -0.228,-0.844 -0.773,-1.408 -1.024,-1.632 0.243,-0.256 0.494,-0.511 0.762,-0.761 l -0.219,-0.269 c -0.584,0.545 -1.103,1.104 -1.569,1.672 -0.29,-0.19 -1.004,-0.585 -1.865,-0.54 -1.13,0.062 -1.616,0.835 -1.616,0.835 0,0 0.582,0.715 1.71,0.654 0.559,-0.03 1.032,-0.238 1.368,-0.44 -0.398,0.521 -0.753,1.046 -1.067,1.565 -0.312,-0.103 -1.108,-0.303 -1.945,-0.013 -1.068,0.371 -1.351,1.256 -1.351,1.256 0,0 0.732,0.534 1.805,0.161 0.447,-0.154 0.805,-0.417 1.07,-0.669 -0.297,0.55 -0.551,1.09 -0.77,1.611 -0.338,-0.006 -1.136,0.044 -1.847,0.557 -0.931,0.673 -0.971,1.61 -0.971,1.61 0,0 0.837,0.302 1.766,-0.371 0.238,-0.169 0.432,-0.368 0.589,-0.57 z"
   id="path17" />
		<g
   id="g20">
			<polygon
   fill="#003366"
   points="26.066,12.513 25.927,11.362 24.901,10.826 25.951,10.338 26.144,9.197 26.932,10.044 28.077,9.875 27.516,10.887 28.03,11.923 26.896,11.701 "
   id="polygon18" />
			<polygon
   fill="#003366"
   points="21.969,14.509 21.633,13.092 20.274,12.565 21.517,11.808 21.598,10.354 22.703,11.301 24.11,10.927 23.552,12.272 24.341,13.496 22.891,13.378 "
   id="polygon19" />
			<polygon
   fill="#003366"
   points="18.691,16.377 18.259,15.356 17.172,15.135 18.008,14.407 17.883,13.307 18.832,13.877 19.843,13.417 19.595,14.498 20.343,15.315 19.238,15.411 "
   id="polygon20" />
		</g>
	</g>
</g>
</svg>
