<?xml version="1.0" encoding="UTF-8" standalone="no"?>
<!-- Generator: Adobe Illustrator 16.2.0, SVG Export Plug-In . SVG Version: 6.00 Build 0)  -->

<svg
   version="1.1"
   id="レイヤー_1"
   x="0px"
   y="0px"
   width="60"
   height="60"
   viewBox="0 0 60 60"
   enable-background="new 0 0 60 60"
   xml:space="preserve"
   xmlns="http://www.w3.org/2000/svg"
   xmlns:svg="http://www.w3.org/2000/svg"><defs
   id="defs17" />
<g
   id="g3">
	
	
	
	
<path
   style="fill:#303030;fill-opacity:1;stroke:#000d49;stroke-width:0.887599;stroke-linejoin:round;stroke-dasharray:none;stroke-opacity:1;paint-order:markers fill stroke"
   id="path18"
   d="m 30,15.956095 12.162379,21.065858 -24.324758,-1e-6 z"
   transform="matrix(1.1266352,0,0,1.1266352,-1.8074593,-1.2406486)" /><path
   style="fill:#303030;fill-opacity:1;stroke:#000d49;stroke-width:1;stroke-linejoin:round;stroke-dasharray:none;stroke-opacity:1;paint-order:markers fill stroke"
   id="path19"
   d="m 30,15.956095 12.162379,21.065858 -24.324758,-1e-6 z"
   transform="translate(-4.5795601,3.5109511)" /><path
   style="fill:#484848;fill-opacity:1;stroke:#000d49;stroke-width:2.60394;stroke-linejoin:round;stroke-dasharray:none;stroke-opacity:1;paint-order:markers fill stroke"
   id="path20"
   d="m 30,15.956095 12.162379,21.065858 -24.324758,-1e-6 z"
   transform="matrix(-0.38403309,0,0,-0.38403309,36.941432,45.031944)" /><path
   style="fill:#ffffff;fill-opacity:1;stroke:#000d49;stroke-width:1;stroke-linejoin:round;stroke-dasharray:none;stroke-opacity:1;paint-order:markers fill stroke"
   d="m 25.42044,19.467046 -3.558551,6.163592 2.731861,1.463112 3.837852,-2.411218 z"
   id="path21" /><path
   style="fill:#ffffff;fill-opacity:1;stroke:#000d49;stroke-width:1;stroke-linejoin:round;stroke-dasharray:none;stroke-opacity:1;paint-order:markers fill stroke"
   d="M 31.991597,16.736049 37.942305,27.042979 33.75,25.3125 31.46875,27.46875 28.431602,24.682532 27.917647,23.792337 Z"
   id="path22" /></g>
<g
   id="g10">
	<g
   id="g4">
		<path
   fill="#003366"
   d="M 30,0 C 13.455,0 0,13.456 0,30 0,46.541 13.455,60 30,60 46.542,60 60,46.541 60,30 60,13.456 46.542,0 30,0 Z m 0,58.653 C 14.199,58.653 1.348,45.799 1.348,30 v -0.001 h 2.828 c 10e-4,-1.04 0.061,-2.081 0.188,-3.111 l -2.808,-0.34 c 0.141,-1.157 0.349,-2.294 0.623,-3.404 l 2.74,0.674 C 5.168,22.807 5.478,21.812 5.847,20.84 L 3.21,19.839 C 3.623,18.755 4.1,17.702 4.636,16.685 l 2.493,1.313 C 7.612,17.075 8.152,16.185 8.744,15.331 L 6.43,13.728 c 0.658,-0.95 1.37,-1.857 2.136,-2.719 l 2.104,1.866 c 0.69,-0.778 1.428,-1.514 2.207,-2.203 L 11.009,8.565 c 0.862,-0.764 1.77,-1.478 2.719,-2.135 l 1.602,2.313 c 0.855,-0.589 1.747,-1.13 2.667,-1.614 L 16.684,4.636 C 17.703,4.1 18.756,3.623 19.84,3.21 l 1.002,2.638 C 21.812,5.481 22.81,5.169 23.82,4.921 L 23.145,2.179 c 1.11,-0.274 2.246,-0.483 3.403,-0.623 l 0.338,2.808 C 27.919,4.238 28.961,4.176 30,4.176 V 1.347 c 1.167,0 2.319,0.072 3.45,0.209 l -0.338,2.808 c 1.032,0.121 2.057,0.31 3.068,0.558 l 0.674,-2.743 c 1.13,0.278 2.232,0.624 3.305,1.032 l -1.001,2.638 c 0.973,0.368 1.922,0.797 2.846,1.281 l 1.31,-2.494 c 1.023,0.539 2.01,1.139 2.957,1.793 L 44.67,8.743 c 0.855,0.593 1.673,1.237 2.455,1.929 l 1.866,-2.106 c 0.861,0.764 1.677,1.58 2.442,2.442 l -2.104,1.867 c 0.688,0.779 1.332,1.6 1.925,2.455 l 2.316,-1.603 c 0.654,0.946 1.254,1.934 1.794,2.957 l -2.494,1.313 c 0.481,0.922 0.912,1.87 1.28,2.843 l 2.639,-1.001 c 0.408,1.072 0.754,2.175 1.031,3.305 l -2.742,0.674 c 0.247,1.012 0.436,2.036 0.558,3.07 l 2.808,-0.34 C 58.582,27.68 58.653,28.831 58.653,30 58.652,45.799 45.798,58.653 30,58.653 Z"
   id="path4" />
	</g>
	<path
   fill="#003366"
   d="M 30,8.262 C 41.987,8.262 51.738,18.012 51.738,30 51.738,41.986 41.987,51.738 30,51.738 18.012,51.738 8.262,41.986 8.262,30 8.262,18.012 18.012,8.262 30,8.262 M 30,6.987 C 17.311,6.987 6.986,17.311 6.986,30 6.986,42.69 17.31,53.013 30,53.013 42.69,53.013 53.014,42.691 53.014,30 53.014,17.311 42.69,6.987 30,6.987 Z"
   id="path5" />
	<polygon
   fill="#003366"
   points="2.29,33.662 2.871,35.771 4.729,35.516 4.168,37.397 5.615,38.728 3.887,39.461 4.469,41.57 8.278,39.952 7.697,37.845 6.279,36.817 6.971,35.208 6.389,33.1 "
   id="polygon5" />
	<path
   fill="#003366"
   d="m 16.95,49.825 -1.383,-0.932 -0.458,-0.306 -1.37,-0.923 -2.391,3.304 1.827,1.229 1.754,-2.423 0.996,0.67 c 0.334,0.226 0.252,0.891 -0.26,0.956 -0.512,0.064 -1.077,-0.218 -1.077,-0.218 l 0.413,2.243 2.055,1.382 -0.344,-1.867 c 0,0 1.265,0.127 1.743,-0.533 0.693,-0.957 -0.591,-1.968 -1.505,-2.582 z"
   id="path6" />
	<polygon
   fill="#003366"
   points="19.816,55.77 21.707,56.438 22.975,52.935 21.083,52.268 "
   id="polygon6" />
	<g
   id="g7">
		<path
   fill="#003366"
   d="m 28.085,53.633 c -1.807,-0.143 -3.365,0.687 -3.478,1.85 -0.111,1.163 1.264,2.219 3.072,2.36 1.809,0.141 3.367,-0.686 3.479,-1.851 0.113,-1.163 -1.263,-2.219 -3.073,-2.359 z m -0.263,2.724 c -0.531,-0.041 -0.936,-0.354 -0.903,-0.695 0.034,-0.342 0.491,-0.585 1.023,-0.543 0.532,0.041 0.937,0.352 0.902,0.693 -0.032,0.342 -0.49,0.587 -1.022,0.545 z"
   id="path7" />
	</g>
	<polygon
   fill="#003366"
   points="6.954,45.729 10.271,44.707 8.255,47.439 9.555,49.15 12.075,45.735 11.1,44.452 10.774,44.024 9.799,42.742 5.653,44.018 "
   id="polygon7" />
	<polygon
   fill="#003366"
   points="34.612,53.47 35.972,57.173 38.087,56.498 37.453,54.77 39.939,55.905 42.321,55.145 39.656,53.927 40.962,51.441 38.58,52.201 37.363,54.522 36.728,52.794 "
   id="polygon8" />
	<polygon
   fill="#003366"
   points="46.202,52.669 45.04,49.521 47.948,51.373 49.693,50.078 46.057,47.765 44.749,48.734 44.313,49.058 43.004,50.029 44.456,53.963 "
   id="polygon9" />
	<path
   fill="#003366"
   d="m 52.809,40.844 c -1.01,-0.652 -2.026,0.623 -2.643,1.528 l -0.934,1.373 -0.308,0.453 -0.923,1.357 3.483,2.253 1.23,-1.811 -2.554,-1.652 0.672,-0.987 c 0.224,-0.332 0.916,-0.268 0.996,0.229 0.08,0.496 -0.199,1.056 -0.199,1.056 l 2.316,-0.458 1.385,-2.036 -1.93,0.38 c 0.002,0 0.106,-1.236 -0.591,-1.685 z"
   id="path9" />
	<polygon
   fill="#003366"
   points="52.508,38.539 53.55,38.775 54.025,36.708 56.891,37.355 57.365,35.287 54.5,34.64 54.975,32.571 53.932,32.337 53.457,34.405 52.984,36.472 "
   id="polygon10" />
	<path
   fill="#003366"
   d="m 53.004,30 c 0,-0.94 -0.059,-1.867 -0.169,-2.778 l 2.802,-0.335 C 55.516,25.854 55.329,24.828 55.08,23.818 l -2.745,0.675 c -0.224,-0.905 -0.501,-1.79 -0.827,-2.648 l 2.646,-1.004 C 53.785,19.868 53.357,18.92 52.872,17.998 l -2.505,1.317 c -0.434,-0.82 -0.914,-1.613 -1.44,-2.373 l 2.331,-1.611 c -0.592,-0.856 -1.239,-1.677 -1.926,-2.455 l -2.121,1.881 C 46.596,14.063 45.94,13.405 45.246,12.791 l 1.878,-2.119 C 46.347,9.982 45.527,9.335 44.672,8.743 l -1.611,2.333 C 42.301,10.55 41.509,10.068 40.688,9.636 L 42.005,7.128 C 41.085,6.645 40.133,6.216 39.16,5.848 L 38.158,8.494 C 37.3,8.166 36.413,7.889 35.509,7.665 L 36.183,4.92 C 35.174,4.672 34.148,4.483 33.117,4.363 L 32.778,7.166 C 31.865,7.055 30.939,6.997 30,6.997 V 4.174 c -1.038,0 -2.079,0.063 -3.112,0.188 l 0.337,2.803 c -0.929,0.112 -1.84,0.279 -2.731,0.499 L 23.82,4.919 c -1.008,0.249 -2.005,0.56 -2.977,0.928 l 1.002,2.646 c -0.869,0.331 -1.713,0.713 -2.53,1.143 L 17.999,7.128 C 17.08,7.613 16.188,8.154 15.33,8.743 l 1.612,2.333 c -0.763,0.528 -1.491,1.101 -2.184,1.715 l -1.883,-2.119 c -0.776,0.688 -1.513,1.425 -2.204,2.204 l 2.12,1.881 c -0.614,0.692 -1.188,1.422 -1.716,2.186 L 8.746,15.33 C 8.155,16.183 7.615,17.074 7.13,17.997 l 2.505,1.317 c -0.429,0.815 -0.811,1.659 -1.14,2.528 L 5.85,20.84 c -0.369,0.971 -0.68,1.967 -0.928,2.978 l 2.744,0.674 c -0.219,0.892 -0.388,1.803 -0.5,2.73 L 4.364,26.887 C 4.238,27.918 4.181,28.959 4.178,29.999 L 1.348,30 c 0,-1.169 0.072,-2.32 0.209,-3.453 l 2.808,0.34 C 4.488,25.854 4.677,24.828 4.923,23.818 L 2.18,23.144 C 2.457,22.013 2.803,20.912 3.211,19.839 L 5.85,20.84 C 6.219,19.867 6.647,18.919 7.13,17.997 L 4.636,16.684 c 0.54,-1.023 1.141,-2.012 1.796,-2.959 l 2.314,1.604 c 0.593,-0.856 1.236,-1.677 1.925,-2.455 L 8.567,11.006 c 0.765,-0.862 1.58,-1.679 2.442,-2.442 l 1.865,2.106 C 13.656,9.98 14.476,9.333 15.328,8.741 L 13.73,6.427 c 0.946,-0.654 1.933,-1.254 2.956,-1.793 l 1.312,2.493 C 18.92,6.644 19.87,6.215 20.843,5.847 L 19.84,3.208 C 20.913,2.801 22.018,2.455 23.147,2.177 L 23.82,4.919 C 24.832,4.671 25.856,4.482 26.888,4.362 L 26.55,1.555 C 27.682,1.418 28.833,1.347 30,1.347 v 2.827 c 1.041,0 2.082,0.063 3.115,0.188 l 0.338,-2.808 c 1.157,0.14 2.293,0.349 3.403,0.622 l -0.675,2.742 c 1.01,0.249 2.008,0.56 2.978,0.928 l 1.002,-2.639 c 1.085,0.413 2.138,0.891 3.157,1.427 l -1.314,2.492 c 0.92,0.485 1.812,1.026 2.667,1.615 l 1.602,-2.314 c 0.949,0.658 1.857,1.371 2.719,2.136 l -1.868,2.107 c 0.779,0.688 1.517,1.425 2.208,2.204 l 2.104,-1.867 c 0.765,0.862 1.479,1.77 2.136,2.718 l -2.314,1.604 c 0.591,0.853 1.131,1.744 1.614,2.667 l 2.494,-1.313 c 0.537,1.017 1.012,2.07 1.425,3.154 l -2.637,1.001 c 0.368,0.971 0.679,1.967 0.927,2.978 l 2.742,-0.674 c 0.273,1.11 0.482,2.246 0.621,3.403 l -2.807,0.34 c 0.127,1.031 0.187,2.072 0.188,3.112 z"
   id="path10" />
</g>
<g
   id="g12">
	<path
   fill="#003366"
   d="m 15.574,24.109 c -0.223,0.625 -0.429,1.28 -0.608,1.969 -0.022,-0.453 -0.132,-1.08 -0.488,-1.675 -0.662,-1.101 -1.655,-1.216 -1.655,-1.216 0,0 -0.365,0.931 0.296,2.032 0.531,0.881 1.382,1.314 1.702,1.452 -0.151,0.645 -0.276,1.315 -0.377,2.012 -0.058,-0.472 -0.208,-1.077 -0.579,-1.646 -0.759,-1.17 -1.839,-1.256 -1.839,-1.256 0,0 -0.361,1.021 0.397,2.19 0.618,0.952 1.58,1.389 1.919,1.519 -0.025,0.215 -0.047,0.427 -0.066,0.645 l -0.003,0.032 c -0.005,0.05 0.015,0.096 0.048,0.127 0.025,0.024 0.059,0.042 0.098,0.045 0.088,0.006 0.164,-0.059 0.172,-0.147 l 0.005,-0.031 c 0.049,-0.602 0.12,-1.185 0.21,-1.75 0.352,0.074 1.214,0.189 2.08,-0.184 1.124,-0.48 1.359,-1.401 1.359,-1.401 0,0 -0.829,-0.462 -1.952,0.018 -0.694,0.298 -1.161,0.813 -1.417,1.161 0.151,-0.854 0.341,-1.669 0.563,-2.439 0.346,0.103 1.115,0.266 1.931,0.008 1.096,-0.351 1.4,-1.191 1.4,-1.191 0,0 -0.732,-0.511 -1.831,-0.162 -0.618,0.197 -1.077,0.581 -1.358,0.877 0.242,-0.782 0.519,-1.516 0.813,-2.205 0.302,0.128 0.966,0.351 1.712,0.209 1.018,-0.192 1.382,-0.911 1.382,-0.911 0,0 -0.602,-0.536 -1.618,-0.343 -0.563,0.107 -1.005,0.389 -1.288,0.619 0.29,-0.643 0.598,-1.241 0.914,-1.8 0.299,0.128 0.969,0.355 1.722,0.214 1.018,-0.193 1.379,-0.911 1.379,-0.911 0,0 -0.599,-0.536 -1.616,-0.344 -0.503,0.096 -0.91,0.332 -1.196,0.547 0.325,-0.54 0.652,-1.036 0.976,-1.49 0.306,0.113 0.985,0.305 1.729,0.124 1.007,-0.246 1.332,-0.983 1.332,-0.983 0,0 -0.628,-0.503 -1.635,-0.257 -0.353,0.086 -0.653,0.241 -0.896,0.405 0.497,-0.64 0.969,-1.173 1.376,-1.598 0.364,-0.03 1.049,-0.147 1.65,-0.603 0.868,-0.66 0.873,-1.507 0.873,-1.507 0,0 -0.817,-0.224 -1.685,0.438 -0.583,0.441 -0.876,1.039 -1.007,1.389 -0.208,0.216 -0.431,0.459 -0.667,0.729 0.112,-0.241 0.207,-0.517 0.252,-0.825 0.149,-1.08 -0.445,-1.684 -0.445,-1.684 0,0 -0.737,0.419 -0.887,1.499 -0.123,0.885 0.227,1.64 0.357,1.884 -0.329,0.419 -0.671,0.883 -1.013,1.396 0.109,-0.35 0.19,-0.808 0.12,-1.309 -0.152,-1.082 -0.888,-1.497 -0.888,-1.497 0,0 -0.597,0.603 -0.443,1.683 0.122,0.859 0.637,1.478 0.843,1.695 -0.313,0.502 -0.625,1.043 -0.925,1.624 0.07,-0.367 0.107,-0.853 -0.03,-1.364 -0.284,-1.053 -1.066,-1.378 -1.066,-1.378 0,0 -0.515,0.674 -0.233,1.727 0.226,0.843 0.819,1.395 1.046,1.582 -0.252,0.524 -0.493,1.082 -0.721,1.665 0.012,-0.411 -0.037,-0.958 -0.291,-1.501 -0.499,-1.072 -1.396,-1.272 -1.396,-1.272 0,0 -0.425,0.815 0.076,1.89 0.383,0.828 1.09,1.304 1.387,1.474 z"
   id="path11" />
	<path
   fill="#003366"
   d="m 44.426,24.109 c 0.223,0.625 0.429,1.28 0.608,1.969 0.022,-0.453 0.132,-1.08 0.488,-1.675 0.662,-1.101 1.655,-1.216 1.655,-1.216 0,0 0.365,0.931 -0.296,2.032 -0.531,0.881 -1.382,1.314 -1.702,1.452 0.151,0.645 0.276,1.315 0.377,2.012 0.058,-0.472 0.208,-1.077 0.579,-1.646 0.759,-1.17 1.839,-1.256 1.839,-1.256 0,0 0.361,1.021 -0.397,2.19 -0.618,0.952 -1.58,1.389 -1.919,1.519 0.025,0.215 0.047,0.427 0.066,0.645 l 0.003,0.032 c 0.005,0.05 -0.015,0.096 -0.048,0.127 -0.025,0.024 -0.059,0.042 -0.098,0.045 -0.088,0.006 -0.164,-0.059 -0.172,-0.147 l -0.005,-0.031 c -0.049,-0.602 -0.12,-1.185 -0.21,-1.75 -0.352,0.074 -1.214,0.189 -2.08,-0.184 -1.124,-0.48 -1.359,-1.401 -1.359,-1.401 0,0 0.829,-0.462 1.952,0.018 0.694,0.298 1.161,0.813 1.417,1.161 -0.151,-0.854 -0.341,-1.669 -0.563,-2.439 -0.346,0.103 -1.115,0.266 -1.931,0.008 -1.096,-0.351 -1.4,-1.191 -1.4,-1.191 0,0 0.732,-0.511 1.831,-0.162 0.618,0.197 1.077,0.581 1.358,0.877 -0.242,-0.782 -0.519,-1.516 -0.813,-2.205 -0.302,0.128 -0.966,0.351 -1.712,0.209 -1.018,-0.192 -1.382,-0.911 -1.382,-0.911 0,0 0.602,-0.536 1.618,-0.343 0.563,0.107 1.005,0.389 1.288,0.619 -0.29,-0.643 -0.598,-1.241 -0.914,-1.8 -0.299,0.128 -0.969,0.355 -1.722,0.214 -1.018,-0.193 -1.379,-0.911 -1.379,-0.911 0,0 0.599,-0.536 1.616,-0.344 0.503,0.096 0.91,0.332 1.196,0.547 -0.325,-0.54 -0.652,-1.036 -0.976,-1.49 -0.306,0.113 -0.985,0.305 -1.729,0.124 -1.007,-0.246 -1.332,-0.983 -1.332,-0.983 0,0 0.628,-0.503 1.635,-0.257 0.353,0.086 0.653,0.241 0.896,0.405 -0.497,-0.64 -0.969,-1.173 -1.376,-1.598 -0.364,-0.03 -1.049,-0.147 -1.65,-0.603 -0.868,-0.66 -0.873,-1.507 -0.873,-1.507 0,0 0.817,-0.224 1.685,0.438 0.583,0.441 0.876,1.039 1.007,1.389 0.208,0.216 0.431,0.459 0.667,0.729 -0.112,-0.241 -0.207,-0.517 -0.252,-0.825 -0.149,-1.08 0.445,-1.684 0.445,-1.684 0,0 0.737,0.419 0.887,1.499 0.123,0.885 -0.227,1.64 -0.357,1.884 0.329,0.419 0.671,0.883 1.013,1.396 -0.109,-0.35 -0.19,-0.808 -0.12,-1.309 0.152,-1.082 0.888,-1.497 0.888,-1.497 0,0 0.597,0.603 0.443,1.683 -0.122,0.859 -0.637,1.478 -0.843,1.695 0.313,0.502 0.625,1.043 0.925,1.624 -0.07,-0.367 -0.107,-0.853 0.03,-1.364 0.284,-1.053 1.066,-1.378 1.066,-1.378 0,0 0.515,0.674 0.233,1.727 -0.226,0.843 -0.819,1.395 -1.046,1.582 0.252,0.524 0.493,1.082 0.721,1.665 -0.012,-0.411 0.037,-0.958 0.291,-1.501 0.499,-1.072 1.396,-1.272 1.396,-1.272 0,0 0.425,0.815 -0.076,1.89 -0.383,0.828 -1.09,1.304 -1.387,1.474 z"
   id="path12" />
</g>
<polygon
   fill="#003366"
   points="31.502,46.355 31.846,44.271 29.982,45.267 28.106,44.295 28.479,46.377 26.974,47.861 29.066,48.15 30.014,50.039 30.938,48.14 33.026,47.821 "
   id="polygon12" />
<g
   id="g17">
	<g
   id="g14">
		<polygon
   fill="#003366"
   points="41.47,42.913 40.098,42.794 39.42,41.597 38.879,42.864 37.529,43.14 38.57,44.042 38.416,45.412 39.597,44.702 40.848,45.271 40.539,43.932 "
   id="polygon13" />
		<polygon
   fill="#003366"
   points="36.369,44.972 36.437,43.836 35.495,44.476 34.433,44.06 34.749,45.151 34.027,46.032 35.166,46.071 35.781,47.03 36.167,45.958 37.269,45.673 "
   id="polygon14" />
	</g>
	<g
   id="g16">
		<polygon
   fill="#003366"
   points="24.498,44.577 23.561,43.935 23.623,45.07 22.72,45.768 23.819,46.059 24.202,47.131 24.822,46.175 25.96,46.142 25.241,45.258 25.563,44.167 "
   id="polygon15" />
		<polygon
   fill="#003366"
   points="22.47,43.038 21.098,42.919 20.42,41.722 19.879,42.989 18.529,43.265 19.57,44.167 19.416,45.537 20.597,44.827 21.848,45.396 21.539,44.057 "
   id="polygon16" />
	</g>
</g>
</svg>
