<?xml version="1.0" encoding="UTF-8" standalone="no"?>
<!-- Generator: Adobe Adobe Illustrator 24.2.0, SVG Export Plug-In . SVG Version: 6.00 Build 0)  -->

<svg
   version="1.1"
   id="レイヤー_1"
   x="0px"
   y="0px"
   width="60"
   height="60"
   viewBox="0 0 60 60"
   xml:space="preserve"
   xmlns:xlink="http://www.w3.org/1999/xlink"
   xmlns="http://www.w3.org/2000/svg"
   xmlns:svg="http://www.w3.org/2000/svg"><defs
   id="defs52"><linearGradient
     id="linearGradient34"><stop
       style="stop-color:#fb0000;stop-opacity:1;"
       offset="0"
       id="stop34" /><stop
       style="stop-color:#aa6c2b;stop-opacity:1;"
       offset="0.19577554"
       id="stop39" /><stop
       style="stop-color:#a0b63f;stop-opacity:1;"
       offset="0.30745587"
       id="stop41" /><stop
       style="stop-color:#58a037;stop-opacity:1;"
       offset="0.36897066"
       id="stop42" /><stop
       style="stop-color:#3e8a2f;stop-opacity:1;"
       offset="0.42165825"
       id="stop40" /><stop
       style="stop-color:#00b93f;stop-opacity:1;"
       offset="0.5"
       id="stop36" /><stop
       style="stop-color:#24a573;stop-opacity:1;"
       offset="0.625"
       id="stop43" /><stop
       style="stop-color:#42a8a3;stop-opacity:1;"
       offset="0.73415828"
       id="stop44" /><stop
       style="stop-color:#3c5c81;stop-opacity:1;"
       offset="0.82566202"
       id="stop37" /><stop
       style="stop-color:#5a2ea2;stop-opacity:1;"
       offset="0.92544138"
       id="stop38" /><stop
       style="stop-color:#7800c3;stop-opacity:1;"
       offset="1"
       id="stop35" /></linearGradient><linearGradient
     xlink:href="#linearGradient34"
     id="linearGradient35"
     x1="-126.06073"
     y1="121.57513"
     x2="1042.2058"
     y2="121.57513"
     gradientUnits="userSpaceOnUse"
     gradientTransform="matrix(0.03210887,0,0,0.03210887,15.289856,29.111756)" /><linearGradient
     xlink:href="#linearGradient34"
     id="linearGradient46"
     x1="-127.45979"
     y1="27.845993"
     x2="1042.0233"
     y2="27.845993"
     gradientUnits="userSpaceOnUse"
     gradientTransform="matrix(0.03210887,0,0,0.03210887,15.289856,29.111756)" /></defs>
<style
   type="text/css"
   id="style1">
	.st0{fill:#003366;}
	.st1{fill:#2B2827;}
	.st2{fill:#BC1729;}
	.st3{fill:#E5E9F4;}
	.st4{fill:#A91927;}
	.st5{fill:#F8F3D7;}
	.st6{fill:#CC6A7A;}
	.st7{fill:#F1F2F8;}
	.st8{fill:#95172B;}
	.st9{fill:#027265;}
	.st10{fill:#EAE8DF;}
	.st11{fill:#5E4548;}
	.st12{fill:#DFDAB0;}
	.st13{fill:#CA4450;}
	.st14{fill:#328D80;}
	.st15{fill:#AAB7D2;}
</style>


<g
   id="g31"><path
     id="path20"
     style="fill:#ffffff;fill-opacity:1;stroke:#000d49;stroke-width:0.999999;stroke-linejoin:round;stroke-dasharray:none;stroke-opacity:1;paint-order:markers fill stroke"
     d="m 43.378244,22.695062 a 5.7853319,1.5280071 0 0 0 -5.785366,1.527993 5.7853319,1.5280071 0 0 0 0.01317,0.05745 c -0.0081,0.02152 -0.01381,0.0434 -0.01405,0.06604 l 0.717746,4.825048 c 0.312717,1.195226 0.432176,0.885187 0.697866,2.133358 l 0.558268,5.383316 c 1.652431,0.807418 6.121178,0.842176 7.7161,0 l 0.558268,-5.34343 c 0.266943,-1.234688 0.468502,-1.190971 0.697866,-2.093474 L 49.17609,24.22688 c -0.0015,-0.01221 -0.0067,-0.02435 -0.01518,-0.03637 a 5.7853319,1.5280071 0 0 0 -5.78267,-1.495445 z" /><ellipse
     style="fill:none;stroke:#000d49;stroke-width:0.999999;stroke-linejoin:round;stroke-dasharray:none;stroke-opacity:1;paint-order:markers fill stroke"
     id="ellipse20"
     cx="43.378223"
     cy="24.223068"
     rx="5.7853317"
     ry="1.5280071" /></g><g
   id="g32"><path
     id="path17"
     style="fill:#ffffff;fill-opacity:1;stroke:#000d49;stroke-width:0.999999;stroke-linejoin:round;stroke-dasharray:none;stroke-opacity:1;paint-order:markers fill stroke"
     d="m 29.994199,22.695062 a 5.7853319,1.5280071 0 0 0 -5.785366,1.527993 5.7853319,1.5280071 0 0 0 0.01317,0.05745 c -0.0081,0.02152 -0.01381,0.0434 -0.01405,0.06604 l 0.717746,4.825048 c 0.312717,1.195226 0.432176,0.885187 0.697866,2.133358 l 0.558268,5.383316 c 1.652431,0.807418 6.121178,0.842176 7.7161,0 l 0.558268,-5.34343 c 0.266943,-1.234688 0.468502,-1.190971 0.697866,-2.093474 l 0.637976,-5.024474 c -0.0015,-0.01221 -0.0067,-0.02435 -0.01518,-0.03637 a 5.7853319,1.5280071 0 0 0 -5.78267,-1.495445 z" /><ellipse
     style="fill:none;stroke:#000d49;stroke-width:0.999999;stroke-linejoin:round;stroke-dasharray:none;stroke-opacity:1;paint-order:markers fill stroke"
     id="ellipse17"
     cx="29.994181"
     cy="24.223068"
     rx="5.7853317"
     ry="1.5280071" /></g><g
   id="g9"
   transform="matrix(0.03210887,0,0,0.03210887,15.289856,29.111756)"
   style="stroke-width:31.144;stroke-dasharray:none"><path
     id="path1"
     style="fill:#ffffff;fill-opacity:1;stroke:#000d49;stroke-width:31.144;stroke-linejoin:round;stroke-dasharray:none;stroke-opacity:1;paint-order:markers fill stroke"
     d="m 38.007812,-199.8418 a 180.17862,47.588318 0 0 0 -180.179692,47.58789 180.17862,47.588318 0 0 0 0.41016,1.78907 c -0.2529,0.67032 -0.4301,1.35151 -0.4375,2.05664 L -119.8457,1.8632812 c 9.73926,37.2241818 13.4597,27.5682938 21.734372,66.4414068 l 17.386719,167.658202 c 51.463372,25.14627 190.638219,26.22878 240.310549,0 L 176.97266,69.546875 c 8.31367,-38.453169 14.59103,-37.09164 21.73437,-65.1992188 L 218.57617,-152.13477 c -0.0478,-0.38036 -0.20784,-0.75837 -0.47265,-1.13281 A 180.17862,47.588318 0 0 0 38.007812,-199.8418 Z" /><ellipse
     style="fill:none;stroke:#000d49;stroke-width:31.144;stroke-linejoin:round;stroke-dasharray:none;stroke-opacity:1;paint-order:markers fill stroke"
     id="path2"
     cx="38.007225"
     cy="-152.25351"
     rx="180.17862"
     ry="47.588318" /></g><path
   id="ellipse2"
   style="fill:url(#linearGradient35);fill-opacity:1;stroke:#000d49;stroke-width:0.999999;stroke-linejoin:round;stroke-dasharray:none;stroke-opacity:1;paint-order:markers fill stroke"
   d="m 16.5625,28.724609 c -2.660857,0 -4.818359,0.576411 -4.818359,1.28711 0,0.0085 -0.0018,0.04585 -0.002,0.05664 0.129243,0.293946 0.235397,0.479561 0.396485,1.236328 L 12.69722,36.6875 c 1.65243,0.807418 6.121874,0.842176 7.716796,0 l 0.558593,-5.341797 c 0.15345,-0.709753 0.284169,-1.001618 0.41211,-1.289062 -0.0018,-0.01563 -0.0059,-0.03361 -0.0059,-0.04492 0,-0.710699 -2.155548,-1.28711 -4.816406,-1.28711 z m 13.484375,0 c -2.660857,0 -4.81836,0.576411 -4.81836,1.28711 0,0.0085 -0.0018,0.04585 -0.002,0.05664 0.129243,0.293946 0.235396,0.479561 0.396484,1.236328 l 0.558594,5.382813 c 1.65243,0.807418 6.121874,0.842176 7.716797,0 l 0.558593,-5.341797 c 0.15345,-0.709753 0.284169,-1.001618 0.41211,-1.289062 -0.0018,-0.01563 -0.0059,-0.03361 -0.0059,-0.04492 0,-0.710699 -2.155548,-1.28711 -4.816406,-1.28711 z m 13.382813,0 c -2.660858,0 -4.81836,0.576411 -4.81836,1.28711 0,0.0085 -0.0018,0.04585 -0.002,0.05664 0.129243,0.293946 0.237349,0.479561 0.398438,1.236328 l 0.558592,5.382813 c 1.652431,0.807418 6.119922,0.842176 7.714844,0 l 0.558594,-5.341797 c 0.153448,-0.709753 0.286122,-1.001618 0.414063,-1.289062 -0.0018,-0.01563 -0.0059,-0.03361 -0.0059,-0.04492 0,-0.710699 -2.157502,-1.28711 -4.818359,-1.28711 z" /><g
   id="g13"
   transform="matrix(0.02780471,0,0,0.02780471,28.89841,8.5978036)"
   style="display:none;stroke-width:35.9651;stroke-dasharray:none"><path
     id="path9"
     style="fill:#ffffff;fill-opacity:1;stroke:#000d49;stroke-width:35.9651;stroke-linejoin:round;stroke-dasharray:none;stroke-opacity:1;paint-order:markers fill stroke"
     d="m 38.007812,-199.8418 a 180.17862,47.588318 0 0 0 -180.179692,47.58789 180.17862,47.588318 0 0 0 0.41016,1.78907 c -0.2529,0.67032 -0.4301,1.35151 -0.4375,2.05664 L -119.8457,1.8632812 c 9.73926,37.2241818 13.4597,27.5682938 21.734372,66.4414068 l 17.386719,167.658202 c 51.463372,25.14627 190.638219,26.22878 240.310549,0 L 176.97266,69.546875 c 8.31367,-38.453169 14.59103,-37.09164 21.73437,-65.1992188 L 218.57617,-152.13477 c -0.0478,-0.38036 -0.20784,-0.75837 -0.47265,-1.13281 A 180.17862,47.588318 0 0 0 38.007812,-199.8418 Z" /><ellipse
     style="fill:none;stroke:#000d49;stroke-width:35.9651;stroke-linejoin:round;stroke-dasharray:none;stroke-opacity:1;paint-order:markers fill stroke"
     id="ellipse9"
     cx="38.007225"
     cy="-152.25351"
     rx="180.17862"
     ry="47.588318" /><path
     id="path12"
     style="fill:#32c888;fill-opacity:1;stroke:#000d49;stroke-width:35.9651;stroke-linejoin:round;stroke-dasharray:none;stroke-opacity:1;paint-order:markers fill stroke"
     d="M 39.619141,-12.078125 C -43.250714,-12.078124 -110.43164,5.8659626 -110.43164,28 c 0,0.265653 -0.0682,1.476583 -0.0742,1.8125 4.02515,9.154669 7.37759,14.923376 12.394532,38.492188 l 17.386719,167.658202 c 51.463372,25.14627 190.638219,26.22878 240.310549,0 l 17.3867,-166.416015 c 4.77906,-22.104572 8.87478,-31.143532 12.85937,-40.095703 -0.0566,-0.486779 -0.16406,-1.098929 -0.16406,-1.451172 0,-22.1340374 -67.17897,-40.078124 -150.048829,-40.078125 z" /><path
     id="path13"
     style="fill:#1f7e56;fill-opacity:1;stroke:#000d49;stroke-width:35.9651;stroke-linejoin:round;stroke-dasharray:none;stroke-opacity:1;paint-order:markers fill stroke"
     d="M 189.66797,28 A 150.04915,40.077221 0 0 1 39.61883,68.077221 150.04915,40.077221 0 0 1 -110.43032,28 150.04915,40.077221 0 0 1 39.61883,-12.077221 150.04915,40.077221 0 0 1 189.66797,28 Z" /></g><path
   id="path14"
   style="display:none;fill:#ffffff;fill-opacity:1;stroke:#000d49;stroke-width:0.999999;stroke-linejoin:round;stroke-dasharray:none;stroke-opacity:1;paint-order:markers fill stroke"
   d="m 51.388206,5.7882607 a 5.0098143,1.3231794 0 0 0 -5.009844,1.3231675 5.0098143,1.3231794 0 0 0 0.0114,0.049745 c -0.007,0.018638 -0.01196,0.037578 -0.01216,0.057184 l 0.621533,4.1782548 c 0.270797,1.035008 0.374243,0.766528 0.604318,1.847384 l 0.483433,4.661688 c 1.430924,0.699184 5.30064,0.729283 6.681765,0 l 0.483432,-4.627149 c 0.23116,-1.06918 0.4057,-1.031323 0.604318,-1.812846 l 0.552456,-4.350948 c -0.0013,-0.010576 -0.0058,-0.021086 -0.01314,-0.031497 A 5.0098143,1.3231794 0 0 0 51.388206,5.7882607 Z" /><ellipse
   style="display:none;fill:none;stroke:#000d49;stroke-width:0.999999;stroke-linejoin:round;stroke-dasharray:none;stroke-opacity:1;paint-order:markers fill stroke"
   id="ellipse14"
   cx="51.388191"
   cy="7.1114392"
   rx="5.0098143"
   ry="1.3231794" /><path
   id="path15"
   style="display:none;fill:#c83232;fill-opacity:1;stroke:#000d49;stroke-width:0.999999;stroke-linejoin:round;stroke-dasharray:none;stroke-opacity:1;paint-order:markers fill stroke"
   d="m 51.433009,11.008975 c -2.304173,0 -4.172119,0.49893 -4.172119,1.114361 0,0.0074 -0.0019,0.04106 -0.0021,0.0504 0.111918,0.254543 0.205132,0.41494 0.344627,1.070264 l 0.483432,4.661688 c 1.430924,0.699184 5.300641,0.729283 6.681765,0 l 0.483432,-4.627149 c 0.132881,-0.614612 0.246761,-0.865937 0.357552,-1.11485 -0.0016,-0.01353 -0.0046,-0.03055 -0.0046,-0.04035 0,-0.615431 -1.867892,-1.114361 -4.172064,-1.114361 z" /><path
   id="path16"
   style="display:none;fill:#802020;fill-opacity:1;stroke:#000d49;stroke-width:0.999999;stroke-linejoin:round;stroke-dasharray:none;stroke-opacity:1;paint-order:markers fill stroke"
   d="M 55.605073,12.123336 A 4.1720731,1.1143355 0 0 1 51.433,13.237671 4.1720731,1.1143355 0 0 1 47.260927,12.123336 4.1720731,1.1143355 0 0 1 51.433,11.009 a 4.1720731,1.1143355 0 0 1 4.172073,1.114336 z" /><g
   id="g16"
   transform="matrix(0.02780471,0,0,0.02780471,50.33141,11.344804)"
   style="display:none;stroke-width:35.9651;stroke-dasharray:none"><path
     id="path32"
     style="fill:#ffffff;fill-opacity:1;stroke:#000d49;stroke-width:35.9651;stroke-linejoin:round;stroke-dasharray:none;stroke-opacity:1;paint-order:markers fill stroke"
     d="m 38.007812,-199.8418 a 180.17862,47.588318 0 0 0 -180.179692,47.58789 180.17862,47.588318 0 0 0 0.41016,1.78907 c -0.2529,0.67032 -0.4301,1.35151 -0.4375,2.05664 L -119.8457,1.8632812 c 9.73926,37.2241818 13.4597,27.5682938 21.734372,66.4414068 l 17.386719,167.658202 c 51.463372,25.14627 190.638219,26.22878 240.310549,0 L 176.97266,69.546875 c 8.31367,-38.453169 14.59103,-37.09164 21.73437,-65.1992188 L 218.57617,-152.13477 c -0.0478,-0.38036 -0.20784,-0.75837 -0.47265,-1.13281 A 180.17862,47.588318 0 0 0 38.007812,-199.8418 Z" /><ellipse
     style="fill:none;stroke:#000d49;stroke-width:35.9651;stroke-linejoin:round;stroke-dasharray:none;stroke-opacity:1;paint-order:markers fill stroke"
     id="ellipse32"
     cx="38.007225"
     cy="-152.25351"
     rx="180.17862"
     ry="47.588318" /><path
     id="path33"
     style="fill:#c83232;fill-opacity:1;stroke:#000d49;stroke-width:35.9651;stroke-linejoin:round;stroke-dasharray:none;stroke-opacity:1;paint-order:markers fill stroke"
     d="M 39.619141,-12.078125 C -43.250714,-12.078124 -110.43164,5.8659626 -110.43164,28 c 0,0.265653 -0.0682,1.476583 -0.0742,1.8125 4.02515,9.154669 7.37759,14.923376 12.394532,38.492188 l 17.386719,167.658202 c 51.463372,25.14627 190.638219,26.22878 240.310549,0 l 17.3867,-166.416015 c 4.77906,-22.104572 8.87478,-31.143532 12.85937,-40.095703 -0.0566,-0.486779 -0.16406,-1.098929 -0.16406,-1.451172 0,-22.1340374 -67.17897,-40.078124 -150.048829,-40.078125 z" /><path
     id="path34"
     style="fill:#802020;fill-opacity:1;stroke:#000d49;stroke-width:35.9651;stroke-linejoin:round;stroke-dasharray:none;stroke-opacity:1;paint-order:markers fill stroke"
     d="M 189.66797,28 A 150.04915,40.077221 0 0 1 39.61883,68.077221 150.04915,40.077221 0 0 1 -110.43032,28 150.04915,40.077221 0 0 1 39.61883,-12.077221 150.04915,40.077221 0 0 1 189.66797,28 Z" /></g><g
   id="g30"
   style="stroke-width:35.9651;stroke-dasharray:none">
	<path
   fill="#003366"
   d="m 38.047,13.923 c 0.596,0.223 1.182,0.171 1.493,0.116 0.483,0.24 1.014,0.54 1.563,0.909 -0.237,-0.074 -0.519,-0.129 -0.827,-0.12 -0.889,0.024 -1.288,0.547 -1.288,0.547 0,0 0.44,0.5 1.329,0.476 0.658,-0.017 1.175,-0.313 1.4,-0.465 0.391,0.296 0.786,0.629 1.176,1.003 -0.289,-0.115 -0.711,-0.232 -1.188,-0.196 -0.885,0.067 -1.254,0.61 -1.254,0.61 0,0 0.469,0.478 1.352,0.41 0.665,-0.051 1.169,-0.379 1.381,-0.539 0.386,0.392 0.763,0.826 1.126,1.304 -0.283,-0.129 -0.765,-0.293 -1.32,-0.25 -0.885,0.067 -1.253,0.609 -1.253,0.609 0,0 0.467,0.478 1.353,0.411 0.671,-0.051 1.179,-0.386 1.386,-0.544 0.158,0.22 0.315,0.448 0.468,0.688 l 0.234,-0.129 c -0.329,-0.52 -0.681,-0.995 -1.044,-1.431 0.187,-0.193 0.588,-0.679 0.679,-1.339 0.114,-0.866 -0.402,-1.348 -0.402,-1.348 0,0 -0.627,0.339 -0.744,1.206 -0.056,0.427 0.034,0.817 0.14,1.101 -0.339,-0.377 -0.687,-0.721 -1.036,-1.034 0.123,-0.223 0.39,-0.801 0.29,-1.475 -0.129,-0.867 -0.761,-1.208 -0.761,-1.208 0,0 -0.511,0.48 -0.382,1.346 0.053,0.362 0.201,0.672 0.354,0.911 -0.375,-0.306 -0.747,-0.576 -1.113,-0.817 0.053,-0.255 0.13,-0.868 -0.158,-1.481 -0.377,-0.803 -1.084,-0.968 -1.084,-0.968 0,0 -0.349,0.591 0.029,1.395 0.095,0.203 0.218,0.378 0.349,0.528 -0.225,-0.126 -0.441,-0.24 -0.65,-0.343 -0.188,-0.241 -0.578,-0.659 -1.176,-0.882 -0.871,-0.325 -1.493,0.021 -1.493,0.021 0,0 0.2,0.653 1.071,0.978 z"
   id="path1-5" />
	
	
	
	<path
   fill="#003366"
   d="m 15.059,18.892 c 0.151,-0.24 0.31,-0.469 0.469,-0.688 0.206,0.158 0.714,0.493 1.385,0.544 0.887,0.067 1.354,-0.411 1.354,-0.411 0,0 -0.37,-0.542 -1.254,-0.609 -0.555,-0.042 -1.037,0.122 -1.32,0.25 0.363,-0.479 0.74,-0.912 1.126,-1.304 0.211,0.16 0.716,0.488 1.381,0.539 0.884,0.067 1.353,-0.41 1.353,-0.41 0,0 -0.369,-0.542 -1.254,-0.61 -0.479,-0.036 -0.9,0.081 -1.189,0.196 0.391,-0.374 0.786,-0.707 1.179,-1.003 0.224,0.151 0.74,0.448 1.399,0.465 0.888,0.024 1.327,-0.476 1.327,-0.476 0,0 -0.398,-0.523 -1.286,-0.547 -0.309,-0.009 -0.591,0.046 -0.828,0.12 0.55,-0.369 1.08,-0.668 1.563,-0.909 0.311,0.055 0.896,0.106 1.492,-0.116 0.87,-0.325 1.072,-0.979 1.072,-0.979 0,0 -0.621,-0.346 -1.492,-0.021 -0.598,0.223 -0.987,0.641 -1.174,0.882 -0.21,0.103 -0.428,0.217 -0.651,0.343 0.13,-0.15 0.252,-0.326 0.348,-0.528 0.379,-0.803 0.028,-1.395 0.028,-1.395 0,0 -0.706,0.165 -1.084,0.968 -0.288,0.614 -0.21,1.227 -0.157,1.481 -0.364,0.241 -0.739,0.511 -1.113,0.817 0.153,-0.239 0.301,-0.549 0.355,-0.911 0.129,-0.865 -0.383,-1.346 -0.383,-1.346 0,0 -0.631,0.341 -0.76,1.208 -0.1,0.674 0.167,1.251 0.289,1.475 -0.35,0.313 -0.696,0.656 -1.036,1.034 0.105,-0.284 0.196,-0.674 0.139,-1.101 -0.116,-0.867 -0.742,-1.206 -0.742,-1.206 0,0 -0.518,0.481 -0.401,1.348 0.089,0.66 0.489,1.146 0.677,1.339 -0.364,0.436 -0.715,0.911 -1.043,1.431 z"
   id="path4-1" />
	
	
	
	
	
	
	
	
	
	
	
	
	
	
	
	
	<path
   fill="#003366"
   d="m 42.443,43.532 c 0.331,-0.12 0.932,-0.404 1.391,-0.984 0.668,-0.847 0.506,-1.657 0.506,-1.657 0,0 -0.793,-0.01 -1.462,0.838 -0.457,0.579 -0.608,1.244 -0.659,1.607 -0.436,0.449 -0.955,0.928 -1.559,1.404 0.167,-0.236 0.327,-0.527 0.427,-0.871 0.29,-0.99 -0.146,-1.617 -0.146,-1.617 0,0 -0.709,0.309 -0.997,1.299 -0.215,0.734 -0.072,1.41 0.016,1.711 -0.467,0.328 -0.976,0.646 -1.527,0.945 0.232,-0.277 0.511,-0.703 0.64,-1.244 0.24,-1.002 -0.228,-1.602 -0.228,-1.602 0,0 -0.693,0.347 -0.935,1.348 -0.179,0.752 0.003,1.426 0.105,1.717 -0.569,0.287 -1.183,0.551 -1.841,0.779 0.242,-0.266 0.595,-0.74 0.746,-1.367 0.239,-1.002 -0.228,-1.602 -0.228,-1.602 0,0 -0.694,0.346 -0.934,1.348 -0.183,0.761 0.007,1.439 0.107,1.725 -0.3,0.098 -0.608,0.19 -0.927,0.272 l 0.06,0.306 c 0.692,-0.18 1.341,-0.398 1.951,-0.645 0.147,0.273 0.542,0.891 1.239,1.224 0.917,0.434 1.632,0.034 1.632,0.034 0,0 -0.151,-0.813 -1.066,-1.248 -0.452,-0.215 -0.915,-0.254 -1.267,-0.238 0.536,-0.24 1.04,-0.502 1.511,-0.777 0.202,0.215 0.745,0.715 1.526,0.844 1.002,0.166 1.604,-0.41 1.604,-0.41 0,0 -0.349,-0.735 -1.352,-0.901 -0.418,-0.069 -0.813,-0.015 -1.131,0.069 0.47,-0.307 0.901,-0.623 1.296,-0.94 0.264,0.149 0.914,0.452 1.693,0.353 1.022,-0.133 1.455,-0.854 1.455,-0.854 0,0 -0.53,-0.596 -1.551,-0.465 -0.259,0.034 -0.497,0.107 -0.708,0.199 0.221,-0.206 0.424,-0.405 0.613,-0.6 z"
   id="path21" />
	<path
   fill="#003366"
   d="m 24.242,45.584 c -0.238,-1.002 -0.934,-1.348 -0.934,-1.348 0,0 -0.468,0.6 -0.228,1.602 0.15,0.627 0.503,1.102 0.747,1.367 -0.658,-0.229 -1.271,-0.492 -1.843,-0.779 0.103,-0.291 0.285,-0.965 0.105,-1.717 -0.239,-1.001 -0.934,-1.348 -0.934,-1.348 0,0 -0.468,0.6 -0.228,1.602 0.129,0.541 0.409,0.967 0.639,1.244 -0.552,-0.299 -1.06,-0.617 -1.527,-0.945 0.09,-0.301 0.232,-0.977 0.017,-1.711 -0.288,-0.99 -0.997,-1.299 -0.997,-1.299 0,0 -0.436,0.627 -0.146,1.617 0.1,0.344 0.26,0.635 0.427,0.871 -0.604,-0.477 -1.123,-0.955 -1.559,-1.404 -0.051,-0.363 -0.202,-1.028 -0.659,-1.607 -0.669,-0.848 -1.463,-0.838 -1.463,-0.838 0,0 -0.161,0.811 0.507,1.657 0.46,0.58 1.06,0.864 1.392,0.984 0.188,0.194 0.393,0.394 0.611,0.599 -0.212,-0.092 -0.449,-0.165 -0.708,-0.199 -1.021,-0.131 -1.55,0.465 -1.55,0.465 0,0 0.432,0.721 1.454,0.854 0.78,0.1 1.429,-0.203 1.692,-0.353 0.396,0.317 0.827,0.634 1.298,0.94 -0.318,-0.084 -0.712,-0.139 -1.132,-0.069 -1.003,0.166 -1.352,0.901 -1.352,0.901 0,0 0.601,0.576 1.604,0.41 0.781,-0.129 1.323,-0.629 1.527,-0.844 0.469,0.275 0.973,0.537 1.51,0.777 -0.352,-0.016 -0.814,0.023 -1.267,0.238 -0.915,0.436 -1.066,1.248 -1.066,1.248 0,0 0.715,0.4 1.63,-0.034 0.699,-0.333 1.093,-0.95 1.239,-1.224 0.61,0.246 1.26,0.465 1.952,0.645 l 0.059,-0.306 c -0.318,-0.082 -0.626,-0.175 -0.926,-0.272 0.103,-0.285 0.291,-0.963 0.109,-1.724 z"
   id="path22" />
	<g
   id="g29">
		<g
   id="g23">
			<path
   fill="#003366"
   d="M 30,0 C 13.455,0 0,13.457 0,30 0,46.542 13.455,60 30,60 46.542,60 60,46.542 60,30.001 60,13.457 46.542,0 30,0 Z m 0,58.654 C 14.199,58.654 1.348,45.799 1.348,30.001 V 30 h 2.828 c 10e-4,-1.04 0.061,-2.082 0.188,-3.112 l -2.808,-0.34 c 0.141,-1.157 0.349,-2.293 0.623,-3.404 l 2.74,0.674 C 5.168,22.807 5.478,21.812 5.847,20.84 l -2.638,-1 c 0.413,-1.084 0.89,-2.137 1.426,-3.154 l 2.493,1.313 C 7.611,17.076 8.151,16.186 8.743,15.332 L 6.43,13.728 c 0.658,-0.95 1.37,-1.857 2.136,-2.719 l 2.104,1.867 c 0.69,-0.778 1.428,-1.514 2.207,-2.204 L 11.009,8.565 C 11.871,7.801 12.779,7.087 13.728,6.43 L 15.33,8.743 C 16.185,8.154 17.077,7.614 17.997,7.129 L 16.684,4.636 C 17.703,4.1 18.756,3.623 19.84,3.21 l 1.002,2.638 C 21.812,5.481 22.81,5.169 23.82,4.922 L 23.145,2.179 c 1.11,-0.274 2.246,-0.483 3.403,-0.623 l 0.338,2.808 C 27.919,4.239 28.961,4.176 30,4.176 V 1.348 c 1.167,0 2.319,0.072 3.45,0.208 l -0.338,2.808 c 1.032,0.121 2.057,0.31 3.068,0.558 l 0.674,-2.744 c 1.13,0.278 2.232,0.624 3.305,1.032 l -1.001,2.638 c 0.973,0.369 1.922,0.797 2.846,1.281 l 1.31,-2.494 c 1.023,0.539 2.01,1.139 2.957,1.793 L 44.67,8.744 c 0.855,0.593 1.673,1.238 2.455,1.929 l 1.866,-2.106 c 0.861,0.764 1.677,1.58 2.442,2.442 l -2.104,1.868 c 0.688,0.779 1.332,1.6 1.925,2.455 l 2.316,-1.603 c 0.654,0.946 1.254,1.934 1.794,2.958 L 52.87,18 c 0.481,0.922 0.912,1.87 1.28,2.842 l 2.639,-1.001 c 0.408,1.072 0.754,2.175 1.031,3.305 l -2.742,0.674 c 0.247,1.011 0.436,2.036 0.558,3.07 l 2.808,-0.34 c 0.138,1.131 0.209,2.284 0.209,3.453 C 58.652,45.799 45.798,58.654 30,58.654 Z"
   id="path23" />
		</g>
		<path
   fill="#003366"
   d="m 30,8.262 c 11.987,0 21.738,9.75 21.738,21.739 C 51.738,41.986 41.987,51.739 30,51.739 18.012,51.739 8.262,41.986 8.262,30.001 8.262,18.013 18.012,8.262 30,8.262 M 30,6.988 C 17.311,6.988 6.986,17.312 6.986,30.001 6.986,42.691 17.31,53.014 30,53.014 42.69,53.014 53.014,42.692 53.014,30.001 53.014,17.312 42.69,6.988 30,6.988 Z"
   id="path24" />
		<polygon
   fill="#003366"
   points="3.887,39.461 4.469,41.57 8.278,39.953 7.697,37.846 6.279,36.818 6.971,35.209 6.389,33.1 2.29,33.662 2.871,35.771 4.729,35.517 4.168,37.398 5.615,38.729 "
   id="polygon24" />
		<path
   fill="#003366"
   d="m 16.95,49.826 -1.383,-0.932 -0.458,-0.307 -1.37,-0.922 -2.391,3.303 1.827,1.23 1.754,-2.424 0.996,0.67 c 0.334,0.227 0.252,0.892 -0.26,0.957 -0.512,0.064 -1.077,-0.218 -1.077,-0.218 l 0.413,2.243 2.055,1.382 -0.344,-1.867 c 0,0 1.265,0.126 1.743,-0.533 0.693,-0.957 -0.591,-1.968 -1.505,-2.582 z"
   id="path25" />
		<polygon
   fill="#003366"
   points="21.707,56.438 22.975,52.936 21.083,52.268 19.816,55.77 "
   id="polygon25" />
		<g
   id="g26">
			<path
   fill="#003366"
   d="m 28.085,53.633 c -1.807,-0.142 -3.365,0.688 -3.478,1.851 -0.111,1.163 1.264,2.218 3.072,2.36 1.809,0.141 3.367,-0.686 3.479,-1.851 0.113,-1.163 -1.263,-2.22 -3.073,-2.36 z m -0.263,2.724 c -0.531,-0.04 -0.936,-0.353 -0.903,-0.695 0.034,-0.342 0.491,-0.584 1.023,-0.543 0.532,0.041 0.937,0.352 0.902,0.694 -0.032,0.341 -0.49,0.587 -1.022,0.544 z"
   id="path26" />
		</g>
		<polygon
   fill="#003366"
   points="11.1,44.453 10.774,44.025 9.799,42.742 5.653,44.019 6.954,45.729 10.271,44.707 8.255,47.44 9.555,49.151 12.075,45.736 "
   id="polygon26" />
		<polygon
   fill="#003366"
   points="42.321,55.146 39.656,53.928 40.962,51.441 38.58,52.202 37.363,54.523 36.728,52.795 34.612,53.471 35.972,57.174 38.087,56.498 37.453,54.77 39.939,55.906 "
   id="polygon27" />
		<polygon
   fill="#003366"
   points="44.749,48.735 44.313,49.059 43.004,50.03 44.456,53.963 46.202,52.67 45.04,49.521 47.948,51.373 49.693,50.078 46.057,47.766 "
   id="polygon28" />
		<path
   fill="#003366"
   d="m 52.809,40.844 c -1.01,-0.652 -2.026,0.624 -2.643,1.529 l -0.934,1.373 -0.308,0.453 -0.923,1.357 3.483,2.252 1.23,-1.811 -2.554,-1.652 0.672,-0.986 c 0.224,-0.332 0.916,-0.268 0.996,0.229 0.08,0.497 -0.199,1.057 -0.199,1.057 l 2.316,-0.459 1.385,-2.035 -1.93,0.38 c 0.002,-10e-4 0.106,-1.237 -0.591,-1.687 z"
   id="path28" />
		<polygon
   fill="#003366"
   points="54.5,34.641 54.975,32.572 53.932,32.338 53.457,34.406 52.984,36.473 52.508,38.539 53.55,38.775 54.025,36.709 56.891,37.355 57.365,35.287 "
   id="polygon29" />
		<path
   fill="#003366"
   d="m 53.004,30.001 c 0,-0.94 -0.059,-1.868 -0.169,-2.778 l 2.802,-0.335 C 55.516,25.855 55.329,24.83 55.08,23.819 l -2.745,0.675 c -0.224,-0.905 -0.501,-1.79 -0.827,-2.649 l 2.646,-1.004 C 53.785,19.868 53.357,18.92 52.872,17.999 l -2.505,1.317 c -0.434,-0.821 -0.914,-1.614 -1.44,-2.373 l 2.331,-1.611 c -0.592,-0.857 -1.239,-1.677 -1.926,-2.456 l -2.121,1.881 C 46.596,14.063 45.94,13.405 45.246,12.791 l 1.878,-2.119 C 46.347,9.982 45.527,9.336 44.672,8.744 l -1.611,2.333 c -0.76,-0.526 -1.552,-1.008 -2.373,-1.44 L 42.005,7.129 C 41.085,6.646 40.133,6.217 39.16,5.849 L 38.158,8.495 C 37.3,8.167 36.413,7.89 35.509,7.666 L 36.183,4.921 C 35.174,4.672 34.148,4.484 33.117,4.364 L 32.778,7.166 C 31.865,7.056 30.939,6.998 30,6.998 V 4.175 c -1.038,0 -2.079,0.063 -3.112,0.188 l 0.337,2.802 c -0.929,0.112 -1.84,0.28 -2.731,0.5 L 23.819,4.92 c -1.008,0.249 -2.005,0.56 -2.977,0.927 l 1.002,2.646 c -0.869,0.331 -1.713,0.713 -2.53,1.143 L 17.998,7.128 c -0.919,0.485 -1.811,1.026 -2.669,1.616 l 1.612,2.333 c -0.763,0.528 -1.491,1.101 -2.184,1.715 l -1.883,-2.119 c -0.776,0.688 -1.513,1.425 -2.204,2.204 l 2.12,1.881 c -0.614,0.693 -1.188,1.422 -1.716,2.186 L 8.745,15.333 C 8.154,16.186 7.614,17.077 7.129,18 l 2.505,1.317 c -0.429,0.815 -0.811,1.659 -1.14,2.528 L 5.85,20.84 c -0.369,0.971 -0.68,1.967 -0.928,2.978 l 2.744,0.674 c -0.219,0.891 -0.388,1.802 -0.5,2.73 L 4.364,26.887 C 4.238,27.918 4.182,28.96 4.179,30 l -2.831,0.001 c 0,-1.169 0.072,-2.321 0.209,-3.454 l 2.808,0.34 C 4.488,25.854 4.677,24.829 4.923,23.818 L 2.18,23.144 c 0.277,-1.13 0.623,-2.232 1.031,-3.305 L 5.85,20.84 C 6.219,19.867 6.647,18.919 7.13,17.998 L 4.636,16.685 c 0.54,-1.024 1.141,-2.012 1.796,-2.959 l 2.314,1.604 c 0.593,-0.857 1.236,-1.677 1.925,-2.456 L 8.567,11.006 c 0.765,-0.862 1.58,-1.678 2.442,-2.442 l 1.865,2.106 C 13.656,9.98 14.476,9.334 15.328,8.742 L 13.73,6.428 c 0.946,-0.655 1.933,-1.254 2.956,-1.793 l 1.312,2.493 C 18.92,6.645 19.87,6.216 20.843,5.848 L 19.84,3.209 C 20.913,2.801 22.018,2.456 23.147,2.178 L 23.82,4.92 C 24.832,4.671 25.856,4.483 26.888,4.363 L 26.55,1.555 C 27.682,1.418 28.833,1.347 30,1.347 v 2.828 c 1.041,0 2.082,0.063 3.115,0.188 l 0.338,-2.808 c 1.157,0.14 2.293,0.349 3.403,0.623 L 36.182,4.92 c 1.01,0.249 2.008,0.56 2.978,0.927 l 1.002,-2.638 c 1.085,0.413 2.138,0.89 3.157,1.426 l -1.314,2.492 c 0.92,0.485 1.812,1.026 2.667,1.616 l 1.602,-2.314 c 0.949,0.658 1.857,1.371 2.719,2.135 l -1.868,2.107 c 0.779,0.688 1.517,1.425 2.208,2.204 l 2.104,-1.867 c 0.765,0.862 1.479,1.77 2.136,2.718 l -2.314,1.604 c 0.591,0.853 1.131,1.744 1.614,2.667 l 2.494,-1.313 c 0.537,1.016 1.012,2.07 1.425,3.154 l -2.637,1 c 0.368,0.971 0.679,1.967 0.927,2.978 l 2.742,-0.674 c 0.273,1.11 0.482,2.246 0.621,3.403 l -2.807,0.34 c 0.127,1.031 0.187,2.073 0.188,3.113 z"
   id="path29" />
	</g>
</g><path
   id="ellipse2-4"
   style="fill:url(#linearGradient46);fill-opacity:1;stroke:#000d49;stroke-width:0.999999;stroke-linejoin:round;stroke-dasharray:none;stroke-opacity:1;paint-order:markers fill stroke"
   d="m 16.515625,28.714844 a 4.8179087,1.2868343 0 0 0 -4.81836,1.287109 4.8179087,1.2868343 0 0 0 4.81836,1.285156 4.8179087,1.2868343 0 0 0 4.818359,-1.285156 4.8179087,1.2868343 0 0 0 -4.818359,-1.287109 z m 13.53125,0.0098 a 4.8179087,1.2868343 0 0 0 -4.81836,1.28711 4.8179087,1.2868343 0 0 0 4.81836,1.285156 4.8179087,1.2868343 0 0 0 4.816406,-1.285156 4.8179087,1.2868343 0 0 0 -4.816406,-1.28711 z m 13.382813,0 a 4.8179087,1.2868343 0 0 0 -4.81836,1.28711 4.8179087,1.2868343 0 0 0 4.81836,1.285156 4.8179087,1.2868343 0 0 0 4.818359,-1.285156 4.8179087,1.2868343 0 0 0 -4.818359,-1.28711 z" /></svg>
