<?xml version="1.0" encoding="UTF-8" standalone="no"?>
<!-- Created with Inkscape (http://www.inkscape.org/) -->

<svg
   width="7.994206mm"
   height="7.7046752mm"
   viewBox="0 0 7.9942059 7.7046755"
   version="1.1"
   id="svg1"
   xml:space="preserve"
   xmlns="http://www.w3.org/2000/svg"
   xmlns:svg="http://www.w3.org/2000/svg"><defs
     id="defs1" /><g
     id="layer1"
     transform="translate(-144.69973,-102.95947)"><path
       style="fill:#ffd308;fill-opacity:1;stroke:#907600;stroke-width:0.529167;stroke-linecap:round;stroke-linejoin:round;stroke-dasharray:none;stroke-opacity:1;paint-order:markers stroke fill"
       d="m 145.18508,106.36183 4.09167,-3.06875 a 0.37500014,0.37500014 26.56506 0 1 0.6,0.3 v 1.39583 a 0.5,0.5 45 0 0 0.5,0.5 l 0.73437,0 c 0.41421,0 0.96473,0.26155 1.16677,0.62271 0.2,0.35752 0.20193,1.04338 0.006,1.40392 -0.004,0.007 -0.008,0.0148 -0.0121,0.0221 -0.20002,0.36215 -0.74621,0.62163 -1.16038,0.61545 l -0.73451,-0.0109 a 0.49259734,0.49259734 135.4273 0 0 -0.49994,0.49254 v 1.39583 a 0.37500298,0.37500298 153.43477 0 1 -0.6,0.3 l -4.09167,-3.0687 a 0.5624961,0.5624961 89.999827 0 1 0,-0.9 z"
       id="path1" /></g></svg>
