<?xml version="1.0" encoding="UTF-8" standalone="no"?>
<!-- Created with Inkscape (http://www.inkscape.org/) -->

<svg
   width="47.625mm"
   height="47.625mm"
   viewBox="0 0 47.625 47.625"
   version="1.1"
   id="svg1"
   xml:space="preserve"
   xmlns="http://www.w3.org/2000/svg"
   xmlns:svg="http://www.w3.org/2000/svg"><defs
     id="defs1" /><g
     id="layer1"
     transform="translate(-28.196287,-45.966337)"><path
       id="path1"
       style="fill:#a5a5a5;fill-opacity:1;stroke-width:6.61458;stroke-linecap:round;paint-order:markers stroke fill"
       d="m 45.04177,64.395703 c -0.885748,0.01075 -1.482984,0.356039 -1.642277,0.604097 -0.285978,0.445338 -1.715808,4.191203 -3.250964,8.270297 3.730243,2.904708 8.511632,4.882557 14.398088,5.914884 1.005994,-0.396287 1.81219,-0.722395 2.029333,-0.838708 1.254443,-0.671942 0.920364,-2.740668 -0.91674,-5.840987 -1.713473,-2.89168 -5.221799,-5.543014 -8.097697,-7.324618 -0.967432,-0.599319 -1.830828,-0.793324 -2.519743,-0.784965 z m 0.426848,1.594218 a 7.6068107,2.3255092 45.101781 0 1 5.967077,3.693315 7.6068107,2.3255092 45.101781 0 1 4.106727,7.227466 7.6068107,2.3255092 45.101781 0 1 -6.798552,-3.349667 7.6068107,2.3255092 45.101781 0 1 -4.106726,-7.227466 7.6068107,2.3255092 45.101781 0 1 0.831474,-0.343648 z m -6.095236,9.339482 c -1.708082,4.554023 -3.350518,8.962624 -3.512964,9.197888 -0.334397,0.484295 -0.107637,1.60077 1.086756,1.222148 0.559302,-0.177299 4.622291,-1.665485 8.900232,-3.260783 -1.081598,0.402765 -2.063089,0.764757 -3.075782,1.138948 -2.017943,-0.653909 -3.893288,-1.446043 -5.621362,-2.379699 0.210334,-0.556114 0.505973,-1.347018 0.747758,-1.990577 2.405126,1.334438 5.141274,2.379425 8.21862,3.131076 1.63e-4,3.9e-5 3.54e-4,-4e-5 5.17e-4,0 1.650525,-0.615969 3.310724,-1.239404 4.826579,-1.814877 -4.494724,-1.130566 -8.360545,-2.875561 -11.570354,-5.244124 z m 15.126726,3.873665 c -0.912756,0.359288 -2.037869,0.792798 -3.327446,1.283126 1.297286,-0.493119 2.411834,-0.922788 3.327446,-1.283126 z" /><path
       style="fill:#a5a5a5;fill-opacity:1;stroke:none;stroke-width:2.115;stroke-linecap:round;stroke-dasharray:none;stroke-opacity:1;paint-order:markers stroke fill"
       d="m 46.734077,56.045946 h 1.5 v 2.6 h -1.5 z"
       id="path4" /><path
       style="fill:#a5a5a5;fill-opacity:1;paint-order:markers stroke fill"
       d="m 67.164546,58.467821 c -4.881749,-0.131335 -8.975098,2.86191 -12.058594,7.076172 l 1.384766,1.011719 c 2.887963,-3.947025 6.470072,-6.484881 10.626953,-6.373047 z"
       id="path5" /><rect
       style="fill:#a5a5a5;fill-opacity:1;stroke:none;stroke-width:1.715;stroke-linecap:butt;stroke-dasharray:none;stroke-opacity:1;paint-order:markers stroke fill"
       id="rect6"
       width="1.5112349"
       height="2.6658862"
       x="83.581696"
       y="-9.8697863"
       transform="rotate(46.455917)" /><path
       style="fill:#a5a5a5;fill-opacity:1;stroke:none;stroke-width:2.15976;stroke-linecap:round;stroke-dasharray:none;stroke-opacity:1;paint-order:markers stroke fill"
       d="m 60.868631,73.587515 h 2.765022 v 1.470819 h -2.765022 z"
       id="path6" /><path
       style="fill:#a5a5a5;fill-opacity:1;stroke:none;stroke-linejoin:round;stroke-opacity:1;paint-order:markers stroke fill"
       d="m 66.189936,64.924852 c -0.09864,1.177039 -0.422147,1.761617 -0.513672,1.876953 -0.03791,-0.01858 -0.03605,-0.0031 -0.142578,-0.101562 -0.710883,-0.656994 -1.584328,-1.199332 -2.611328,-0.855469 -0.5135,0.171932 -0.919218,0.598779 -1.136719,1.060547 -0.2175,0.461768 -0.304101,0.971321 -0.320312,1.560547 -0.0039,0.142405 -0.01667,0.131847 -0.0293,0.232422 -0.196199,-0.117229 -0.410272,-0.247237 -0.703125,-0.46875 -0.572875,-0.433322 -1.349615,-0.637157 -1.998047,-0.414063 -0.648431,0.223094 -1.020757,0.704816 -1.27539,1.158203 -0.509268,0.906776 -0.669817,1.88444 -0.664063,2.654297 l 2.115234,-0.01758 c -0.0024,-0.319525 0.172468,-1.209644 0.392579,-1.601562 0.110055,-0.19596 0.200488,-0.220676 0.121093,-0.19336 -0.07939,0.02732 -0.180617,-0.06212 0.0332,0.09961 0.416311,0.314897 0.793387,0.580056 1.181641,0.783203 0.388254,0.203147 0.802615,0.385348 1.361328,0.320312 0.558713,-0.06503 1.099535,-0.541658 1.306641,-1.003906 0.207106,-0.462248 0.257912,-0.925922 0.273437,-1.490234 0.0092,-0.332878 0.06114,-0.495115 0.09961,-0.605469 -0.03562,0.02919 0.0534,-0.0029 0.417968,0.333984 0.395386,0.365413 0.85803,0.651315 1.423829,0.71875 0.565798,0.06744 1.178387,-0.161501 1.578125,-0.537109 0.799476,-0.751217 1.07277,-1.84645 1.197265,-3.332031 z"
       id="path7" /><path
       style="fill:#a5a5a5;fill-opacity:1;stroke:none;stroke-linejoin:round;stroke-opacity:1;paint-order:markers stroke fill"
       d="m 56.795254,55.830959 c -1.172873,0.139716 -1.745787,0.483459 -1.857853,0.578959 0.01986,0.03726 0.0044,0.03591 0.106484,0.138939 0.681439,0.687487 1.253973,1.541442 0.946215,2.579833 -0.153879,0.519195 -0.566286,0.939584 -1.020171,1.173092 -0.453884,0.233505 -0.960098,0.337863 -1.548397,0.374662 -0.142179,0.0089 -0.131184,0.02126 -0.231257,0.03739 0.123976,0.192006 0.261407,0.401391 0.493034,0.686314 0.453079,0.557381 0.683938,1.326521 0.483645,1.982353 -0.200295,0.655833 -0.66871,1.044768 -1.11292,1.315091 -0.888425,0.540648 -1.859879,0.735271 -2.629466,0.756427 l -0.05636,-2.114556 c 0.319414,-0.0088 1.20287,-0.214675 1.586862,-0.448314 0.191979,-0.116863 0.213533,-0.208081 0.189019,-0.127767 -0.02453,0.08029 0.0684,0.178332 -0.100702,-0.0297 -0.329254,-0.405051 -0.607432,-0.772628 -0.824027,-1.153543 -0.216592,-0.380917 -0.413163,-0.788658 -0.367695,-1.349302 0.04546,-0.560644 0.502897,-1.117794 0.957623,-1.34093 0.454729,-0.223134 0.916343,-0.290116 1.479766,-0.325357 0.332354,-0.02083 0.492677,-0.07841 0.601622,-0.120694 -0.02793,0.03662 10e-4,-0.05347 -0.348387,-0.40604 -0.379008,-0.382372 -0.680906,-0.834741 -0.768075,-1.397839 -0.08717,-0.563095 0.120217,-1.183311 0.481625,-1.595932 0.722815,-0.825243 1.807806,-1.136683 3.288149,-1.312991 z"
       id="path8" /></g></svg>
