<?xml version="1.0" encoding="UTF-8" standalone="no"?>
<!-- Created with Inkscape (http://www.inkscape.org/) -->

<svg
   width="47.625mm"
   height="47.625mm"
   viewBox="0 0 47.625 47.625"
   version="1.1"
   id="svg1"
   xml:space="preserve"
   xmlns="http://www.w3.org/2000/svg"
   xmlns:svg="http://www.w3.org/2000/svg"><defs
     id="defs1" /><g
     id="layer1"
     transform="translate(-28.196287,-45.966339)"><path
       id="path12"
       style="fill:#d6d6d6;fill-opacity:1;stroke:none;stroke-width:6.61458;stroke-linecap:round;stroke-opacity:1;paint-order:markers stroke fill"
       d="m 64.39775,52.280632 -3.080657,2.92897 a 0.52924073,0.52924073 91.449887 0 0 -0.01894,0.748167 l 1.333374,1.402821 c 0.201342,0.211829 0.138353,0.454348 -0.136375,0.553965 -2.491647,0.903483 -4.695586,2.541674 -6.589025,4.583996 -0.198685,0.214308 -0.350773,0.153642 -0.393033,-0.13527 -0.0125,-0.08546 -0.02808,-0.170216 -0.04671,-0.254046 -0.06331,-0.284999 -0.03353,-0.556994 0.10978,-0.630719 0.863228,-0.577565 1.237433,-0.985681 1.487021,-1.483287 0.130854,-0.260886 0.26705,-0.718709 0.306537,-1.007994 0.06697,-0.490645 0.01668,-0.946359 -0.107865,-1.36404 -0.08344,-0.279822 0.04759,-0.52244 0.337771,-0.557167 l 0.140571,-0.01682 a 0.52908187,0.52908187 128.17115 0 0 0.462456,-0.588285 L 57.762181,52.785173 A 0.52957748,0.52957748 38.188794 0 0 57.173762,52.32232 l -0.261587,0.03114 c -0.290201,0.03455 -0.760954,0.08919 -1.049897,0.132951 -1.214712,0.183977 -2.342286,0.51855 -3.230547,1.310094 -0.217894,0.194169 -0.53204,0.552538 -0.685828,0.800667 -0.310714,0.50132 -0.501862,1.104506 -0.513948,1.719217 -0.0057,0.291832 0.06726,0.76377 0.15589,1.04195 0.02999,0.09414 -0.135574,0.234031 -0.361283,0.344785 -0.958264,0.660915 -1.401137,1.240169 -1.595843,1.90071 -0.08249,0.279862 -0.12178,0.756756 -0.09914,1.047821 0.02653,0.341067 0.104853,0.637566 0.202855,0.895288 0.103773,0.272898 -0.01618,0.48725 -0.308304,0.4957 a 0.47743098,0.47743098 126.64466 0 0 -0.402458,0.541027 l 0.03859,1.467423 c 0.0077,0.29215 -0.18423,0.399093 -0.429924,0.240838 -0.205851,-0.13259 -0.575071,-0.364054 -0.833551,-0.500304 -0.792628,-0.41781 -1.551018,-0.630569 -2.244926,-0.695623 -0.290839,-0.02727 -0.766348,-0.02172 -1.05597,0.0161 -0.675464,0.08819 -1.379736,0.332806 -1.86709,0.772056 -0.216663,0.195278 -0.461128,0.60721 -0.582007,0.873089 -0.674009,1.482505 -2.223403,5.608986 -2.954351,7.555124 -0.101724,0.27084 -0.267745,0.712091 -0.370676,0.985615 -0.134782,0.358166 -0.267597,0.711246 -0.403041,1.071831 -0.102766,0.273587 -0.269161,0.717242 -0.371821,0.990868 -0.390443,1.040681 -0.745632,1.986539 -1.10265,2.936918 -0.102775,0.273584 -0.269412,0.717148 -0.372275,0.990698 -0.125762,0.334445 -0.256105,0.680749 -0.374953,0.995939 -0.103112,0.273457 -0.27069,0.716666 -0.374393,0.989899 -0.321837,0.847963 -0.595092,1.55948 -0.781837,2.032447 -0.210375,0.517631 -0.210375,0.517631 -0.210375,0.517631 -0.0078,0.01953 -0.0078,0.01953 -0.0078,0.01953 0.04883,-0.06836 0.04883,-0.06836 0.04883,-0.06836 -0.401605,0.906369 -0.419571,1.394202 -0.295614,1.845401 0.07724,0.281134 0.311461,0.703032 0.513801,0.912797 0.456549,0.473302 1.116712,0.685045 1.840322,0.59295 0.289458,-0.03684 0.740415,-0.189963 1.015741,-0.287961 1.002284,-0.356747 3.157042,-1.149544 4.886528,-1.788094 0.274087,-0.101196 0.718484,-0.265412 0.992688,-0.36652 0.771329,-0.284415 1.532613,-0.564168 2.35725,-0.87047 0.273961,-0.101759 0.717907,-0.267373 0.991668,-0.369673 1.325689,-0.495389 2.604508,-0.976835 3.841517,-1.445608 0.273286,-0.103564 0.549186,-0.207246 0.615865,-0.232588 1.414642,-0.539149 2.237818,-0.857074 2.95854,-1.138819 0.539507,-0.21079 0.539507,-0.21079 0.539507,-0.21079 0.909888,-0.358805 1.348047,-0.533924 1.690637,-0.681489 0.268094,-0.115476 0.693146,-0.330955 0.919014,-0.515689 0.14346,-0.117333 0.273714,-0.248972 0.389296,-0.393937 0.181891,-0.22813 0.399089,-0.655052 0.481767,-0.934924 0.373908,-1.265707 -0.07256,-2.848378 -0.859991,-4.472068 -0.12751,-0.262927 -0.001,-0.474549 0.291238,-0.476958 l 1.074515,-0.0089 a 0.52482339,0.52482339 44.763896 0 1 0.529149,0.524806 v 2.394792 a 0.52916668,0.52916668 45 0 0 0.529167,0.529166 h 4.349869 a 0.52916668,0.52916668 135 0 0 0.529167,-0.529166 v -3.056901 a 0.52916668,0.52916668 45 0 0 -0.529167,-0.529167 h -1.410416 c -0.292251,0 -0.296346,-0.05552 -0.03233,-0.17982 0.518899,-0.244306 0.962863,-0.637191 1.268056,-1.072533 0.167511,-0.238946 0.346461,-0.644943 0.422607,-0.884366 0.610851,0.147153 0.928215,0.188551 1.219658,0.17252 0.611916,-0.03366 1.207854,-0.244821 1.698206,-0.572622 0.242689,-0.162238 0.590005,-0.488835 0.77654,-0.71357 0.759822,-0.915419 1.053823,-2.053529 1.195021,-3.273839 0.03359,-0.290283 0.07192,-0.762627 0.09651,-1.053841 l 0.02227,-0.26378 A 0.52914168,0.52914168 49.825506 0 0 69.19927,63.851983 l -3.689556,-0.311387 a 0.52946648,0.52946648 139.84038 0 0 -0.572093,0.482765 l -0.01196,0.140778 c -0.02474,0.291202 -0.262762,0.430589 -0.545297,0.356833 -0.421447,-0.110019 -0.878274,-0.144734 -1.365951,-0.06092 -0.287742,0.04945 -0.740539,0.201573 -0.996668,0.341521 -0.488838,0.267098 -0.883259,0.655698 -1.168371,1.078831 -0.163146,0.242124 -0.316312,0.578454 -0.374764,0.728975 -0.88181,-0.214839 -1.269726,-0.230733 -1.656996,-0.170133 -0.288348,0.04512 -0.617705,0.168293 -0.745347,0.222867 2.736098,-3.318819 5.458607,-5.048457 8.480689,-5.15596 0.292019,-0.01039 0.765909,0.0041 1.058056,0.01182 l 0.264306,0.007 a 0.52956559,0.52956559 136.5446 0 0 0.543443,-0.514904 l 0.09021,-3.299484 a 0.52874735,0.52874735 46.54348 0 0 -0.514517,-0.543013 l -0.266258,-0.0071 c -0.292148,-0.0078 -0.756347,-0.02148 -1.036793,-0.01795 -0.677454,0.02877 -0.825291,0.04059 -0.972388,0.05478 -0.290877,0.02806 -0.353949,-0.102779 -0.142135,-0.304137 l 1.686078,-1.602848 a 0.52879395,0.52879395 91.429439 0 0 0.01866,-0.747858 l -2.135511,-2.243233 a 0.52950505,0.52950505 1.4275657 0 0 -0.748362,-0.01865 z m -18.985641,2.971191 v 4.18776 a 0.52916668,0.52916668 45 0 0 0.529167,0.529167 h 3.086198 a 0.52916668,0.52916668 135 0 0 0.529167,-0.529167 v -4.18776 a 0.52916668,0.52916668 45 0 0 -0.529167,-0.529167 h -3.086198 a 0.52916668,0.52916668 135 0 0 -0.529167,0.529167 z m 8.477943,11.042929 2.102708,1.537449 c 0.235915,0.172495 0.370103,0.390387 0.311927,0.493971 -0.366722,0.757365 -0.469887,1.044515 -0.552081,1.328534 -0.0812,0.280583 -0.276701,0.329058 -0.468193,0.108299 -0.885965,-1.021372 -1.919086,-1.978002 -2.99051,-2.850249 -0.226628,-0.184499 -0.181692,-0.38378 0.09629,-0.473735 0.198224,-0.06414 0.397745,-0.138955 0.596849,-0.225584 0.267879,-0.116552 0.667093,-0.09118 0.903008,0.08132 z m 6.832567,5.882973 c 0.164883,0.05597 0.06586,0.0879 -0.226395,0.0879 a 0.27775029,0.27775029 48.019871 0 1 -0.261849,-0.291016 z" /><g
       id="g12"><path
         style="fill:#facd34;fill-opacity:1;stroke-width:6.61458;stroke-linecap:round;paint-order:markers stroke fill"
         d="m 43.399562,64.999932 c 0.283187,-0.440993 1.950841,-1.188948 4.162114,0.180925 2.875898,1.781604 6.384092,4.432627 8.097565,7.324307 1.837104,3.100319 2.171373,5.169235 0.91693,5.841177 -1.254443,0.671942 -18.434679,7.024732 -19.629072,7.403354 -1.194393,0.378622 -1.421128,-0.738276 -1.086731,-1.222571 0.334397,-0.484295 6.887704,-18.512661 7.539194,-19.527192 z"
         id="path1" /><ellipse
         style="fill:#a17004;fill-opacity:0.4;stroke-width:6.94749;stroke-linecap:round;paint-order:markers stroke fill"
         id="path2"
         cx="83.096695"
         cy="16.76004"
         rx="7.5961285"
         ry="2.3601685"
         transform="matrix(0.71781362,0.69623531,-0.57029626,0.82143909,0,0)" /><path
         style="fill:#facd34;fill-opacity:1;stroke:none;stroke-width:2.115;stroke-linecap:round;stroke-dasharray:none;stroke-opacity:1;paint-order:markers stroke fill"
         d="m 46.734077,56.045946 h 1.5 v 2.6 h -1.5 z"
         id="path4" /><path
         style="fill:#facd34;fill-opacity:1;paint-order:markers stroke fill"
         d="m 67.164546,58.467821 c -4.881749,-0.131335 -8.975098,2.86191 -12.058594,7.076172 l 1.384766,1.011719 c 2.887963,-3.947025 6.470072,-6.484881 10.626953,-6.373047 z"
         id="path5" /><rect
         style="fill:#f1185e;fill-opacity:1;stroke:none;stroke-width:1.715;stroke-linecap:butt;stroke-dasharray:none;stroke-opacity:1;paint-order:markers stroke fill"
         id="rect6"
         width="1.5112349"
         height="2.6658862"
         x="83.581696"
         y="-9.8697863"
         transform="rotate(46.455917)" /><path
         style="fill:#4ab7ff;fill-opacity:1;stroke:none;stroke-width:2.15976;stroke-linecap:round;stroke-dasharray:none;stroke-opacity:1;paint-order:markers stroke fill"
         d="m 60.868631,73.587515 h 2.765022 v 1.470819 h -2.765022 z"
         id="path6" /><path
         style="fill:#f1185e;fill-opacity:1;stroke:none;stroke-linejoin:round;stroke-opacity:1;paint-order:markers stroke fill"
         d="m 66.189936,64.924852 c -0.09864,1.177039 -0.422147,1.761617 -0.513672,1.876953 -0.03791,-0.01858 -0.03605,-0.0031 -0.142578,-0.101562 -0.710883,-0.656994 -1.584328,-1.199332 -2.611328,-0.855469 -0.5135,0.171932 -0.919218,0.598779 -1.136719,1.060547 -0.2175,0.461768 -0.304101,0.971321 -0.320312,1.560547 -0.0039,0.142405 -0.01667,0.131847 -0.0293,0.232422 -0.196199,-0.117229 -0.410272,-0.247237 -0.703125,-0.46875 -0.572875,-0.433322 -1.349615,-0.637157 -1.998047,-0.414063 -0.648431,0.223094 -1.020757,0.704816 -1.27539,1.158203 -0.509268,0.906776 -0.669817,1.88444 -0.664063,2.654297 l 2.115234,-0.01758 c -0.0024,-0.319525 0.172468,-1.209644 0.392579,-1.601562 0.110055,-0.19596 0.200488,-0.220676 0.121093,-0.19336 -0.07939,0.02732 -0.180617,-0.06212 0.0332,0.09961 0.416311,0.314897 0.793387,0.580056 1.181641,0.783203 0.388254,0.203147 0.802615,0.385348 1.361328,0.320312 0.558713,-0.06503 1.099535,-0.541658 1.306641,-1.003906 0.207106,-0.462248 0.257912,-0.925922 0.273437,-1.490234 0.0092,-0.332878 0.06114,-0.495115 0.09961,-0.605469 -0.03562,0.02919 0.0534,-0.0029 0.417968,0.333984 0.395386,0.365413 0.85803,0.651315 1.423829,0.71875 0.565798,0.06744 1.178387,-0.161501 1.578125,-0.537109 0.799476,-0.751217 1.07277,-1.84645 1.197265,-3.332031 z"
         id="path7" /><path
         style="fill:#4ab7ff;fill-opacity:1;stroke:none;stroke-linejoin:round;stroke-opacity:1;paint-order:markers stroke fill"
         d="m 56.795254,55.830959 c -1.172873,0.139716 -1.745787,0.483459 -1.857853,0.578959 0.01986,0.03726 0.0044,0.03591 0.106484,0.138939 0.681439,0.687487 1.253973,1.541442 0.946215,2.579833 -0.153879,0.519195 -0.566286,0.939584 -1.020171,1.173092 -0.453884,0.233505 -0.960098,0.337863 -1.548397,0.374662 -0.142179,0.0089 -0.131184,0.02126 -0.231257,0.03739 0.123976,0.192006 0.261407,0.401391 0.493034,0.686314 0.453079,0.557381 0.683938,1.326521 0.483645,1.982353 -0.200295,0.655833 -0.66871,1.044768 -1.11292,1.315091 -0.888425,0.540648 -1.859879,0.735271 -2.629466,0.756427 l -0.05636,-2.114556 c 0.319414,-0.0088 1.20287,-0.214675 1.586862,-0.448314 0.191979,-0.116863 0.213533,-0.208081 0.189019,-0.127767 -0.02453,0.08029 0.0684,0.178332 -0.100702,-0.0297 -0.329254,-0.405051 -0.607432,-0.772628 -0.824027,-1.153543 -0.216592,-0.380917 -0.413163,-0.788658 -0.367695,-1.349302 0.04546,-0.560644 0.502897,-1.117794 0.957623,-1.34093 0.454729,-0.223134 0.916343,-0.290116 1.479766,-0.325357 0.332354,-0.02083 0.492677,-0.07841 0.601622,-0.120694 -0.02793,0.03662 10e-4,-0.05347 -0.348387,-0.40604 -0.379008,-0.382372 -0.680906,-0.834741 -0.768075,-1.397839 -0.08717,-0.563095 0.120217,-1.183311 0.481625,-1.595932 0.722815,-0.825243 1.807806,-1.136683 3.288149,-1.312991 z"
         id="path8" /><path
         id="path9"
         style="fill:#f78b00;fill-opacity:1;stroke-linejoin:round;paint-order:markers stroke fill"
         d="m 40.148371,73.270145 c -0.263195,0.699319 -0.510533,1.353826 -0.775146,2.059306 3.209925,2.368649 7.075938,4.113561 11.57087,5.244124 1.413756,-0.536718 2.625087,-1.003569 3.602364,-1.388546 -5.886456,-1.032327 -10.667845,-3.010176 -14.398088,-5.914884 z" /><path
         id="path10"
         style="fill:#f78b00;fill-opacity:1;stroke-linejoin:round;paint-order:markers stroke fill"
         d="m 37.897863,79.257376 c -0.241785,0.643559 -0.537424,1.434462 -0.747758,1.990576 1.728074,0.933656 3.603419,1.725791 5.621362,2.3797 1.101546,-0.407023 2.145135,-0.791436 3.345532,-1.239201 -3.077545,-0.751659 -5.813883,-1.796567 -8.219136,-3.131075 z" /></g></g></svg>
