<?xml version="1.0" encoding="UTF-8" standalone="no"?>
<!-- Created with Inkscape (http://www.inkscape.org/) -->

<svg
   width="900"
   height="500"
   viewBox="0 0 238.125 132.29167"
   version="1.1"
   id="svg1"
   xml:space="preserve"
   xmlns="http://www.w3.org/2000/svg"
   xmlns:svg="http://www.w3.org/2000/svg"><defs
     id="defs1" /><g
     id="g17"
     transform="matrix(1.4552084,0,0,1.4552084,150.8125,37.041667)"
     style="fill:#ffffff;fill-opacity:1"><path
       class="st0"
       d="M 20,-2.2734375 C 7.736425,-2.2734375 -2.2734375,7.736425 -2.2734375,20 c 0,11.023297 8.0000971,20.145248 18.5722655,22.037109 l 1.029297,0.185547 1.28125,-1.048828 h 2.78125 l 1.28125,1.048828 1.029297,-0.185547 C 34.27334,40.145248 42.273437,31.023297 42.273437,20 42.273437,7.736425 32.263575,-2.2734375 20,-2.2734375 Z"
       id="path16"
       style="fill:#ffffff;fill-opacity:1" /><path
       class="st1"
       d="m 24.599609,5.5273437 c -5.823858,0 -10.072265,3.7764755 -10.072265,10.0722653 v 2.126953 H 9.5273438 v 10.146485 h 5.0000002 v 13.722656 l 1.867187,0.339844 c 1.23108,0.223832 2.465051,0.33789 3.705078,0.33789 1.240027,0 2.475486,-0.113973 3.707032,-0.33789 l 1.867187,-0.339844 V 27.873047 h 4.064453 l 1.626953,-10.146485 h -5.691406 v -1.626953 c 0,-0.206363 0.0171,-0.360962 0.03516,-0.449218 0,0 0,-0.002 0,-0.002 0.101725,-0.03077 0.315279,-0.07422 0.691407,-0.07422 h 4.873046 V 6.2285156 L 29.322266,5.9492187 C 27.935309,5.751082 26.163907,5.5273438 24.599609,5.5273437 Z"
       id="path17"
       style="fill:#ffffff;fill-opacity:1" /></g><path
     style="fill:#c7c7c7;fill-opacity:1;stroke:#ffffff;stroke-width:6.61458;stroke-linecap:round;stroke-dasharray:none;stroke-opacity:1;paint-order:markers stroke fill"
     id="rect1"
     width="146.83182"
     height="46.290146"
     x="45.715984"
     y="43.070156"
     d="M 48.361818,43.070156 H 189.90197 a 2.6458333,2.6458333 0 0 1 2.64583,2.645833 v 40.99848 a 2.6458333,2.6458333 0 0 1 -2.64583,2.645833 H 48.361818 a 2.6458333,2.6458333 0 0 1 -2.645834,-2.645833 v -40.99848 a 2.6458333,2.6458333 0 0 1 2.645834,-2.645833 z" /><path
     style="font-weight:bold;font-size:100px;font-family:'Super Mario 256';-inkscape-font-specification:'Super Mario 256 Bold';text-align:center;white-space:pre;fill:#1773ea;stroke:#000000;stroke-width:2.77882;stroke-linecap:round;paint-order:markers stroke fill"
     d="m 51.071039,59.226573 9.336835,0.0741 -0.518713,4.464638 -5.094503,-0.57429 -0.0741,1.482038 4.316434,-0.222306 -0.703968,4.075603 -3.612466,-0.463137 0.77807,4.927774 H 50.570851 L 50.181817,62.987242 Z m 18.025278,0.09263 5.854047,12.764047 -5.594691,0.889222 -0.444611,-3.279008 -4.501688,-0.111152 -1.018901,3.501313 -5.39091,-0.963324 7.39166,-12.430589 z m -2.760295,4.853672 -0.759544,1.889598 2.834396,0.0741 -0.648391,-1.908123 z M 79.415,59.263623 l 5.113029,0.333459 -0.20378,4.909249 -3.334584,-1.55614 -2.908499,1.352359 -0.129678,3.14933 2.556515,1.741394 3.760669,-1.9637 1.259732,5.168606 -7.391661,0.648391 -3.612466,-3.167855 -1.074477,-3.982975 1.667292,-4.279383 z m 7.076723,-0.01853 h 9.077479 l -0.759544,3.834772 -4.464638,0.685442 -0.05558,0.944799 3.945924,0.296407 -0.185255,2.945549 -3.519838,0.314933 0.314933,1.000376 4.279382,0.03705 1.574665,3.686567 H 86.491723 l -1.000375,-8.855173 z m 12.171232,-0.03705 6.428335,0.759544 1.48204,2.37126 -0.11115,2.537989 -0.96333,1.444986 1.35236,0.77807 0.90775,2.649142 -1.03743,2.463887 -2.14895,0.759544 -8.077105,0.05558 -0.370509,-13.023403 z m 2.204535,11.022653 1.88959,-0.40756 v -1.259732 l -1.88959,-0.648391 z m -0.24084,-5.742895 1.87108,-0.389035 v -1.519088 l -1.87108,-0.40756 z m 16.35798,-5.020401 4.03856,5.020401 -1.14858,6.613592 -7.31756,1.908123 -5.83552,-5.15008 0.87069,-5.798471 4.35349,-2.760295 z m -3.94592,4.668417 -0.9448,2.111904 1.63024,1.093002 1.72287,-0.629866 -0.0926,-2.056327 z m 18.00677,-4.668417 4.03855,5.020401 -1.14858,6.613592 -7.31756,1.908123 -5.83552,-5.15008 0.8707,-5.798471 4.35348,-2.760295 z m -3.94593,4.668417 -0.94479,2.111904 1.63024,1.093002 1.72286,-0.629866 -0.0926,-2.056327 z m 8.59583,-4.816621 h 3.87182 l -0.0926,3.742144 2.9085,-3.316058 2.64914,2.815871 -3.35311,3.649517 4.96482,3.538364 -3.0567,3.297533 -4.1497,-4.501689 0.75954,4.53874 h -4.76104 z"
     id="text2"
     aria-label="Facebook" /><style
     type="text/css"
     id="style1">
	.st0{fill:url(#SVGID_1_);}
	.st1{fill:#FFFFFF;}
</style><g
     id="g16"
     transform="matrix(1.4552084,0,0,1.4552084,150.8125,37.041667)"
     style="fill:#1773ea;fill-opacity:1"><path
       class="st0"
       d="M 16.7,39.8 C 7.2,38.1 0,29.9 0,20 0,9 9,0 20,0 31,0 40,9 40,20 40,29.9 32.8,38.1 23.3,39.8 l -1.1,-0.9 h -4.4 z"
       id="path2"
       style="fill:#1773ea;fill-opacity:1" /><path
       class="st1"
       d="M 27.8,25.6 28.7,20 h -5.3 v -3.9 c 0,-1.6 0.6,-2.8 3,-2.8 H 29 V 8.2 C 27.6,8 26,7.8 24.6,7.8 20,7.8 16.8,10.6 16.8,15.6 V 20 h -5 v 5.6 h 5 v 14.1 c 1.1,0.2 2.2,0.3 3.3,0.3 1.1,0 2.2,-0.1 3.3,-0.3 V 25.6 Z"
       id="path3"
       style="fill:#ffffff;fill-opacity:1" /></g></svg>
