<?xml version="1.0" encoding="UTF-8" standalone="no"?>
<!-- Created with Inkscape (http://www.inkscape.org/) -->

<svg
   width="900"
   height="500"
   viewBox="0 0 238.125 132.29167"
   version="1.1"
   id="svg1"
   xml:space="preserve"
   xmlns="http://www.w3.org/2000/svg"
   xmlns:svg="http://www.w3.org/2000/svg"><defs
     id="defs1" /><path
     id="path9"
     style="fill:#ffffff;fill-opacity:1;stroke-width:0.260439"
     d="m 190.68825,9.9209882 c -0.25158,-0.0142 -0.50473,-0.01308 -0.75757,0.0031 -0.60405,0.03864 -1.20509,0.1643338 -1.78542,0.3803378 -0.58206,0.216651 -1.13705,0.521511 -1.64848,0.91674 l -47.96866,37.077841 c -2.74741,2.123161 -3.25309,6.053208 -1.12758,8.802564 l 1.30432,1.686202 c -0.46859,1.957206 -0.41448,4.062142 0.29507,6.095235 1.04248,2.987014 3.26735,5.221196 5.97483,6.38514 l 7.42229,21.266402 h 43.50639 l 24.38404,-8.510075 c 3.27847,-1.144197 5.00054,-4.712043 3.85609,-7.991243 l -14.29163,-40.949439 -13.38988,4.6731 h -8.61714 l 3.20889,2.514967 -23.40549,7.541267 35.43608,-27.391093 -7.78713,-10.073804 c -1.15216,-1.490317 -2.84792,-2.327887 -4.60902,-2.4272418 z" /><path
     style="fill:#c7c7c7;fill-opacity:1;stroke:#ffffff;stroke-width:6.62652;stroke-linecap:round;stroke-dasharray:none;stroke-opacity:1;paint-order:markers stroke fill"
     id="rect1"
     width="146.83182"
     height="46.290146"
     x="45.715984"
     y="43.070156"
     d="M 48.361818,43.070156 H 189.90197 a 2.6458333,2.6458333 0 0 1 2.64583,2.645833 v 40.99848 a 2.6458333,2.6458333 0 0 1 -2.64583,2.645833 H 48.361818 a 2.6458333,2.6458333 0 0 1 -2.645834,-2.645833 v -40.99848 a 2.6458333,2.6458333 0 0 1 2.645834,-2.645833 z" /><g
     id="text1"
     style="font-size:20.8109px;font-family:Arial;-inkscape-font-specification:Arial;text-align:center;white-space:pre;stroke-width:3.12164;stroke-linecap:round;paint-order:markers stroke fill"
     transform="matrix(1.2713685,0,0,1.2713685,-147.26815,-688.07703)"
     aria-label="Film"><path
       style="font-weight:bold;font-family:'Super Mario 256';-inkscape-font-specification:'Super Mario 256 Bold';fill:#df220f;stroke:#000000"
       d="m 161.40451,585.53699 10.48869,0.0832 -0.5827,5.01543 -5.723,-0.64514 -0.0832,1.66487 4.84894,-0.24973 -0.79082,4.5784 -4.05812,-0.52028 0.87406,5.5357 h -5.5357 l -0.43703,-11.23788 0.99892,-4.22461 z"
       id="path14" /><path
       style="font-weight:bold;font-family:'Super Mario 256';-inkscape-font-specification:'Super Mario 256 Bold';fill:#44af35;stroke:#000000"
       d="m 172.41348,585.68266 4.03731,-0.24973 3.12163,14.73412 -6.61786,0.72838 z"
       id="path15" /><path
       style="font-weight:bold;font-family:'Super Mario 256';-inkscape-font-specification:'Super Mario 256 Bold';fill:#009bd9;stroke:#000000"
       d="m 185.69082,586.1405 -0.60351,9.32328 6.38895,-0.77 0.5827,4.80732 -11.57086,1.37352 -0.58271,-15.40007 z"
       id="path16" /><path
       style="font-weight:bold;font-family:'Super Mario 256';-inkscape-font-specification:'Super Mario 256 Bold';fill:#fccf00;stroke:#000000"
       d="m 193.12032,599.48029 7.42949,-13.75601 h 4.3911 l 1.45676,4.16218 2.58055,-4.18299 3.89164,-0.0832 4.26624,14.96304 -5.55651,0.45784 -1.06136,-3.78759 -1.26946,-3.66272 -3.82921,3.41299 -2.93434,-3.89164 -3.51704,7.47112 -5.84786,-1.10298 z"
       id="path17" /></g><path
     id="_x30_6-Movie_Clapper"
     style="fill:#000000;stroke-width:0.260439"
     d="m 190.18441,13.88457 c -0.44319,0.02835 -0.88278,0.184646 -1.26039,0.476457 l -47.96917,37.078357 c -1.00696,0.778164 -1.19336,2.226904 -0.41445,3.234428 l 2.62776,3.398759 c -0.86698,1.63849 -1.07879,3.61822 -0.42117,5.502506 0.85166,2.440252 2.94377,4.099347 5.32423,4.521171 l 7.37474,21.13101 h 37.88916 l 25.64443,-8.949841 c 1.20119,-0.419219 1.83661,-1.73435 1.41697,-2.936772 L 207.41281,40.138782 155.46146,58.269975 c -0.48754,-0.998601 -1.19456,-1.836896 -2.04225,-2.474784 l 44.09808,-34.086292 -5.35936,-6.933427 c -0.48682,-0.629702 -1.23487,-0.938154 -1.97352,-0.890902 z m -4.84363,6.497795 0.65319,6.98252 -5.83841,4.512903 -0.65319,-6.983037 z m -14.42393,11.14919 0.65267,6.98252 -5.83788,4.512903 -0.65371,-6.98252 z m -14.42393,11.149191 0.65319,6.982519 -5.83892,4.512903 -0.65319,-6.982519 z m 43.20357,2.122351 -1.59215,6.830074 -6.96702,2.431376 1.59163,-6.829557 z m -17.2129,6.007385 -1.59164,6.830074 -6.96702,2.431376 1.59164,-6.830074 z m -17.21239,6.007385 -1.59163,6.829557 -6.96754,2.431893 1.59215,-6.830074 z m -15.78508,0.974618 c 1.36714,0.08895 2.61681,0.977418 3.09593,2.350244 0.63883,1.830435 -0.33016,3.839452 -2.16059,4.478279 -1.82994,0.638655 -3.83894,-0.330674 -4.47776,-2.161108 -0.63883,-1.830435 0.33065,-3.839625 2.16059,-4.47828 0.45761,-0.159707 0.92611,-0.218783 1.38183,-0.189135 z" /><path
     style="fill:#ffffff;fill-opacity:1;stroke:none;stroke-width:6.61458;stroke-linecap:round;stroke-dasharray:none;stroke-opacity:1;paint-order:markers stroke fill"
     d="m 150.654,47.193648 5.83892,-4.512902 0.65319,6.982519 -5.83892,4.512903 z"
     id="path10" /><path
     style="fill:#ffffff;fill-opacity:1;stroke:none;stroke-width:6.61458;stroke-linecap:round;stroke-dasharray:none;stroke-opacity:1;paint-order:markers stroke fill"
     d="m 158.30418,59.249243 -1.59215,6.830074 6.96754,-2.431893 1.59163,-6.829557 z"
     id="path11" /><path
     style="fill:#ffffff;fill-opacity:1;stroke:none;stroke-width:6.61458;stroke-linecap:round;stroke-dasharray:none;stroke-opacity:1;paint-order:markers stroke fill"
     d="m 175.51657,53.241858 6.96702,-2.431376 -1.59164,6.830074 -6.96702,2.431376 z"
     id="path12" /><path
     style="fill:#ffffff;fill-opacity:1;stroke:none;stroke-width:6.61458;stroke-linecap:round;stroke-dasharray:none;stroke-opacity:1;paint-order:markers stroke fill"
     d="m 192.72895,47.23499 -1.59163,6.829557 6.96702,-2.431376 1.59215,-6.830074 z"
     id="path13" /></svg>
