<?xml version="1.0" encoding="UTF-8" standalone="no"?>
<!-- Created with Inkscape (http://www.inkscape.org/) -->

<svg
   width="900"
   height="500"
   viewBox="0 0 238.125 132.29167"
   version="1.1"
   id="svg1"
   xml:space="preserve"
   xmlns:xlink="http://www.w3.org/1999/xlink"
   xmlns="http://www.w3.org/2000/svg"
   xmlns:svg="http://www.w3.org/2000/svg"><defs
     id="defs1"><linearGradient
       id="linearGradient14"><stop
         style="stop-color:#ffae01;stop-opacity:1;"
         offset="0"
         id="stop14" /><stop
         style="stop-color:#fc01ce;stop-opacity:1;"
         offset="1"
         id="stop15" /></linearGradient><radialGradient
       id="f"
       cx="158.429"
       cy="578.08801"
       r="52.351501"
       xlink:href="#a"
       gradientUnits="userSpaceOnUse"
       gradientTransform="matrix(0,-4.03418,4.28018,0,-2332.2273,942.2356)"
       fx="158.429"
       fy="578.08801" /><radialGradient
       xlink:href="#b"
       id="g"
       gradientUnits="userSpaceOnUse"
       gradientTransform="matrix(0.67441,-1.16203,1.51283,0.87801,-814.3657,-47.8354)"
       cx="172.6149"
       cy="600.69238"
       fx="172.6149"
       fy="600.69238"
       r="65" /><radialGradient
       xlink:href="#c"
       id="h"
       cx="144.01199"
       cy="51.3367"
       fx="144.01199"
       fy="51.3367"
       r="67.081001"
       gradientTransform="matrix(-2.3989,0.67549,-0.23008,-0.81732,464.9957,-26.4035)"
       gradientUnits="userSpaceOnUse" /><radialGradient
       xlink:href="#d"
       id="e"
       gradientUnits="userSpaceOnUse"
       gradientTransform="matrix(-3.10797,0.87652,-0.6315,-2.23914,1345.6503,1374.1983)"
       cx="199.78841"
       cy="628.43793"
       fx="199.78841"
       fy="628.43793"
       r="52.351501" /><linearGradient
       id="d"><stop
         offset="0"
         stop-color="#ff005f"
         id="stop1" /><stop
         offset="1"
         stop-color="#fc01d8"
         id="stop2" /></linearGradient><linearGradient
       id="c"><stop
         offset="0"
         stop-color="#780cff"
         id="stop3" /><stop
         stop-color="#820bff"
         offset="1"
         stop-opacity="0"
         id="stop4" /></linearGradient><linearGradient
       id="b"><stop
         offset="0"
         stop-color="#fc0"
         id="stop5" /><stop
         offset="1"
         stop-color="#fc0"
         stop-opacity="0"
         id="stop6" /></linearGradient><linearGradient
       id="a"><stop
         offset="0"
         stop-color="#fc0"
         id="stop7" /><stop
         offset=".1242"
         stop-color="#fc0"
         id="stop8" /><stop
         offset=".5672"
         stop-color="#fe4a05"
         id="stop9" /><stop
         offset=".6942"
         stop-color="#ff0f3f"
         id="stop10" /><stop
         offset="1"
         stop-color="#fe0657"
         stop-opacity="0"
         id="stop11" /></linearGradient><linearGradient
       xlink:href="#linearGradient14"
       id="linearGradient15"
       x1="284.71274"
       y1="341.3504"
       x2="324.96204"
       y2="251.05038"
       gradientUnits="userSpaceOnUse"
       gradientTransform="matrix(0.26458334,0,0,0.26458334,18.221966,-12.309114)" /></defs><g
     id="g9"
     transform="matrix(0.22000001,0,0,0.22000003,150.81251,37.041667)"
     style="fill:#ffffff;fill-opacity:1"><path
       d="m 204.14948,3.1096969 c -41.43074,0 -70.37204,-0.078512 -75.76757,0.3691406 -13.1497,1.0933527 -21.63679,3.1556529 -31.513676,8.0722655 -7.474676,3.712849 -13.505704,8.116723 -19.332031,14.158203 l -0.0039,0.0039 -0.0039,0.0039 c -10.726118,11.137461 -17.109101,24.776464 -19.375,40.458984 -0.932882,6.447436 -1.304984,7.515415 -1.361329,41.179687 -0.02031,10.5388 0,24.51319 0,43.02734 0,41.40386 -0.08225,70.28934 0.376954,75.73633 5.4e-5,6.4e-4 -5.4e-5,0.003 0,0.004 1.06488,12.81197 3.061082,21.1132 7.746093,30.82422 8.935937,18.55215 25.923868,32.38159 45.900391,37.54492 l 0.006,0.002 0.006,0.002 c 6.76321,1.74168 13.86767,2.60496 22.24805,3.00195 l 0.0293,0.002 0.0293,0.002 c 3.69836,0.16087 54.01283,0.25782 70.73437,0.25782 16.70472,0 66.52267,-0.0113 70.75586,-0.22461 9.73673,-0.45938 15.95144,-1.26125 22.91993,-3.0625 20.15382,-5.20155 36.81198,-18.84252 45.89062,-37.57422 4.52782,-9.34029 6.74831,-18.4353 7.69531,-30.44922 0.28224,-3.59428 0.30274,-67.02183 0.30274,-76.10156 0,-9.0817 -0.0271,-72.457863 -0.3086,-76.041018 -0.95577,-12.171834 -3.21272,-21.311146 -7.85547,-30.767578 l -0.002,-0.0059 -0.004,-0.0078 C 339.3542,35.583436 335.19827,29.897909 328.878,23.814775 l -0.0215,-0.01758 -0.0195,-0.01953 C 317.68966,13.127588 304.08383,6.7406602 288.39167,4.4768844 281.96968,3.5482941 280.92016,3.1681814 247.23347,3.1096969 h -0.0117 z"
       fill="url(#e)"
       transform="translate(-71.8155,-18.1429)"
       id="path5"
       style="fill:#ffffff;fill-opacity:1" /><path
       d="m 204.14948,3.1096969 c -41.43074,0 -70.37204,-0.078512 -75.76757,0.3691406 -13.1497,1.0933527 -21.63679,3.1556529 -31.513676,8.0722655 -7.474676,3.712849 -13.505704,8.116723 -19.332031,14.158203 l -0.0039,0.0039 -0.0039,0.0039 c -10.726118,11.137461 -17.109101,24.776464 -19.375,40.458984 -0.932882,6.447436 -1.304984,7.515415 -1.361329,41.179687 -0.02031,10.5388 0,24.51319 0,43.02734 0,41.40386 -0.08225,70.28934 0.376954,75.73633 5.4e-5,6.4e-4 -5.4e-5,0.003 0,0.004 1.06488,12.81197 3.061082,21.1132 7.746093,30.82422 8.935937,18.55215 25.923868,32.38159 45.900391,37.54492 l 0.006,0.002 0.006,0.002 c 6.76321,1.74168 13.86767,2.60496 22.24805,3.00195 l 0.0293,0.002 0.0293,0.002 c 3.69836,0.16087 54.01283,0.25782 70.73437,0.25782 16.70472,0 66.52267,-0.0113 70.75586,-0.22461 9.73673,-0.45938 15.95144,-1.26125 22.91993,-3.0625 20.15382,-5.20155 36.81198,-18.84252 45.89062,-37.57422 4.52782,-9.34029 6.74831,-18.4353 7.69531,-30.44922 0.28224,-3.59428 0.30274,-67.02183 0.30274,-76.10156 0,-9.0817 -0.0271,-72.457863 -0.3086,-76.041018 -0.95577,-12.171834 -3.21272,-21.311146 -7.85547,-30.767578 l -0.002,-0.0059 -0.004,-0.0078 C 339.3542,35.583436 335.19827,29.897909 328.878,23.814775 l -0.0215,-0.01758 -0.0195,-0.01953 C 317.68966,13.127588 304.08383,6.7406602 288.39167,4.4768844 281.96968,3.5482941 280.92016,3.1681814 247.23347,3.1096969 h -0.0117 z"
       fill="url(#f)"
       transform="translate(-71.8155,-18.1429)"
       id="path6"
       style="fill:#ffffff;fill-opacity:1" /><path
       d="m 204.14948,3.1096969 c -41.43074,0 -70.37204,-0.078512 -75.76757,0.3691406 -13.1497,1.0933527 -21.63679,3.1556529 -31.513676,8.0722655 -7.474676,3.712849 -13.505704,8.116723 -19.332031,14.158203 l -0.0039,0.0039 -0.0039,0.0039 c -10.726118,11.137461 -17.109101,24.776464 -19.375,40.458984 -0.932882,6.447436 -1.304984,7.515415 -1.361329,41.179687 -0.02031,10.5388 0,24.51319 0,43.02734 0,41.40386 -0.08225,70.28934 0.376954,75.73633 5.4e-5,6.4e-4 -5.4e-5,0.003 0,0.004 1.06488,12.81197 3.061082,21.1132 7.746093,30.82422 8.935937,18.55215 25.923868,32.38159 45.900391,37.54492 l 0.006,0.002 0.006,0.002 c 6.76321,1.74168 13.86767,2.60496 22.24805,3.00195 l 0.0293,0.002 0.0293,0.002 c 3.69836,0.16087 54.01283,0.25782 70.73437,0.25782 16.70472,0 66.52267,-0.0113 70.75586,-0.22461 9.73673,-0.45938 15.95144,-1.26125 22.91993,-3.0625 20.15382,-5.20155 36.81198,-18.84252 45.89062,-37.57422 4.52782,-9.34029 6.74831,-18.4353 7.69531,-30.44922 0.28224,-3.59428 0.30274,-67.02183 0.30274,-76.10156 0,-9.0817 -0.0271,-72.457863 -0.3086,-76.041018 -0.95577,-12.171834 -3.21272,-21.311146 -7.85547,-30.767578 l -0.002,-0.0059 -0.004,-0.0078 C 339.3542,35.583436 335.19827,29.897909 328.878,23.814775 l -0.0215,-0.01758 -0.0195,-0.01953 C 317.68966,13.127588 304.08383,6.7406602 288.39167,4.4768844 281.96968,3.5482941 280.92016,3.1681814 247.23347,3.1096969 h -0.0117 z"
       fill="url(#g)"
       transform="translate(-71.8155,-18.1429)"
       id="path7"
       style="fill:#ffffff;fill-opacity:1" /><path
       d="m 204.14948,3.1096969 c -41.43074,0 -70.37204,-0.078512 -75.76757,0.3691406 -13.1497,1.0933527 -21.63679,3.1556529 -31.513676,8.0722655 -7.474676,3.712849 -13.505704,8.116723 -19.332031,14.158203 l -0.0039,0.0039 -0.0039,0.0039 c -10.726118,11.137461 -17.109101,24.776464 -19.375,40.458984 -0.932882,6.447436 -1.304984,7.515415 -1.361329,41.179687 -0.02031,10.5388 0,24.51319 0,43.02734 0,41.40386 -0.08225,70.28934 0.376954,75.73633 5.4e-5,6.4e-4 -5.4e-5,0.003 0,0.004 1.06488,12.81197 3.061082,21.1132 7.746093,30.82422 8.935937,18.55215 25.923868,32.38159 45.900391,37.54492 l 0.006,0.002 0.006,0.002 c 6.76321,1.74168 13.86767,2.60496 22.24805,3.00195 l 0.0293,0.002 0.0293,0.002 c 3.69836,0.16087 54.01283,0.25782 70.73437,0.25782 16.70472,0 66.52267,-0.0113 70.75586,-0.22461 9.73673,-0.45938 15.95144,-1.26125 22.91993,-3.0625 20.15382,-5.20155 36.81198,-18.84252 45.89062,-37.57422 4.52782,-9.34029 6.74831,-18.4353 7.69531,-30.44922 0.28224,-3.59428 0.30274,-67.02183 0.30274,-76.10156 0,-9.0817 -0.0271,-72.457863 -0.3086,-76.041018 -0.95577,-12.171834 -3.21272,-21.311146 -7.85547,-30.767578 l -0.002,-0.0059 -0.004,-0.0078 C 339.3542,35.583436 335.19827,29.897909 328.878,23.814775 l -0.0215,-0.01758 -0.0195,-0.01953 C 317.68966,13.127588 304.08383,6.7406602 288.39167,4.4768844 281.96968,3.5482941 280.92016,3.1681814 247.23347,3.1096969 h -0.0117 z"
       fill="url(#h)"
       transform="translate(-71.8155,-18.1429)"
       id="path8"
       style="fill:#ffffff;fill-opacity:1" /><path
       d="m 132.31445,18.939453 c -27.13449,1.41e-4 -30.52818,0.123204 -41.218747,0.609375 -12.109423,0.554092 -20.684742,2.483577 -28.626953,5.570313 -8.261527,3.205857 -15.555255,7.657442 -22.611328,14.710937 -7.066518,7.056187 -11.521937,14.341223 -14.738281,22.587891 -3.102517,7.953656 -5.036417,16.538038 -5.582032,28.648437 -0.477827,10.675914 -0.607422,14.046284 -0.607422,41.207034 0,27.15926 0.125094,30.52378 0.609375,41.20508 v 0.004 0.006 c 0.556989,12.10066 2.488494,20.67023 5.578125,28.61524 3.210016,8.25308 7.662738,15.53957 14.722657,22.59375 l 0.0039,0.004 c 0.0013,0.001 0.0026,0.003 0.0039,0.004 7.054056,7.05451 14.340184,11.51406 22.603516,14.72265 7.953228,3.08892 16.528442,5.01596 28.638672,5.57032 10.691646,0.48601 14.065586,0.60937 41.242186,0.60937 27.18068,0 30.54655,-0.12297 41.24219,-0.60937 12.10725,-0.55399 20.68638,-2.48088 28.64062,-5.57032 8.27161,-3.21063 15.5509,-7.67388 22.59766,-14.7207 l 0.004,-0.006 c 7.06376,-7.05464 11.51854,-14.33667 14.73437,-22.58203 l 0.008,-0.0195 0.008,-0.0195 c 3.06604,-7.92712 4.99586,-16.48247 5.56445,-28.57422 l 0.002,-0.0156 v -0.0156 c 0.47988,-10.67616 0.60938,-14.04045 0.60938,-41.20117 0,-27.16083 -0.12949,-30.5324 -0.60938,-41.208987 v -0.01563 l -0.002,-0.01367 c -0.56855,-12.095694 -2.49997,-20.650705 -5.56641,-28.576172 l -0.006,-0.01953 -0.008,-0.01758 c -3.21665,-8.250134 -7.6717,-15.535672 -14.73437,-22.587891 -7.05383,-7.048545 -14.3361,-11.510447 -22.61329,-14.716797 -7.95573,-3.083775 -16.5329,-5.014077 -28.64648,-5.568359 -10.68583,-0.485956 -14.06807,-0.609234 -41.21094,-0.609375 z m -8.77148,47.78125 c 2.5861,-0.004 5.50702,0 8.80273,0 16.46471,0 23.39112,0.07348 28.96289,0.212891 -0.95233,1.743801 -1.73193,3.595784 -2.28125,5.550781 -8.15959,-3.64987 -17.17442,-5.724246 -26.68164,-5.724609 h -0.002 c -36.158024,0.0014 -65.550781,29.36349 -65.550781,65.513674 0,36.15102 29.396423,65.50586 65.552731,65.50586 36.15631,0 65.54297,-29.35836 65.54297,-65.50586 0,-9.50216 -2.07428,-18.51141 -5.72461,-26.66602 1.95679,-0.54852 3.82824,-1.29236 5.57422,-2.24414 0.14145,5.56207 0.21875,12.48436 0.21875,28.88867 0,26.19472 -0.0891,28.70044 -0.55859,39.02149 -0.37347,8.16092 -1.41804,11.01039 -2.38282,13.49023 -1.18746,3.05518 -1.69818,3.82825 -3.97656,6.10352 -2.27128,2.2697 -3.04521,2.77778 -6.11523,3.96875 l -0.0137,0.006 -0.0137,0.006 c -2.44652,0.95478 -5.31229,2.00165 -13.48242,2.375 -10.3315,0.46924 -12.8411,0.55664 -39.06836,0.55664 -26.21795,0 -28.73817,-0.0879 -39.058591,-0.55664 h -0.01172 c -8.161496,-0.37738 -11.019378,-1.42297 -13.509766,-2.38868 -3.07516,-1.19347 -3.863517,-1.71086 -6.125,-3.9707 -2.269188,-2.26747 -2.783457,-3.04635 -3.978516,-6.11523 -0.963825,-2.47739 -2.007334,-5.31987 -2.378906,-13.47852 -0.469355,-10.31764 -0.550781,-12.82874 -0.550781,-39.04297 0,-26.21413 0.08158,-28.70724 0.550781,-39.021482 0.373557,-8.163053 1.417025,-11.013796 2.380859,-13.494141 1.190559,-3.063133 1.710943,-3.853277 3.976563,-6.117187 2.26098,-2.259404 3.052542,-2.779545 6.134766,-3.978516 l 0.0059,-0.002 0.0039,-0.002 c 2.452559,-0.956001 5.319328,-2.000935 13.486328,-2.376953 7.842286,-0.353961 12.683766,-0.464155 25.347656,-0.505859 z m 8.80273,47.820317 c 9.99125,0 17.75782,7.76543 17.75782,17.73242 0,9.96409 -7.76876,17.73437 -17.75782,17.73437 -9.99196,0 -17.75781,-7.76918 -17.75781,-17.73437 0,-9.9681 7.76367,-17.73242 17.75781,-17.73242 z"
       fill="#ffffff"
       id="path9"
       style="fill:#ffffff;fill-opacity:1" /></g><path
     style="fill:#c7c7c7;fill-opacity:1;stroke:#ffffff;stroke-width:6.61458;stroke-linecap:round;stroke-dasharray:none;stroke-opacity:1;paint-order:markers stroke fill"
     id="rect1"
     width="146.83182"
     height="46.290146"
     x="45.715984"
     y="43.070156"
     d="M 48.361818,43.070156 H 189.90197 a 2.6458333,2.6458333 45 0 1 2.64583,2.645833 v 40.99848 a 2.6458333,2.6458333 135 0 1 -2.64583,2.645833 H 48.361818 a 2.6458333,2.6458333 45 0 1 -2.645834,-2.645833 v -40.99848 a 2.6458333,2.6458333 135 0 1 2.645834,-2.645833 z" /><path
     style="font-weight:bold;font-size:100px;font-family:'Super Mario 256';-inkscape-font-specification:'Super Mario 256 Bold';text-align:center;text-anchor:middle;white-space:pre;fill:url(#linearGradient15);stroke:#000000;stroke-width:3.96875;stroke-linecap:round;paint-order:markers stroke fill"
     d="m 55.039301,56.416512 5.132917,-0.3175 3.96875,18.7325 -8.41375,0.926042 z m 9.524995,19.20875 3.518959,-19.288125 h 3.995208 l 3.730625,6.138333 0.3175,-6.138333 6.138334,0.9525 -1.296459,18.57375 -5.08,-0.3175 -3.915833,-5.979583 -1.137709,6.323542 z m 37.359174,-14.366875 -3.413126,4.206875 -3.995208,-2.566458 -1.005417,1.27 7.143751,5.23875 -3.466043,6.535208 h -8.493125 l -5.926667,-4.709583 2.566459,-4.312709 5.106458,2.883959 0.767292,-1.190625 -7.487709,-4.445 7.090834,-7.937501 h 6.376458 z m 0.10584,-4.92125 19.5527,0.343958 v 7.9375 l -6.61458,-1.084791 1.82563,12.461875 h -9.47209 l 1.42875,-12.461875 -6.72041,-0.343959 z m 32.80834,0.02646 8.36083,18.229792 -7.99042,1.27 -0.635,-4.683125 -6.42937,-0.15875 -1.45521,5.000625 -7.69937,-1.375833 10.55687,-17.753542 z m -3.94229,6.932084 -1.0848,2.69875 4.04813,0.105833 -0.92604,-2.725208 z"
     id="text2"
     aria-label="Insta" /><g
     id="g15"
     transform="matrix(0.22000001,0,0,0.22000003,150.81251,37.041667)"><path
       d="m 204.1503,18.1429 c -55.2305,0 -71.3834,0.057 -74.5232,0.3175 -11.3342,0.9424 -18.387,2.7275 -26.0708,6.554 -5.9214,2.9413 -10.5915,6.3506 -15.2005,11.1298 -8.3938,8.7157 -13.481,19.4383 -15.3226,32.1842 -0.8953,6.1877 -1.1558,7.4496 -1.2087,39.0558 -0.0203,10.5354 0,24.4007 0,42.9984 0,55.2008 0.061,71.3418 0.3256,74.4764 0.9157,11.032 2.6453,17.9728 6.3081,25.565 7,14.5329 20.369,25.4428 36.119,29.5137 5.4535,1.4044 11.4767,2.1779 19.2092,2.5442 3.2762,0.1425 36.6684,0.2443 70.081,0.2443 33.4127,0 66.8253,-0.0407 70.02,-0.2035 8.9535,-0.4214 14.1526,-1.1195 19.9011,-2.6054 15.8517,-4.0912 28.9767,-14.8383 36.119,-29.5748 3.5916,-7.409 5.4128,-14.6144 6.237,-25.0704 0.179,-2.2796 0.2543,-38.6263 0.2543,-74.924 0,-36.304 -0.0814,-72.5835 -0.2605,-74.8632 -0.8343,-10.6249 -2.6555,-17.7692 -6.363,-25.3207 -3.0421,-6.1816 -6.42,-10.798 -11.324,-15.518 -8.752,-8.3616 -19.4555,-13.4502 -32.2101,-15.2902 -6.18,-0.8936 -7.411,-1.1582 -39.033,-1.2131 z"
       fill="url(#e)"
       transform="translate(-71.8155,-18.1429)"
       id="path11"
       style="fill:url(#e)" /><path
       d="m 204.1503,18.1429 c -55.2305,0 -71.3834,0.057 -74.5232,0.3175 -11.3342,0.9424 -18.387,2.7275 -26.0708,6.554 -5.9214,2.9413 -10.5915,6.3506 -15.2005,11.1298 -8.3938,8.7157 -13.481,19.4383 -15.3226,32.1842 -0.8953,6.1877 -1.1558,7.4496 -1.2087,39.0558 -0.0203,10.5354 0,24.4007 0,42.9984 0,55.2008 0.061,71.3418 0.3256,74.4764 0.9157,11.032 2.6453,17.9728 6.3081,25.565 7,14.5329 20.369,25.4428 36.119,29.5137 5.4535,1.4044 11.4767,2.1779 19.2092,2.5442 3.2762,0.1425 36.6684,0.2443 70.081,0.2443 33.4127,0 66.8253,-0.0407 70.02,-0.2035 8.9535,-0.4214 14.1526,-1.1195 19.9011,-2.6054 15.8517,-4.0912 28.9767,-14.8383 36.119,-29.5748 3.5916,-7.409 5.4128,-14.6144 6.237,-25.0704 0.179,-2.2796 0.2543,-38.6263 0.2543,-74.924 0,-36.304 -0.0814,-72.5835 -0.2605,-74.8632 -0.8343,-10.6249 -2.6555,-17.7692 -6.363,-25.3207 -3.0421,-6.1816 -6.42,-10.798 -11.324,-15.518 -8.752,-8.3616 -19.4555,-13.4502 -32.2101,-15.2902 -6.18,-0.8936 -7.411,-1.1582 -39.033,-1.2131 z"
       fill="url(#f)"
       transform="translate(-71.8155,-18.1429)"
       id="path12"
       style="fill:url(#f)" /><path
       d="m 204.1503,18.1429 c -55.2305,0 -71.3834,0.057 -74.5232,0.3175 -11.3342,0.9424 -18.387,2.7275 -26.0708,6.554 -5.9214,2.9413 -10.5915,6.3506 -15.2005,11.1298 -8.3938,8.7157 -13.481,19.4383 -15.3226,32.1842 -0.8953,6.1877 -1.1558,7.4496 -1.2087,39.0558 -0.0203,10.5354 0,24.4007 0,42.9984 0,55.2008 0.061,71.3418 0.3256,74.4764 0.9157,11.032 2.6453,17.9728 6.3081,25.565 7,14.5329 20.369,25.4428 36.119,29.5137 5.4535,1.4044 11.4767,2.1779 19.2092,2.5442 3.2762,0.1425 36.6684,0.2443 70.081,0.2443 33.4127,0 66.8253,-0.0407 70.02,-0.2035 8.9535,-0.4214 14.1526,-1.1195 19.9011,-2.6054 15.8517,-4.0912 28.9767,-14.8383 36.119,-29.5748 3.5916,-7.409 5.4128,-14.6144 6.237,-25.0704 0.179,-2.2796 0.2543,-38.6263 0.2543,-74.924 0,-36.304 -0.0814,-72.5835 -0.2605,-74.8632 -0.8343,-10.6249 -2.6555,-17.7692 -6.363,-25.3207 -3.0421,-6.1816 -6.42,-10.798 -11.324,-15.518 -8.752,-8.3616 -19.4555,-13.4502 -32.2101,-15.2902 -6.18,-0.8936 -7.411,-1.1582 -39.033,-1.2131 z"
       fill="url(#g)"
       transform="translate(-71.8155,-18.1429)"
       id="path13"
       style="fill:url(#g)" /><path
       d="m 204.1503,18.1429 c -55.2305,0 -71.3834,0.057 -74.5232,0.3175 -11.3342,0.9424 -18.387,2.7275 -26.0708,6.554 -5.9214,2.9413 -10.5915,6.3506 -15.2005,11.1298 -8.3938,8.7157 -13.481,19.4383 -15.3226,32.1842 -0.8953,6.1877 -1.1558,7.4496 -1.2087,39.0558 -0.0203,10.5354 0,24.4007 0,42.9984 0,55.2008 0.061,71.3418 0.3256,74.4764 0.9157,11.032 2.6453,17.9728 6.3081,25.565 7,14.5329 20.369,25.4428 36.119,29.5137 5.4535,1.4044 11.4767,2.1779 19.2092,2.5442 3.2762,0.1425 36.6684,0.2443 70.081,0.2443 33.4127,0 66.8253,-0.0407 70.02,-0.2035 8.9535,-0.4214 14.1526,-1.1195 19.9011,-2.6054 15.8517,-4.0912 28.9767,-14.8383 36.119,-29.5748 3.5916,-7.409 5.4128,-14.6144 6.237,-25.0704 0.179,-2.2796 0.2543,-38.6263 0.2543,-74.924 0,-36.304 -0.0814,-72.5835 -0.2605,-74.8632 -0.8343,-10.6249 -2.6555,-17.7692 -6.363,-25.3207 -3.0421,-6.1816 -6.42,-10.798 -11.324,-15.518 -8.752,-8.3616 -19.4555,-13.4502 -32.2101,-15.2902 -6.18,-0.8936 -7.411,-1.1582 -39.033,-1.2131 z"
       fill="url(#h)"
       transform="translate(-71.8155,-18.1429)"
       id="path14"
       style="fill:url(#h)" /><path
       d="m 132.3452,33.973 c -26.7167,0 -30.0696,0.1167 -40.5629,0.5939 -10.4727,0.4792 -17.6212,2.136 -23.8762,4.567 -6.4701,2.5107 -11.9586,5.8693 -17.4265,11.3352 -5.472,5.464 -8.8332,10.9483 -11.354,17.4116 -2.4389,6.2524 -4.099,13.3976 -4.5703,23.8585 -0.4693,10.4854 -0.5923,13.8379 -0.5923,40.5348 0,26.697 0.1189,30.0371 0.5943,40.5225 0.4817,10.465 2.1397,17.6082 4.5703,23.8585 2.5147,6.4654 5.8758,11.9497 11.3458,17.4136 5.466,5.468 10.9544,8.8349 17.4204,11.3456 6.259,2.4309 13.4097,4.0877 23.8803,4.567 10.4933,0.477 13.8441,0.5938 40.5588,0.5938 26.7188,0 30.0615,-0.1167 40.5547,-0.5939 10.4728,-0.4792 17.6295,-2.136 23.8885,-4.567 6.4681,-2.5106 11.9484,-5.8775 17.4143,-11.3455 5.472,-5.4639 8.8332,-10.9482 11.354,-17.4115 2.4183,-6.2524 4.0784,-13.3976 4.5703,-23.8585 0.4713,-10.4854 0.5943,-13.8277 0.5943,-40.5246 0,-26.697 -0.123,-30.0473 -0.5943,-40.5328 -0.4919,-10.465 -2.152,-17.6081 -4.5703,-23.8584 -2.5208,-6.4654 -5.882,-11.9498 -11.354,-17.4137 C 208.7183,45.0011 203.2462,41.6425 196.77,39.1338 190.4986,36.7029 183.346,35.0461 172.8733,34.5669 162.38,34.0897 159.0394,33.973 132.3145,33.973 Z m -8.825,17.7147 c 2.6193,-0.0041 5.5418,0 8.825,0 26.2659,0 29.379,0.0942 39.7513,0.5652 9.5915,0.4383 14.7971,2.0397 18.2648,3.3852 4.5908,1.7817 7.8638,3.9116 11.3048,7.3521 3.4431,3.4406 5.5745,6.7173 7.3617,11.3046 1.3465,3.461 2.9512,8.6628 3.3877,18.2472 0.4714,10.3625 0.5739,13.4754 0.5739,39.7095 0,26.234 -0.1025,29.347 -0.5739,39.7095 -0.4386,9.5843 -2.0412,14.7861 -3.3877,18.2471 -1.783,4.5874 -3.9186,7.8539 -7.3617,11.2923 -3.443,3.4406 -6.712,5.5704 -11.3048,7.3521 -3.4636,1.3517 -8.6733,2.949 -18.2648,3.3873 -10.3702,0.471 -13.4854,0.5734 -39.7513,0.5734 -26.2679,0 -29.381,-0.1024 -39.7513,-0.5734 -9.5914,-0.4423 -14.797,-2.0438 -18.2668,-3.3893 -4.5908,-1.7817 -7.87,-3.9116 -11.313,-7.3521 -3.4431,-3.4405 -5.5745,-6.709 -7.3617,-11.2985 -1.3465,-3.461 -2.9512,-8.6628 -3.3877,-18.2471 -0.4714,-10.3626 -0.5657,-13.4754 -0.5657,-39.7259 0,-26.2504 0.0943,-29.347 0.5657,-39.7095 0.4386,-9.5844 2.0412,-14.7861 3.3877,-18.2512 1.783,-4.5874 3.9186,-7.8641 7.3617,-11.3046 3.443,-3.4406 6.7222,-5.5704 11.313,-7.3562 3.4677,-1.3517 8.6754,-2.949 18.2668,-3.3894 9.075,-0.4096 12.5919,-0.5324 30.9264,-0.553 z m 61.3363,16.322 c -6.5173,0 -11.805,5.2776 -11.805,11.792 0,6.5125 5.2877,11.7962 11.805,11.7962 6.5172,0 11.8049,-5.2837 11.8049,-11.7962 0,-6.5124 -5.2877,-11.796 -11.805,-11.796 z m -52.5113,13.7826 c -27.8993,0 -50.5191,22.6031 -50.5191,50.4817 0,27.8786 22.6198,50.4714 50.5191,50.4714 27.8993,0 50.511,-22.5928 50.511,-50.4714 0,-27.8786 -22.6137,-50.4817 -50.513,-50.4817 z m 0,17.7147 c 18.109,0 32.7914,14.6694 32.7914,32.767 0,18.0956 -14.6824,32.767 -32.7914,32.767 -18.111,0 -32.7913,-14.6714 -32.7913,-32.767 0,-18.0976 14.6803,-32.767 32.7913,-32.767 z"
       fill="#ffffff"
       id="path15" /></g></svg>
