<?xml version="1.0" encoding="UTF-8" standalone="no"?>
<!-- Created with Inkscape (http://www.inkscape.org/) -->

<svg
   width="200"
   height="200"
   viewBox="0 0 52.916664 52.916668"
   version="1.1"
   id="svg1"
   xml:space="preserve"
   xmlns="http://www.w3.org/2000/svg"
   xmlns:svg="http://www.w3.org/2000/svg"><defs
     id="defs1" /><path
     id="path29"
     style="display:inline;fill:#d6d6d6;fill-opacity:1;stroke:none;stroke-width:0.529167;stroke-linecap:round;stroke-dasharray:none;stroke-opacity:1;paint-order:markers fill stroke"
     d="m 20.107422,-0.265625 c -5.707815,0 -9.454643,1.8948675 -14.6015626,8.1855469 C 1.9889701,12.21834 1.2676776,16.981427 2.5351563,20.789062 1.76023,21.83264 1.3222656,23.283748 1.3222656,25.134766 c 0,4.288 3.6002787,6.881059 5.8632813,7.566406 1.3441297,2.314899 3.6051911,4.084088 6.2304691,5.042969 1.136924,1.624571 2.826459,2.416032 4.421875,2.759765 0.04777,0.160443 0.0982,0.319413 0.154296,0.464844 0.492013,1.27262 1.33529,2.147195 2.294922,2.769531 0.002,0.0013 0.0039,0.0026 0.0059,0.0039 0.002,0.0013 0.0039,0.0026 0.0059,0.0039 0.841886,0.549472 1.782533,0.902669 2.550781,1.136718 1.436804,0.436442 2.771162,0.49201 4.1875,0.279297 1.331962,-0.203024 2.647502,-0.651091 3.982422,-1.222656 l 0.01367,-0.0059 0.08789,-0.03906 0.01953,-0.0098 c 0.546903,-0.237666 1.256471,-0.541181 1.947266,-0.910157 l 0.0059,-0.0039 0.0078,-0.0039 c 2.479115,-1.348478 5.145156,-3.454211 7.0625,-5.955078 1.622968,-2.119008 2.834066,-4.700674 2.806641,-7.476563 -0.01797,-1.569455 -0.475812,-3.250483 -1.671875,-4.544922 -0.686513,-0.747099 -1.548378,-1.297196 -2.5625,-1.626953 -0.188072,-1.032532 -0.546836,-1.895137 -1.054687,-2.578125 1.266103,-3.80662 0.545262,-8.567944 -2.970704,-12.8652341 C 29.56383,1.6290133 25.815237,-0.265625 20.107422,-0.265625 Z"
     transform="translate(4.3114422,3.3157583)" /><g
     id="g49"
     transform="translate(4.3114423,3.3157582)"><path
       style="display:inline;fill:#f9cdaa;fill-opacity:1;stroke:#1a1a1a;stroke-width:0.529167;stroke-linecap:round;stroke-dasharray:none;stroke-opacity:1;paint-order:markers fill stroke"
       d="m 8.2020835,26.193749 c -3.175,-4.7625 1.3229166,-16.6687489 11.9062495,-16.6687489 10.583333,0 15.08125,11.9062489 11.90625,16.6687489 1.058333,4.497917 -2.116667,8.466667 -6.614584,9.789584 -1.058332,2.116666 -3.439583,2.645833 -5.291666,2.645833 -1.852083,0 -4.233334,-0.529167 -5.291667,-2.645833 C 10.31875,34.660416 7.1437502,30.691666 8.2020835,26.193749 Z"
       id="path2" /><g
       id="g9"
       style="display:inline;fill:#8a4e35;fill-opacity:1;stroke:#1a1a1a;stroke-width:0.529167;stroke-dasharray:none;stroke-opacity:1;paint-order:markers fill stroke"
       transform="translate(0.26458362,0.26458362)"><path
         id="path7"
         style="fill:#8a4e35;fill-opacity:1;stroke:#1a1a1a;stroke-width:0.529167;stroke-linecap:round;stroke-dasharray:none;stroke-opacity:1;paint-order:markers fill stroke"
         d="m 7.4972167,18.637105 c -0.858056,2.765433 -0.7396692,5.522133 0.4402832,7.292061 1.2347222,-0.0441 1.5875,-0.749652 1.0583333,-2.116666 C 10.046595,23.807749 9.8630107,22.053671 8.726599,21.07985 8.2051273,20.632986 8.0205353,19.405339 7.4972167,18.637105 Z" /><path
         id="path8"
         style="fill:#8a4e35;fill-opacity:1;stroke:#1a1a1a;stroke-width:0.529167;stroke-linecap:round;stroke-dasharray:none;stroke-opacity:1;paint-order:markers fill stroke"
         d="m 32.190283,18.637105 c 0.858056,2.765433 0.739669,5.522133 -0.440283,7.292061 -1.234722,-0.0441 -1.5875,-0.749652 -1.058333,-2.116666 -1.050762,-0.0048 -0.867178,-1.758829 0.269234,-2.73265 0.521472,-0.446864 0.706064,-1.674511 1.229382,-2.442745 z" /></g><path
       id="path12"
       style="display:inline;fill:#ffffff;fill-opacity:1;stroke:none;stroke-width:0.529167;stroke-linecap:round;stroke-dasharray:none;stroke-opacity:1;paint-order:fill markers stroke"
       d="m 15.255399,15.863631 c -1.563749,-7.8e-5 -2.831423,1.981836 -2.831351,4.426603 0.0013,1.972263 0.837011,3.705285 2.049487,4.24987 0.236833,-1.544688 1.613303,-2.854057 3.551204,-3.378088 0.03908,-0.286667 0.05985,-0.578695 0.06201,-0.871782 7.2e-5,-2.444768 -1.267603,-4.426682 -2.831352,-4.426603 z m 9.176702,0 c 1.563749,-7.8e-5 2.831423,1.981836 2.831351,4.426603 -0.0013,1.972263 -0.837011,3.705285 -2.049487,4.24987 -0.236833,-1.544688 -1.613303,-2.854057 -3.551204,-3.378088 -0.03908,-0.286667 -0.05985,-0.578695 -0.06201,-0.871782 -7.2e-5,-2.444768 1.267603,-4.426682 2.831352,-4.426603 z"
       transform="translate(0.26458362,0.26458362)" /><path
       id="path13"
       style="display:inline;fill:#2bc0e1;fill-opacity:1;stroke:none;stroke-width:0.529167;stroke-linecap:round;stroke-dasharray:none;stroke-opacity:1;paint-order:markers fill stroke"
       d="m 16.38763,17.197916 c -1.15987,0 -2.10013,1.414093 -2.10013,3.158464 0.0015,1.028979 0.336289,1.99232 0.897103,2.581754 0.631116,-0.810414 1.625132,-1.447567 2.840136,-1.776118 0.03908,-0.286668 0.05985,-0.578695 0.06201,-0.871782 2.8e-5,-0.947815 -0.192317,-1.823877 -0.516764,-2.544031 -0.348567,-0.357179 -0.760569,-0.548235 -1.182355,-0.548287 z m 6.91224,0 c 1.15987,0 2.10013,1.414093 2.10013,3.158464 -0.0015,1.028979 -0.336289,1.99232 -0.897103,2.581754 -0.631116,-0.810414 -1.625132,-1.447567 -2.840136,-1.776118 -0.03908,-0.286668 -0.05985,-0.578695 -0.06201,-0.871782 -2.8e-5,-0.947815 0.192317,-1.823877 0.516764,-2.544031 0.348567,-0.357179 0.760569,-0.548235 1.182355,-0.548287 z"
       transform="translate(0.26458362,0.26458362)" /><path
       id="path16"
       style="display:inline;fill:#000000;fill-opacity:1;stroke:none;stroke-width:0.529167;stroke-linecap:round;stroke-dasharray:none;stroke-opacity:1;paint-order:markers fill stroke"
       d="m 16.850651,18.388541 c -0.721494,0 -1.30638,0.910646 -1.30638,2.033985 7.15e-4,0.65404 0.20339,1.267644 0.544669,1.648995 0.54292,-0.396564 1.1983,-0.710077 1.935799,-0.909505 0.03908,-0.286668 0.05985,-0.578695 0.06201,-0.871782 7e-6,-0.223785 -0.01139,-0.443163 -0.03204,-0.657841 -0.20414,-0.753933 -0.678556,-1.244027 -1.204061,-1.243852 z m 5.986198,0 c 0.721494,0 1.30638,0.910646 1.30638,2.033985 -7.15e-4,0.65404 -0.20339,1.267644 -0.544669,1.648995 -0.54292,-0.396564 -1.1983,-0.710077 -1.935799,-0.909505 -0.03908,-0.286668 -0.05985,-0.578695 -0.06201,-0.871782 -7e-6,-0.223785 0.01139,-0.443163 0.03204,-0.657841 0.20414,-0.753933 0.678556,-1.244027 1.204061,-1.243852 z"
       transform="translate(0.26458362,0.26458362)" /><path
       id="path19"
       style="display:inline;fill:#20130c;fill-opacity:1;stroke:none;stroke-width:0.529167;stroke-linecap:round;stroke-dasharray:none;stroke-opacity:1;paint-order:markers fill stroke"
       d="m 11.377083,23.018749 c -1.852083,1.852084 -1.5875,3.704167 0.529167,5.027084 0.264583,1.852083 1.058333,2.38125 3.174999,2.116666 1.058334,1.5875 2.645834,1.852084 5.027084,1.058334 2.38125,0.79375 3.96875,0.529166 5.027083,-1.058334 2.116667,0.264584 2.910417,-0.264583 3.175,-2.116666 2.116667,-1.322917 2.38125,-3.175 0.529167,-5.027084 -0.143109,1.287979 -1.529193,2.263393 -3.395659,2.890263 a 5.4104137,4.0874968 0 0 1 -5.335591,3.446301 5.4104137,4.0874968 0 0 1 -5.335592,-3.446301 c -1.866465,-0.62687 -3.25255,-1.602284 -3.395658,-2.890263 z" /><path
       id="path25"
       style="display:inline;fill:#000000;fill-opacity:1;stroke:none;stroke-width:0.529167;stroke-linecap:round;stroke-dasharray:none;stroke-opacity:1;paint-order:markers fill stroke"
       d="m 16.143717,31.213081 -0.0041,0.0015 c 0.264583,3.180973 2.116666,5.033285 3.96875,5.033285 1.852084,0 3.704156,-1.852299 3.96875,-5.033285 l -0.0041,-0.0015 c -0.985125,0.598141 -2.273934,0.571312 -3.964616,0.0078 -1.690682,0.56356 -2.979491,0.590389 -3.964616,-0.0078 z" /><path
       id="path28"
       style="display:inline;fill:#ffffff;fill-opacity:1;stroke:none;stroke-width:0.529167;stroke-linecap:round;stroke-dasharray:none;stroke-opacity:1;paint-order:markers fill stroke"
       d="m 20.108333,31.220833 c -1.333938,0.444645 -2.416684,0.55374 -3.298507,0.286804 l -0.0088,0.0026 c 0,0 -0.264584,0.504362 -0.132292,0.768945 0.132292,0.264583 2.116667,0.529167 3.439584,0.529167 1.322917,0 3.307291,-0.264584 3.439583,-0.529167 0.132307,-0.264599 -0.132277,-0.768961 -0.132277,-0.768961 l -0.0088,-0.0026 c -0.881808,0.266952 -1.964553,0.157857 -3.298491,-0.286788 z" /><path
       id="path31"
       style="display:inline;fill:#e42210;fill-opacity:1;stroke:none;stroke-width:0.529167;stroke-linecap:round;stroke-dasharray:none;stroke-opacity:1;paint-order:markers fill stroke"
       d="m 20.108333,33.475475 a 2.7726047,2.7726052 0 0 0 -2.486153,1.554944 c 0.712567,0.79198 1.599273,1.217497 2.486153,1.217497 0.887994,0 1.775714,-0.426699 2.488737,-1.220597 a 2.7726047,2.7726052 0 0 0 -2.488737,-1.551844 z" /><path
       id="path32"
       style="fill:#e42210;fill-opacity:1;stroke:#1a1a1a;stroke-width:0.529167;stroke-linecap:round;stroke-dasharray:none;stroke-opacity:1;paint-order:markers fill stroke"
       d="m 20.108333,9.5250001 c -5.455788,0 -9.289434,3.1654499 -11.293367,6.8838169 0.851412,0.523649 1.656787,0.313576 2.590539,-0.192236 0.282482,-3.438203 2.977826,-4.405693 5.00848,-2.668571 1.056307,-0.349731 2.27061,-0.583427 3.694348,-0.583427 1.42401,0 2.638556,0.233846 3.694865,0.583427 2.029402,-1.73572 4.722255,-0.770642 5.007446,2.66237 0.930131,0.500543 1.731417,0.704117 2.577103,0.172599 C 29.379974,12.67581 25.551472,9.5250001 20.108333,9.5250001 Z" /><path
       id="path35"
       style="fill:#e42210;fill-opacity:1;stroke:#1a1a1a;stroke-width:0.529167;stroke-linecap:round;stroke-dasharray:none;stroke-opacity:1;paint-order:markers fill stroke"
       d="m 20.108333,1.8520836 c -5.027084,0 -8.202083,1.5875004 -12.9645828,7.4083332 -3.5239397,4.3070362 -3.7140999,8.9021972 -2.093929,12.0736812 0.00153,-8.05e-4 0.00312,-0.0013 0.00465,-0.0021 0.094716,-0.04964 0.1910985,-0.09121 0.2883545,-0.127124 0.023015,-0.0085 0.046141,-0.01495 0.069247,-0.02274 0.073541,-0.02476 0.1471369,-0.04672 0.2211751,-0.0646 0.030565,-0.0074 0.060894,-0.01385 0.091467,-0.02015 0.068407,-0.01405 0.1365561,-0.02522 0.2046386,-0.03411 0.031318,-0.0041 0.062363,-0.0093 0.093534,-0.0124 0.093416,-0.0092 0.186278,-0.01515 0.2775024,-0.01602 0.3607141,-0.0034 0.6992787,0.05317 0.9746175,0.131775 l 0.00465,0.0041 C 7.8916008,15.887271 12.371102,9.5250001 20.108333,9.5250001 c 7.736813,0 12.217698,6.3615739 12.829707,11.6447669 l 0.0036,-0.0031 c 0.275339,-0.0786 0.613903,-0.135205 0.974617,-0.131775 0.407871,0.0039 0.844119,0.08595 1.250053,0.299723 C 36.78684,18.16311 36.597084,13.567732 33.072916,9.2604168 28.310416,3.439584 25.135417,1.8520836 20.108333,1.8520836 Z M 32.97163,23.227005 c -0.0031,0.03388 -0.0063,0.06761 -0.0098,0.101286 0.0034,-0.03372 0.0068,-0.06735 0.0098,-0.101286 z m -0.08113,0.626319 c -0.0066,0.03864 -0.01201,0.07797 -0.01912,0.116272 0.0071,-0.0384 0.01261,-0.07754 0.01912,-0.116272 z" /><path
       id="path41"
       style="display:inline;fill:#f9cdaa;fill-opacity:1;stroke:#1a1a1a;stroke-width:0.529167;stroke-linecap:round;stroke-dasharray:none;stroke-opacity:1;paint-order:markers fill stroke"
       d="M 6.0358072,20.770308 C 4.7475427,20.78256 3.175,21.563542 3.175,24.870833 c 0,4.233333 4.9445937,6.083543 5.1066649,5.55625 l 0.00155,-0.0015 C 7.7216138,29.056458 7.5616524,27.526519 7.9374999,25.929166 7.0836691,24.64842 6.7899758,22.849738 7.0150756,20.906217 l -0.00465,-0.0041 C 6.7350868,20.823516 6.3965213,20.766878 6.0358072,20.770308 Z m 27.6158858,0 c 1.288264,0.01225 2.860807,0.793234 2.860807,4.100525 0,4.233333 -4.944594,6.083543 -5.106665,5.55625 l -0.0015,-0.0015 c 0.561601,-1.369125 0.721563,-2.899064 0.345715,-4.496417 0.853831,-1.280746 1.147524,-3.079428 0.922424,-5.022949 l 0.0046,-0.0041 c 0.275339,-0.0786 0.613905,-0.135239 0.974619,-0.131809 z"
       transform="translate(0.26458362,0.26458362)" /><path
       id="path45"
       style="fill:#ffffff;fill-opacity:1;stroke:#1a1a1a;stroke-width:0.529167;stroke-linecap:round;stroke-dasharray:none;stroke-opacity:1;paint-order:markers fill stroke"
       d="m 20.189465,3.9687502 c -5.108277,0 -6.695716,4.7622617 -4.843632,6.4549028 l 0.0052,0.0047 c 1.414478,-0.569319 3.000027,-0.9033039 4.757333,-0.9033039 1.757305,0 3.342854,0.3339849 4.757332,0.9033039 l 0.0052,-0.0052 C 26.722916,8.7313231 25.297742,3.9687502 20.189465,3.9687502 Z" /><path
       style="fill:#e42210;fill-opacity:1;stroke:none;stroke-width:0.529167;stroke-linecap:round;stroke-dasharray:none;stroke-opacity:1;paint-order:markers fill stroke"
       d="m 16.668749,8.4666668 2.38125,-3.4395833 1.058334,1.5410839 1.058333,-1.5410839 2.38125,3.4395833 -1.058333,0.79375 -1.322917,-2.38125 -1.058333,1.3229167 -1.058334,-1.3229167 -1.322916,2.38125 z"
       id="path48" /><path
       style="fill:none;fill-opacity:1;stroke:#1a1a1a;stroke-width:0.529167;stroke-linecap:round;stroke-dasharray:none;stroke-opacity:1;paint-order:markers fill stroke"
       d="M 7.927164,25.727506 7.3065813,23.771287 5.9861981,23.283333 m 26.3033039,2.444173 0.620583,-1.956219 1.320383,-0.487954"
       id="path49" /><ellipse
       style="display:inline;fill:#f9cdaa;fill-opacity:1;stroke:#1a1a1a;stroke-width:0.529167;stroke-linecap:round;stroke-dasharray:none;stroke-opacity:1;paint-order:markers fill stroke"
       id="path9"
       cx="20.108334"
       cy="25.267708"
       rx="5.4104137"
       ry="4.0874968" /><path
       style="display:inline;fill:#20130c;fill-opacity:1;stroke:none;stroke-width:0.529167;stroke-linecap:round;stroke-dasharray:none;stroke-opacity:1;paint-order:markers fill stroke"
       d="m 11.146445,17.311026 c -0.529167,-6.085416 5.291666,-6.614583 6.879166,-0.79375 -3.009635,-2.965538 -5.368836,-2.678906 -6.879166,0.79375 z m 17.39461,0 c 0.529167,-6.085416 -5.291666,-6.614583 -6.879166,-0.79375 3.009635,-2.965538 5.368836,-2.678906 6.879166,0.79375 z"
       id="path10"
       transform="translate(0.26458362,0.26458362)" /><path
       d="m 34.948977,32.982833 c -0.831848,1.082979 -1.75645,2.103421 -2.891207,2.990231 -1.138879,0.892678 -2.503134,1.655925 -4.206602,2.227289 -0.125877,0.03949 -0.236858,0.02284 -0.330797,-0.03177 -0.14206,-0.07965 -0.277069,-0.227958 -0.405104,-0.401154 -0.09973,-0.134909 -0.217546,-0.343855 -0.339086,-0.571191 -0.488775,-0.891907 -1.092827,-1.998865 -2.231276,-1.660523 -0.02545,0.0075 -0.04479,0.01761 -0.06999,0.02354 l -3.854068,1.508525 c -0.01205,0.0046 -0.0264,0.01387 -0.03686,0.0188 -0.515949,0.251726 -0.783763,0.718967 -0.872895,1.28108 -0.0858,0.572337 0.02856,1.24763 0.256192,1.837778 0.301372,0.779517 0.832529,1.345462 1.479884,1.763478 0.615488,0.403512 1.326642,0.677094 2.018054,0.887736 1.085315,0.329674 2.141039,0.380956 3.253819,0.213837 1.088293,-0.165883 2.215874,-0.539935 3.466553,-1.075431 l 0.09211,-0.0413 c 0.573974,-0.249513 1.194082,-0.514803 1.8126,-0.845173 2.26623,-1.232682 4.674535,-3.142739 6.3934,-5.384722 1.441133,-1.881597 2.391484,-4.003739 2.370138,-6.164563 -0.01357,-1.185404 -0.351991,-2.312519 -1.113533,-3.136705 -0.663392,-0.721938 -1.629736,-1.207228 -2.963226,-1.287179 -0.152279,-0.01149 -0.300109,0.05552 -0.390945,0.174823 l -2.851688,3.505168 c -0.397588,0.381323 -0.502982,0.803208 -0.38483,1.258605 0.09808,0.372958 0.354002,0.742019 0.724224,1.10552 0.106393,0.122938 0.236326,0.251029 0.373474,0.385063 0.453542,0.445698 0.968286,0.95893 0.695002,1.430213 z"
       id="path1-5"
       style="fill:#df93a1;fill-opacity:1;stroke:none;stroke-width:0.529167;stroke-dasharray:none;stroke-opacity:1" /></g></svg>
