<?xml version="1.0" encoding="UTF-8" standalone="no"?>
<!-- Created with Inkscape (http://www.inkscape.org/) -->

<svg
   width="200"
   height="200"
   viewBox="0 0 52.916664 52.916668"
   version="1.1"
   id="svg1"
   xml:space="preserve"
   xmlns="http://www.w3.org/2000/svg"
   xmlns:svg="http://www.w3.org/2000/svg"><defs
     id="defs1" /><g
     id="g49"
     transform="translate(4.3114423,3.686173)"
     style="stroke-width:1.05833;stroke-dasharray:none"><path
       id="path2"
       style="display:inline;fill:none;fill-opacity:1;stroke:#a5a5a5;stroke-width:1.05833;stroke-linecap:round;stroke-dasharray:none;stroke-opacity:1;paint-order:markers fill stroke"
       d="m 20.10844,9.5249916 c -10.5833327,0 -15.0812496,11.9062494 -11.9062496,16.6687494 -1.0583333,4.497917 2.1166676,8.466666 6.6145836,9.789583 0.98058,1.961161 3.092226,2.552481 4.87102,2.629814 0.0044,-0.08337 0.01128,-0.165591 0.02325,-0.245463 0.08913,-0.562113 0.356866,-1.029333 0.872815,-1.281059 0.01046,-0.0049 0.02516,-0.014 0.03721,-0.0186 l 3.854029,-1.508952 c 0.0252,-0.0059 0.04431,-0.01575 0.06976,-0.02325 0.530733,-0.157732 0.944279,5.56e-4 1.285193,0.302823 4.265589,-1.444137 7.208576,-5.293139 6.184635,-9.644889 3.175,-4.7625 -1.322917,-16.6687494 -11.90625,-16.6687494 z" /><g
       id="g9"
       style="display:inline;fill:#a5a5a5;fill-opacity:1;stroke:#a5a5a5;stroke-width:1.05833;stroke-dasharray:none;stroke-opacity:1;paint-order:markers fill stroke"
       transform="translate(0.26458362,0.26458362)"><path
         id="path7"
         style="fill:#a5a5a5;fill-opacity:1;stroke:#a5a5a5;stroke-width:1.05833;stroke-linecap:round;stroke-dasharray:none;stroke-opacity:1;paint-order:markers fill stroke"
         d="m 7.4972167,18.637105 c -0.858056,2.765433 -0.7396692,5.522133 0.4402832,7.292061 1.2347222,-0.0441 1.5875,-0.749652 1.0583333,-2.116666 C 10.046595,23.807749 9.8630107,22.053671 8.726599,21.07985 8.2051273,20.632986 8.0205353,19.405339 7.4972167,18.637105 Z" /><path
         id="path8"
         style="fill:#a5a5a5;fill-opacity:1;stroke:#a5a5a5;stroke-width:1.05833;stroke-linecap:round;stroke-dasharray:none;stroke-opacity:1;paint-order:markers fill stroke"
         d="m 32.190283,18.637105 c 0.858056,2.765433 0.739669,5.522133 -0.440283,7.292061 -1.234722,-0.0441 -1.5875,-0.749652 -1.058333,-2.116666 -1.050762,-0.0048 -0.867178,-1.758829 0.269234,-2.73265 0.521472,-0.446864 0.706064,-1.674511 1.229382,-2.442745 z" /></g><path
       id="path12"
       style="display:inline;fill:none;fill-opacity:1;stroke:#a5a5a5;stroke-width:1.05833;stroke-linecap:round;stroke-dasharray:none;stroke-opacity:1;paint-order:fill markers stroke"
       d="m 15.255399,15.863631 c -1.563749,-7.8e-5 -2.831423,1.981836 -2.831351,4.426603 0.0013,1.972263 0.837011,3.705285 2.049487,4.24987 0.236833,-1.544688 1.613303,-2.854057 3.551204,-3.378088 0.03908,-0.286667 0.05985,-0.578695 0.06201,-0.871782 7.2e-5,-2.444768 -1.267603,-4.426682 -2.831352,-4.426603 z m 9.176702,0 c 1.563749,-7.8e-5 2.831423,1.981836 2.831351,4.426603 -0.0013,1.972263 -0.837011,3.705285 -2.049487,4.24987 -0.236833,-1.544688 -1.613303,-2.854057 -3.551204,-3.378088 -0.03908,-0.286667 -0.05985,-0.578695 -0.06201,-0.871782 -7.2e-5,-2.444768 1.267603,-4.426682 2.831352,-4.426603 z"
       transform="translate(0.26458362,0.26458362)" /><path
       id="path13"
       style="display:none;fill:none;fill-opacity:1;stroke:#a5a5a5;stroke-width:1.05833;stroke-linecap:round;stroke-dasharray:none;stroke-opacity:1;paint-order:markers fill stroke"
       d="m 16.38763,17.197916 c -1.15987,0 -2.10013,1.414093 -2.10013,3.158464 0.0015,1.028979 0.336289,1.99232 0.897103,2.581754 0.631116,-0.810414 1.625132,-1.447567 2.840136,-1.776118 0.03908,-0.286668 0.05985,-0.578695 0.06201,-0.871782 2.8e-5,-0.947815 -0.192317,-1.823877 -0.516764,-2.544031 -0.348567,-0.357179 -0.760569,-0.548235 -1.182355,-0.548287 z m 6.91224,0 c 1.15987,0 2.10013,1.414093 2.10013,3.158464 -0.0015,1.028979 -0.336289,1.99232 -0.897103,2.581754 -0.631116,-0.810414 -1.625132,-1.447567 -2.840136,-1.776118 -0.03908,-0.286668 -0.05985,-0.578695 -0.06201,-0.871782 -2.8e-5,-0.947815 0.192317,-1.823877 0.516764,-2.544031 0.348567,-0.357179 0.760569,-0.548235 1.182355,-0.548287 z"
       transform="translate(0.26458362,0.26458362)" /><path
       id="path16"
       style="display:inline;fill:#a5a5a5;fill-opacity:1;stroke:none;stroke-width:1.05833;stroke-linecap:round;stroke-dasharray:none;stroke-opacity:1;paint-order:markers fill stroke"
       d="m 16.850651,18.388541 c -0.721494,0 -1.30638,0.910646 -1.30638,2.033985 7.15e-4,0.65404 0.20339,1.267644 0.544669,1.648995 0.54292,-0.396564 1.1983,-0.710077 1.935799,-0.909505 0.03908,-0.286668 0.05985,-0.578695 0.06201,-0.871782 7e-6,-0.223785 -0.01139,-0.443163 -0.03204,-0.657841 -0.20414,-0.753933 -0.678556,-1.244027 -1.204061,-1.243852 z m 5.986198,0 c 0.721494,0 1.30638,0.910646 1.30638,2.033985 -7.15e-4,0.65404 -0.20339,1.267644 -0.544669,1.648995 -0.54292,-0.396564 -1.1983,-0.710077 -1.935799,-0.909505 -0.03908,-0.286668 -0.05985,-0.578695 -0.06201,-0.871782 -7e-6,-0.223785 0.01139,-0.443163 0.03204,-0.657841 0.20414,-0.753933 0.678556,-1.244027 1.204061,-1.243852 z"
       transform="translate(0.26458362,0.26458362)" /><path
       id="path19"
       style="display:inline;fill:#a5a5a5;fill-opacity:1;stroke:none;stroke-width:1.05833;stroke-linecap:round;stroke-dasharray:none;stroke-opacity:1;paint-order:markers fill stroke"
       d="m 11.377083,23.018749 c -1.852083,1.852084 -1.5875,3.704167 0.529167,5.027084 0.264583,1.852083 1.058333,2.38125 3.174999,2.116666 1.058334,1.5875 2.645834,1.852084 5.027084,1.058334 2.38125,0.79375 3.96875,0.529166 5.027083,-1.058334 2.116667,0.264584 2.910417,-0.264583 3.175,-2.116666 2.116667,-1.322917 2.38125,-3.175 0.529167,-5.027084 -0.143109,1.287979 -1.529193,2.263393 -3.395659,2.890263 a 5.4104137,4.0874968 0 0 1 -5.335591,3.446301 5.4104137,4.0874968 0 0 1 -5.335592,-3.446301 c -1.866465,-0.62687 -3.25255,-1.602284 -3.395658,-2.890263 z" /><path
       id="path25"
       style="display:inline;fill:#a5a5a5;fill-opacity:1;stroke:#a5a5a5;stroke-width:1.05833;stroke-linecap:round;stroke-dasharray:none;stroke-opacity:1;paint-order:markers fill stroke"
       d="m 16.143824,31.213073 -0.0041,0.0015 c 0.137886,1.657749 0.707099,2.953865 1.482597,3.815788 0.464397,-0.949999 1.428723,-1.553129 2.486153,-1.554944 1.057665,2.5e-4 2.023053,0.602215 2.488737,1.551843 0.774125,-0.861929 1.342281,-2.156846 1.480013,-3.812687 l -0.0041,-0.0015 c -0.207867,0.126211 -0.430277,0.223167 -0.666109,0.294556 l -0.490759,-1.143446 c 0,0 0.764157,1.650392 0.63185,1.914991 -0.132292,0.264583 -2.116666,0.529167 -3.439583,0.529167 -1.322917,0 -3.307291,-0.264584 -3.439583,-0.529167 -0.132292,-0.264583 0.132292,-0.768945 0.132292,-0.768945 l 0.655288,-1.178032 c -0.235943,-0.0714 -1.104644,1.00715 -1.312598,0.880876 z m 6.450769,3.816854 c -0.04344,0.04829 -0.0876,0.09553 -0.132291,0.141077 0.04476,-0.04561 0.08879,-0.09272 0.132291,-0.141077 z m -4.967138,0.0062 c 0.03836,0.0425 0.07745,0.08366 0.116788,0.124024 -0.03938,-0.0404 -0.07838,-0.08149 -0.116788,-0.124024 z m 4.833296,0.136426 c -0.04184,0.0426 -0.08425,0.08384 -0.127124,0.124024 0.04289,-0.04017 0.08527,-0.08142 0.127124,-0.124024 z m -4.694803,0.01034 c 0.03774,0.03816 0.07615,0.07491 0.114721,0.111104 -0.03856,-0.03619 -0.07699,-0.07295 -0.114721,-0.111104 z m 4.545975,0.133842 c -0.04151,0.03836 -0.08369,0.07502 -0.12609,0.111104 0.04238,-0.03605 0.0846,-0.07278 0.12609,-0.111104 z m -4.400765,0.0057 c 0.03346,0.03077 0.06725,0.06062 0.101286,0.08992 -0.03397,-0.02926 -0.06789,-0.05919 -0.101286,-0.08992 z m 4.260722,0.117305 c -0.04219,0.03558 -0.08464,0.07004 -0.127641,0.103353 0.04296,-0.03326 0.08549,-0.06783 0.127641,-0.103353 z m -4.106726,0.01757 c 0.03143,0.02613 0.0632,0.0516 0.09509,0.07648 -0.03191,-0.02492 -0.06362,-0.05031 -0.09509,-0.07648 z m 3.953764,0.10542 c -0.03867,0.02945 -0.07751,0.05817 -0.116789,0.08578 0.03925,-0.02758 0.07814,-0.05637 0.116789,-0.08578 z m -3.808036,0.0098 c 0.03353,0.02529 0.06731,0.04998 0.101285,0.0739 -0.03399,-0.02394 -0.06775,-0.04858 -0.101285,-0.0739 z m 3.646805,0.106453 c -0.03868,0.02637 -0.07758,0.05189 -0.116788,0.07648 0.03925,-0.0246 0.07807,-0.0501 0.116788,-0.07648 z m -3.490743,0.0052 c 0.0321,0.02175 0.06418,0.04304 0.09663,0.06356 -0.03248,-0.02055 -0.06452,-0.04179 -0.09663,-0.06356 z m 3.348633,0.08682 c -0.0414,0.02549 -0.08313,0.0504 -0.125057,0.0739 0.04203,-0.02353 0.08356,-0.04837 0.125057,-0.0739 z m -3.19412,0.0124 c 0.03351,0.02031 0.06691,0.04042 0.100769,0.05943 -0.03376,-0.01898 -0.06735,-0.03916 -0.100769,-0.05943 z m 3.026172,0.08475 c -0.03861,0.02093 -0.07726,0.04122 -0.116272,0.06046 0.03897,-0.0192 0.0777,-0.03958 0.116272,-0.06046 z m -2.869076,0.0052 c 0.03377,0.01815 0.06773,0.03585 0.101803,0.05271 -0.03407,-0.01687 -0.06804,-0.03455 -0.101803,-0.05271 z m 2.706295,0.07751 c -0.03501,0.0166 -0.07013,0.03282 -0.10542,0.04806 0.03531,-0.01522 0.07039,-0.03147 0.10542,-0.04806 z m -2.541964,0.0052 c 0.03249,0.01524 0.06494,0.03037 0.09767,0.04444 -0.03269,-0.01407 -0.06521,-0.0292 -0.09767,-0.04444 z m 0.161231,0.07028 c 0.03284,0.01329 0.06566,0.02665 0.0987,0.03876 -0.03307,-0.01214 -0.06584,-0.02544 -0.0987,-0.03876 z m 2.206583,0.001 c -0.03276,0.01326 -0.06574,0.02616 -0.0987,0.03824 0.03299,-0.01207 0.06591,-0.02499 0.0987,-0.03824 z m -0.174149,0.06408 c -0.02715,0.0092 -0.05438,0.0185 -0.08165,0.02687 0.02728,-0.0084 0.05448,-0.01771 0.08165,-0.02687 z m -1.853117,10e-4 c 0.02702,0.0091 0.054,0.01858 0.08113,0.02687 -0.02718,-0.0083 -0.05406,-0.01777 -0.08113,-0.02687 z m 0.157613,0.04806 c 0.03203,0.0089 0.06396,0.01807 0.09612,0.02584 -0.03212,-0.0078 -0.06413,-0.01697 -0.09612,-0.02584 z m 1.524972,0.0031 c -0.02788,0.0076 -0.05574,0.01542 -0.08372,0.02222 0.02798,-0.0068 0.05583,-0.0146 0.08372,-0.02222 z m -1.345655,0.04082 c 0.02547,0.0054 0.05095,0.01133 0.07648,0.01602 -0.02553,-0.0047 -0.05102,-0.01063 -0.07648,-0.01602 z m 1.158586,0.0041 c -0.01896,0.0039 -0.03785,0.0084 -0.05684,0.01188 0.01897,-0.0035 0.03791,-0.008 0.05684,-0.01188 z m -0.820105,0.04703 c 0.02776,0.0025 0.05541,0.0056 0.0832,0.0072 -0.02778,-0.0017 -0.05545,-0.0047 -0.0832,-0.0072 z m 0.499194,0 c -0.02778,0.0025 -0.05539,0.0056 -0.0832,0.0072 0.02779,-0.0017 0.05544,-0.0047 0.0832,-0.0072 z" /><path
       id="path28"
       style="display:inline;fill:none;fill-opacity:1;stroke:none;stroke-width:1.05833;stroke-linecap:round;stroke-dasharray:none;stroke-opacity:1;paint-order:markers fill stroke"
       d="m 20.108333,31.220833 c -1.333938,0.444645 -2.416684,0.55374 -3.298507,0.286804 l -0.0088,0.0026 c 0,0 -0.264584,0.504362 -0.132292,0.768945 0.132292,0.264583 2.116667,0.529167 3.439584,0.529167 1.322917,0 3.307291,-0.264584 3.439583,-0.529167 0.132307,-0.264599 -0.132277,-0.768961 -0.132277,-0.768961 l -0.0088,-0.0026 c -0.881808,0.266952 -1.964553,0.157857 -3.298491,-0.286788 z" /><path
       id="path31"
       style="display:inline;fill:none;fill-opacity:1;stroke:#a5a5a5;stroke-width:1.05833;stroke-linecap:round;stroke-dasharray:none;stroke-opacity:1;paint-order:markers fill stroke"
       d="m 20.108333,33.475475 a 2.7726047,2.7726052 0 0 0 -2.486153,1.554944 c 0.712567,0.79198 1.599273,1.217497 2.486153,1.217497 0.887994,0 1.775714,-0.426699 2.488737,-1.220597 a 2.7726047,2.7726052 0 0 0 -2.488737,-1.551844 z" /><path
       id="path32"
       style="fill:none;fill-opacity:1;stroke:#a5a5a5;stroke-width:1.05833;stroke-linecap:round;stroke-dasharray:none;stroke-opacity:1;paint-order:markers fill stroke"
       d="m 20.108333,9.5250001 c -5.455788,0 -9.289434,3.1654499 -11.293367,6.8838169 0.851412,0.523649 1.656787,0.313576 2.590539,-0.192236 0.282482,-3.438203 2.977826,-4.405693 5.00848,-2.668571 1.056307,-0.349731 2.27061,-0.583427 3.694348,-0.583427 1.42401,0 2.638556,0.233846 3.694865,0.583427 2.029402,-1.73572 4.722255,-0.770642 5.007446,2.66237 0.930131,0.500543 1.731417,0.704117 2.577103,0.172599 C 29.379974,12.67581 25.551472,9.5250001 20.108333,9.5250001 Z" /><path
       id="path35"
       style="fill:none;fill-opacity:1;stroke:#a5a5a5;stroke-width:1.05833;stroke-linecap:round;stroke-dasharray:none;stroke-opacity:1;paint-order:markers fill stroke"
       d="m 20.108333,1.8520836 c -5.027084,0 -8.202083,1.5875004 -12.9645828,7.4083332 -3.5239397,4.3070362 -3.7140999,8.9021972 -2.093929,12.0736812 0.00153,-8.05e-4 0.00312,-0.0013 0.00465,-0.0021 0.094716,-0.04964 0.1910985,-0.09121 0.2883545,-0.127124 0.023015,-0.0085 0.046141,-0.01495 0.069247,-0.02274 0.073541,-0.02476 0.1471369,-0.04672 0.2211751,-0.0646 0.030565,-0.0074 0.060894,-0.01385 0.091467,-0.02015 0.068407,-0.01405 0.1365561,-0.02522 0.2046386,-0.03411 0.031318,-0.0041 0.062363,-0.0093 0.093534,-0.0124 0.093416,-0.0092 0.186278,-0.01515 0.2775024,-0.01602 0.3607141,-0.0034 0.6992787,0.05317 0.9746175,0.131775 l 0.00465,0.0041 C 7.8916008,15.887271 12.371102,9.5250001 20.108333,9.5250001 c 7.736813,0 12.217698,6.3615739 12.829707,11.6447669 l 0.0036,-0.0031 c 0.275339,-0.0786 0.613903,-0.135205 0.974617,-0.131775 0.407871,0.0039 0.844119,0.08595 1.250053,0.299723 C 36.78684,18.16311 36.597084,13.567732 33.072916,9.2604168 28.310416,3.439584 25.135417,1.8520836 20.108333,1.8520836 Z M 32.97163,23.227005 c -0.0031,0.03388 -0.0063,0.06761 -0.0098,0.101286 0.0034,-0.03372 0.0068,-0.06735 0.0098,-0.101286 z m -0.08113,0.626319 c -0.0066,0.03864 -0.01201,0.07797 -0.01912,0.116272 0.0071,-0.0384 0.01261,-0.07754 0.01912,-0.116272 z" /><path
       id="path41"
       style="display:inline;fill:none;fill-opacity:1;stroke:#a5a5a5;stroke-width:1.05833;stroke-linecap:round;stroke-dasharray:none;stroke-opacity:1;paint-order:markers fill stroke"
       d="m 6.0359141,20.7703 c -1.2882645,0.01225 -2.8608072,0.793233 -2.8608072,4.100524 0,4.233333 4.9445937,6.083543 5.1066649,5.55625 l 0.00155,-0.0016 C 7.721721,29.056399 7.5617593,27.526511 7.9376068,25.929158 7.083776,24.648412 6.7900827,22.84973 7.0151825,20.906209 l -0.00465,-0.0041 C 6.7351928,20.823473 6.3966282,20.76687 6.0359141,20.7703 Z m 27.6158849,0 c -0.360714,-0.0034 -0.699278,0.05317 -0.974617,0.131774 l -0.0047,0.0041 c 0.2251,1.943521 -0.06859,3.742203 -0.922425,5.022949 0.375848,1.597353 0.215886,3.127241 -0.345715,4.496366 l 0.0015,0.0016 c 0.05815,0.189193 0.734871,0.06665 1.575098,-0.356567 -0.03963,-0.08674 -0.07319,-0.173776 -0.09612,-0.260966 -0.118152,-0.455397 -0.0126,-0.877515 0.384989,-1.258838 l 2.851506,-3.505212 c 0.09084,-0.119303 0.238911,-0.186157 0.39119,-0.174667 0,-3.307291 -1.572543,-4.088274 -2.860807,-4.100524 z"
       transform="translate(0.26458362,0.26458362)" /><path
       id="path45"
       style="fill:none;fill-opacity:1;stroke:#a5a5a5;stroke-width:1.05833;stroke-linecap:round;stroke-dasharray:none;stroke-opacity:1;paint-order:markers fill stroke"
       d="m 20.189465,3.9687502 c -5.108277,0 -6.695716,4.7622617 -4.843632,6.4549028 l 0.0052,0.0047 c 1.414478,-0.569319 3.000027,-0.9033039 4.757333,-0.9033039 1.757305,0 3.342854,0.3339849 4.757332,0.9033039 l 0.0052,-0.0052 C 26.722916,8.7313231 25.297742,3.9687502 20.189465,3.9687502 Z" /><path
       style="fill:#a5a5a5;fill-opacity:1;stroke:none;stroke-width:1.05833;stroke-linecap:round;stroke-dasharray:none;stroke-opacity:1;paint-order:markers fill stroke"
       d="m 16.668749,8.4666668 2.38125,-3.4395833 1.058334,1.5410839 1.058333,-1.5410839 2.38125,3.4395833 -1.058333,0.79375 -1.322917,-2.38125 -1.058333,1.3229167 -1.058334,-1.3229167 -1.322916,2.38125 z"
       id="path48" /><path
       style="fill:none;fill-opacity:1;stroke:#a5a5a5;stroke-width:1.05833;stroke-linecap:round;stroke-dasharray:none;stroke-opacity:1;paint-order:markers fill stroke"
       d="M 7.927164,25.727506 7.3065813,23.771287 5.9861981,23.283333 m 26.3033039,2.444173 0.620583,-1.956219 1.320383,-0.487954"
       id="path49" /><ellipse
       style="display:inline;fill:none;fill-opacity:1;stroke:#a5a5a5;stroke-width:1.05833;stroke-linecap:round;stroke-dasharray:none;stroke-opacity:1;paint-order:markers fill stroke"
       id="path9"
       cx="20.108334"
       cy="25.267708"
       rx="5.4104137"
       ry="4.0874968" /><path
       style="display:inline;fill:#a5a5a5;fill-opacity:1;stroke:none;stroke-width:1.05833;stroke-linecap:round;stroke-dasharray:none;stroke-opacity:1;paint-order:markers fill stroke"
       d="m 11.146445,17.311026 c -0.529167,-6.085416 5.291666,-6.614583 6.879166,-0.79375 -3.009635,-2.965538 -5.368836,-2.678906 -6.879166,0.79375 z m 17.39461,0 c 0.529167,-6.085416 -5.291666,-6.614583 -6.879166,-0.79375 3.009635,-2.965538 5.368836,-2.678906 6.879166,0.79375 z"
       id="path10"
       transform="translate(0.26458362,0.26458362)" /><path
       d="m 34.948977,32.982833 c -0.831848,1.082979 -1.75645,2.103421 -2.891207,2.990231 -1.138879,0.892678 -2.503134,1.655925 -4.206602,2.227289 -0.125877,0.03949 -0.236858,0.02284 -0.330797,-0.03177 -0.14206,-0.07965 -0.277069,-0.227958 -0.405104,-0.401154 -0.09973,-0.134909 -0.217546,-0.343855 -0.339086,-0.571191 -0.488775,-0.891907 -1.092827,-1.998865 -2.231276,-1.660523 -0.02545,0.0075 -0.04479,0.01761 -0.06999,0.02354 l -3.854068,1.508525 c -0.01205,0.0046 -0.0264,0.01387 -0.03686,0.0188 -0.515949,0.251726 -0.783763,0.718967 -0.872895,1.28108 -0.0858,0.572337 0.02856,1.24763 0.256192,1.837778 0.301372,0.779517 0.832529,1.345462 1.479884,1.763478 0.615488,0.403512 1.326642,0.677094 2.018054,0.887736 1.085315,0.329674 2.141039,0.380956 3.253819,0.213837 1.088293,-0.165883 2.215874,-0.539935 3.466553,-1.075431 l 0.09211,-0.0413 c 0.573974,-0.249513 1.194082,-0.514803 1.8126,-0.845173 2.26623,-1.232682 4.674535,-3.142739 6.3934,-5.384722 1.441133,-1.881597 2.391484,-4.003739 2.370138,-6.164563 -0.01357,-1.185404 -0.351991,-2.312519 -1.113533,-3.136705 -0.663392,-0.721938 -1.629736,-1.207228 -2.963226,-1.287179 -0.152279,-0.01149 -0.300109,0.05552 -0.390945,0.174823 l -2.851688,3.505168 c -0.397588,0.381323 -0.502982,0.803208 -0.38483,1.258605 0.09808,0.372958 0.354002,0.742019 0.724224,1.10552 0.106393,0.122938 0.236326,0.251029 0.373474,0.385063 0.453542,0.445698 0.968286,0.95893 0.695002,1.430213 z"
       id="path1-5"
       style="fill:none;fill-opacity:1;stroke:#a5a5a5;stroke-width:1.05833;stroke-dasharray:none;stroke-opacity:1" /></g></svg>
