<?xml version="1.0" encoding="UTF-8" standalone="no"?>
<!-- Created with Inkscape (http://www.inkscape.org/) -->

<svg
   width="158.75mm"
   height="158.75mm"
   viewBox="0 0 158.75 158.75"
   version="1.1"
   id="svg1"
   xml:space="preserve"
   xmlns="http://www.w3.org/2000/svg"
   xmlns:svg="http://www.w3.org/2000/svg"><defs
     id="defs1"><linearGradient
       id="swatch2"><stop
         style="stop-color:#dfac06;stop-opacity:1;"
         offset="0"
         id="stop2" /></linearGradient></defs><g
     id="layer1"
     transform="translate(-25.659126,-69.159119)"><circle
       style="fill:#facd34;stroke-width:2.11591;stroke-linejoin:round;paint-order:markers stroke fill"
       id="circle1"
       cx="105.03413"
       cy="148.53412"
       r="79.375" /><circle
       style="fill:#ebb706;fill-opacity:1;stroke-width:1.86905;stroke-linejoin:round;paint-order:markers stroke fill"
       id="path1"
       cx="105.03413"
       cy="148.53412"
       r="70.114586" /><path
       style="fill:#d7a606;fill-opacity:1;stroke-width:2.115;stroke-linejoin:round;paint-order:markers stroke fill"
       id="path2"
       d="m 105.60502,92.341563 16.05482,31.218937 a 2.6206565,2.6206565 36.000002 0 0 1.91086,1.38832 l 34.65219,5.62187 a 0.68033035,0.68033035 72.000002 0 1 0.37392,1.1508 l -24.72977,24.91623 a 2.6206565,2.6206565 108 0 0 -0.72988,2.24635 l 5.36141,34.69344 a 0.68033035,0.68033035 144 0 1 -0.97894,0.71124 l -31.33866,-15.81987 a 2.6206565,2.6206565 2.1523409e-6 0 0 -2.36194,0 l -31.338665,15.81987 a 0.68033035,0.68033035 36.000002 0 1 -0.978934,-0.71124 l 5.361409,-34.69344 a 2.6206565,2.6206565 72.000002 0 0 -0.729882,-2.24635 L 51.403194,131.72149 a 0.68033035,0.68033035 108 0 1 0.373919,-1.15081 l 34.652191,-5.62186 a 2.6206565,2.6206565 144 0 0 1.910857,-1.38831 L 104.39499,92.341563 a 0.68033035,0.68033035 2.152341e-6 0 1 1.21003,0 z"
       transform="translate(-0.04802717)" /><g
       id="g6"
       transform="translate(0,3.9925961)"><path
         style="fill:#6e5403;fill-opacity:1;stroke-width:2.115;stroke-linejoin:round;paint-order:markers stroke fill"
         id="rect2"
         width="5.5694952"
         height="17.659374"
         x="96.175667"
         y="125.65324"
         ry="2.7847476"
         rx="0"
         transform="matrix(1.2571624,0,0,1.2571624,-26.16503,-32.313287)"
         d="m 98.960414,125.65324 c 1.542746,0 2.784746,1.24199 2.784746,2.78474 v 12.08988 c 0,1.54275 -1.242,2.78475 -2.784746,2.78475 -1.54275,0 -2.784747,-1.242 -2.784747,-2.78475 v -12.08988 c 0,-1.54275 1.241997,-2.78474 2.784747,-2.78474 z m 10.747566,0 c -1.54275,0 -2.78475,1.24199 -2.78475,2.78474 v 12.08988 c 0,1.54275 1.242,2.78475 2.78475,2.78475 1.54275,0 2.78475,-1.242 2.78475,-2.78475 v -12.08988 c 0,-1.54275 -1.242,-2.78474 -2.78475,-2.78474 z" /><path
         style="fill:#fce9a9;fill-opacity:1;stroke-width:2.115;stroke-linejoin:round;paint-order:markers stroke fill"
         id="path3"
         width="2.9867735"
         height="9.4702539"
         x="96.750893"
         y="128.6281"
         ry="1.4933867"
         d="m 98.244279,128.6281 c 0.827337,0 1.493387,0.66605 1.493387,1.49338 v 6.48348 c 0,0.82734 -0.66605,1.49339 -1.493387,1.49339 -0.827336,0 -1.493386,-0.66605 -1.493386,-1.49339 v -6.48348 c 0,-0.82733 0.66605,-1.49338 1.493386,-1.49338 z m 13.511441,0 c -0.82734,0 -1.49339,0.66605 -1.49339,1.49338 v 6.48348 c 0,0.82734 0.66605,1.49339 1.49339,1.49339 0.82734,0 1.49339,-0.66605 1.49339,-1.49339 v -6.48348 c 0,-0.82733 -0.66605,-1.49338 -1.49339,-1.49338 z" /></g></g></svg>
