<?xml version="1.0" encoding="UTF-8" standalone="no"?>
<!-- Created with Inkscape (http://www.inkscape.org/) -->

<svg
   width="450"
   height="450"
   viewBox="0 0 119.0625 119.0625"
   version="1.1"
   id="svg1"
   xml:space="preserve"
   xmlns="http://www.w3.org/2000/svg"
   xmlns:svg="http://www.w3.org/2000/svg"><defs
     id="defs1" /><g
     id="layer1"
     transform="translate(-107.27865,-103.60445)"><g
       id="g29"
       transform="translate(19.104568,-41.895038)"
       style="display:inline"><g
         id="g17"
         style="stroke:#a5a5a5;stroke-width:1.8;stroke-dasharray:none;stroke-opacity:1;paint-order:markers fill stroke"
         transform="translate(4.7763752e-6,1.187015)"><path
           id="path16"
           style="fill:none;fill-opacity:1;stroke:#a5a5a5;stroke-width:1.8;stroke-linecap:round;stroke-dasharray:none;stroke-opacity:1;paint-order:markers fill stroke"
           d="m 152.20687,199.80987 c -0.14563,0.13975 -0.2915,0.2846 -0.43719,0.43149 0.92499,0.52894 1.77413,1.11278 2.54972,1.7446 l 0.5333,-1.47123 z" /><path
           id="path17"
           style="display:inline;fill:none;fill-opacity:1;stroke:#a5a5a5;stroke-width:1.8;stroke-linecap:round;stroke-linejoin:round;stroke-miterlimit:2.4;stroke-dasharray:none;stroke-opacity:1;paint-order:markers fill stroke"
           d="m 152.20687,199.80987 c -0.14522,0.14314 -0.28941,0.28784 -0.43254,0.43408 0.35543,0.20336 0.70048,0.41422 1.03353,0.63355 l 0.35709,-0.73742 z" /></g><path
         id="path18"
         style="fill:none;fill-opacity:1;stroke:#a5a5a5;stroke-width:1.8;stroke-linecap:round;stroke-dasharray:none;stroke-opacity:1;paint-order:markers fill stroke"
         d="m 157.25772,156.37015 c -9.60891,0 -15.74754,3.39523 -19.23965,8.12715 5.48047,7.42646 4.43352,18.14623 0,24.23108 2.0757,2.8488 4.89114,4.68343 8.12715,4.68343 0,0 -0.26458,-6.61459 0.39688,-7.9375 0.66146,-1.32291 2.77812,-3.96875 10.71562,-3.96875 7.9375,0 10.05417,2.64583 10.71563,3.96875 0.66146,1.32292 0.39687,7.9375 0.39687,7.9375 14.55209,0 20.6375,-37.04166 -11.1125,-37.04166 z" /><path
         id="path19"
         style="fill:none;fill-opacity:1;stroke:#a5a5a5;stroke-width:1.8;stroke-linecap:round;stroke-dasharray:none;stroke-opacity:1;paint-order:markers fill stroke"
         d="m 157.2576,181.50533 c -7.9375,0 -10.05416,2.64584 -10.71562,3.96875 -0.66146,1.32291 -0.39688,7.9375 -0.39688,7.9375 0,1.32292 1.85209,8.46666 11.1125,8.46666 9.26041,0 11.1125,-7.14374 11.1125,-8.46666 0,0 0.26459,-6.61458 -0.39687,-7.9375 -0.66146,-1.32292 -2.77813,-3.96875 -10.71563,-3.96875 z" /><path
         id="path20"
         style="display:inline;fill:#a5a5a5;fill-opacity:1;stroke:#a5a5a5;stroke-width:1.8;stroke-linecap:round;stroke-dasharray:none;stroke-opacity:1;paint-order:markers fill stroke"
         d="m 177.5557,166.09569 c 3.86378,6.42489 3.45228,15.31412 -0.021,21.02303 -1.87008,-2.97256 -2.89576,-6.89345 -2.90037,-10.40534 0.001,-3.7596 0.79998,-7.51376 2.92134,-10.61769 z" /><path
         style="fill:none;fill-opacity:1;stroke:#a5a5a5;stroke-width:2.5;stroke-linecap:round;stroke-dasharray:none;stroke-opacity:1;paint-order:markers fill stroke"
         d="m 152.49511,187.59075 v 1.45529"
         id="path22" /><path
         style="fill:none;fill-opacity:1;stroke:#a5a5a5;stroke-width:2.5;stroke-linecap:round;stroke-dasharray:none;stroke-opacity:1;paint-order:markers fill stroke"
         d="m 162.02011,187.44263 v 1.60341"
         id="path23" /><circle
         style="fill:#a5a5a5;fill-opacity:1;stroke:#a5a5a5;stroke-width:1.8;stroke-linecap:round;stroke-dasharray:none;stroke-opacity:1;paint-order:markers fill stroke"
         id="circle23"
         cx="157.25761"
         cy="167.61472"
         r="9.7912006" /><g
         id="g26"
         transform="translate(0,1.0583333)"
         style="stroke:#a5a5a5;stroke-width:1.8;stroke-dasharray:none;stroke-opacity:1;paint-order:markers fill stroke"><path
           style="fill:none;fill-opacity:1;stroke:#a5a5a5;stroke-width:1.8;stroke-linecap:round;stroke-dasharray:none;stroke-opacity:1;paint-order:markers fill stroke"
           d="m 162.54928,194.7345 c -2.11667,1.85208 -8.46667,1.85208 -10.58333,0"
           id="path24" /><path
           style="fill:none;fill-opacity:1;stroke:#a5a5a5;stroke-width:1.8;stroke-linecap:round;stroke-linejoin:round;stroke-miterlimit:2.4;stroke-dasharray:none;stroke-opacity:1;paint-order:markers fill stroke"
           d="m 151.66687,193.31817 0.29908,1.41633 -0.77827,1.04809"
           id="path25" /><path
           style="fill:none;fill-opacity:1;stroke:#a5a5a5;stroke-width:1.8;stroke-linecap:round;stroke-linejoin:round;stroke-miterlimit:2.4;stroke-dasharray:none;stroke-opacity:1;paint-order:markers fill stroke"
           d="m 162.84836,193.31817 -0.29908,1.41633 0.77827,1.04809"
           id="path26" /></g><g
         id="g28"
         style="stroke:#a5a5a5;stroke-width:1.8;stroke-dasharray:none;stroke-opacity:1;paint-order:markers fill stroke"
         transform="matrix(-1,0,0,1,315.01044,1.187015)"><path
           id="path27"
           style="fill:none;fill-opacity:1;stroke:#a5a5a5;stroke-width:1.8;stroke-linecap:round;stroke-dasharray:none;stroke-opacity:1;paint-order:markers fill stroke"
           d="m 152.2068,199.80987 2.64583,0.66559 -0.49299,1.36529 c -0.76562,-0.60786 -1.60454,-1.16697 -2.51199,-1.67638 0.11969,-0.11966 0.23951,-0.23969 0.35915,-0.3545 z" /><path
           id="path28"
           style="display:inline;fill:none;fill-opacity:1;stroke:#a5a5a5;stroke-width:1.8;stroke-linecap:round;stroke-linejoin:round;stroke-miterlimit:2.4;stroke-dasharray:none;stroke-opacity:1;paint-order:markers fill stroke"
           d="m 152.2068,199.80987 0.95808,0.33021 -0.30592,0.63148 c -0.32524,-0.20945 -0.66152,-0.4107 -1.00769,-0.60513 0.11794,-0.11973 0.23618,-0.23891 0.35553,-0.35656 z" /></g></g><g
       id="g148"
       transform="translate(-19.37494,-41.895041)"
       style="display:inline"><path
         id="path134"
         style="display:inline;fill:none;fill-opacity:1;stroke:#a5a5a5;stroke-width:1.8;stroke-linecap:round;stroke-dasharray:none;stroke-opacity:1;paint-order:markers fill stroke"
         d="m 160.14457,200.43205 c -2.0851,0.33129 -3.84898,0.38477 -5.29167,0.0827 l -2.38332,6.56446 h 3.71037 c 1.0814,-1.92769 2.53856,-3.69507 4.41058,-5.19296 z"
         transform="translate(5.1295816e-6,1.1870147)" /><g
         id="g138"
         style="stroke:#a5a5a5;stroke-width:1.8;stroke-dasharray:none;stroke-opacity:1;paint-order:markers fill stroke"
         transform="translate(4.7763752e-6,1.187015)"><path
           style="fill:none;fill-opacity:1;stroke:#a5a5a5;stroke-width:1.8;stroke-linecap:round;stroke-dasharray:none;stroke-opacity:1;paint-order:markers fill stroke"
           d="m 152.20683,199.80977 c -2.67519,2.56723 -5.38562,6.38262 -7.17256,9.85496 -0.26742,0.51965 -0.003,0.94477 0.58167,0.94477 h 4.49793 c 0.63759,0 1.20931,-0.39273 1.4381,-0.98785 l 3.30069,-9.10674"
           id="path137" /><path
           style="display:inline;fill:#a5a5a5;fill-opacity:1;stroke:#a5a5a5;stroke-width:1.8;stroke-linecap:round;stroke-linejoin:round;stroke-miterlimit:2.4;stroke-dasharray:none;stroke-opacity:1;paint-order:markers fill stroke"
           d="m 146.36333,207.31632 h 2.81584 c 0.32191,0 0.61375,-0.18921 0.74513,-0.48309 l 3.2408,-6.69313 -0.95827,-0.33033 c -2.184,2.15291 -4.13183,4.65509 -5.8435,7.50655 z"
           id="path138" /></g><path
         style="fill:none;fill-opacity:1;stroke:#a5a5a5;stroke-width:1.8;stroke-linecap:round;stroke-dasharray:none;stroke-opacity:1;paint-order:markers fill stroke"
         d="m 146.14511,193.41158 c -14.55208,0 -20.6375,-37.04166 11.1125,-37.04166 31.75,0 25.66459,37.04166 11.1125,37.04166 0,0 0.26459,-6.61458 -0.39687,-7.9375 -0.66146,-1.32292 -2.77813,-3.96875 -10.71563,-3.96875 -7.9375,0 -10.05416,2.64584 -10.71562,3.96875 -0.66146,1.32291 -0.39688,7.9375 -0.39688,7.9375 z"
         id="path139" /><path
         id="path140"
         style="fill:none;fill-opacity:1;stroke:#a5a5a5;stroke-width:1.8;stroke-linecap:round;stroke-dasharray:none;stroke-opacity:1;paint-order:markers fill stroke"
         d="m 157.2576,181.50533 c -7.9375,0 -10.05416,2.64584 -10.71562,3.96875 -0.66146,1.32291 -0.39688,7.9375 -0.39688,7.9375 0,1.32292 1.85209,8.46666 11.1125,8.46666 9.26041,0 11.1125,-7.14374 11.1125,-8.46666 0,0 0.26459,-6.61458 -0.39687,-7.9375 -0.66146,-1.32292 -2.77813,-3.96875 -10.71563,-3.96875 z" /><path
         id="path141"
         style="display:inline;fill:#a5a5a5;fill-opacity:1;stroke:#a5a5a5;stroke-width:1.8;stroke-linecap:round;stroke-dasharray:none;stroke-opacity:1;paint-order:markers fill stroke"
         d="m 177.5557,166.09569 c 3.86378,6.42489 3.45228,15.31412 -0.021,21.02303 -1.87008,-2.97256 -2.89576,-6.89345 -2.90037,-10.40534 0.001,-3.7596 0.79998,-7.51376 2.92134,-10.61769 z" /><path
         id="path142"
         style="display:inline;fill:#a5a5a5;fill-opacity:1;stroke:#a5a5a5;stroke-width:1.8;stroke-linecap:round;stroke-dasharray:none;stroke-opacity:1;paint-order:markers fill stroke"
         d="m 136.95952,166.09569 c -3.87584,6.44643 -3.47,15.31667 0.021,21.02303 1.87008,-2.97256 2.89576,-6.89345 2.90037,-10.40534 -0.001,-3.7596 -0.80001,-7.51376 -2.92137,-10.61769 z" /><path
         style="fill:none;fill-opacity:1;stroke:#a5a5a5;stroke-width:2.5;stroke-linecap:round;stroke-dasharray:none;stroke-opacity:1;paint-order:markers fill stroke"
         d="m 152.49511,187.59075 v 1.45529"
         id="path143" /><path
         style="fill:none;fill-opacity:1;stroke:#a5a5a5;stroke-width:2.5;stroke-linecap:round;stroke-dasharray:none;stroke-opacity:1;paint-order:markers fill stroke"
         d="m 162.02011,187.44263 v 1.60341"
         id="path144" /><circle
         style="fill:#a5a5a5;fill-opacity:1;stroke:#a5a5a5;stroke-width:1.8;stroke-linecap:round;stroke-dasharray:none;stroke-opacity:1;paint-order:markers fill stroke"
         id="circle144"
         cx="157.25761"
         cy="167.61472"
         r="9.7912006" /><g
         id="g147"
         transform="translate(0,1.0583333)"
         style="stroke:#a5a5a5;stroke-width:1.8;stroke-dasharray:none;stroke-opacity:1;paint-order:markers fill stroke"><path
           style="fill:none;fill-opacity:1;stroke:#a5a5a5;stroke-width:1.8;stroke-linecap:round;stroke-dasharray:none;stroke-opacity:1;paint-order:markers fill stroke"
           d="m 162.54928,194.7345 c -2.11667,1.85208 -8.46667,1.85208 -10.58333,0"
           id="path145" /><path
           style="fill:none;fill-opacity:1;stroke:#a5a5a5;stroke-width:1.8;stroke-linecap:round;stroke-linejoin:round;stroke-miterlimit:2.4;stroke-dasharray:none;stroke-opacity:1;paint-order:markers fill stroke"
           d="m 151.66687,193.31817 0.29908,1.41633 -0.77827,1.04809"
           id="path146" /><path
           style="fill:none;fill-opacity:1;stroke:#a5a5a5;stroke-width:1.8;stroke-linecap:round;stroke-linejoin:round;stroke-miterlimit:2.4;stroke-dasharray:none;stroke-opacity:1;paint-order:markers fill stroke"
           d="m 162.84836,193.31817 -0.29908,1.41633 0.77827,1.04809"
           id="path147" /></g><g
         id="g9"
         style="stroke:#a5a5a5;stroke-width:1.8;stroke-dasharray:none;stroke-opacity:1;paint-order:markers fill stroke"
         transform="matrix(-1,0,0,1,315.01044,1.187015)"><path
           id="path2"
           style="fill:none;fill-opacity:1;stroke:#a5a5a5;stroke-width:1.8;stroke-linecap:round;stroke-dasharray:none;stroke-opacity:1;paint-order:markers fill stroke"
           d="m 152.2066,199.80987 2.64583,0.66559 -0.49196,1.36271 c -0.76569,-0.60741 -1.60088,-1.16895 -2.50837,-1.67794 0.11822,-0.11813 0.23633,-0.23697 0.3545,-0.35036 z" /><path
           id="path9"
           style="display:inline;fill:none;fill-opacity:1;stroke:#a5a5a5;stroke-width:1.8;stroke-linecap:round;stroke-linejoin:round;stroke-miterlimit:2.4;stroke-dasharray:none;stroke-opacity:1;paint-order:markers fill stroke"
           d="m 152.2066,199.80987 0.9586,0.33021 -0.30386,0.62735 c -0.32523,-0.20924 -0.66,-0.41142 -1.00614,-0.60565 0.1165,-0.11823 0.23352,-0.23571 0.3514,-0.35191 z" /></g></g><g
       id="g58"
       transform="translate(38.479506)"
       style="display:inline"><path
         style="display:inline;fill:none;fill-opacity:1;stroke:#a5a5a5;stroke-width:1.8;stroke-linecap:round;stroke-dasharray:none;stroke-opacity:1;paint-order:markers fill stroke"
         d="m 154.85266,200.51491 c 1.44269,0.30209 3.20658,0.24819 5.29168,-0.0831 l 2.03909,6.64753 h -9.71398 z"
         id="path44"
         transform="translate(5.1295816e-6,1.1870147)" /><g
         id="g46"
         style="stroke:#a5a5a5;stroke-width:1.8;stroke-dasharray:none;stroke-opacity:1;paint-order:markers fill stroke"
         transform="translate(4.7763752e-6,1.187015)"><path
           style="fill:none;fill-opacity:1;stroke:#a5a5a5;stroke-width:1.8;stroke-linecap:round;stroke-dasharray:none;stroke-opacity:1;paint-order:markers fill stroke"
           d="m 152.20683,199.80977 c -2.67519,2.56723 -5.38562,6.38262 -7.17256,9.85496 -0.26742,0.51965 -0.003,0.94477 0.58167,0.94477 h 4.49793 c 0.63759,0 1.20931,-0.39273 1.4381,-0.98785 l 3.30069,-9.10674"
           id="path45" /><path
           style="display:inline;fill:#a5a5a5;fill-opacity:1;stroke:#a5a5a5;stroke-width:1.8;stroke-linecap:round;stroke-linejoin:round;stroke-miterlimit:2.4;stroke-dasharray:none;stroke-opacity:1;paint-order:markers fill stroke"
           d="m 146.36333,207.31632 h 2.81584 c 0.32191,0 0.61375,-0.18921 0.74513,-0.48309 l 3.2408,-6.69313 -0.95827,-0.33033 c -2.184,2.15291 -4.13183,4.65509 -5.8435,7.50655 z"
           id="path46" /></g><path
         id="path47"
         style="fill:none;fill-opacity:1;stroke:#a5a5a5;stroke-width:1.8;stroke-linecap:round;stroke-dasharray:none;stroke-opacity:1;paint-order:markers fill stroke"
         d="m 157.25783,156.36971 c -9.60894,0 -15.74806,3.39522 -19.24017,8.12715 5.48085,7.42648 4.43361,18.14663 0,24.2316 2.0757,2.84883 4.89164,4.68292 8.12767,4.68292 0,0 -0.26458,-6.61459 0.39688,-7.9375 0.66146,-1.32291 2.77812,-3.96875 10.71562,-3.96875 7.9375,0 10.05417,2.64583 10.71563,3.96875 0.66146,1.32292 0.39687,7.9375 0.39687,7.9375 14.55209,0 20.6375,-37.04167 -11.1125,-37.04167 z" /><path
         id="path48"
         style="fill:none;fill-opacity:1;stroke:#a5a5a5;stroke-width:1.8;stroke-linecap:round;stroke-dasharray:none;stroke-opacity:1;paint-order:markers fill stroke"
         d="m 157.2576,181.50533 c -7.9375,0 -10.05416,2.64584 -10.71562,3.96875 -0.66146,1.32291 -0.39688,7.9375 -0.39688,7.9375 0,1.32292 1.85209,8.46666 11.1125,8.46666 9.26041,0 11.1125,-7.14374 11.1125,-8.46666 0,0 0.26459,-6.61458 -0.39687,-7.9375 -0.66146,-1.32292 -2.77813,-3.96875 -10.71563,-3.96875 z" /><path
         id="path49"
         style="display:inline;fill:#a5a5a5;fill-opacity:1;stroke:#a5a5a5;stroke-width:1.8;stroke-linecap:round;stroke-dasharray:none;stroke-opacity:1;paint-order:markers fill stroke"
         d="m 177.5557,166.09569 c 3.86378,6.42489 3.45228,15.31412 -0.021,21.02303 -1.87008,-2.97256 -2.89576,-6.89345 -2.90037,-10.40534 0.001,-3.7596 0.79998,-7.51376 2.92134,-10.61769 z" /><path
         style="fill:none;fill-opacity:1;stroke:#a5a5a5;stroke-width:2.5;stroke-linecap:round;stroke-dasharray:none;stroke-opacity:1;paint-order:markers fill stroke"
         d="m 152.49511,187.59075 v 1.45529"
         id="path51" /><path
         style="fill:none;fill-opacity:1;stroke:#a5a5a5;stroke-width:2.5;stroke-linecap:round;stroke-dasharray:none;stroke-opacity:1;paint-order:markers fill stroke"
         d="m 162.02011,187.44263 v 1.60341"
         id="path52" /><circle
         style="fill:#a5a5a5;fill-opacity:1;stroke:#a5a5a5;stroke-width:1.8;stroke-linecap:round;stroke-dasharray:none;stroke-opacity:1;paint-order:markers fill stroke"
         id="circle52"
         cx="157.25761"
         cy="167.61472"
         r="9.7912006" /><g
         id="g55"
         transform="translate(0,1.0583333)"
         style="stroke:#a5a5a5;stroke-width:1.8;stroke-dasharray:none;stroke-opacity:1;paint-order:markers fill stroke"><path
           style="fill:none;fill-opacity:1;stroke:#a5a5a5;stroke-width:1.8;stroke-linecap:round;stroke-dasharray:none;stroke-opacity:1;paint-order:markers fill stroke"
           d="m 162.54928,194.7345 c -2.11667,1.85208 -8.46667,1.85208 -10.58333,0"
           id="path53" /><path
           style="fill:none;fill-opacity:1;stroke:#a5a5a5;stroke-width:1.8;stroke-linecap:round;stroke-linejoin:round;stroke-miterlimit:2.4;stroke-dasharray:none;stroke-opacity:1;paint-order:markers fill stroke"
           d="m 151.66687,193.31817 0.29908,1.41633 -0.77827,1.04809"
           id="path54" /><path
           style="fill:none;fill-opacity:1;stroke:#a5a5a5;stroke-width:1.8;stroke-linecap:round;stroke-linejoin:round;stroke-miterlimit:2.4;stroke-dasharray:none;stroke-opacity:1;paint-order:markers fill stroke"
           d="m 162.84836,193.31817 -0.29908,1.41633 0.77827,1.04809"
           id="path55" /></g><g
         id="g57"
         style="stroke:#a5a5a5;stroke-width:1.8;stroke-dasharray:none;stroke-opacity:1;paint-order:markers fill stroke"
         transform="matrix(-1,0,0,1,315.01044,1.187015)"><path
           style="fill:none;fill-opacity:1;stroke:#a5a5a5;stroke-width:1.8;stroke-linecap:round;stroke-dasharray:none;stroke-opacity:1;paint-order:markers fill stroke"
           d="m 152.20683,199.80977 c -2.67519,2.56723 -5.38562,6.38262 -7.17256,9.85496 -0.26742,0.51965 -0.003,0.94477 0.58167,0.94477 h 4.49793 c 0.63759,0 1.20931,-0.39273 1.4381,-0.98785 l 3.30069,-9.14604"
           id="path56" /><path
           style="display:inline;fill:#a5a5a5;fill-opacity:1;stroke:#a5a5a5;stroke-width:1.8;stroke-linecap:round;stroke-linejoin:round;stroke-miterlimit:2.4;stroke-dasharray:none;stroke-opacity:1;paint-order:markers fill stroke"
           d="m 146.36333,207.31632 h 2.81584 c 0.32191,0 0.61375,-0.18921 0.74513,-0.48309 l 3.2408,-6.69313 -0.95827,-0.33033 c -2.184,2.15291 -4.13183,4.65509 -5.8435,7.50655 z"
           id="path57" /></g></g><g
       id="g43"
       style="display:inline"><path
         style="display:inline;fill:none;fill-opacity:1;stroke:#a5a5a5;stroke-width:1.8;stroke-linecap:round;stroke-dasharray:none;stroke-opacity:1;paint-order:markers fill stroke"
         d="m 154.85266,200.51491 c 1.44269,0.30209 3.20658,0.24819 5.29168,-0.0831 l 2.03909,6.64753 h -9.71398 z"
         id="path29"
         transform="translate(5.1295816e-6,1.1870147)" /><g
         id="g31"
         style="stroke:#a5a5a5;stroke-width:1.8;stroke-dasharray:none;stroke-opacity:1;paint-order:markers fill stroke"
         transform="translate(4.7763752e-6,1.187015)"><path
           style="fill:none;fill-opacity:1;stroke:#a5a5a5;stroke-width:1.8;stroke-linecap:round;stroke-dasharray:none;stroke-opacity:1;paint-order:markers fill stroke"
           d="m 152.20683,199.80977 c -2.67519,2.56723 -5.38562,6.38262 -7.17256,9.85496 -0.26742,0.51965 -0.003,0.94477 0.58167,0.94477 h 4.49793 c 0.63759,0 1.20931,-0.39273 1.4381,-0.98785 l 3.30069,-9.10674"
           id="path30" /><path
           style="display:inline;fill:#a5a5a5;fill-opacity:1;stroke:#a5a5a5;stroke-width:1.8;stroke-linecap:round;stroke-linejoin:round;stroke-miterlimit:2.4;stroke-dasharray:none;stroke-opacity:1;paint-order:markers fill stroke"
           d="m 146.36333,207.31632 h 2.81584 c 0.32191,0 0.61375,-0.18921 0.74513,-0.48309 l 3.2408,-6.69313 -0.95827,-0.33033 c -2.184,2.15291 -4.13183,4.65509 -5.8435,7.50655 z"
           id="path31" /></g><path
         style="fill:none;fill-opacity:1;stroke:#a5a5a5;stroke-width:1.8;stroke-linecap:round;stroke-dasharray:none;stroke-opacity:1;paint-order:markers fill stroke"
         d="m 146.14511,193.41158 c -14.55208,0 -20.6375,-37.04166 11.1125,-37.04166 31.75,0 25.66459,37.04166 11.1125,37.04166 0,0 0.26459,-6.61458 -0.39687,-7.9375 -0.66146,-1.32292 -2.77813,-3.96875 -10.71563,-3.96875 -7.9375,0 -10.05416,2.64584 -10.71562,3.96875 -0.66146,1.32291 -0.39688,7.9375 -0.39688,7.9375 z"
         id="path32" /><path
         id="path33"
         style="fill:none;fill-opacity:1;stroke:#a5a5a5;stroke-width:1.8;stroke-linecap:round;stroke-dasharray:none;stroke-opacity:1;paint-order:markers fill stroke"
         d="m 157.2576,181.50533 c -7.9375,0 -10.05416,2.64584 -10.71562,3.96875 -0.66146,1.32291 -0.39688,7.9375 -0.39688,7.9375 0,1.32292 1.85209,8.46666 11.1125,8.46666 9.26041,0 11.1125,-7.14374 11.1125,-8.46666 0,0 0.26459,-6.61458 -0.39687,-7.9375 -0.66146,-1.32292 -2.77813,-3.96875 -10.71563,-3.96875 z" /><path
         id="path34"
         style="display:inline;fill:#a5a5a5;fill-opacity:1;stroke:#a5a5a5;stroke-width:1.8;stroke-linecap:round;stroke-dasharray:none;stroke-opacity:1;paint-order:markers fill stroke"
         d="m 177.5557,166.09569 c 3.86378,6.42489 3.45228,15.31412 -0.021,21.02303 -1.87008,-2.97256 -2.89576,-6.89345 -2.90037,-10.40534 0.001,-3.7596 0.79998,-7.51376 2.92134,-10.61769 z" /><path
         id="path35"
         style="display:inline;fill:#a5a5a5;fill-opacity:1;stroke:#a5a5a5;stroke-width:1.8;stroke-linecap:round;stroke-dasharray:none;stroke-opacity:1;paint-order:markers fill stroke"
         d="m 136.95952,166.09569 c -3.87584,6.44643 -3.47,15.31667 0.021,21.02303 1.87008,-2.97256 2.89576,-6.89345 2.90037,-10.40534 -0.001,-3.7596 -0.80001,-7.51376 -2.92137,-10.61769 z" /><path
         style="fill:none;fill-opacity:1;stroke:#a5a5a5;stroke-width:2.5;stroke-linecap:round;stroke-dasharray:none;stroke-opacity:1;paint-order:markers fill stroke"
         d="m 152.49511,187.59075 v 1.45529"
         id="path36" /><path
         style="fill:none;fill-opacity:1;stroke:#a5a5a5;stroke-width:2.5;stroke-linecap:round;stroke-dasharray:none;stroke-opacity:1;paint-order:markers fill stroke"
         d="m 162.02011,187.44263 v 1.60341"
         id="path37" /><circle
         style="fill:#a5a5a5;fill-opacity:1;stroke:#a5a5a5;stroke-width:1.8;stroke-linecap:round;stroke-dasharray:none;stroke-opacity:1;paint-order:markers fill stroke"
         id="circle37"
         cx="157.25761"
         cy="167.61472"
         r="9.7912006" /><g
         id="g40"
         transform="translate(0,1.0583333)"
         style="stroke:#a5a5a5;stroke-width:1.8;stroke-dasharray:none;stroke-opacity:1;paint-order:markers fill stroke"><path
           style="fill:none;fill-opacity:1;stroke:#a5a5a5;stroke-width:1.8;stroke-linecap:round;stroke-dasharray:none;stroke-opacity:1;paint-order:markers fill stroke"
           d="m 162.54928,194.7345 c -2.11667,1.85208 -8.46667,1.85208 -10.58333,0"
           id="path38" /><path
           style="fill:none;fill-opacity:1;stroke:#a5a5a5;stroke-width:1.8;stroke-linecap:round;stroke-linejoin:round;stroke-miterlimit:2.4;stroke-dasharray:none;stroke-opacity:1;paint-order:markers fill stroke"
           d="m 151.66687,193.31817 0.29908,1.41633 -0.77827,1.04809"
           id="path39" /><path
           style="fill:none;fill-opacity:1;stroke:#a5a5a5;stroke-width:1.8;stroke-linecap:round;stroke-linejoin:round;stroke-miterlimit:2.4;stroke-dasharray:none;stroke-opacity:1;paint-order:markers fill stroke"
           d="m 162.84836,193.31817 -0.29908,1.41633 0.77827,1.04809"
           id="path40" /></g><g
         id="g42"
         style="stroke:#a5a5a5;stroke-width:1.8;stroke-dasharray:none;stroke-opacity:1;paint-order:markers fill stroke"
         transform="matrix(-1,0,0,1,315.01044,1.187015)"><path
           style="fill:none;fill-opacity:1;stroke:#a5a5a5;stroke-width:1.8;stroke-linecap:round;stroke-dasharray:none;stroke-opacity:1;paint-order:markers fill stroke"
           d="m 152.20683,199.80977 c -2.67519,2.56723 -5.38562,6.38262 -7.17256,9.85496 -0.26742,0.51965 -0.003,0.94477 0.58167,0.94477 h 4.49793 c 0.63759,0 1.20931,-0.39273 1.4381,-0.98785 l 3.30069,-9.14604"
           id="path41" /><path
           style="display:inline;fill:#a5a5a5;fill-opacity:1;stroke:#a5a5a5;stroke-width:1.8;stroke-linecap:round;stroke-linejoin:round;stroke-miterlimit:2.4;stroke-dasharray:none;stroke-opacity:1;paint-order:markers fill stroke"
           d="m 146.36333,207.31632 h 2.81584 c 0.32191,0 0.61375,-0.18921 0.74513,-0.48309 l 3.2408,-6.69313 -0.95827,-0.33033 c -2.184,2.15291 -4.13183,4.65509 -5.8435,7.50655 z"
           id="path42" /></g></g></g></svg>
