<?xml version="1.0" encoding="UTF-8" standalone="no"?>
<!-- Created with Inkscape (http://www.inkscape.org/) -->

<svg
   width="450"
   height="450"
   viewBox="0 0 119.0625 119.0625"
   version="1.1"
   id="svg1"
   xml:space="preserve"
   xmlns="http://www.w3.org/2000/svg"
   xmlns:svg="http://www.w3.org/2000/svg"><defs
     id="defs1" /><g
     id="g233"
     style="display:inline;fill:#d6d6d6;fill-opacity:1;stroke:none"
     transform="translate(-107.27865,-103.60445)"><path
       id="path173"
       style="display:inline;fill:#d6d6d6;fill-opacity:1;stroke:none;stroke-width:0.926042;stroke-linecap:round;stroke-dasharray:none;stroke-opacity:1;paint-order:markers fill stroke"
       d="m 137.88281,110.24219 c -28.60224,0 -32.40607,27.60185 -21.83008,40.15039 1.93159,2.29185 4.42537,4.0975 7.35938,4.90039 0.65499,1.57321 1.66568,3.19235 3.0957,4.61328 -1.77817,2.28016 -3.40933,4.77379 -4.61328,7.11328 -1.72326,3.34864 0.61238,7.11524 4.3457,7.11524 h 3.94336 c -0.71422,8.26713 2.40019,16.75995 8.25,20.95703 1.3132,0.94218 2.77393,1.66272 4.35352,2.0957 0.65501,1.5732 1.66571,3.19245 3.0957,4.61328 -1.77817,2.28016 -3.40933,4.77379 -4.61328,7.11328 -1.72326,3.34864 0.61238,7.11524 4.3457,7.11524 h 4.49805 c 2.33281,0 4.408,-1.39836 5.30859,-3.53125 h 4.16602 c 0.90059,2.13289 2.97579,3.53125 5.30859,3.53125 h 4.49805 c 3.73222,0 6.06811,-3.76826 4.3457,-7.11524 -1.2547,-2.43811 -2.97048,-5.04639 -4.83789,-7.40039 1.28923,-1.35078 2.20962,-2.8571 2.82227,-4.32617 1.75906,-0.48004 3.35674,-1.31991 4.77148,-2.41406 1.4159,1.09496 3.01293,1.93608 4.77344,2.41601 0.65495,1.57162 1.66547,3.18961 3.09375,4.60938 -1.77854,2.28107 -3.40918,4.77545 -4.61328,7.11523 -1.73133,3.36432 0.59362,7.11524 4.3457,7.11524 h 4.49805 c 2.33281,0 4.408,-1.39836 5.30859,-3.53125 h 4.16407 c 0.90311,2.1398 2.97755,3.53125 5.31054,3.53125 h 4.4961 c 3.73221,0 6.06811,-3.76826 4.3457,-7.11524 -1.25443,-2.43758 -2.96885,-5.04605 -4.83594,-7.40039 1.28971,-1.35129 2.20964,-2.85853 2.82227,-4.32812 2.93476,-0.80259 5.42932,-2.60622 7.36133,-4.89844 10.4853,-12.44028 6.82195,-39.66219 -21.11329,-40.12891 0.61682,-0.54907 1.20444,-1.13224 1.73829,-1.76562 10.57609,-12.548 6.77202,-40.15039 -21.83008,-40.15039 -8.37257,0 -14.74719,2.36007 -19.23828,6.20312 -4.49171,-3.84346 -10.86727,-6.20312 -19.24024,-6.20312 z" /></g><g
     id="g12"
     style="display:inline"
     transform="translate(-107.27865,-103.60445)"><g
       id="g134"
       transform="translate(19.104568,-41.895039)"><path
         style="display:inline;fill:#fde1b0;fill-opacity:1;stroke:#1a1a1a;stroke-width:0.926042;stroke-linecap:round;stroke-dasharray:none;stroke-opacity:1;paint-order:markers fill stroke"
         d="m 154.85266,200.47561 5.29168,-0.0438 2.03909,6.64753 h -9.71398 z"
         id="path120"
         transform="translate(5.1295816e-6,1.1870147)" /><g
         id="g122"
         style="stroke:#1a1a1a;stroke-width:0.926042;stroke-dasharray:none;stroke-opacity:1;paint-order:markers fill stroke"
         transform="matrix(-1,0,0,1,315.01044,1.187015)"><path
           style="fill:#ffc051;fill-opacity:1;stroke:#1a1a1a;stroke-width:0.926042;stroke-linecap:round;stroke-dasharray:none;stroke-opacity:1;paint-order:markers fill stroke"
           d="m 152.20683,199.80977 c -2.67519,2.56723 -5.38562,6.38262 -7.17256,9.85496 -0.26742,0.51965 -0.003,0.94477 0.58167,0.94477 h 4.49793 c 0.63759,0 1.20931,-0.39273 1.4381,-0.98785 l 3.30069,-9.14604"
           id="path121" /><path
           style="display:inline;fill:#ea2f80;fill-opacity:1;stroke:none;stroke-width:0.926042;stroke-linecap:round;stroke-linejoin:round;stroke-miterlimit:2.4;stroke-dasharray:none;stroke-opacity:1;paint-order:markers fill stroke"
           d="m 146.3654,208.50333 h 2.81377 a 0.81618764,0.81618764 147.04307 0 0 0.74513,-0.48309 l 2.80607,-6.27714 a 0.48921408,0.48921408 66.839487 0 0 -0.28257,-0.66054 c -0.13309,-0.0474 -0.4131,0.0771 -0.62071,0.28275 -2.81565,2.7897 -4.74905,5.98167 -5.46169,7.13802 z"
           id="path122"
           transform="translate(0.52916174,-1.1870137)" /></g><g
         id="g124"
         style="stroke:#1a1a1a;stroke-width:0.926042;stroke-dasharray:none;stroke-opacity:1;paint-order:markers fill stroke"
         transform="translate(4.7763752e-6,1.187015)"><path
           style="fill:#ffc051;fill-opacity:1;stroke:#1a1a1a;stroke-width:0.926042;stroke-linecap:round;stroke-dasharray:none;stroke-opacity:1;paint-order:markers fill stroke"
           d="m 152.20683,199.80977 c -2.67519,2.56723 -5.38562,6.38262 -7.17256,9.85496 -0.26742,0.51965 -0.003,0.94477 0.58167,0.94477 h 4.49793 c 0.63759,0 1.20931,-0.39273 1.4381,-0.98785 l 3.30069,-9.14604"
           id="path123" /><path
           style="display:inline;fill:#ea2f80;fill-opacity:1;stroke:none;stroke-width:0.926042;stroke-linecap:round;stroke-linejoin:round;stroke-miterlimit:2.4;stroke-dasharray:none;stroke-opacity:1;paint-order:markers fill stroke"
           d="m 146.36333,208.50333 h 2.81584 a 0.81618764,0.81618764 147.04307 0 0 0.74513,-0.48309 l 2.80607,-6.27714 a 0.48921408,0.48921408 66.839487 0 0 -0.28257,-0.66054 c -0.13309,-0.0474 -0.4131,0.0771 -0.62071,0.28275 -2.81582,2.7897 -4.75112,5.98166 -5.46376,7.13802 z"
           id="path124"
           transform="translate(0.52916174,-1.1870137)" /></g><path
         style="fill:#fbfdfb;fill-opacity:1;stroke:#1a1a1a;stroke-width:0.926042;stroke-linecap:round;stroke-dasharray:none;stroke-opacity:1;paint-order:markers fill stroke"
         d="m 146.14511,193.41158 c -14.55208,0 -20.6375,-37.04166 11.1125,-37.04166 31.75,0 25.66459,37.04166 11.1125,37.04166 0,0 0.26459,-6.61458 -0.39687,-7.9375 -0.66146,-1.32292 -2.77813,-3.96875 -10.71563,-3.96875 -7.9375,0 -10.05416,2.64584 -10.71562,3.96875 -0.66146,1.32291 -0.39688,7.9375 -0.39688,7.9375 z"
         id="path125" /><path
         id="path126"
         style="fill:#fde1b0;fill-opacity:1;stroke:#1a1a1a;stroke-width:0.926042;stroke-linecap:round;stroke-dasharray:none;stroke-opacity:1;paint-order:markers fill stroke"
         d="m 157.2576,181.50533 c -7.9375,0 -10.05416,2.64584 -10.71562,3.96875 -0.66146,1.32291 -0.39688,7.9375 -0.39688,7.9375 0,1.32292 1.85209,8.46666 11.1125,8.46666 9.26041,0 11.1125,-7.14374 11.1125,-8.46666 0,0 0.26459,-6.61458 -0.39687,-7.9375 -0.66146,-1.32292 -2.77813,-3.96875 -10.71563,-3.96875 z" /><path
         id="path127"
         style="display:inline;fill:#ea2f80;fill-opacity:1;stroke:none;stroke-width:0.264583;stroke-linecap:round;stroke-dasharray:none;stroke-opacity:1;paint-order:markers fill stroke"
         d="m 177.02653,166.09569 c 3.86378,6.42489 3.45228,15.31412 -0.021,21.02303 -1.87008,-2.97256 -2.89576,-6.89345 -2.90037,-10.40534 10e-4,-3.7596 0.79998,-7.51376 2.92134,-10.61769 z" /><path
         id="path128"
         style="display:inline;fill:#ea2f80;fill-opacity:1;stroke:none;stroke-width:0.264583;stroke-linecap:round;stroke-dasharray:none;stroke-opacity:1;paint-order:markers fill stroke"
         d="m 137.48869,166.09569 c -3.87584,6.44643 -3.47,15.31667 0.021,21.02303 1.87008,-2.97256 2.89576,-6.89345 2.90037,-10.40534 -10e-4,-3.7596 -0.80001,-7.51376 -2.92137,-10.61769 z" /><path
         style="fill:none;fill-opacity:1;stroke:#1a1a1a;stroke-width:2.5;stroke-linecap:round;stroke-dasharray:none;stroke-opacity:1;paint-order:markers fill stroke"
         d="m 152.49511,187.59075 v 1.45529"
         id="path129" /><path
         style="fill:none;fill-opacity:1;stroke:#1a1a1a;stroke-width:2.5;stroke-linecap:round;stroke-dasharray:none;stroke-opacity:1;paint-order:markers fill stroke"
         d="m 162.02011,187.44263 v 1.60341"
         id="path130" /><circle
         style="fill:#ea2f80;fill-opacity:1;stroke:none;stroke-width:0.261349;stroke-linecap:round;stroke-dasharray:none;stroke-opacity:1;paint-order:markers fill stroke"
         id="circle130"
         cx="157.25761"
         cy="167.61472"
         r="9.7912006" /><g
         id="g133"
         transform="translate(0,1.0583333)"
         style="stroke:#1a1a1a;stroke-width:0.926042;stroke-dasharray:none;stroke-opacity:1;paint-order:markers fill stroke"><path
           style="fill:none;fill-opacity:1;stroke:#1a1a1a;stroke-width:0.926042;stroke-linecap:round;stroke-dasharray:none;stroke-opacity:1;paint-order:markers fill stroke"
           d="m 162.54928,194.7345 c -2.11667,1.85208 -8.46667,1.85208 -10.58333,0"
           id="path131" /><path
           style="fill:none;fill-opacity:1;stroke:#1a1a1a;stroke-width:0.926042;stroke-linecap:round;stroke-linejoin:round;stroke-miterlimit:2.4;stroke-dasharray:none;stroke-opacity:1;paint-order:markers fill stroke"
           d="m 151.66687,193.31817 0.29908,1.41633 -0.77827,1.04809"
           id="path132" /><path
           style="fill:none;fill-opacity:1;stroke:#1a1a1a;stroke-width:0.926042;stroke-linecap:round;stroke-linejoin:round;stroke-miterlimit:2.4;stroke-dasharray:none;stroke-opacity:1;paint-order:markers fill stroke"
           d="m 162.84836,193.31817 -0.29908,1.41633 0.77827,1.04809"
           id="path133" /></g></g><g
       id="g148"
       transform="translate(-19.374938,-41.895039)"><path
         style="display:inline;fill:#fde1b0;fill-opacity:1;stroke:#1a1a1a;stroke-width:0.926042;stroke-linecap:round;stroke-dasharray:none;stroke-opacity:1;paint-order:markers fill stroke"
         d="m 154.85266,200.47561 5.29168,-0.0438 2.03909,6.64753 h -9.71398 z"
         id="path134"
         transform="translate(5.1295816e-6,1.1870147)" /><g
         id="g136"
         style="stroke:#1a1a1a;stroke-width:0.926042;stroke-dasharray:none;stroke-opacity:1;paint-order:markers fill stroke"
         transform="matrix(-1,0,0,1,315.01044,1.187015)"><path
           style="fill:#ffc051;fill-opacity:1;stroke:#1a1a1a;stroke-width:0.926042;stroke-linecap:round;stroke-dasharray:none;stroke-opacity:1;paint-order:markers fill stroke"
           d="m 152.20683,199.80977 c -2.67519,2.56723 -5.38562,6.38262 -7.17256,9.85496 -0.26742,0.51965 -0.003,0.94477 0.58167,0.94477 h 4.49793 c 0.63759,0 1.20931,-0.39273 1.4381,-0.98785 l 3.30069,-9.14604"
           id="path135" /><path
           style="display:inline;fill:#ea2f80;fill-opacity:1;stroke:none;stroke-width:0.926042;stroke-linecap:round;stroke-linejoin:round;stroke-miterlimit:2.4;stroke-dasharray:none;stroke-opacity:1;paint-order:markers fill stroke"
           d="m 146.3654,208.50333 h 2.81377 a 0.81618764,0.81618764 147.04307 0 0 0.74513,-0.48309 l 2.80607,-6.27714 a 0.48921408,0.48921408 66.839487 0 0 -0.28257,-0.66054 c -0.13309,-0.0474 -0.4131,0.0771 -0.62071,0.28275 -2.81565,2.7897 -4.74905,5.98167 -5.46169,7.13802 z"
           id="path136"
           transform="translate(0.52916174,-1.1870137)" /></g><g
         id="g138"
         style="stroke:#1a1a1a;stroke-width:0.926042;stroke-dasharray:none;stroke-opacity:1;paint-order:markers fill stroke"
         transform="translate(4.7763752e-6,1.187015)"><path
           style="fill:#ffc051;fill-opacity:1;stroke:#1a1a1a;stroke-width:0.926042;stroke-linecap:round;stroke-dasharray:none;stroke-opacity:1;paint-order:markers fill stroke"
           d="m 152.20683,199.80977 c -2.67519,2.56723 -5.38562,6.38262 -7.17256,9.85496 -0.26742,0.51965 -0.003,0.94477 0.58167,0.94477 h 4.49793 c 0.63759,0 1.20931,-0.39273 1.4381,-0.98785 l 3.30069,-9.14604"
           id="path137" /><path
           style="display:inline;fill:#ea2f80;fill-opacity:1;stroke:none;stroke-width:0.926042;stroke-linecap:round;stroke-linejoin:round;stroke-miterlimit:2.4;stroke-dasharray:none;stroke-opacity:1;paint-order:markers fill stroke"
           d="m 146.36333,208.50333 h 2.81584 a 0.81618764,0.81618764 147.04307 0 0 0.74513,-0.48309 l 2.80607,-6.27714 a 0.48921408,0.48921408 66.839487 0 0 -0.28257,-0.66054 c -0.13309,-0.0474 -0.4131,0.0771 -0.62071,0.28275 -2.81582,2.7897 -4.75112,5.98166 -5.46376,7.13802 z"
           id="path138"
           transform="translate(0.52916174,-1.1870137)" /></g><path
         style="fill:#fbfdfb;fill-opacity:1;stroke:#1a1a1a;stroke-width:0.926042;stroke-linecap:round;stroke-dasharray:none;stroke-opacity:1;paint-order:markers fill stroke"
         d="m 146.14511,193.41158 c -14.55208,0 -20.6375,-37.04166 11.1125,-37.04166 31.75,0 25.66459,37.04166 11.1125,37.04166 0,0 0.26459,-6.61458 -0.39687,-7.9375 -0.66146,-1.32292 -2.77813,-3.96875 -10.71563,-3.96875 -7.9375,0 -10.05416,2.64584 -10.71562,3.96875 -0.66146,1.32291 -0.39688,7.9375 -0.39688,7.9375 z"
         id="path139" /><path
         id="path140"
         style="fill:#fde1b0;fill-opacity:1;stroke:#1a1a1a;stroke-width:0.926042;stroke-linecap:round;stroke-dasharray:none;stroke-opacity:1;paint-order:markers fill stroke"
         d="m 157.2576,181.50533 c -7.9375,0 -10.05416,2.64584 -10.71562,3.96875 -0.66146,1.32291 -0.39688,7.9375 -0.39688,7.9375 0,1.32292 1.85209,8.46666 11.1125,8.46666 9.26041,0 11.1125,-7.14374 11.1125,-8.46666 0,0 0.26459,-6.61458 -0.39687,-7.9375 -0.66146,-1.32292 -2.77813,-3.96875 -10.71563,-3.96875 z" /><path
         id="path141"
         style="display:inline;fill:#ea2f80;fill-opacity:1;stroke:none;stroke-width:0.264583;stroke-linecap:round;stroke-dasharray:none;stroke-opacity:1;paint-order:markers fill stroke"
         d="m 177.02653,166.09569 c 3.86378,6.42489 3.45228,15.31412 -0.021,21.02303 -1.87008,-2.97256 -2.89576,-6.89345 -2.90037,-10.40534 10e-4,-3.7596 0.79998,-7.51376 2.92134,-10.61769 z" /><path
         id="path142"
         style="display:inline;fill:#ea2f80;fill-opacity:1;stroke:none;stroke-width:0.264583;stroke-linecap:round;stroke-dasharray:none;stroke-opacity:1;paint-order:markers fill stroke"
         d="m 137.48869,166.09569 c -3.87584,6.44643 -3.47,15.31667 0.021,21.02303 1.87008,-2.97256 2.89576,-6.89345 2.90037,-10.40534 -10e-4,-3.7596 -0.80001,-7.51376 -2.92137,-10.61769 z" /><path
         style="fill:none;fill-opacity:1;stroke:#1a1a1a;stroke-width:2.5;stroke-linecap:round;stroke-dasharray:none;stroke-opacity:1;paint-order:markers fill stroke"
         d="m 152.49511,187.59075 v 1.45529"
         id="path143" /><path
         style="fill:none;fill-opacity:1;stroke:#1a1a1a;stroke-width:2.5;stroke-linecap:round;stroke-dasharray:none;stroke-opacity:1;paint-order:markers fill stroke"
         d="m 162.02011,187.44263 v 1.60341"
         id="path144" /><circle
         style="fill:#ea2f80;fill-opacity:1;stroke:none;stroke-width:0.261349;stroke-linecap:round;stroke-dasharray:none;stroke-opacity:1;paint-order:markers fill stroke"
         id="circle144"
         cx="157.25761"
         cy="167.61472"
         r="9.7912006" /><g
         id="g147"
         transform="translate(0,1.0583333)"
         style="stroke:#1a1a1a;stroke-width:0.926042;stroke-dasharray:none;stroke-opacity:1;paint-order:markers fill stroke"><path
           style="fill:none;fill-opacity:1;stroke:#1a1a1a;stroke-width:0.926042;stroke-linecap:round;stroke-dasharray:none;stroke-opacity:1;paint-order:markers fill stroke"
           d="m 162.54928,194.7345 c -2.11667,1.85208 -8.46667,1.85208 -10.58333,0"
           id="path145" /><path
           style="fill:none;fill-opacity:1;stroke:#1a1a1a;stroke-width:0.926042;stroke-linecap:round;stroke-linejoin:round;stroke-miterlimit:2.4;stroke-dasharray:none;stroke-opacity:1;paint-order:markers fill stroke"
           d="m 151.66687,193.31817 0.29908,1.41633 -0.77827,1.04809"
           id="path146" /><path
           style="fill:none;fill-opacity:1;stroke:#1a1a1a;stroke-width:0.926042;stroke-linecap:round;stroke-linejoin:round;stroke-miterlimit:2.4;stroke-dasharray:none;stroke-opacity:1;paint-order:markers fill stroke"
           d="m 162.84836,193.31817 -0.29908,1.41633 0.77827,1.04809"
           id="path147" /></g></g><g
       id="g117"
       transform="translate(38.479506)"><path
         style="display:inline;fill:#fde1b0;fill-opacity:1;stroke:#1a1a1a;stroke-width:0.926042;stroke-linecap:round;stroke-dasharray:none;stroke-opacity:1;paint-order:markers fill stroke"
         d="m 154.85266,200.47561 5.29168,-0.0438 2.03909,6.64753 h -9.71398 z"
         id="path103"
         transform="translate(5.1295816e-6,1.1870147)" /><g
         id="g105"
         style="stroke:#1a1a1a;stroke-width:0.926042;stroke-dasharray:none;stroke-opacity:1;paint-order:markers fill stroke"
         transform="matrix(-1,0,0,1,315.01044,1.187015)"><path
           style="fill:#ffc051;fill-opacity:1;stroke:#1a1a1a;stroke-width:0.926042;stroke-linecap:round;stroke-dasharray:none;stroke-opacity:1;paint-order:markers fill stroke"
           d="m 152.20683,199.80977 c -2.67519,2.56723 -5.38562,6.38262 -7.17256,9.85496 -0.26742,0.51965 -0.003,0.94477 0.58167,0.94477 h 4.49793 c 0.63759,0 1.20931,-0.39273 1.4381,-0.98785 l 3.30069,-9.14604"
           id="path104" /><path
           style="display:inline;fill:#ea2f80;fill-opacity:1;stroke:none;stroke-width:0.926042;stroke-linecap:round;stroke-linejoin:round;stroke-miterlimit:2.4;stroke-dasharray:none;stroke-opacity:1;paint-order:markers fill stroke"
           d="m 146.3654,208.50333 h 2.81377 a 0.81618764,0.81618764 147.04307 0 0 0.74513,-0.48309 l 2.80607,-6.27714 a 0.48921408,0.48921408 66.839487 0 0 -0.28257,-0.66054 c -0.13309,-0.0474 -0.4131,0.0771 -0.62071,0.28275 -2.81565,2.7897 -4.74905,5.98167 -5.46169,7.13802 z"
           id="path105"
           transform="translate(0.52916174,-1.1870137)" /></g><g
         id="g107"
         style="stroke:#1a1a1a;stroke-width:0.926042;stroke-dasharray:none;stroke-opacity:1;paint-order:markers fill stroke"
         transform="translate(4.7763752e-6,1.187015)"><path
           style="fill:#ffc051;fill-opacity:1;stroke:#1a1a1a;stroke-width:0.926042;stroke-linecap:round;stroke-dasharray:none;stroke-opacity:1;paint-order:markers fill stroke"
           d="m 152.20683,199.80977 c -2.67519,2.56723 -5.38562,6.38262 -7.17256,9.85496 -0.26742,0.51965 -0.003,0.94477 0.58167,0.94477 h 4.49793 c 0.63759,0 1.20931,-0.39273 1.4381,-0.98785 l 3.30069,-9.14604"
           id="path106" /><path
           style="display:inline;fill:#ea2f80;fill-opacity:1;stroke:none;stroke-width:0.926042;stroke-linecap:round;stroke-linejoin:round;stroke-miterlimit:2.4;stroke-dasharray:none;stroke-opacity:1;paint-order:markers fill stroke"
           d="m 146.36333,208.50333 h 2.81584 a 0.81618764,0.81618764 147.04307 0 0 0.74513,-0.48309 l 2.80607,-6.27714 a 0.48921408,0.48921408 66.839487 0 0 -0.28257,-0.66054 c -0.13309,-0.0474 -0.4131,0.0771 -0.62071,0.28275 -2.81582,2.7897 -4.75112,5.98166 -5.46376,7.13802 z"
           id="path107"
           transform="translate(0.52916174,-1.1870137)" /></g><path
         style="fill:#fbfdfb;fill-opacity:1;stroke:#1a1a1a;stroke-width:0.926042;stroke-linecap:round;stroke-dasharray:none;stroke-opacity:1;paint-order:markers fill stroke"
         d="m 146.14511,193.41158 c -14.55208,0 -20.6375,-37.04166 11.1125,-37.04166 31.75,0 25.66459,37.04166 11.1125,37.04166 0,0 0.26459,-6.61458 -0.39687,-7.9375 -0.66146,-1.32292 -2.77813,-3.96875 -10.71563,-3.96875 -7.9375,0 -10.05416,2.64584 -10.71562,3.96875 -0.66146,1.32291 -0.39688,7.9375 -0.39688,7.9375 z"
         id="path108" /><path
         id="path109"
         style="fill:#fde1b0;fill-opacity:1;stroke:#1a1a1a;stroke-width:0.926042;stroke-linecap:round;stroke-dasharray:none;stroke-opacity:1;paint-order:markers fill stroke"
         d="m 157.2576,181.50533 c -7.9375,0 -10.05416,2.64584 -10.71562,3.96875 -0.66146,1.32291 -0.39688,7.9375 -0.39688,7.9375 0,1.32292 1.85209,8.46666 11.1125,8.46666 9.26041,0 11.1125,-7.14374 11.1125,-8.46666 0,0 0.26459,-6.61458 -0.39687,-7.9375 -0.66146,-1.32292 -2.77813,-3.96875 -10.71563,-3.96875 z" /><path
         id="path110"
         style="display:inline;fill:#ea2f80;fill-opacity:1;stroke:none;stroke-width:0.264583;stroke-linecap:round;stroke-dasharray:none;stroke-opacity:1;paint-order:markers fill stroke"
         d="m 177.02653,166.09569 c 3.86378,6.42489 3.45228,15.31412 -0.021,21.02303 -1.87008,-2.97256 -2.89576,-6.89345 -2.90037,-10.40534 10e-4,-3.7596 0.79998,-7.51376 2.92134,-10.61769 z" /><path
         id="path111"
         style="display:inline;fill:#ea2f80;fill-opacity:1;stroke:none;stroke-width:0.264583;stroke-linecap:round;stroke-dasharray:none;stroke-opacity:1;paint-order:markers fill stroke"
         d="m 137.48869,166.09569 c -3.87584,6.44643 -3.47,15.31667 0.021,21.02303 1.87008,-2.97256 2.89576,-6.89345 2.90037,-10.40534 -10e-4,-3.7596 -0.80001,-7.51376 -2.92137,-10.61769 z" /><path
         style="fill:none;fill-opacity:1;stroke:#1a1a1a;stroke-width:2.5;stroke-linecap:round;stroke-dasharray:none;stroke-opacity:1;paint-order:markers fill stroke"
         d="m 152.49511,187.59075 v 1.45529"
         id="path112" /><path
         style="fill:none;fill-opacity:1;stroke:#1a1a1a;stroke-width:2.5;stroke-linecap:round;stroke-dasharray:none;stroke-opacity:1;paint-order:markers fill stroke"
         d="m 162.02011,187.44263 v 1.60341"
         id="path113" /><circle
         style="fill:#ea2f80;fill-opacity:1;stroke:none;stroke-width:0.261349;stroke-linecap:round;stroke-dasharray:none;stroke-opacity:1;paint-order:markers fill stroke"
         id="circle113"
         cx="157.25761"
         cy="167.61472"
         r="9.7912006" /><g
         id="g116"
         transform="translate(0,1.0583333)"
         style="stroke:#1a1a1a;stroke-width:0.926042;stroke-dasharray:none;stroke-opacity:1;paint-order:markers fill stroke"><path
           style="fill:none;fill-opacity:1;stroke:#1a1a1a;stroke-width:0.926042;stroke-linecap:round;stroke-dasharray:none;stroke-opacity:1;paint-order:markers fill stroke"
           d="m 162.54928,194.7345 c -2.11667,1.85208 -8.46667,1.85208 -10.58333,0"
           id="path114" /><path
           style="fill:none;fill-opacity:1;stroke:#1a1a1a;stroke-width:0.926042;stroke-linecap:round;stroke-linejoin:round;stroke-miterlimit:2.4;stroke-dasharray:none;stroke-opacity:1;paint-order:markers fill stroke"
           d="m 151.66687,193.31817 0.29908,1.41633 -0.77827,1.04809"
           id="path115" /><path
           style="fill:none;fill-opacity:1;stroke:#1a1a1a;stroke-width:0.926042;stroke-linecap:round;stroke-linejoin:round;stroke-miterlimit:2.4;stroke-dasharray:none;stroke-opacity:1;paint-order:markers fill stroke"
           d="m 162.84836,193.31817 -0.29908,1.41633 0.77827,1.04809"
           id="path116" /></g></g><g
       id="g82"
       transform="translate(19.81691,-42.170665)" /><g
       id="g15"><path
         style="display:inline;fill:#fde1b0;fill-opacity:1;stroke:#1a1a1a;stroke-width:0.926042;stroke-linecap:round;stroke-dasharray:none;stroke-opacity:1;paint-order:markers fill stroke"
         d="m 154.85266,200.47561 5.29168,-0.0438 2.03909,6.64753 h -9.71398 z"
         id="path3"
         transform="translate(5.1295816e-6,1.1870147)" /><g
         id="g11"
         style="stroke:#1a1a1a;stroke-width:0.926042;stroke-dasharray:none;stroke-opacity:1;paint-order:markers fill stroke"
         transform="matrix(-1,0,0,1,315.01044,1.187015)"><path
           style="fill:#ffc051;fill-opacity:1;stroke:#1a1a1a;stroke-width:0.926042;stroke-linecap:round;stroke-dasharray:none;stroke-opacity:1;paint-order:markers fill stroke"
           d="m 152.20683,199.80977 c -2.67519,2.56723 -5.38562,6.38262 -7.17256,9.85496 -0.26742,0.51965 -0.003,0.94477 0.58167,0.94477 h 4.49793 c 0.63759,0 1.20931,-0.39273 1.4381,-0.98785 l 3.30069,-9.14604"
           id="path10" /><path
           style="display:inline;fill:#ea2f80;fill-opacity:1;stroke:none;stroke-width:0.926042;stroke-linecap:round;stroke-linejoin:round;stroke-miterlimit:2.4;stroke-dasharray:none;stroke-opacity:1;paint-order:markers fill stroke"
           d="m 146.3654,208.50333 h 2.81377 a 0.81618764,0.81618764 147.04307 0 0 0.74513,-0.48309 l 2.80607,-6.27714 a 0.48921408,0.48921408 66.839487 0 0 -0.28257,-0.66054 c -0.13309,-0.0474 -0.4131,0.0771 -0.62071,0.28275 -2.81565,2.7897 -4.74905,5.98167 -5.46169,7.13802 z"
           id="path11"
           transform="translate(0.52916174,-1.1870137)" /></g><g
         id="g10"
         style="stroke:#1a1a1a;stroke-width:0.926042;stroke-dasharray:none;stroke-opacity:1;paint-order:markers fill stroke"
         transform="translate(4.7763752e-6,1.187015)"><path
           style="fill:#ffc051;fill-opacity:1;stroke:#1a1a1a;stroke-width:0.926042;stroke-linecap:round;stroke-dasharray:none;stroke-opacity:1;paint-order:markers fill stroke"
           d="m 152.20683,199.80977 c -2.67519,2.56723 -5.38562,6.38262 -7.17256,9.85496 -0.26742,0.51965 -0.003,0.94477 0.58167,0.94477 h 4.49793 c 0.63759,0 1.20931,-0.39273 1.4381,-0.98785 l 3.30069,-9.14604"
           id="path8" /><path
           style="display:inline;fill:#ea2f80;fill-opacity:1;stroke:none;stroke-width:0.926042;stroke-linecap:round;stroke-linejoin:round;stroke-miterlimit:2.4;stroke-dasharray:none;stroke-opacity:1;paint-order:markers fill stroke"
           d="m 146.36333,208.50333 h 2.81584 a 0.81618764,0.81618764 147.04307 0 0 0.74513,-0.48309 l 2.80607,-6.27714 a 0.48921408,0.48921408 66.839487 0 0 -0.28257,-0.66054 c -0.13309,-0.0474 -0.4131,0.0771 -0.62071,0.28275 -2.81582,2.7897 -4.75112,5.98166 -5.46376,7.13802 z"
           id="path4"
           transform="translate(0.52916174,-1.1870137)" /></g><path
         style="fill:#fbfdfb;fill-opacity:1;stroke:#1a1a1a;stroke-width:0.926042;stroke-linecap:round;stroke-dasharray:none;stroke-opacity:1;paint-order:markers fill stroke"
         d="m 146.14511,193.41158 c -14.55208,0 -20.6375,-37.04166 11.1125,-37.04166 31.75,0 25.66459,37.04166 11.1125,37.04166 0,0 0.26459,-6.61458 -0.39687,-7.9375 -0.66146,-1.32292 -2.77813,-3.96875 -10.71563,-3.96875 -7.9375,0 -10.05416,2.64584 -10.71562,3.96875 -0.66146,1.32291 -0.39688,7.9375 -0.39688,7.9375 z"
         id="path78" /><path
         id="path1"
         style="fill:#fde1b0;fill-opacity:1;stroke:#1a1a1a;stroke-width:0.926042;stroke-linecap:round;stroke-dasharray:none;stroke-opacity:1;paint-order:markers fill stroke"
         d="m 157.2576,181.50533 c -7.9375,0 -10.05416,2.64584 -10.71562,3.96875 -0.66146,1.32291 -0.39688,7.9375 -0.39688,7.9375 0,1.32292 1.85209,8.46666 11.1125,8.46666 9.26041,0 11.1125,-7.14374 11.1125,-8.46666 0,0 0.26459,-6.61458 -0.39687,-7.9375 -0.66146,-1.32292 -2.77813,-3.96875 -10.71563,-3.96875 z" /><path
         id="path179"
         style="display:inline;fill:#ea2f80;fill-opacity:1;stroke:none;stroke-width:0.264583;stroke-linecap:round;stroke-dasharray:none;stroke-opacity:1;paint-order:markers fill stroke"
         d="m 177.02653,166.09569 c 3.86378,6.42489 3.45228,15.31412 -0.021,21.02303 -1.87008,-2.97256 -2.89576,-6.89345 -2.90037,-10.40534 10e-4,-3.7596 0.79998,-7.51376 2.92134,-10.61769 z" /><path
         id="path177"
         style="display:inline;fill:#ea2f80;fill-opacity:1;stroke:none;stroke-width:0.264583;stroke-linecap:round;stroke-dasharray:none;stroke-opacity:1;paint-order:markers fill stroke"
         d="m 137.48869,166.09569 c -3.87584,6.44643 -3.47,15.31667 0.021,21.02303 1.87008,-2.97256 2.89576,-6.89345 2.90037,-10.40534 -10e-4,-3.7596 -0.80001,-7.51376 -2.92137,-10.61769 z" /><path
         style="fill:none;fill-opacity:1;stroke:#1a1a1a;stroke-width:2.5;stroke-linecap:round;stroke-dasharray:none;stroke-opacity:1;paint-order:markers fill stroke"
         d="m 152.49511,187.59075 v 1.45529"
         id="path5" /><path
         style="fill:none;fill-opacity:1;stroke:#1a1a1a;stroke-width:2.5;stroke-linecap:round;stroke-dasharray:none;stroke-opacity:1;paint-order:markers fill stroke"
         d="m 162.02011,187.44263 v 1.60341"
         id="path6" /><circle
         style="fill:#ea2f80;fill-opacity:1;stroke:none;stroke-width:0.261349;stroke-linecap:round;stroke-dasharray:none;stroke-opacity:1;paint-order:markers fill stroke"
         id="path12"
         cx="157.25761"
         cy="167.61472"
         r="9.7912006" /><g
         id="g14"
         transform="translate(0,1.0583333)"
         style="stroke:#1a1a1a;stroke-width:0.926042;stroke-dasharray:none;stroke-opacity:1;paint-order:markers fill stroke"><path
           style="fill:none;fill-opacity:1;stroke:#1a1a1a;stroke-width:0.926042;stroke-linecap:round;stroke-dasharray:none;stroke-opacity:1;paint-order:markers fill stroke"
           d="m 162.54928,194.7345 c -2.11667,1.85208 -8.46667,1.85208 -10.58333,0"
           id="path7" /><path
           style="fill:none;fill-opacity:1;stroke:#1a1a1a;stroke-width:0.926042;stroke-linecap:round;stroke-linejoin:round;stroke-miterlimit:2.4;stroke-dasharray:none;stroke-opacity:1;paint-order:markers fill stroke"
           d="m 151.66687,193.31817 0.29908,1.41633 -0.77827,1.04809"
           id="path14" /><path
           style="fill:none;fill-opacity:1;stroke:#1a1a1a;stroke-width:0.926042;stroke-linecap:round;stroke-linejoin:round;stroke-miterlimit:2.4;stroke-dasharray:none;stroke-opacity:1;paint-order:markers fill stroke"
           d="m 162.84836,193.31817 -0.29908,1.41633 0.77827,1.04809"
           id="path15" /></g></g></g></svg>
